<svg width="551" height="741" viewBox="0 0 551 741" fill="none" xmlns="http://www.w3.org/2000/svg">
<rect width="551" height="741" fill="#1A97BA"/>
<g clip-path="url(#clip0_583_4)">
<path d="M93.0999 287C93.0999 286.2 93.2 283.9 93.2 283C93.2 278.9 91.8 277.1 88 277C86.2 276.9 85.2 275.8 85.2 274.3C85.2 272.8 86.3 271.7 88 271.6C91.8 271.4 93.2 269.6 93.2 265.5C93.2 264.6 93.0999 262.3 93.0999 261.5C93.0999 256.1 95.4 252.6 104 250.7C105.7 250.3 107.1 251.4 107.1 253C107.1 254.3 106.2 255.1 105.5 255.3C100.1 257 99.2999 258.7 99.2999 262.5C99.2999 263.6 99.4 265.5 99.4 266.6C99.4 270.9 97.2999 273.1 93.5999 274.2C97.2999 275.4 99.4 277.5 99.4 281.8C99.4 283 99.2999 284.8 99.2999 285.9C99.2999 289.7 100.1 291.4 105.5 293.1C106.2 293.3 107.1 294 107.1 295.4C107.1 297 105.8 298.1 104 297.7C95.3 295.9 93.0999 292.5 93.0999 287Z" fill="#EBEBEB"/>
<path d="M125.7 261.5C125.7 262.3 125.6 264.6 125.6 265.5C125.6 269.6 127.1 271.4 130.9 271.6C132.6 271.7 133.7 272.8 133.7 274.3C133.7 275.8 132.6 276.9 130.9 277C127.1 277.1 125.6 279 125.6 283C125.6 283.9 125.7 286.2 125.7 287C125.7 292.5 123.4 295.9 114.8 297.8C113.1 298.2 111.7 297.1 111.7 295.5C111.7 294.2 112.6 293.4 113.3 293.2C118.7 291.5 119.4 289.8 119.4 286C119.4 284.9 119.3 283 119.3 281.9C119.3 277.6 121.4 275.4 125.1 274.3C121.4 273.1 119.3 271 119.3 266.7C119.3 265.5 119.4 263.7 119.4 262.6C119.4 258.8 118.6 257.1 113.3 255.4C112.6 255.2 111.7 254.5 111.7 253.1C111.7 251.5 113 250.4 114.8 250.8C123.4 252.7 125.7 256.1 125.7 261.5Z" fill="#EBEBEB"/>
<path d="M233.1 214.4C234.4 215.7 234.4 217.8 233.1 219.1C232.4 219.7 231.6 220 230.8 220C229.9 220 229.1 219.7 228.4 219.1L213.8 204.3C213.6 204.2 213.6 204.1 213.5 204C213.4 203.9 213.3 203.9 213.3 203.9C213.2 203.7 213.2 203.6 213.1 203.5C213 203.4 212.9 203.3 212.9 203.3C212.8 203.2 212.8 203 212.8 203C212.8 202.8 212.7 202.8 212.7 202.7C212.7 202.5 212.7 202.4 212.7 202.3C212.7 202.2 212.6 202.1 212.6 202C212.6 201.9 212.7 201.8 212.7 201.7C212.7 201.6 212.7 201.4 212.7 201.3C212.7 201.2 212.8 201.1 212.8 201.1C212.9 200.9 212.9 200.8 212.9 200.7C212.9 200.6 213 200.6 213 200.6C213.1 200.4 213.2 200.2 213.3 200.1C213.3 200.1 213.3 200 213.4 200C213.5 199.9 213.6 199.7 213.7 199.6L228.3 184.8C229.6 183.6 231.7 183.6 233 184.8C234.3 186.1 234.3 188.2 233 189.5L220.8 202L233.1 214.4Z" fill="#EBEBEB"/>
<path d="M246.3 216.1L259 185.8C259.6 184.3 261.3 183.7 262.8 184.3C264.2 184.9 264.9 186.6 264.3 188L251.6 218.3C251.1 219.4 250 220 249 220C248.7 220 248.3 219.9 248 219.8C246.4 219.2 245.7 217.5 246.3 216.1Z" fill="#EBEBEB"/>
<path d="M289.4 203.9C289.2 204.1 289.1 204.2 289 204.3L274.4 219.1C273.8 219.7 272.9 220 272.1 220C271.2 220 270.4 219.7 269.8 219.1C268.5 217.8 268.5 215.8 269.8 214.4L282 202L269.7 189.6C268.4 188.3 268.4 186.2 269.7 184.9C270.9 183.7 273.1 183.7 274.4 184.9L289 199.7C289.2 199.8 289.3 200 289.4 200.1C289.5 200.1 289.5 200.2 289.5 200.2C289.6 200.4 289.7 200.5 289.8 200.7C289.8 200.8 289.9 200.8 289.9 200.8C290 201 290 201.1 290.1 201.3C290.1 201.4 290.2 201.4 290.2 201.5C290.2 201.6 290.2 201.8 290.2 201.9C290.2 202 290.3 202.1 290.3 202.2C290.3 202.3 290.2 202.4 290.2 202.5C290.2 202.7 290.2 202.8 290.2 202.9C290.2 203 290.1 203 290.1 203C290 203.2 290 203.4 289.9 203.5C289.9 203.6 289.8 203.6 289.8 203.7C289.6 203.5 289.5 203.7 289.4 203.9Z" fill="#EBEBEB"/>
<path d="M104.4 521.5V395.8L77.7001 359.3V291" stroke="#EBEBEB" stroke-miterlimit="10"/>
<path d="M80.1 288.6C80.1 289.9 79 291 77.7 291C76.4 291 75.3 289.9 75.3 288.6C75.3 287.3 76.4 286.2 77.7 286.2C79 286.3 80.1 287.3 80.1 288.6Z" stroke="#EBEBEB" stroke-miterlimit="10"/>
<path d="M97.6 521.5V400.2L70.8 363.7V316" stroke="#EBEBEB" stroke-miterlimit="10"/>
<path d="M73.2 313.6C73.2 314.9 72.1 316 70.8 316C69.5 316 68.4 314.9 68.4 313.6C68.4 312.3 69.5 311.2 70.8 311.2C72.1 311.3 73.2 312.3 73.2 313.6Z" stroke="#EBEBEB" stroke-miterlimit="10"/>
<path d="M111.1 521.5V355" stroke="#EBEBEB" stroke-miterlimit="10"/>
<path d="M113.5 352.7C113.5 354 112.4 355.1 111.1 355.1C109.8 355.1 108.7 354 108.7 352.7C108.7 351.4 109.8 350.3 111.1 350.3C112.4 350.3 113.5 351.4 113.5 352.7Z" stroke="#EBEBEB" stroke-miterlimit="10"/>
<path d="M117.5 521.5V436.9L135.6 402.7V341.3" stroke="#EBEBEB" stroke-miterlimit="10"/>
<path d="M138 338.9C138 340.2 136.9 341.3 135.6 341.3C134.3 341.3 133.2 340.2 133.2 338.9C133.2 337.6 134.3 336.5 135.6 336.5C136.9 336.5 138 337.6 138 338.9Z" stroke="#EBEBEB" stroke-miterlimit="10"/>
<path d="M123.8 521.5V440.5L145.2 402.7V362.3" stroke="#EBEBEB" stroke-miterlimit="10"/>
<path d="M147.6 359.9C147.6 361.2 146.5 362.3 145.2 362.3C143.9 362.3 142.8 361.2 142.8 359.9C142.8 358.6 143.9 357.5 145.2 357.5C146.5 357.5 147.6 358.6 147.6 359.9Z" stroke="#EBEBEB" stroke-miterlimit="10"/>
<path d="M436.1 521.5V455.8L462.8 419.3V381" stroke="#EBEBEB" stroke-miterlimit="10"/>
<path d="M460.4 378.6C460.4 379.9 461.5 381 462.8 381C464.1 381 465.2 379.9 465.2 378.6C465.2 377.3 464.1 376.2 462.8 376.2C461.5 376.3 460.4 377.3 460.4 378.6Z" stroke="#EBEBEB" stroke-miterlimit="10"/>
<path d="M443 521.5V460.2L469.7 423.7V406" stroke="#EBEBEB" stroke-miterlimit="10"/>
<path d="M467.3 403.6C467.3 404.9 468.4 406 469.7 406C471 406 472.1 404.9 472.1 403.6C472.1 402.3 471 401.2 469.7 401.2C468.4 401.3 467.3 402.3 467.3 403.6Z" stroke="#EBEBEB" stroke-miterlimit="10"/>
<path d="M429.4 521.5V415" stroke="#EBEBEB" stroke-miterlimit="10"/>
<path d="M427.1 412.7C427.1 414 428.2 415.1 429.5 415.1C430.8 415.1 431.9 414 431.9 412.7C431.9 411.4 430.8 410.3 429.5 410.3C428.1 410.3 427.1 411.4 427.1 412.7Z" stroke="#EBEBEB" stroke-miterlimit="10"/>
<path d="M423.1 521.5V466.9L404.9 432.7V371.3" stroke="#EBEBEB" stroke-miterlimit="10"/>
<path d="M402.5 368.9C402.5 370.2 403.6 371.3 404.9 371.3C406.2 371.3 407.3 370.2 407.3 368.9C407.3 367.6 406.2 366.5 404.9 366.5C403.6 366.5 402.5 367.6 402.5 368.9Z" stroke="#EBEBEB" stroke-miterlimit="10"/>
<path d="M416.7 521.5V470.5L395.3 432.7V392.3" stroke="#EBEBEB" stroke-miterlimit="10"/>
<path d="M392.9 389.9C392.9 391.2 394 392.3 395.3 392.3C396.6 392.3 397.7 391.2 397.7 389.9C397.7 388.6 396.6 387.5 395.3 387.5C394 387.5 392.9 388.6 392.9 389.9Z" stroke="#EBEBEB" stroke-miterlimit="10"/>
<path d="M270.3 557.2C381.585 557.2 471.8 549.992 471.8 541.1C471.8 532.208 381.585 525 270.3 525C159.015 525 68.8 532.208 68.8 541.1C68.8 549.992 159.015 557.2 270.3 557.2Z" fill="#EBEBEB"/>
<path d="M74.7 521.6H195.8L171.7 381.1H81.1L74.7 521.6Z" fill="#DBDBDB"/>
<path d="M74.7 521.6H85.3L91.2999 381.1H81.1L74.7 521.6Z" fill="#A6A6A6"/>
<path d="M61 521.6L113.3 521.4L165.6 521.3L270.3 521.1L374.9 521.3L427.2 521.4L479.5 521.6L427.2 521.9L374.9 522L270.3 522.1L165.6 522L113.3 521.9L61 521.6Z" fill="#263238"/>
<path d="M287.3 520.4H280.1V525.1H287.3V520.4Z" fill="#455A64"/>
<path d="M296.6 520.1H289.4V524.8H296.6V520.1Z" fill="#455A64"/>
<path d="M305.9 519.7H298.7V524.4H305.9V519.7Z" fill="#455A64"/>
<path d="M315.2 519.4H308V524.1H315.2V519.4Z" fill="#455A64"/>
<path d="M324.6 519.1H317.4V523.8H324.6V519.1Z" fill="#455A64"/>
<path d="M333.9 518.8H326.7V523.5H333.9V518.8Z" fill="#455A64"/>
<path d="M343.2 518.5H336V523.2H343.2V518.5Z" fill="#455A64"/>
<path d="M352.5 518.2H345.3V522.9H352.5V518.2Z" fill="#455A64"/>
<path d="M361.8 517.9H354.6V522.6H361.8V517.9Z" fill="#455A64"/>
<path d="M363.6 527.8H278.3V522L363.6 519.7V527.8Z" fill="#37474F"/>
<path d="M446.7 505.3H306.1L328.4 400.5H469.1L446.7 505.3Z" fill="#455A64"/>
<path d="M451.9 505.3H311.3L333.6 400.5H474.3L451.9 505.3Z" fill="#37474F"/>
<path d="M404 455.1C403.2 459.9 398.7 463.8 393.9 463.8C389.1 463.8 385.8 459.9 386.6 455.1C387.4 450.3 391.9 446.4 396.7 446.4C401.5 446.4 404.8 450.3 404 455.1Z" fill="#263238"/>
<path d="M386.3 420.5L383 436.4H379.9L383.3 420.5H386.3Z" fill="#263238"/>
<path d="M392.9 420.5L389.5 436.4H386.4L389.8 420.5H392.9Z" fill="#263238"/>
<path d="M399.4 420.5L396 436.4H393L396.4 420.5H399.4Z" fill="#263238"/>
<path d="M406 420.5L402.6 436.4H399.5L402.9 420.5H406Z" fill="#263238"/>
<path d="M412.5 420.5L409.1 436.4H406.1L409.5 420.5H412.5Z" fill="#263238"/>
<path d="M419.1 420.5L415.7 436.4H412.6L416 420.5H419.1Z" fill="#263238"/>
<path d="M410.2 532.6H341V527.2L410.2 525V532.6Z" fill="#455A64"/>
<path d="M429 532.6H391.8L369.4 473.9H406.6L429 532.6Z" fill="#455A64"/>
<path d="M435.1 532.6H397.9L375.6 473.9H412.7L435.1 532.6Z" fill="#263238"/>
<path d="M294 534C294 534 228.8 534 222.7 534C216.6 534 225.4 516.7 247.6 510C269.9 503.4 301 527.5 294 534Z" fill="#37474F"/>
<path d="M266 534C266.1 532 266.4 530.1 267 528.2C267.6 526.3 268.4 524.5 269.4 522.8C270.4 521.1 271.7 519.5 273.2 518.2C274.6 516.8 276.4 515.9 278.2 515.1C277.4 515.7 276.6 516.2 275.9 516.8L274.8 517.7L273.8 518.7C272.5 520.1 271.3 521.6 270.3 523.3C269.3 524.9 268.5 526.7 267.8 528.5C267.1 530.3 266.5 532.1 266 534Z" fill="#263238"/>
<path d="M274.5 517.5C276.6 518.2 278.7 519 280.6 520C282.6 521 284.5 522.1 286.3 523.4C288.1 524.7 289.8 526.2 291.3 527.9C292 528.8 292.6 529.7 293.1 530.7C293.6 531.7 293.9 532.8 293.9 533.9C293.6 532.8 293.2 531.8 292.6 530.9C292 530 291.4 529.1 290.6 528.3C289.1 526.7 287.4 525.4 285.6 524.1C283.8 522.8 282 521.7 280.1 520.6C279.2 520 278.2 519.5 277.2 519C276.5 518.6 275.5 518.1 274.5 517.5Z" fill="#263238"/>
<path d="M170.2 315.7C166.8 309.1 154.6 295.4 140.1 302.8C119.4 313.3 127.8 356.4 120.6 372.5C107.4 401.8 113.2 425.6 130.5 424.9C149.8 424.1 162.1 399.8 149.9 357.8C142.2 331.6 146.5 317.8 151.9 317.2C157.4 316.5 162.1 322.4 162.1 322.4L170.2 315.7Z" fill="#263238"/>
<path d="M168.7 313.3C166.7 310.4 164.4 307.6 161.8 305.2C159.1 302.8 156.1 300.8 152.6 299.6C149.1 298.4 145.2 298.3 141.7 299.5C138.2 300.6 134.9 302.5 132.3 305.1C129.7 307.7 127.8 311 126.6 314.4C125.4 317.8 124.6 321.4 124.2 324.9C123.4 332 123.8 339.1 124.6 346.2C124.5 339.1 124.8 332.1 125.8 325.1C126.4 321.7 127.1 318.3 128.4 315.1C129.6 311.9 131.4 308.9 133.8 306.5C136.2 304.1 139.2 302.3 142.4 301.3C145.6 300.2 149 300.2 152.3 301.1C155.6 302 158.6 303.8 161.4 305.9C162.8 306.9 164.1 308.1 165.4 309.3C166.3 310.6 167.5 311.9 168.7 313.3Z" fill="#263238"/>
<path d="M145.9 343.2C146.8 347.4 148.2 351.6 149.4 355.7C150.7 359.8 152 364 153.1 368.1C154.2 372.3 155.3 376.4 156 380.7C156.7 384.9 157.2 389.2 157.1 393.4C157 397.6 156.4 401.9 154.8 405.7C153.2 409.5 150.7 413.1 147.8 416.2C144.9 419.2 141.3 421.7 137.3 423.1C135.3 423.8 133.2 424.3 131.1 424.5C130 424.6 129 424.6 127.9 424.5C126.8 424.4 125.7 424.3 124.7 424C126.7 424.9 128.9 425 131.1 425C133.3 425 135.5 424.6 137.6 424C139.7 423.4 141.8 422.5 143.7 421.4C145.6 420.3 147.4 418.9 149 417.3C150.6 415.8 152 414.1 153.3 412.2L154.2 410.8L155.1 409.4C155.7 408.5 156.2 407.4 156.6 406.4C158.4 402.3 159.1 397.8 159.2 393.4C159.3 384.5 157.3 375.9 154.7 367.6C153.4 363.4 151.9 359.4 150.4 355.3C148.8 351.4 147.3 347.3 145.9 343.2Z" fill="#263238"/>
<path d="M171.4 315.5C171.1 313.5 169.2 311.2 167.8 311C166.4 310.9 157.6 316.7 157.2 319.3C156.8 321.9 161.5 323.3 161.5 323.3L171.4 315.5Z" fill="#FFC727"/>
<path d="M172.3 408.5C201.8 426.3 243.2 444.7 257.7 441.9C269.4 439.7 313.4 407.8 315.6 405.9C321 401.3 295.2 360.5 288.7 364.4C280.5 369.2 249.1 399.7 245.5 399.7C241.8 399.7 215.2 396.1 184.8 391.7C163.8 388.8 154 397.5 172.3 408.5Z" fill="#AD6359"/>
<path d="M296.1 350.6C303.1 347 310.9 342.3 319.2 341.4C327.4 340.5 335.7 350.4 336.1 353.5C336.5 356.6 336 376.4 327.8 377.5C319.6 378.6 322.6 363.1 322 361.4C321.5 359.7 320.9 357.6 319.3 358C317.8 358.4 292.4 374.8 292.4 374.8L296.1 350.6Z" fill="#AD6359"/>
<path d="M296.8 351.7C297.3 351.6 318.1 340 326.3 339.1C334.5 338.2 342.8 348.1 343.2 351.2C343.6 354.3 343.1 374.1 334.9 375.2C326.7 376.3 329.7 360.8 329.1 359.1C328.6 357.4 328 355.3 326.4 355.7C324.9 356.1 299.5 372.5 299.5 372.5L296.8 351.7Z" fill="#AD6359"/>
<path d="M332 374.5C330.8 373.3 330.4 371.4 330 369.8C329.6 368.1 329.5 366.3 329.6 364.5C329.7 363 330.1 361.4 330 359.9C329.9 358.5 329.1 356.9 328.3 355.7C327.5 354.6 326.4 355.2 325.4 355.7C323.9 356.4 322.6 357.4 321.2 358.3C319.7 359.3 318.3 360.3 316.8 361.3C315.3 362.3 313.7 363.3 312.4 364.6C312.3 364.7 312.4 364.9 312.5 364.8C313.9 364.1 315.1 363.2 316.4 362.4C317.9 361.5 319.3 360.5 320.8 359.6C322.2 358.8 323.5 357.8 324.9 357C325.4 356.7 326.4 356 327 356.1C327.6 356.2 328.2 357.7 328.4 358.1C329 359.6 328.9 361 328.7 362.6C328.5 364.1 328.4 365.7 328.5 367.2C328.6 368.6 328.8 370.1 329.4 371.4C330 372.7 331 373.6 331.8 374.7C331.9 374.8 332.1 374.6 332 374.5Z" fill="#263238"/>
<path d="M273.6 376.7C273.6 376.7 293.6 352.9 297.8 348.2C306.2 338.7 344 317 349.5 315.7C355 314.4 358.5 325.5 333 341C319.5 349.2 318.1 357.7 318.9 362.2C319.8 366.7 325.2 374.6 332.9 373.4C340.5 372.2 344 360.4 350.8 358.2C357.7 356 354.7 369.5 350.8 377.6C346.8 385.7 338.7 393 332.4 396.4C326.1 399.8 306.8 411.3 306.8 411.3L273.6 376.7Z" fill="#AD6359"/>
<path d="M341.7 366.7C339.1 369.3 336.2 372.6 332.5 373.3C328.6 374 325.7 371.8 323.5 368.8C321.2 365.8 319.7 362.3 320.1 358.5C320.5 355.1 322 351.9 324.2 349.2C326.9 345.9 330.2 343.3 333.6 340.9C333.8 340.8 333.6 340.6 333.4 340.7C330.1 342.7 319.7 348.7 318.8 358.6C318.4 362.7 320.1 366 322.4 369.1C324.5 371.9 327.4 374.5 331.1 374.3C335.7 374.1 339.1 369.9 341.9 366.7C342 366.7 341.8 366.6 341.7 366.7Z" fill="#263238"/>
<path d="M241.8 396.7L207.7 429.1C207.7 429.1 185 419 168 406.9C150.9 394.8 168.5 387.3 196.7 390.2C224.7 393.1 241.8 396.7 241.8 396.7Z" fill="#FFC727"/>
<path d="M199.5 425.2C199.3 425.1 199.2 425.1 199.1 425C199.1 424.9 199.1 424.9 199.1 424.8C198.9 422.1 198.5 419.3 197.5 416.8C197 415.6 196.2 414.4 195.1 413.7C194.5 413.3 193.9 413.1 193.3 413C192.7 412.9 192 412.9 191.3 412.9C188.6 413 185.9 413.6 183.3 414.5C182.6 414.7 181.9 415 181.2 415.3C181.1 415.2 180.9 415.2 180.8 415.1C181.6 414.8 182.4 414.5 183.2 414.2C185.8 413.3 188.5 412.6 191.3 412.5C192 412.5 192.7 412.5 193.4 412.6C194.1 412.7 194.8 413 195.4 413.4C196.6 414.2 197.4 415.4 198 416.7C199.1 419.3 199.4 422.1 199.7 424.8C199.5 424.9 199.5 425.1 199.5 425.2ZM222.8 393.5C222.7 393.6 222.7 393.8 222.7 393.9C221.5 397.2 219.9 400.6 217.2 402.9C215.8 404 214.2 404.8 212.4 405C210.6 405.2 208.8 404.8 207.2 404C204 402.5 201.3 399.9 198.8 397.4C196.4 394.9 194 392.3 191.6 389.8C191.5 389.8 191.5 389.8 191.4 389.8C193.8 392.4 196.2 395 198.6 397.6C201.1 400.2 203.7 402.7 207 404.3C208.6 405.1 210.5 405.5 212.3 405.3C214.1 405.1 215.8 404.3 217.2 403.2C220 400.8 221.6 397.4 222.8 394.1C222.9 393.9 222.9 393.8 223 393.6C223 393.5 222.9 393.5 222.8 393.5ZM204.8 427.8C206.6 428.6 207.6 429.1 207.6 429.1H207.7C206.7 428.6 205.8 428.2 204.8 427.8Z" fill="white"/>
<path d="M199.2 423.1C206.1 415.6 213.5 408.6 221 401.7C223.1 399.8 225.3 397.9 227.5 396C227.6 395.9 227.7 396 227.6 396.1C224.1 399.8 220.4 403.3 216.8 406.8C213.1 410.4 209.5 413.9 205.7 417.3C203.6 419.2 201.5 421.2 199.3 423.1C199.2 423.3 199.1 423.2 199.2 423.1Z" fill="#263238"/>
<path opacity="0.1" d="M221.8 415.6L207.6 429.1C207.6 429.1 184.9 419 167.9 406.9C161 402 159.8 397.8 162.7 394.8L221.8 415.6Z" fill="black"/>
<path d="M219.5 521.8H105.4C105.4 521.8 130.2 426.1 153.1 399.1C153.6 398.5 154.1 397.9 154.7 397.3C154.8 397.2 154.9 397.1 155 397C157 394.9 159 393.4 161.1 392.3C161.5 392.1 161.9 391.9 162.3 391.7C171.1 387.6 180.5 391 187.2 396.8C189.3 398.6 213.5 430.1 215.7 442.1C217.5 452.7 210.4 464.1 210.4 464.1L219.5 521.8Z" fill="#FFC727"/>
<path d="M193.3 459.9C188.5 460.4 183.6 461.1 178.9 462.4C176.6 463 174.3 463.8 172 464.5C170.9 464.9 169.7 465.2 168.5 465.6C167.3 466 166 466.3 164.8 466.3C164.7 466.3 164.7 466.5 164.8 466.5C166 466.5 167.2 466.5 168.4 466.4C169.5 466.3 170.7 466 171.8 465.7C174.2 465.1 176.5 464.4 178.9 463.7C183.7 462.4 188.5 461.1 193.4 460.2C193.6 460.3 193.5 459.9 193.3 459.9Z" fill="#263238"/>
<path d="M205.4 464.1C201.4 463.7 197.3 463.5 193.3 463.6C191.3 463.6 189.3 463.8 187.3 464C186.3 464.1 185.4 464.2 184.4 464.3C183.4 464.4 182.3 464.7 181.3 464.9C181.2 464.9 181.2 465.1 181.3 465.1C182.3 465 183.3 465.1 184.3 465.1C185.3 465.1 186.3 465 187.3 465C189.3 464.9 191.3 464.9 193.3 464.8C197.3 464.6 201.3 464.5 205.3 464.5C205.6 464.5 205.6 464.1 205.4 464.1Z" fill="#263238"/>
<g opacity="0.1">
<path d="M182.4 448.4C183.2 448.9 183.5 449.8 183.1 450.4C182.9 450.7 182.6 450.9 182.2 450.9C181.8 450.9 181.4 450.8 181 450.6L172.4 444.8C172.3 444.8 172.3 444.7 172.2 444.7H172.1C172 444.6 172 444.6 172 444.5C171.9 444.5 171.9 444.4 171.9 444.4L171.8 444.3C171.8 444.2 171.7 444.2 171.7 444.2C171.7 444.1 171.7 444.1 171.6 444C171.6 444 171.6 443.9 171.5 443.9V443.8C171.5 443.8 171.5 443.7 171.4 443.6V443.5C171.4 443.4 171.4 443.4 171.4 443.3C171.4 443.2 171.4 443.1 171.4 443.1C171.4 443.1 171.4 443 171.5 442.9L175.9 435.9C176.3 435.3 177.2 435.2 178 435.7C178.8 436.2 179.1 437.1 178.7 437.7L175 443.6L182.4 448.4Z" fill="black"/>
<path d="M188.5 448.6L189.8 435C189.9 434.3 190.5 434 191.3 434.2C192 434.4 192.5 435.1 192.5 435.7L191.2 449.3C191.1 449.8 190.8 450.1 190.3 450.1C190.2 450.1 190 450.1 189.8 450.1C188.9 449.9 188.4 449.2 188.5 448.6Z" fill="black"/>
<path d="M205.8 441.6C205.8 441.7 205.7 441.7 205.7 441.8L201.3 448.8C201.1 449.1 200.8 449.3 200.4 449.3C200 449.3 199.6 449.2 199.2 449C198.4 448.5 198.2 447.6 198.5 447L202.2 441.1L195 436.2C194.2 435.7 193.9 434.8 194.3 434.2C194.7 433.6 195.6 433.5 196.4 434L205 439.8C205.1 439.8 205.2 439.9 205.2 439.9C205.3 440 205.3 440 205.4 440.1C205.4 440.2 205.5 440.2 205.5 440.3C205.5 440.3 205.5 440.3 205.5 440.4C205.5 440.4 205.5 440.5 205.6 440.6L205.7 440.7V440.8C205.7 440.9 205.7 440.9 205.8 441C205.8 441.1 205.8 441.2 205.8 441.2C205.8 441.2 205.8 441.2 205.8 441.3C205.8 441.4 205.8 441.5 205.8 441.6Z" fill="black"/>
</g>
<path d="M212.9 479.5C212.7 479.6 212.6 479.7 212.4 479.8L211.5 480.2C211.2 480.3 210.8 480.4 210.5 480.6C209.9 480.9 209.1 480.9 208.5 481.1C207.1 481.2 205.7 481.3 204.3 480.8C203.6 480.6 203 480.2 202.4 479.8C201.9 479.3 201.4 478.8 201 478.2C200.2 477 199.7 475.7 199.3 474.4C198.5 471.7 198.3 468.9 198.1 466.2C198.1 465.7 198.1 465.2 198.1 464.8C198.1 464.6 198.1 464.4 198.1 464.3C198 459.4 198.2 454.6 198.5 449.7C198.8 444.2 199.2 438.7 199.3 433.2C199.4 430.8 199.4 428.3 199.2 425.9C199.2 425.8 199.2 425.7 199.2 425.6C199.2 425.4 199.2 425.2 199.2 425C199 422.3 198.6 419.5 197.6 417C197.1 415.8 196.3 414.6 195.2 413.9C194.6 413.5 194 413.3 193.4 413.2C192.8 413.1 192.1 413.1 191.4 413.1C188.7 413.2 186 413.8 183.4 414.7C181.6 415.3 179.9 416 178.3 416.8L177.9 417C174.7 418.5 171.7 420.3 168.7 422.1C164 424.9 159.3 427.9 154.4 430.4C152.7 431.3 151 432.1 149.3 432.8C149.2 432.8 149.2 432.9 149.1 432.9C148.3 433.2 147.6 433.5 146.8 433.8C144.2 434.7 141.5 435.4 138.7 435.5C137.2 435.5 135.6 435.3 134.2 434.9C134.2 434.8 134.2 434.8 134.3 434.7C135.7 435.1 137.2 435.3 138.7 435.3C141.4 435.2 144.2 434.6 146.7 433.6C147.5 433.3 148.2 433 148.9 432.7C149 432.7 149 432.6 149.1 432.6C150.8 431.9 152.5 431.1 154.2 430.2C159.1 427.6 163.7 424.7 168.5 421.8C171.4 420.1 174.4 418.3 177.5 416.8C177.6 416.7 177.7 416.7 177.9 416.6C179.7 415.7 181.5 415 183.3 414.3C185.9 413.4 188.6 412.7 191.4 412.6C192.1 412.6 192.8 412.6 193.5 412.7C194.2 412.8 194.9 413.1 195.5 413.5C196.7 414.3 197.5 415.5 198.1 416.8C199.2 419.4 199.5 422.2 199.8 424.9C199.8 425.2 199.8 425.5 199.9 425.8C199.9 425.9 199.9 426 199.9 426.1C200 428.5 200 430.8 200 433.2C199.9 438.7 199.5 444.2 199.2 449.7C199 454.3 198.7 459 198.8 463.6C198.8 463.8 198.8 464 198.8 464.1C198.8 464.8 198.8 465.5 198.9 466.2C199 468.9 199.3 471.7 200 474.3C200.4 475.6 200.9 476.9 201.6 478C202 478.6 202.4 479.1 202.9 479.5C203.4 479.9 204 480.3 204.6 480.5C205.9 480.9 207.3 480.9 208.6 480.8C209.3 480.7 209.9 480.6 210.6 480.3C210.9 480.2 211.2 480.1 211.6 480L212.5 479.6C212.7 479.5 212.9 479.4 213.1 479.3L212.9 479.5ZM215.6 441.6C213.4 443.8 211.3 446.2 209.3 448.6C205.4 453.4 201.9 458.4 198.4 463.5C198.3 463.7 198.1 463.9 198 464.1C197.6 464.7 197.1 465.3 196.7 466C194.2 469.5 191.8 473 189.1 476.3C189 476.4 189 476.5 188.9 476.6C187.2 478.8 185.4 480.9 183.4 483C180.9 485.6 178.3 488 175.3 490.1C174.6 490.6 173.8 491.1 173.1 491.5C172.3 492 171.5 492.4 170.7 492.8C169.1 493.6 167.3 493.9 165.6 493.6C163.9 493.2 162.4 492.3 161 491.1C159.7 489.9 158.5 488.6 157.5 487.1C155.4 484.2 153.7 481.1 152.1 477.9C148.9 471.5 146.2 464.8 143.3 458.2C140.5 451.6 137.6 445 134 438.7C133.7 438.1 133.3 437.5 132.9 436.9C132.8 437.1 132.8 437.3 132.7 437.4C133 437.9 133.3 438.4 133.6 438.9C137.1 445.1 140 451.8 142.8 458.3C145.6 464.9 148.4 471.5 151.6 478C153.2 481.2 155 484.4 157.1 487.3C158.2 488.8 159.3 490.2 160.7 491.4C162.1 492.6 163.7 493.6 165.5 494C167.3 494.4 169.2 494 170.8 493.2C171.6 492.8 172.4 492.4 173.2 491.9C174 491.5 174.7 491 175.5 490.4C178.5 488.3 181.1 485.9 183.6 483.3C185.5 481.3 187.3 479.1 189 477C189.1 476.9 189.2 476.8 189.2 476.7C191.9 473.3 194.4 469.8 196.8 466.3C197.2 465.8 197.5 465.3 197.9 464.8C198 464.6 198.2 464.4 198.3 464.2C201.9 459 205.5 453.9 209.5 449C211.4 446.6 213.4 444.3 215.6 442.2C215.7 441.9 215.7 441.7 215.6 441.6ZM160.8 513.9C156.3 508.3 152 502.6 147.1 497.2C142.3 491.9 136.9 486.9 130.4 483.7C128.7 483 127 482.4 125.3 482C124.4 481.8 123.5 481.7 122.6 481.6C121.7 481.6 120.8 481.5 119.9 481.6C118.9 481.6 117.9 481.7 116.9 481.9C116.9 482 116.9 482 116.8 482.1C117.8 481.9 118.8 481.9 119.8 481.8C120.7 481.7 121.6 481.8 122.5 481.9C123.4 482 124.3 482.1 125.1 482.3C126.9 482.6 128.5 483.3 130.2 484C136.7 487.1 142 492.1 146.8 497.4C151.6 502.7 156 508.4 160.4 514.1C162.5 516.7 164.5 519.3 166.7 521.8H167.2C165.1 519.2 163 516.5 160.8 513.9ZM215.7 497.5C215 499.3 214.3 501.2 213.7 503C211.4 509.3 209.2 515.6 206.6 521.8H207.1C209.7 515.7 211.9 509.4 214.2 503.1C214.8 501.5 215.3 500 215.9 498.4L215.7 497.5ZM205.3 507.5C205.2 507 205.1 506.4 205 505.9L204.6 504.3C204.4 503.3 204.1 502.2 203.8 501.2C202.6 497.1 200.8 493.2 198.7 489.5C196 484.8 192.8 480.6 189.3 476.5C189.2 476.4 189.1 476.3 189.1 476.2C187.1 473.9 185 471.7 182.9 469.5C176.9 463.4 170.7 457.7 164.7 451.6C161.7 448.6 158.8 445.5 156 442.3C155.3 441.5 154.6 440.7 153.9 439.9C153.2 439.1 152.6 438.3 151.9 437.4C150.8 435.9 149.8 434.3 149 432.6C149 432.5 148.9 432.4 148.9 432.4C148.8 432.3 148.8 432.1 148.7 432C146.9 428.2 146 423.9 146 419.7C145.9 415.5 146.7 411.2 147.9 407.2C148.1 406.7 148.2 406.2 148.4 405.7C148.3 405.8 148.2 405.9 148.2 406.1C148.1 406.5 148 406.8 147.8 407.2C146.5 411.3 145.8 415.5 145.8 419.8C145.8 424.1 146.7 428.3 148.5 432.2C148.6 432.3 148.6 432.5 148.7 432.6C148.7 432.7 148.8 432.8 148.8 432.8C149.6 434.5 150.6 436.1 151.7 437.7C152.3 438.6 153 439.4 153.7 440.2C154.4 441 155 441.8 155.8 442.6C158.6 445.8 161.5 448.9 164.5 452C170.5 458 176.8 463.8 182.7 469.9C184.8 472.1 186.9 474.4 188.9 476.7C189 476.8 189.1 476.9 189.1 477C192.6 481 195.8 485.3 198.4 489.9C200.5 493.6 202.3 497.5 203.5 501.5C203.8 502.5 204.1 503.5 204.3 504.6L204.7 506.2C204.8 506.7 204.9 507.2 205 507.8C205.4 509.9 205.6 512 205.3 514.1C205.1 516.9 204.2 519.6 203 522H203.5C204.7 519.5 205.5 516.9 205.8 514.1C205.8 511.8 205.7 509.6 205.3 507.5ZM210.9 430.5C210.7 430.4 210.5 430.3 210.3 430.2C206.7 428.5 203.1 427 199.5 425.6C199.3 425.5 199.2 425.5 199.1 425.4C195.9 424.2 192.7 422.9 189.6 421.7C186.1 420.3 182.7 418.9 179.3 417.2C178.9 417 178.5 416.8 178 416.6C177.9 416.5 177.7 416.5 177.6 416.4C174.8 415 172.2 413.4 169.7 411.4C166.8 409.1 164.2 406.3 162.5 403C161.6 401.4 161 399.6 160.6 397.8C160.3 396.1 160.2 394.4 160.3 392.7C160.2 392.8 160 392.9 159.9 393C159.8 394.6 159.9 396.3 160.2 397.9C160.6 399.8 161.3 401.5 162.1 403.2C163.9 406.5 166.5 409.4 169.4 411.7C171.8 413.6 174.4 415.2 177.1 416.6C177.2 416.7 177.4 416.7 177.5 416.8C178 417.1 178.5 417.3 179 417.6C182.4 419.2 185.8 420.7 189.3 422C192.5 423.3 195.7 424.5 199 425.8C199.2 425.9 199.3 425.9 199.4 426C203 427.4 206.6 428.9 210.1 430.6C210.4 430.7 210.7 430.9 211 431C211 430.8 211 430.7 210.9 430.5Z" fill="white"/>
<path d="M149 401.6C129.2 422 81.5999 499 96.2999 513.6C111.1 528.4 192.8 519.1 215.4 514.8C222.9 513.4 204.8 463.7 196.7 462.5C189.9 461.5 150 469.3 148.6 467.5C147.5 466.1 155.5 447.5 164.4 417.5C174.7 382.9 157.7 392.6 149 401.6Z" fill="#AD6359"/>
<path d="M235.4 455.8C252.4 456 256.7 458.7 271.2 451.2C280.7 446.3 287.9 450.3 281.5 459.4C271.1 474.3 249.1 478.6 241 477.9L235.4 455.8Z" fill="#AD6359"/>
<path d="M188.7 465.1C188.7 465.1 209 457.6 227.1 456C239.6 454.9 267.2 455.6 289 486.2C294.2 493.5 296.4 507.5 283.6 498.7C274.5 492.5 270.7 485.8 264.7 483.1C264.7 483.1 265.4 501.3 257.9 506.2C254.6 508.4 245.3 514.1 237.4 517.6C237.4 517.6 236.2 516.1 234.9 514C234.9 514 227.5 517.9 215.1 514.8L188.7 465.1Z" fill="#AD6359"/>
<path d="M239.3 456.9C244.6 460.8 255.8 469.3 262.5 479.3C270 490.5 281.3 514.1 273 519.5C266.9 523.5 261.8 514.8 261.8 514.8C261.8 514.8 264.4 525.5 258.1 527.9C252.4 530.1 248.8 523.2 248.8 523.2C248.8 523.2 249.3 530 243.3 531C236.2 532.2 236.3 517.8 228 512.8C226.2 511.8 239.3 456.9 239.3 456.9Z" fill="#AD6359"/>
<path d="M249.3 485.2C253.7 489.7 261.1 502.5 261.8 514.6C261.8 514.9 261.6 515 261.5 514.8C257.9 501.6 251.9 490 249.1 485.3C249.2 485.2 249.3 485.2 249.3 485.2Z" fill="#263238"/>
<path d="M238.2 493.1C241.6 497.4 248.6 510.9 249 523.2C249 523.5 248.8 523.6 248.7 523.4C245.5 509.4 240.6 498.1 238.1 493.2C238.1 493.1 238.2 493 238.2 493.1Z" fill="#263238"/>
<path d="M264.9 483C270.1 485.4 273.2 488.6 277.3 492.5C279.3 494.4 281.4 496.3 283.6 498C285.6 499.5 288.6 501.8 291.3 500.3C292.8 499.5 293 497.6 293 496C292.9 494.3 292.5 492.6 291.7 491C291.7 490.9 291.8 490.8 291.8 490.9C292.5 492.3 293.1 493.7 293.4 495.3C293.7 496.7 293.8 498.3 293.2 499.6C291.9 502.5 288.4 502.3 286 501.1C284.6 500.4 283.3 499.4 282 498.4C280.8 497.4 279.6 496.4 278.5 495.4C276.2 493.3 274 491 271.7 488.8C269.2 486.4 267.4 485.2 264.6 483.1C264.7 483.1 264.8 482.9 264.9 483Z" fill="#263238"/>
<path d="M273.3 503.8C272.4 500.5 266.7 486.4 264.7 483.1C264.6 483 264.8 482.9 264.8 483C268.4 487.7 273.6 499.3 274.7 503C275.8 506.6 276.9 511.2 276.3 515C275.4 520.7 271.5 521.2 270.1 521.2C268.4 521.3 266.8 520.7 265.4 519.7C263.9 518.6 262.5 516.6 261.7 514.9C261.7 514.8 261.8 514.7 261.8 514.8C263.4 517.3 266.4 520 269.5 520.1C270.9 520.1 272.3 519.7 273.3 518.7C274.5 517.5 274.8 515.8 274.9 514.3C275.2 510.8 274.3 507.2 273.3 503.8Z" fill="#263238"/>
<path d="M249 523.2C249.7 524 251 526.6 253.5 527.5C255.3 528.2 257.3 528.3 259 527.1C260.6 526 261.4 524.1 261.8 522.3C262 521.2 261.9 516.4 261.7 515C261.7 514.9 261.8 514.9 261.9 515C262.3 517.6 262.8 520.5 262.4 522.9C262.1 524.9 261.1 527 259.4 528.2C257.6 529.4 255.2 529.6 253.3 528.5C252.3 528 249.5 525.4 248.8 523.3C248.8 523.2 249 523.2 249 523.2Z" fill="#263238"/>
<path d="M228.7 512C229.5 512.7 230.2 513.6 230.8 514.4C231.5 515.3 232.1 516.2 232.8 517.1C234.1 519 235.1 521 235.9 523.1C236.8 525.2 237.5 527.5 239.1 529.1C240.7 530.7 243.2 531.3 245.3 530.2C246.4 529.6 247.2 528.7 247.7 527.6C248.2 526.5 248.6 525 248.7 523.8C248.7 523.7 248.9 523.7 248.9 523.8C248.8 525 249 526.2 248.6 527.4C248.3 528.4 247.8 529.4 247 530.2C245.4 531.8 243 532.2 240.9 531.5C238.6 530.7 237.1 528.7 236.1 526.5C235 524.1 234.2 521.7 233 519.4C232.4 518.2 231.7 517 231 515.8C230.2 514.6 229.3 513.4 228.6 512.2C228.5 512 228.6 511.9 228.7 512Z" fill="#263238"/>
<path d="M221.3 515.8C223.1 515.9 227.3 515.9 230.7 515.3C230.8 515.3 230.9 515.6 230.8 515.6C229.5 516.1 226.9 516.4 226.1 516.4C224.5 516.5 222.8 516.4 221.3 516C221.3 515.9 221.2 515.8 221.3 515.8Z" fill="#263238"/>
<path d="M107.6 484.5C112.5 481.3 117.7 478.5 123 476.1C128.3 473.7 133.8 471.8 139.3 470.1C142.5 469.2 145.7 468.4 148.9 467.6C149 467.6 149 467.7 148.9 467.8C143.3 469.4 137.8 471.4 132.4 473.6C127 475.8 121.7 478.1 116.5 480.5C113.5 481.8 110.6 483.3 107.7 484.8C107.6 484.8 107.5 484.6 107.6 484.5Z" fill="#263238"/>
<path d="M108.3 449.7L155.4 449.1C155.4 449.1 164.6 426.1 168.3 405.5C172 384.9 155 390.9 136.9 412.7C118.8 434.5 108.3 449.7 108.3 449.7Z" fill="#FFC727"/>
<path d="M163.8 424.3C163.8 424.5 163.7 424.6 163.7 424.7C160.5 426.6 157.4 428.5 154.1 430.2C152.4 431.1 150.7 431.9 149 432.6C148.9 432.6 148.9 432.7 148.8 432.7C148 433 147.3 433.3 146.5 433.6C143.9 434.5 141.2 435.2 138.4 435.3C135.7 435.4 133 434.7 130.7 433.4C130.6 433.4 130.5 433.3 130.5 433.3C130.2 433.1 130 433 129.7 432.8C127.7 431.5 126.1 429.9 124.6 428C124.6 428 124.6 427.9 124.7 427.9C126 429.6 127.6 431.1 129.4 432.3C129.8 432.6 130.1 432.8 130.5 433L130.6 433.1C133 434.5 135.7 435.2 138.5 435.1C141.2 435 144 434.4 146.5 433.4C147.3 433.1 148 432.8 148.7 432.5C148.8 432.5 148.8 432.4 148.9 432.4C150.6 431.7 152.3 430.9 154 430C157.3 428.2 160.5 426.2 163.8 424.3ZM134.1 438.6C133.1 436.8 131.9 435 130.7 433.3C130.6 433.2 130.5 433.1 130.4 432.9C129.6 431.8 128.7 430.8 127.7 429.8C126.8 428.9 125.9 428.1 124.9 427.5C124.8 427.6 124.7 427.7 124.6 427.8C125.6 428.5 126.5 429.3 127.4 430.1C128.1 430.8 128.7 431.5 129.3 432.2C129.4 432.4 129.5 432.5 129.7 432.7C131.2 434.6 132.5 436.7 133.7 438.8C135.6 442.2 137.4 445.7 139 449.3H139.5C137.8 445.7 136.1 442.1 134.1 438.6ZM155.9 442.4C155.2 441.6 154.5 440.8 153.8 440C153.1 439.2 152.5 438.4 151.8 437.5C150.7 436 149.7 434.4 148.9 432.7C148.9 432.6 148.8 432.5 148.8 432.5C148.7 432.4 148.7 432.2 148.6 432.1C146.8 428.3 145.9 424 145.9 419.8C145.8 415.6 146.6 411.3 147.8 407.3C148.8 404.3 150 401.3 151.4 398.5L151.3 398.6C149.9 401.4 148.7 404.3 147.7 407.3C146.4 411.4 145.7 415.6 145.7 419.9C145.7 424.2 146.6 428.4 148.4 432.3C148.5 432.4 148.5 432.6 148.6 432.7C148.6 432.8 148.7 432.9 148.7 432.9C149.5 434.6 150.5 436.2 151.6 437.8C152.2 438.7 152.9 439.5 153.6 440.3C154.3 441.1 154.9 441.9 155.7 442.7C156.2 443.3 156.7 443.8 157.2 444.4C157.2 444.3 157.3 444.2 157.3 444.1C156.8 443.5 156.4 442.9 155.9 442.4ZM162.4 403.1C161.5 401.5 160.9 399.7 160.5 397.9C160.2 396.4 160.1 394.9 160.2 393.4C160.1 393.4 159.9 393.5 159.8 393.5C159.7 395 159.8 396.5 160.1 398C160.5 399.9 161.2 401.6 162 403.3C163.3 405.9 165.2 408.1 167.3 410.1C167.3 410 167.4 409.8 167.4 409.7C165.5 407.7 163.7 405.5 162.4 403.1Z" fill="white"/>
<path d="M153.5 448.9C153.8 448.9 155.4 448.6 155.4 448.6C155.5 448 158.4 438.3 159.1 436.2C160.6 431.9 162.4 427.7 164.1 423.5C164.2 423.4 164.4 423.4 164.3 423.6C163.2 427.2 162.1 430.9 160.9 434.5C161.2 434 161.6 433.5 161.9 433C162.6 431.9 163.1 430.8 163.8 429.7C163.9 429.6 164 429.7 164 429.8C163.5 431.3 162.7 432.8 161.8 434.1C161.4 434.7 161 435.2 160.5 435.7C160.4 436 160.3 436.3 160.2 436.6C159.5 438.7 155.8 449.2 155.7 449.2C155.7 449.2 154 449.2 153.4 449.2C153.4 449.2 153.3 448.9 153.5 448.9Z" fill="#263238"/>
<path d="M116.1 440.8C126.3 440.2 136.5 440.4 146.7 440.7C149.6 440.8 152.5 441 155.3 441.2C155.4 441.2 155.4 441.3 155.3 441.3C150.2 441.5 145.1 441.4 140.1 441.4C135 441.4 129.9 441.3 124.8 441.2C121.9 441.1 119 441 116.2 440.9C116 441 116 440.8 116.1 440.8Z" fill="#263238"/>
<path d="M166.4 392.6C166.7 394.6 175.5 408.1 184.6 408.2C187.6 408.2 188.5 392 188.5 392L188.8 390.8L193.5 374.3L174.6 360.5L171.9 358.7C171.9 358.7 170.9 363.3 169.7 369.1C169.6 369.4 169.6 369.6 169.5 369.9C169.4 370.2 169.3 370.5 169.3 370.8C169.1 371.7 168.9 372.5 168.8 373.4C168.7 374.1 168.5 374.7 168.4 375.4C168.3 376.1 168.2 376.8 168 377.5C166.9 384.5 166.3 391.8 166.4 392.6Z" fill="#AD6359"/>
<path d="M169.7 369.1C173.7 382.7 184.1 388.8 188.8 390.9L193.5 374.4L174.6 360.6L171.9 358.8C171.9 358.7 170.9 363.3 169.7 369.1Z" fill="#263238"/>
<path d="M214.6 341.2C223.1 370.2 206.7 378.6 200.5 380.4C194.8 382.1 175.3 387 163.8 359.1C152.3 331.2 163.1 318 175.9 313.5C188.7 309 206.1 312.3 214.6 341.2Z" fill="#AD6359"/>
<path d="M209.1 337.4C208.4 337.5 207.7 337.5 207 337.5C206.2 337.5 205.6 337.6 204.9 337.2C204.5 337 204.4 336.3 204.6 335.9C205 335 206 334.7 207 334.6C208 334.5 208.9 334.7 209.7 335.3C210.5 336 210 337.3 209.1 337.4Z" fill="#263238"/>
<path d="M189.6 342.9C190.3 342.6 190.8 342.3 191.5 342C192.2 341.6 192.8 341.4 193.2 340.7C193.4 340.3 193.2 339.7 192.9 339.4C192.1 338.8 191.1 339.1 190.2 339.5C189.3 339.9 188.6 340.5 188.2 341.5C187.6 342.3 188.7 343.2 189.6 342.9Z" fill="#263238"/>
<path d="M194.9 348.9C194.9 348.8 194.8 349 194.8 349.1C195.4 351.1 195.9 353.4 194.3 354.6V354.7C196.4 353.8 195.9 350.7 194.9 348.9Z" fill="#263238"/>
<path d="M192.6 347.4C189.4 348.1 191 354.5 194 353.9C196.9 353.2 195.3 346.8 192.6 347.4Z" fill="#263238"/>
<path d="M191.4 348C190.9 348.5 190.5 349.3 189.9 349.5C189.1 349.8 188.4 349.3 187.7 348.7C187.6 348.6 187.6 348.7 187.6 348.8C187.9 350 188.7 351.2 190.1 351C191.3 350.9 191.9 349.5 191.9 348.2C191.9 348.1 191.6 347.8 191.4 348Z" fill="#263238"/>
<path d="M206.6 345.5C206.6 345.4 206.8 345.6 206.8 345.6C207.2 347.6 208.1 349.8 210 350.1C210.1 350.1 210.1 350.2 210 350.2C207.8 350.4 206.7 347.4 206.6 345.5Z" fill="#263238"/>
<path d="M207.9 342.9C211.1 341.9 212.9 348.3 210 349.2C207.1 350.2 205.2 343.8 207.9 342.9Z" fill="#263238"/>
<path d="M209.3 343C209.9 343.2 210.6 343.7 211.2 343.5C211.9 343.3 212.2 342.5 212.5 341.7C212.5 341.6 212.6 341.7 212.6 341.7C213 342.9 212.9 344.3 211.8 344.9C210.8 345.4 209.7 344.6 209.1 343.5C209 343.3 209.1 342.9 209.3 343Z" fill="#263238"/>
<path d="M199.3 365.8C199.9 366.2 200.5 366.7 201.2 366.6C201.9 366.5 202.7 366 203.3 365.6C203.4 365.6 203.4 365.6 203.4 365.7C203 366.6 202 367.3 201.1 367.3C200.2 367.3 199.5 366.6 199.1 365.8C199.1 365.8 199.2 365.7 199.3 365.8Z" fill="#263238"/>
<path d="M205.9 355.7C205.9 355.7 207.1 358.6 207.5 360C207.5 360.1 202.7 362.5 199.6 359.7C199.5 359.6 199.6 359.4 199.8 359.5C202 360.4 204.1 360.2 206.3 359.6C206.3 359.2 204.1 354.8 204.3 354.7C205 354.4 206.7 354.5 207.7 354.6C205.4 348.6 202.1 343 199.9 336.9C199.8 336.7 200.1 336.5 200.2 336.7C204.1 342.3 206.9 349.2 209.4 355.4C209.7 356.1 206.6 355.8 205.9 355.7Z" fill="#263238"/>
<path d="M205.9 360C205.9 360 205.3 362 203.8 363.2C203.3 363.6 202.7 363.9 201.9 364C200.4 364.1 199.9 362.9 199.8 361.7C199.7 360.7 199.8 359.8 199.8 359.8C199.8 359.8 202.6 361 205.9 360Z" fill="#263238"/>
<path d="M203.8 363.2C203.3 363.6 202.7 363.9 201.9 364C200.4 364.1 199.9 362.9 199.8 361.7C201.4 361.3 203.2 361.8 203.8 363.2Z" fill="#FF99BA"/>
<path d="M165.3 362.8C171.3 358.5 170.4 351.6 170.4 351.6C178 346.6 181.2 339.5 181.6 338.8C181.5 339.5 180.9 344.1 180.5 346.5C198.7 339.5 202 324 202 324C209.2 329 211.1 332.7 212.4 334.5C212.4 334.5 210.5 322.9 203.1 316.2C194.1 308 184.5 311.6 184.5 311.6C184.5 311.6 169 309.9 159.8 324.3C149.9 339.8 165.3 362.8 165.3 362.8Z" fill="#263238"/>
<path d="M194.2 340.7C191.5 342.9 188.3 344.7 185.1 346C190.2 343.5 194.4 339.9 197.5 335.1C198.8 333.1 199.8 330.9 200.6 328.7C201.4 326.3 202.1 323.5 201.8 321C201.8 320.8 202.1 320.8 202.1 321C202.3 323.6 202.5 326.1 201.9 328.7C201.3 331.2 200.3 333.6 198.8 335.7C197.6 337.6 196 339.3 194.2 340.7Z" fill="#263238"/>
<path d="M193.4 359.5C189.5 360.1 185.5 358 183.9 354.2C182 349.7 184.1 344.5 188.6 342.5C193.1 340.6 198.3 342.7 200.3 347.2C202.2 351.7 200.1 356.9 195.6 358.9C194.8 359.2 194.1 359.4 193.4 359.5ZM190.8 343.1C190.2 343.2 189.6 343.4 189 343.6C185.1 345.3 183.3 349.8 185 353.7C186.7 357.6 191.2 359.4 195.1 357.7C199 356 200.8 351.5 199.1 347.6C197.6 344.4 194.2 342.6 190.8 343.1Z" fill="#FFC727"/>
<path d="M212.9 353.9C209.5 354.4 206 351.5 204.7 347C204.1 344.8 204.1 342.4 204.8 340.5C205.5 338.5 206.9 337.1 208.6 336.7C210.3 336.2 212.2 336.7 213.9 338C215.5 339.3 216.7 341.2 217.4 343.5C218.7 348.2 216.9 352.8 213.4 353.8C213.3 353.8 213.1 353.9 212.9 353.9ZM209.5 337.7C209.4 337.7 209.2 337.8 209.1 337.8C207.7 338.2 206.7 339.3 206.1 340.9C205.5 342.6 205.4 344.6 206 346.6C207.1 350.7 210.4 353.4 213.3 352.5C216.2 351.7 217.6 347.7 216.5 343.6C215.9 341.6 214.8 339.9 213.4 338.7C212.1 338 210.7 337.5 209.5 337.7Z" fill="#FFC727"/>
<path d="M200.1 348.3L199.1 347.6C200.1 346.1 202.7 343.8 205.4 345.5L204.8 346.5C202.4 345.1 200.2 348.2 200.1 348.3Z" fill="#FFC727"/>
<path d="M162.7 361.1L161.5 360.9C161.6 360.4 162.7 355.6 165.1 354.4C167.4 353.4 183.1 350.5 183.8 350.4L184 351.6C179.5 352.4 167.4 354.7 165.6 355.5C164 356.3 162.9 359.8 162.7 361.1Z" fill="#FFC727"/>
<path d="M169.2 357.9C169.2 357.9 160.9 350 157.1 353.1C153.4 356.3 160.9 368.7 166.2 369.5C171.5 370.3 172.4 365.4 172.4 365.4L169.2 357.9Z" fill="#AD6359"/>
<path d="M159.4 356.6C159.3 356.6 159.3 356.7 159.4 356.7C163.1 357.4 165.6 360.2 167.5 363.3C166.2 362.2 164.7 361.8 163.2 363.4C163.1 363.5 163.2 363.6 163.3 363.6C164.7 363 165.7 363 166.9 364C167.7 364.7 168.4 365.6 169.1 366.4C169.3 366.7 169.8 366.4 169.7 366.1C169.7 366.1 169.7 366.1 169.7 366C168.9 361.6 164.2 356.1 159.4 356.6Z" fill="#263238"/>
<path d="M162.7 394.8C163.9 396.3 165.1 397.8 166.4 399.3C167.7 400.8 169 402.2 170.4 403.5C173.2 406.1 176.2 408.7 179.7 410.2C181.4 410.9 183.3 411.4 185.1 411.1C186 411 186.8 410.7 187.4 410C188 409.3 188.4 408.5 188.7 407.6C189.3 405.8 189.6 403.9 189.7 402C189.9 400.1 189.9 398.1 189.7 396.2C190.1 398.1 190.2 400.1 190.2 402C190.2 404 190 405.9 189.4 407.8C189.1 408.8 188.7 409.7 188 410.5C187.7 410.9 187.2 411.3 186.7 411.5C186.2 411.7 185.7 411.8 185.2 411.9C183.2 412.2 181.1 411.8 179.3 411C177.5 410.2 175.8 409.1 174.2 407.9C172.6 406.7 171.2 405.4 169.8 404C167.2 401.1 164.7 398.1 162.7 394.8Z" fill="#263238"/>
<path d="M147.7 310.6H95.1V334.2H147.7V310.6Z" fill="#455A64"/>
<path d="M110.8 323.5H108.6V327.4C108.6 327.9 108.2 328.4 107.6 328.4C107.1 328.4 106.6 328 106.6 327.4V316.9C106.6 316.3 107 315.9 107.6 315.9H110.8C112.9 315.9 114.6 317.6 114.6 319.7C114.6 321.8 112.9 323.5 110.8 323.5ZM108.6 321.5H110.8C111.8 321.5 112.6 320.7 112.6 319.7C112.6 318.7 111.8 317.9 110.8 317.9H108.6V321.5Z" fill="white"/>
<path d="M117 327.3V316.8C117 316.2 117.4 315.8 118 315.8C118.6 315.8 119 316.2 119 316.8V321.1H123.6V316.8C123.6 316.2 124 315.8 124.6 315.8C125.2 315.8 125.6 316.2 125.6 316.8V327.3C125.6 327.9 125.2 328.3 124.6 328.3C124 328.3 123.6 327.9 123.6 327.3V323H119V327.3C119 327.9 118.6 328.3 118 328.3C117.4 328.3 117 327.9 117 327.3Z" fill="white"/>
<path d="M133.7 323.5H131.5V327.4C131.5 327.9 131.1 328.4 130.5 328.4C130 328.4 129.5 328 129.5 327.4V316.9C129.5 316.3 129.9 315.9 130.5 315.9H133.7C135.8 315.9 137.5 317.6 137.5 319.7C137.5 321.8 135.8 323.5 133.7 323.5ZM131.5 321.5H133.7C134.7 321.5 135.5 320.7 135.5 319.7C135.5 318.7 134.7 317.9 133.7 317.9H131.5V321.5Z" fill="white"/>
<path d="M258.7 237.7H165.1V297.4H258.7V237.7Z" fill="white"/>
<path d="M259.3 298H164.5V237.1H259.3V298ZM165.7 296.9H258.2V238.3H165.7V296.9Z" fill="#EBEBEB"/>
<path d="M258.7 237.7H165.1V249H258.7V237.7Z" fill="#455A64"/>
<path d="M259.3 249.6H164.5V237.1H259.3V249.6ZM165.7 248.4H258.2V238.3H165.7V248.4Z" fill="#EBEBEB"/>
<path d="M175.7 243.4C175.7 245 174.4 246.2 172.9 246.2C171.3 246.2 170.1 244.9 170.1 243.4C170.1 241.8 171.4 240.6 172.9 240.6C174.4 240.6 175.7 241.9 175.7 243.4Z" fill="#FFC727"/>
<path d="M187.3 243.4C187.3 245 186 246.2 184.5 246.2C182.9 246.2 181.7 244.9 181.7 243.4C181.7 241.8 183 240.6 184.5 240.6C186.1 240.6 187.3 241.9 187.3 243.4Z" fill="#EBEBEB"/>
<path d="M198.9 243.4C198.9 245 197.6 246.2 196.1 246.2C194.5 246.2 193.3 244.9 193.3 243.4C193.3 241.8 194.6 240.6 196.1 240.6C197.7 240.6 198.9 241.9 198.9 243.4Z" fill="white"/>
<path d="M182.6 271.3C182.6 265.1 187.9 260 194.1 260C196.9 260 199.4 260.9 201.4 262.5C202.2 263.1 202.3 264.2 201.7 265C201.1 265.8 199.9 265.9 199.2 265.3C197.8 264.2 196.1 263.6 194.1 263.6C191.9 263.6 189.9 264.5 188.4 265.9C187 267.3 186.1 269.2 186.1 271.4C186.1 273.5 187 275.5 188.4 276.9C189.9 278.3 191.9 279.2 194.1 279.2C196.1 279.2 197.7 278.6 199.2 277.5C199.9 277 201.1 277.1 201.7 277.8C202.3 278.6 202.1 279.7 201.4 280.3C199.4 281.8 196.9 282.8 194.1 282.8C187.9 282.7 182.6 277.6 182.6 271.3Z" fill="black"/>
<path d="M213.2 273.6H208.7C207.8 273.6 207 272.8 207 271.9C207 271 207.8 270.2 208.7 270.2H213.2V265.8C213.2 264.8 214 264 215 264C216 264 216.8 264.8 216.8 265.8V270.2H221.3C222.2 270.2 223 271 223 271.9C223 272.9 222.2 273.6 221.3 273.6H216.8V278C216.8 279 216 279.8 215 279.8C214 279.8 213.2 279 213.2 278V273.6Z" fill="black"/>
<path d="M232.7 273.6H228.2C227.3 273.6 226.5 272.8 226.5 271.9C226.5 271 227.3 270.2 228.2 270.2H232.7V265.8C232.7 264.8 233.5 264 234.5 264C235.5 264 236.3 264.8 236.3 265.8V270.2H240.8C241.7 270.2 242.5 271 242.5 271.9C242.5 272.9 241.7 273.6 240.8 273.6H236.3V278C236.3 279 235.5 279.8 234.5 279.8C233.5 279.8 232.7 279 232.7 278V273.6Z" fill="black"/>
<g opacity="0.6">
<path d="M432.4 251.2H276.2V360.6H432.4V251.2Z" fill="white"/>
<path d="M433 361.2H275.6V250.6H433V361.2ZM276.8 360H431.8V251.8H276.8V360Z" fill="#EBEBEB"/>
<path d="M432.4 251.2H276.2V262.5H432.4V251.2Z" fill="#455A64"/>
<path d="M433 263.1H275.6V250.6H433V263.1ZM276.8 261.9H431.8V251.8H276.8V261.9Z" fill="#EBEBEB"/>
<path d="M286.8 256.9C286.8 258.5 285.5 259.7 284 259.7C282.5 259.7 281.2 258.4 281.2 256.9C281.2 255.3 282.5 254.1 284 254.1C285.5 254.1 286.8 255.3 286.8 256.9Z" fill="#FFC727"/>
<path d="M298.4 256.9C298.4 258.5 297.1 259.7 295.6 259.7C294 259.7 292.8 258.4 292.8 256.9C292.8 255.3 294.1 254.1 295.6 254.1C297.1 254.1 298.4 255.3 298.4 256.9Z" fill="#EBEBEB"/>
<path d="M310 256.9C310 258.5 308.7 259.7 307.2 259.7C305.7 259.7 304.4 258.4 304.4 256.9C304.4 255.3 305.7 254.1 307.2 254.1C308.7 254.1 310 255.3 310 256.9Z" fill="white"/>
<path d="M294.3 284.9H288.3V287.1H294.3V284.9Z" fill="#EBEBEB"/>
<path d="M368.1 284.9H298.8V287.1H368.1V284.9Z" fill="#EBEBEB"/>
<path d="M383.2 284.9H371.7V287.1H383.2V284.9Z" fill="#FFC727"/>
<path d="M405.5 284.9H385.7V287.1H405.5V284.9Z" fill="#A6A6A6"/>
<path d="M300.4 290.8H294.4V293H300.4V290.8Z" fill="#EBEBEB"/>
<path d="M350.1 290.8H304.6V293H350.1V290.8Z" fill="#A6A6A6"/>
<path d="M342.2 308.6H298.8V310.8H342.2V308.6Z" fill="#A6A6A6"/>
<path d="M335.1 296.8H304.6V299H335.1V296.8Z" fill="#FFC727"/>
<path d="M391 302.7H379.4V304.9H391V302.7Z" fill="#A6A6A6"/>
<path d="M387.1 296.8H338.5V299H387.1V296.8Z" fill="#A6A6A6"/>
<path d="M356.9 314.5H298.8V316.7H356.9V314.5Z" fill="#FFC727"/>
<path d="M415.9 290.8H384.4V293H415.9V290.8Z" fill="#FFC727"/>
<path d="M382 290.8H353V293H382V290.8Z" fill="#EBEBEB"/>
<path d="M409 296.8H389.4V299H409V296.8Z" fill="#EBEBEB"/>
<path d="M300.4 296.8H294.4V299H300.4V296.8Z" fill="#EBEBEB"/>
<path d="M294.3 302.7H288.3V304.9H294.3V302.7Z" fill="#A6A6A6"/>
<path d="M334.5 302.7H298.8V304.9H334.5V302.7Z" fill="#EBEBEB"/>
<path d="M383.2 308.6H344.6V310.8H383.2V308.6Z" fill="#EBEBEB"/>
<path d="M410.2 308.6H385.7V310.8H410.2V308.6Z" fill="#FFC727"/>
<path d="M376.6 302.7H338.1V304.9H376.6V302.7Z" fill="#FFC727"/>
<path d="M294.3 308.6H288.3V310.8H294.3V308.6Z" fill="#EBEBEB"/>
<path d="M294.3 314.5H288.3V316.7H294.3V314.5Z" fill="#EBEBEB"/>
<path d="M292.1 279.1C292.3 279.3 292.3 279.6 292.1 279.8C292 279.9 291.9 279.9 291.7 279.9C291.6 279.9 291.4 279.9 291.3 279.8L289 277.4C289 277.4 289 277.4 289 277.3C289 277.3 289 277.3 289 277.2C289 277.2 289 277.2 289 277.1C289 277.1 289 277.1 289 277V276.9C289 276.9 289 276.9 289 276.8L291.3 274.4C291.5 274.2 291.8 274.2 292 274.4C292.2 274.6 292.2 274.9 292 275.1L290 277.1L292.1 279.1Z" fill="#FFC727"/>
<path d="M294.2 279.4L296.2 274.6C296.3 274.4 296.6 274.3 296.8 274.4C297 274.5 297.1 274.8 297 275L295 279.8C294.9 280 294.8 280.1 294.6 280.1C294.6 280.1 294.5 280.1 294.4 280.1C294.2 279.9 294.1 279.6 294.2 279.4Z" fill="#FFC727"/>
<path d="M301 277.5L298.6 279.9C298.5 280 298.4 280 298.2 280C298.1 280 297.9 280 297.8 279.9C297.6 279.7 297.6 279.4 297.8 279.2L299.8 277.2L297.8 275.2C297.6 275 297.6 274.7 297.8 274.5C298 274.3 298.3 274.3 298.5 274.5L300.8 276.9C300.8 276.9 300.8 276.9 300.9 277C300.9 277 300.9 277 300.9 277.1C300.9 277.1 300.9 277.1 300.9 277.2C300.9 277.2 300.9 277.2 300.9 277.3C300.9 277.3 300.9 277.3 300.9 277.4C301.1 277.3 301.1 277.3 301 277.5Z" fill="#FFC727"/>
</g>
<path d="M181.9 215.7H118.1V239.3H181.9V215.7Z" fill="#FFC727"/>
<path d="M127.3 232.4V221.9C127.3 221.3 127.7 220.9 128.3 220.9C128.9 220.9 129.3 221.3 129.3 221.9V226.2H133.9V221.9C133.9 221.3 134.3 220.9 134.9 220.9C135.5 220.9 135.9 221.3 135.9 221.9V232.4C135.9 233 135.5 233.4 134.9 233.4C134.3 233.4 133.9 233 133.9 232.4V228.1H129.3V232.4C129.3 233 128.9 233.4 128.3 233.4C127.7 233.4 127.3 233 127.3 232.4Z" fill="white"/>
<path d="M147.5 222.9H144.7V232.4C144.7 233 144.3 233.4 143.7 233.4C143.2 233.4 142.7 233 142.7 232.4V222.9H139.9C139.3 222.9 138.9 222.4 138.9 221.9C138.9 221.3 139.3 220.9 139.9 220.9H147.5C148 220.9 148.5 221.3 148.5 221.9C148.4 222.5 148 222.9 147.5 222.9Z" fill="white"/>
<path d="M162.1 221.9V232.4C162.1 232.9 161.6 233.4 161.1 233.4C160.5 233.4 160.1 233 160.1 232.4V224.9L157.5 228.5C157.3 228.8 157 228.9 156.7 228.9C156.4 228.9 156.1 228.8 155.9 228.5L153.4 224.9V232.4C153.4 232.9 153 233.4 152.4 233.4C151.9 233.4 151.4 233 151.4 232.4V221.9C151.4 221.4 151.8 220.9 152.4 220.9C152.4 220.9 152.4 220.9 152.5 220.9C152.8 220.9 153.1 221 153.3 221.3L156.8 226.2L160.3 221.3C160.5 221 160.8 220.9 161.1 220.9C161.6 221 162.1 221.4 162.1 221.9Z" fill="white"/>
<path d="M166.4 232.4V221.9C166.4 221.4 166.8 220.9 167.4 220.9C168 220.9 168.4 221.3 168.4 221.9V231.4H173.2C173.7 231.4 174.2 231.8 174.2 232.4C174.2 232.9 173.7 233.4 173.2 233.4H167.4C166.8 233.4 166.4 232.9 166.4 232.4Z" fill="white"/>
<path d="M283.7 342.9H248.1V366.5H283.7V342.9Z" fill="#FFC727"/>
<path d="M257.8 357C258.1 357.9 259 358.6 260.1 358.6C261.4 358.6 262.5 357.5 262.5 356.2V349.4C262.5 348.9 262.9 348.5 263.5 348.5C264 348.5 264.4 348.9 264.4 349.4V356.2C264.4 358.6 262.5 360.5 260.1 360.5C258.2 360.5 256.6 359.3 256 357.5C255.8 357 256.1 356.5 256.6 356.3C257.1 356.2 257.6 356.5 257.8 357Z" fill="white"/>
<path d="M266.7 357.5C267 357.1 267.6 357.1 268 357.4C268.8 358 270.1 358.7 271.3 358.7C272.2 358.7 272.9 358.4 273.4 358.1C273.9 357.7 274.1 357.3 274.1 356.9C274.1 356.7 274 356.5 273.9 356.3C273.8 356.1 273.6 356 273.4 355.8C272.9 355.5 272.1 355.2 271 355C270.2 354.8 269.4 354.6 268.8 354.3C268.1 354 267.6 353.6 267.2 353C266.9 352.6 266.8 352.1 266.8 351.6C266.8 350.6 267.4 349.7 268.2 349.1C269 348.5 270.1 348.2 271.2 348.2C272.9 348.2 274.1 349 274.9 349.6C275.3 349.9 275.4 350.4 275.1 350.8C274.8 351.2 274.3 351.3 273.9 351.1C273 350.5 272.2 350 271.1 350C270.3 350 269.6 350.2 269.2 350.6C268.7 350.9 268.5 351.3 268.5 351.7C268.5 351.9 268.5 352 268.6 352.2C268.7 352.3 268.8 352.5 269.1 352.6C269.5 352.9 270.3 353.2 271.2 353.4C272.1 353.6 272.9 353.8 273.6 354.1C274.3 354.4 274.9 354.9 275.3 355.5C275.6 355.9 275.7 356.4 275.7 357C275.7 358.1 275.1 359 274.2 359.7C273.4 360.3 272.2 360.7 271 360.7C269.1 360.7 267.6 359.8 266.6 359C266.5 358.5 266.4 357.9 266.7 357.5Z" fill="white"/>
<path opacity="0.6" d="M127.1 510.6C127.1 510.6 149 500.5 149 487C149 473.5 120.6 464.8 120.6 454.3C120.6 443.7 133 437.5 133 437.5C133 437.5 113.5 444.2 113.5 457.5C113.5 470.8 132.2 479.9 134 488.4C136.4 500.2 127.1 510.6 127.1 510.6Z" fill="#DBDBDB"/>
<path opacity="0.6" d="M128.2 510.6C128.2 510.6 106.3 502.7 106.3 492.1C106.3 481.5 134.7 474.6 134.7 466.4C134.7 458.1 122.3 453.2 122.3 453.2C122.3 453.2 141.8 458.4 141.8 468.9C141.8 479.4 120.3 486.6 118.8 495.1C117.3 503.5 128.2 510.6 128.2 510.6Z" fill="#DBDBDB"/>
<path d="M137.7 544.5H116.9V547.7H137.7V544.5Z" fill="#37474F"/>
<path d="M137.7 544.5H116.9V546.6H137.7V544.5Z" fill="#263238"/>
<path d="M92.2 535.8C94.7 539.3 99 541.7 103.9 540.8C104.6 540.7 105.3 540.5 106 540.2C107 539.8 107.9 539.3 108.9 538.7L106.3 534.8C105.8 535.2 105.2 535.5 104.7 535.7C99.7 537.9 96.6 534 96 533.1C93.1 529.1 92.1 519.9 95 516.4C95.2 516.1 96 515.7 99.4 516.4C100 516.5 100.7 516.7 101.5 516.9C102.4 517.1 102.9 517.3 103.4 517.3L103.5 514.9L103.7 512.6C103.5 512.6 103.1 512.5 102.7 512.3C101.4 512 99.7 511.5 98 511.3C95.5 511 93 511.3 91.4 513.3C86.8 519.2 88.7 530.8 92.2 535.8Z" fill="#37474F"/>
<path d="M106.4 534.7C105.9 535.1 105.3 535.4 104.8 535.6L106.1 540.2C107.1 539.8 108 539.3 109 538.7L106.4 534.7Z" fill="#263238"/>
<path d="M98.1 511.4L99.5 516.4C100.1 516.5 100.8 516.7 101.6 516.9C102.5 517.1 103 517.3 103.5 517.3L103.6 514.9L103.8 512.6C103.6 512.6 103.2 512.5 102.8 512.3C101.6 512.1 99.9 511.6 98.1 511.4Z" fill="#263238"/>
<path d="M155 505.3C155 505.3 152.5 526.5 148.2 535.4C143.9 544.3 137.9 545.3 134.1 545.3C130.4 545.3 130.7 545.3 127.3 545.3C123.9 545.3 124.2 545.3 120.5 545.3C116.8 545.3 110.7 544.3 106.4 535.4C102.1 526.5 99.6 505.3 99.6 505.3H155Z" fill="#37474F"/>
<path d="M152 522.9C151.6 524.9 151.1 526.8 150.6 528.6H104C103.5 526.8 103 524.8 102.6 522.9H152Z" fill="#455A64"/>
<path d="M150 530.8C149.7 531.8 149.4 532.8 149 533.7H105.7C105.3 532.8 105 531.9 104.7 530.8H150Z" fill="#455A64"/>
<path d="M153.1 517.5C152.9 518.4 152.8 519.4 152.5 520.4H102.1C101.9 519.4 101.7 518.5 101.6 517.5H153.1Z" fill="#455A64"/>
</g>
<defs>
<clipPath id="clip0_583_4">
<rect width="418.5" height="373.1" fill="white" transform="translate(61 184)"/>
</clipPath>
</defs>
</svg>
