<svg width="448" height="300" viewBox="0 0 448 300" fill="none" xmlns="http://www.w3.org/2000/svg">
<rect width="448" height="300" fill="#C9522D"/>
<path d="M274.495 149.147L241.998 130.376L209.502 149.147L176.993 130.376L112 151.493V167.917L144.497 186.688L112 189.034V205.459L176.993 243L209.502 224.229L241.998 243L339.5 186.688V170.264L274.495 149.147Z" fill="#DBBB91"/>
<path d="M209.502 132.699L241.999 113.94L274.495 132.699L241.999 151.47L209.502 132.699Z" fill="white"/>
<path d="M241.999 151.47L274.495 132.699L306.992 151.47L274.495 170.229L241.999 151.47Z" fill="#613216"/>
<path d="M144.496 170.229L176.993 151.47L209.501 170.229L176.993 188.999L144.496 170.229Z" fill="white"/>
<path d="M112 151.47L144.497 132.699L176.993 151.47L144.497 170.229L112 151.47Z" fill="#613216"/>
<path d="M176.994 188.999L209.502 170.229L241.999 188.999L209.502 207.758L176.994 188.999Z" fill="#613216"/>
<path d="M241.999 188.999L274.495 170.229L306.992 188.999L274.495 207.758L241.999 188.999Z" fill="#613216"/>
<path d="M176.994 151.47L209.502 132.699L241.999 151.47L209.502 170.229L176.994 151.47Z" fill="#613216"/>
<path d="M112 188.999L144.497 170.229L176.993 188.999L144.497 207.758L112 188.999Z" fill="#613216"/>
<path d="M144.496 207.758L176.993 188.999L209.501 207.758L176.993 226.517L144.496 207.758Z" fill="white"/>
<path d="M209.502 170.229L241.999 151.47L274.495 170.229L241.999 188.999L209.502 170.229Z" fill="white"/>
<path d="M144.496 132.699L176.993 113.94L209.501 132.699L176.993 151.47L144.496 132.699Z" fill="white"/>
<path d="M274.496 170.229L306.993 151.47L339.501 170.229L306.993 188.999L274.496 170.229Z" fill="white"/>
<path d="M209.502 207.758L241.999 188.999L274.495 207.758L241.999 226.517L209.502 207.758Z" fill="white"/>
<path d="M196.409 137.521L199.284 142.413C205.348 140.219 211.99 140.219 218.054 142.413L220.94 137.521C225.316 140.677 225.774 144.748 225.551 150.097C225.738 152.725 224.108 155.4 220.623 157.406C214.03 161.207 203.354 161.207 196.761 157.406C193.242 155.4 191.646 152.713 191.846 150.085C191.564 144.748 192.022 140.677 196.409 137.521Z" fill="black"/>
<path d="M208.645 150.872C216.829 150.872 223.462 147.043 223.462 142.319C223.462 137.596 216.829 133.767 208.645 133.767C200.462 133.767 193.828 137.596 193.828 142.319C193.828 147.043 200.462 150.872 208.645 150.872Z" fill="#4D4D4D"/>
<path d="M208.646 126.528H214.453C215.626 132.394 216.893 134.33 219.345 139.093C220.741 141.439 219.838 144.079 216.67 145.909C214.184 147.166 211.438 147.82 208.652 147.82C205.866 147.82 203.119 147.166 200.633 145.909C197.454 144.079 196.551 141.427 197.935 139.128C200.399 134.33 201.701 132.382 202.839 126.528H208.646Z" fill="black"/>
<path d="M208.646 129.426C214.296 129.426 218.876 126.779 218.876 123.513C218.876 120.248 214.296 117.6 208.646 117.6C202.996 117.6 198.416 120.248 198.416 123.513C198.416 126.779 202.996 129.426 208.646 129.426Z" fill="#333333"/>
<path d="M208.646 124.698C212.501 124.698 215.627 122.897 215.627 120.674C215.627 118.452 212.501 116.65 208.646 116.65C204.791 116.65 201.666 118.452 201.666 120.674C201.666 122.897 204.791 124.698 208.646 124.698Z" fill="#4D4D4D"/>
<path d="M210.119 123.271C215.159 122.455 218.584 117.708 217.768 112.668C216.953 107.628 212.206 104.204 207.166 105.019C202.126 105.834 198.701 110.581 199.517 115.621C200.332 120.661 205.079 124.086 210.119 123.271Z" fill="black"/>
<path d="M199.108 139.668V139.609V139.539L199.976 137.849C200.351 137.161 200.691 136.504 200.996 135.878C201.995 133.96 202.782 131.938 203.343 129.848C204.159 130.101 204.995 130.285 205.842 130.4C204.786 135.351 204.187 140.278 201.958 144.912C201.705 144.797 201.458 144.668 201.219 144.525C200.037 143.958 199.124 142.952 198.674 141.721C198.6 141.367 198.6 141.002 198.675 140.649C198.749 140.295 198.897 139.961 199.108 139.668Z" fill="#808080"/>
<path d="M193.03 150.003V149.921C192.94 148.408 192.971 146.889 193.124 145.381C193.782 146.557 194.682 147.581 195.764 148.384V155.083C193.875 153.605 192.889 151.833 193.03 150.085V150.003Z" fill="#808080"/>
<path d="M201.407 113.154C201.185 112.985 201.017 112.756 200.922 112.494C200.826 112.232 200.807 111.948 200.867 111.676V111.418C200.967 110.834 201.174 110.273 201.477 109.764C202.298 108.333 203.589 107.535 204.351 107.981C205.114 108.426 205.079 109.94 204.246 111.371C203.945 111.892 203.546 112.35 203.072 112.72L202.873 112.873C202.676 113.046 202.436 113.163 202.178 113.212C201.92 113.262 201.654 113.242 201.407 113.154Z" fill="#808080"/>
<path d="M230.948 154.766L233.822 159.658C239.887 157.465 246.528 157.465 252.593 159.658L255.479 154.766C259.855 157.922 260.312 161.993 260.09 167.331C260.289 169.971 258.647 172.634 255.162 174.651C248.569 178.453 237.893 178.453 231.3 174.651C227.781 172.634 226.185 169.959 226.384 167.331C226.103 161.993 226.56 157.922 230.948 154.766Z" fill="#FBA53B"/>
<path d="M243.184 168.117C251.367 168.117 258.001 164.288 258.001 159.565C258.001 154.841 251.367 151.012 243.184 151.012C235.001 151.012 228.367 154.841 228.367 159.565C228.367 164.288 235.001 168.117 243.184 168.117Z" fill="#FFDEAB"/>
<path d="M235.781 120.522C231.686 122.868 231.686 126.716 235.781 129.074C238.076 130.242 240.614 130.851 243.189 130.851C245.764 130.851 248.303 130.242 250.598 129.074C254.681 126.728 254.681 122.88 250.598 120.522C248.301 119.361 245.763 118.756 243.189 118.756C240.616 118.756 238.078 119.361 235.781 120.522Z" fill="#FFDEAB"/>
<path d="M231.628 158.133L232.708 124.698H253.66L254.751 158.145C254.751 159.893 253.672 161.665 251.361 162.99C248.828 164.28 246.026 164.952 243.184 164.952C240.342 164.952 237.54 164.28 235.007 162.99C232.696 161.653 231.57 159.893 231.628 158.133Z" fill="#FBA53B"/>
<path d="M229.399 124.815V116.486H233.928C236.822 115.124 239.98 114.418 243.178 114.418C246.376 114.418 249.535 115.124 252.429 116.486H256.957V124.815C256.957 126.857 255.608 128.886 252.921 130.447C247.537 133.555 238.843 133.555 233.435 130.447C230.749 128.886 229.399 126.857 229.399 124.815Z" fill="#FBA53B"/>
<path d="M233.599 117.659L229.739 118.293C228.753 115.735 229.985 112.943 233.446 110.949C234.176 110.529 234.941 110.176 235.734 109.893L237.928 111.348L238.068 113.694L241.365 112.931L241.459 110.585V110.503L240.907 108.743C245.047 108.272 249.233 109.044 252.932 110.96C253.655 111.375 254.328 111.871 254.938 112.439V114.327L255.736 115.067H256.71C257.555 117.565 256.288 120.264 252.932 122.211C247.548 125.32 238.854 125.32 233.446 122.211C232.887 121.894 232.357 121.529 231.862 121.12L235.323 119.677L236.367 118.868L234.537 118.668L233.599 117.659Z" fill="#FFDEAB"/>
<path d="M236.156 112.11C236.723 111.791 237.315 111.521 237.927 111.301L238.068 113.647L241.365 112.885L241.459 110.538C244.438 110.186 247.455 110.738 250.117 112.122C253.155 113.882 253.8 116.498 252.029 118.621C251.488 119.25 250.841 119.778 250.117 120.182C247.952 121.275 245.561 121.844 243.136 121.844C240.711 121.844 238.321 121.275 236.156 120.182C235.432 119.778 234.784 119.25 234.244 118.621C232.472 116.486 233.117 113.87 236.156 112.11Z" fill="#FBA53B"/>
<path d="M234.244 118.609C234.785 119.238 235.432 119.766 236.157 120.17C238.321 121.263 240.712 121.832 243.137 121.832C245.562 121.832 247.953 121.263 250.117 120.17C250.842 119.766 251.489 119.238 252.03 118.609C251.491 117.982 250.843 117.457 250.117 117.061C247.955 115.961 245.563 115.388 243.137 115.388C240.711 115.388 238.319 115.961 236.157 117.061C235.431 117.457 234.783 117.982 234.244 118.609Z" fill="#FFDEAB"/>
<path d="M251.079 123.044L248.733 120.827L245.319 121.695L246.058 124.311V126.481C247.799 126.391 249.504 125.96 251.079 125.214V123.044Z" fill="#FFDEAB"/>
<path d="M248.592 123.114L245.882 123.654L246.058 124.311V126.481C247.798 126.391 249.504 125.96 251.079 125.214L248.592 123.114Z" fill="#FFC375"/>
<path d="M241.459 110.526L241.365 112.873L238.069 113.635L237.928 111.289L237.74 111.16C238.711 110.858 239.709 110.653 240.72 110.55L240.908 108.661L241.459 110.421V110.526Z" fill="#FFC375"/>
<path d="M231.863 121.061V123.114C231.008 122.356 230.287 121.46 229.728 120.463V118.246L233.599 117.612L234.244 118.609L236.368 118.809L235.324 119.618L231.863 121.061Z" fill="#FFDEAB"/>
<path d="M234.244 120.064L233.681 119.513L229.728 120.463C230.222 121.502 230.953 122.41 231.863 123.114V121.061L234.244 120.064Z" fill="#FFC375"/>
<path d="M240.908 108.696L241.459 110.526L241.354 112.873L240.72 110.573L240.908 108.696Z" fill="#FFDEAB"/>
<path d="M255.737 115.008L252.874 115.219L252.569 116.486C252.319 116.058 252.015 115.664 251.666 115.313V113.201L254.939 112.31V114.198L255.737 115.008Z" fill="#FFC375"/>
<path d="M254.939 114.269L251.666 115.383V113.272L254.939 112.38V114.269Z" fill="#FFDEAB"/>
<path d="M236.074 161.793L235.699 161.606C233.939 160.585 232.954 159.259 233.001 157.992V156.573L233.857 130.048L236.497 130.752L236.074 161.793Z" fill="white"/>
<path d="M230.256 123.173L232.496 125.097V127.666C231.819 127.262 231.246 126.705 230.824 126.038C230.402 125.372 230.143 124.615 230.068 123.83V123.009L230.256 123.173Z" fill="white"/>
<path d="M227.488 167.167V167.085C227.392 165.571 227.423 164.053 227.581 162.544C228.241 163.719 229.136 164.745 230.209 165.559V172.258C228.332 170.768 227.347 169.009 227.476 167.249L227.488 167.167Z" fill="white"/>
<path d="M296.786 154.368L299.66 159.26C305.725 157.066 312.366 157.066 318.431 159.26L321.317 154.368C325.693 157.523 326.15 161.606 325.927 166.944C326.127 169.572 324.484 172.247 321 174.253C314.418 178.054 303.731 178.054 297.138 174.253C293.618 172.247 292.023 169.56 292.222 166.944C291.952 161.606 292.398 157.547 296.786 154.368Z" fill="black"/>
<path d="M309.022 167.718C317.205 167.718 323.839 163.889 323.839 159.166C323.839 154.442 317.205 150.613 309.022 150.613C300.839 150.613 294.205 154.442 294.205 159.166C294.205 163.889 300.839 167.718 309.022 167.718Z" fill="#4D4D4D"/>
<path d="M309.022 143.375H314.829C316.002 149.241 317.269 151.188 319.721 155.951C321.117 158.298 320.214 160.925 317.046 162.756C314.563 164.021 311.815 164.68 309.028 164.68C306.241 164.68 303.493 164.021 301.009 162.756C297.83 160.925 296.938 158.274 298.311 155.986C300.786 151.188 302.077 149.229 303.215 143.375H309.022Z" fill="black"/>
<path d="M309.022 146.273C314.672 146.273 319.252 143.625 319.252 140.36C319.252 137.094 314.672 134.447 309.022 134.447C303.372 134.447 298.792 137.094 298.792 140.36C298.792 143.625 303.372 146.273 309.022 146.273Z" fill="#333333"/>
<path d="M309.022 141.557C312.877 141.557 316.002 139.75 316.002 137.521C316.002 135.292 312.877 133.485 309.022 133.485C305.166 133.485 302.041 135.292 302.041 137.521C302.041 139.75 305.166 141.557 309.022 141.557Z" fill="#4D4D4D"/>
<path d="M314.518 138.452C318.629 135.424 319.506 129.637 316.478 125.526C313.449 121.416 307.662 120.538 303.552 123.567C299.441 126.595 298.564 132.382 301.592 136.493C304.621 140.603 310.408 141.481 314.518 138.452Z" fill="black"/>
<path d="M299.483 156.514V156.456V156.385C299.8 155.787 300.082 155.212 300.363 154.708C300.727 154.004 301.067 153.359 301.384 152.725C302.373 150.802 303.159 148.781 303.73 146.695C304.544 146.947 305.375 147.135 306.217 147.258C305.162 152.197 304.563 157.124 302.334 161.758C302.092 161.641 301.845 161.512 301.595 161.371C300.415 160.802 299.503 159.797 299.049 158.567C298.978 158.214 298.98 157.849 299.055 157.496C299.129 157.143 299.275 156.809 299.483 156.514Z" fill="#808080"/>
<path d="M293.442 166.85V166.768C293.355 165.254 293.39 163.736 293.547 162.228C294.2 163.408 295.096 164.435 296.175 165.243V171.942C294.286 170.452 293.301 168.692 293.442 166.932V166.85Z" fill="#808080"/>
<path d="M301.783 130.001C301.563 129.83 301.396 129.601 301.3 129.34C301.205 129.078 301.185 128.795 301.244 128.523V128.265C301.344 127.681 301.551 127.12 301.854 126.61C302.675 125.179 303.965 124.381 304.74 124.827C305.514 125.273 305.455 126.786 304.634 128.218C304.329 128.736 303.932 129.193 303.461 129.567C303.4 129.624 303.333 129.675 303.261 129.719C303.064 129.897 302.822 130.016 302.562 130.066C302.301 130.116 302.032 130.093 301.783 130.001Z" fill="#808080"/>
<path d="M230.501 194.103L233.423 199.077C239.576 196.86 246.31 196.86 252.463 199.077L255.384 194.103C259.842 197.305 260.3 201.447 260.077 206.878C260.288 209.553 258.61 212.263 255.079 214.304C248.38 218.176 237.482 218.176 230.83 214.304C227.31 212.263 225.621 209.612 225.821 206.878C225.586 201.447 226.043 197.305 230.501 194.103Z" fill="black"/>
<path d="M242.937 207.676C251.257 207.676 258.001 203.784 258.001 198.983C258.001 194.182 251.257 190.29 242.937 190.29C234.618 190.29 227.874 194.182 227.874 198.983C227.874 203.784 234.618 207.676 242.937 207.676Z" fill="#4D4D4D"/>
<path d="M232.051 195.733C232.991 194.238 233.71 192.613 234.186 190.912H251.689C252.159 192.603 252.874 194.215 253.813 195.698C255.232 198.044 254.317 200.766 251.091 202.62C248.567 203.904 245.775 204.573 242.943 204.573C240.112 204.573 237.32 203.904 234.796 202.62C231.57 200.766 230.655 198.068 232.051 195.733Z" fill="black"/>
<path d="M225.152 167.12C226.149 168.293 229.645 170.839 231.417 170.053C232.171 169.76 232.882 169.366 233.529 168.88C234.444 170.285 235.643 171.484 237.048 172.399C237.048 172.399 231.37 178.91 230.889 182.512C230.15 188.061 232.449 194.021 233.001 195.499C233.218 196.219 233.583 196.885 234.072 197.457C234.56 198.028 235.162 198.492 235.84 198.819C239.196 200.529 243.055 200.978 246.715 200.086C247.87 199.828 248.981 199.401 250.012 198.819C251.068 198.263 251.943 197.416 252.534 196.379C252.779 195.919 252.92 195.41 252.944 194.889L253.543 189.41C261.11 175.391 255.044 162.087 245.976 155.541C245.94 152.97 245.03 150.487 243.395 148.502L240.755 152.573C239.544 152.562 238.335 152.66 237.142 152.866C236.851 152.974 236.569 153.104 236.297 153.253C234.596 154.157 231.44 156.245 231.44 156.245L230.643 158.075C230.643 158.075 225.481 161.008 225.14 161.747C224.8 162.486 224.155 165.982 225.152 167.12Z" fill="#4D4D4D"/>
<path d="M225.152 167.12C226.15 168.293 229.646 170.839 231.417 170.053C232.171 169.76 232.882 169.365 233.529 168.88C234.444 170.285 235.643 171.483 237.048 172.399C237.048 172.399 231.37 178.91 230.889 182.512C230.15 188.061 232.449 194.02 233.001 195.499C233.218 196.218 233.583 196.885 234.072 197.457C234.561 198.028 235.163 198.492 235.84 198.819C239.197 200.529 243.055 200.978 246.715 200.086L247.337 197.657V192.272C255.549 175.52 248.592 163.155 239.571 158.884L236.297 154.297L235.265 157.547L231.499 156.374L230.701 158.204C230.701 158.204 225.539 161.137 225.199 161.876C224.859 162.615 224.155 165.982 225.152 167.12Z" fill="black"/>
<path d="M243.407 148.619L242.938 154.297L240.768 152.69L243.407 148.619Z" fill="black"/>
<path d="M236.309 153.37V154.297L241.271 155.963L242.937 154.297L240.767 152.69C239.556 152.679 238.346 152.777 237.153 152.983C236.863 153.091 236.58 153.221 236.309 153.37Z" fill="black"/>
<path d="M233.435 192.343C232.361 189.212 231.961 185.89 232.262 182.594C232.602 179.977 236.579 174.933 238.128 173.208L239.301 171.847C237.372 171.112 235.753 169.737 234.714 167.953L233.764 166.169C235.113 168.516 236.779 169.196 241.905 171.05C233.787 181.057 232.626 181.432 236.309 193.809C234.444 196.155 233.376 199.253 235.453 201.188C234.272 200.609 233.36 199.596 232.907 198.361C232.822 198.01 232.809 197.645 232.867 197.288C232.926 196.932 233.055 196.59 233.247 196.284C233.494 195.905 233.721 195.514 233.928 195.111L234.221 194.56L234.01 193.973C233.799 193.445 233.611 192.906 233.435 192.343Z" fill="#808080"/>
<path d="M226.372 162.38L226.806 162.04C226.489 164.621 230.396 168.105 231.804 168.445C231.733 168.445 230.924 168.539 230.842 168.574C230.78 168.587 230.716 168.587 230.654 168.574C229.387 168.574 226.982 166.862 226.208 165.982C225.949 164.787 226.006 163.546 226.372 162.38Z" fill="#808080"/>
<path d="M227.205 206.82V206.738C227.118 205.2 227.154 203.659 227.311 202.127C227.98 203.319 228.891 204.358 229.985 205.177V211.993C228.061 210.48 227.064 208.685 227.205 206.902V206.82Z" fill="#808080"/>
<g style="mix-blend-mode:multiply">
<path d="M176.994 226.517V242.965L209.502 224.206V207.758L176.994 226.517Z" fill="#DBBB91"/>
</g>
<g style="mix-blend-mode:multiply">
<path d="M241.999 226.517V242.965L339.5 186.676V170.229L241.999 226.517Z" fill="#DBBB91"/>
</g>
<path d="M264.829 135.785L267.738 140.735C273.861 138.53 280.562 138.53 286.685 140.735L289.594 135.785C294.029 138.976 294.486 143.093 294.287 148.502C294.486 151.165 292.832 153.863 289.301 155.893C282.637 159.741 271.832 159.741 265.169 155.893C261.649 153.863 259.983 151.2 260.183 148.502C259.901 143.093 260.394 138.976 264.829 135.785Z" fill="black"/>
<path d="M277.218 149.3C285.498 149.3 292.211 145.423 292.211 140.642C292.211 135.86 285.498 131.984 277.218 131.984C268.937 131.984 262.225 135.86 262.225 140.642C262.225 145.423 268.937 149.3 277.218 149.3Z" fill="#4D4D4D"/>
<path d="M266.377 137.415C270.8 130.646 270.448 117.143 269.99 106.186H284.432C283.975 117.143 283.623 130.646 288.034 137.38C289.442 139.727 288.538 142.413 285.324 144.267C282.811 145.545 280.031 146.212 277.211 146.212C274.392 146.212 271.612 145.545 269.099 144.267C265.884 142.413 264.981 139.738 266.377 137.415Z" fill="black"/>
<path d="M277.217 109.107C283.806 109.107 289.148 106.024 289.148 102.22C289.148 98.417 283.806 95.3339 277.217 95.3339C270.627 95.3339 265.286 98.417 265.286 102.22C265.286 106.024 270.627 109.107 277.217 109.107Z" fill="#333333"/>
<path d="M269.932 94.196C265.908 96.5423 265.908 100.285 269.932 102.608C272.19 103.753 274.686 104.349 277.217 104.349C279.749 104.349 282.245 103.753 284.503 102.608C288.526 100.261 288.526 96.5188 284.503 94.196C282.245 93.0509 279.749 92.4542 277.217 92.4542C274.686 92.4542 272.19 93.0509 269.932 94.196Z" fill="#4D4D4D"/>
<path d="M266.564 90.2893H287.857L283.892 97.7154C283.482 98.3989 282.894 98.9584 282.191 99.3344C280.658 100.11 278.964 100.514 277.246 100.514C275.528 100.514 273.834 100.11 272.301 99.3344C271.572 98.9688 270.959 98.4084 270.53 97.7154L266.564 90.2893Z" fill="black"/>
<path d="M266.12 87.7553C266.818 83.0218 268.352 78.4499 270.648 74.2522H283.835C286.128 78.4544 287.657 83.0303 288.351 87.7671C288.609 89.6089 287.542 91.5212 285.09 92.9407C282.648 94.1785 279.949 94.8236 277.212 94.8236C274.475 94.8236 271.776 94.1785 269.334 92.9407C266.941 91.5094 265.768 89.5972 266.12 87.7553Z" fill="black"/>
<path d="M272.453 72.2343C269.825 73.7476 269.825 76.2113 272.453 77.7247C273.926 78.4765 275.557 78.8685 277.211 78.8685C278.864 78.8685 280.495 78.4765 281.968 77.7247C284.607 76.2113 284.607 73.7476 281.968 72.2343C280.495 71.4824 278.864 71.0905 277.211 71.0905C275.557 71.0905 273.926 71.4824 272.453 72.2343Z" fill="#4D4D4D"/>
<path d="M273.276 72.7973C273.276 73.8427 273.691 74.8453 274.43 75.5846C275.169 76.3238 276.172 76.7391 277.217 76.7391C278.263 76.7391 279.265 76.3238 280.005 75.5846C280.744 74.8453 281.159 73.8427 281.159 72.7973C281.159 67.6353 277.217 62.1097 277.217 62.1097C277.217 62.1097 273.276 66.9784 273.276 72.7973Z" fill="#FBA53B"/>
<path d="M267.492 87.7788C268.035 84.3135 269.004 80.9286 270.378 77.7013C270.792 78.1035 271.253 78.4541 271.751 78.7454L272.243 79.0035C269.663 86.8754 268.888 87.5324 274.015 98.4076C273.65 98.2782 273.297 98.1172 272.959 97.9266C272.477 97.6698 272.072 97.2892 271.786 96.8239L271.434 96.1786L268.923 91.486L267.821 89.4329C267.53 88.9336 267.414 88.3514 267.492 87.7788Z" fill="#808080"/>
<path d="M261.45 148.326V148.244C261.36 146.715 261.391 145.181 261.544 143.657C262.213 144.842 263.119 145.876 264.207 146.695V153.476C262.306 151.974 261.309 150.191 261.45 148.408V148.326Z" fill="#808080"/>
<path d="M267.105 140.031C267.02 139.684 267.006 139.324 267.062 138.972C267.119 138.619 267.245 138.281 267.433 137.978C268.204 136.758 268.826 135.451 269.287 134.083C271.528 127.736 271.633 118.68 271.363 109.599C272.169 109.822 272.988 109.995 273.815 110.116C274.015 121.249 275.857 133.579 269.956 143.093L269.639 142.929C268.451 142.327 267.543 141.288 267.105 140.031Z" fill="#808080"/>
<path d="M163.198 193.516L166.107 198.467C172.23 196.262 178.931 196.262 185.054 198.467L187.975 193.516C192.398 196.707 192.867 200.825 192.667 206.233C192.867 208.896 191.213 211.595 187.693 213.636C181.018 217.484 170.213 217.484 163.549 213.636C160.03 211.595 158.364 208.943 158.563 206.233C158.305 200.825 158.763 196.707 163.198 193.516Z" fill="#FBA53B"/>
<path d="M175.585 207.031C183.865 207.031 190.578 203.155 190.578 198.373C190.578 193.591 183.865 189.715 175.585 189.715C167.305 189.715 160.592 193.591 160.592 198.373C160.592 203.155 167.305 207.031 175.585 207.031Z" fill="#FFDEAB"/>
<path d="M164.746 195.147C165.681 193.654 166.396 192.034 166.87 190.337H184.291C184.764 192.021 185.475 193.629 186.403 195.112C187.811 197.458 186.907 200.145 183.693 201.998C181.18 203.277 178.4 203.943 175.581 203.943C172.761 203.943 169.981 203.277 167.468 201.998C164.265 200.145 163.35 197.47 164.746 195.147Z" fill="#FBA53B"/>
<path d="M157.836 166.662C158.833 167.835 162.318 170.358 164.077 169.572C164.831 169.286 165.539 168.891 166.177 168.399C167.096 169.801 168.294 170.999 169.697 171.918C169.697 171.918 164.054 178.406 163.585 181.996C162.834 187.521 165.121 193.446 165.673 194.9C165.894 195.615 166.259 196.278 166.745 196.847C167.231 197.416 167.828 197.879 168.5 198.209C171.845 199.903 175.685 200.348 179.329 199.464C180.477 199.203 181.583 198.78 182.613 198.209C183.664 197.654 184.534 196.811 185.124 195.78C185.363 195.318 185.503 194.81 185.535 194.29L186.133 188.835C193.653 174.886 187.623 161.629 178.589 155.118C178.546 152.572 177.64 150.115 176.02 148.15L173.404 152.197C172.193 152.186 170.984 152.284 169.791 152.49C169.505 152.602 169.227 152.731 168.958 152.878C167.268 153.781 164.124 155.857 164.124 155.857L163.327 157.688C163.327 157.688 158.2 160.597 157.848 161.336C157.496 162.075 156.886 165.524 157.836 166.662Z" fill="#FFDEAB"/>
<path d="M157.836 166.662C158.833 167.835 162.318 170.358 164.077 169.572C164.831 169.286 165.539 168.891 166.177 168.399C167.096 169.801 168.294 170.999 169.697 171.918C169.697 171.918 164.054 178.406 163.585 181.995C162.834 187.521 165.121 193.446 165.673 194.9C165.894 195.615 166.259 196.278 166.745 196.847C167.231 197.415 167.828 197.879 168.5 198.209C171.845 199.903 175.685 200.348 179.329 199.464L179.939 197.047V191.686C188.08 175.015 181.206 162.709 172.219 158.462L168.958 153.886L167.867 157.136L164.124 155.963L163.327 157.793C163.327 157.793 158.2 160.703 157.848 161.442C157.496 162.181 156.886 165.524 157.836 166.662Z" fill="#FBA53B"/>
<path d="M176.044 148.244L175.586 153.886L173.428 152.291L176.044 148.244Z" fill="#FBA53B"/>
<path d="M168.981 152.972V153.887L173.92 155.553L175.586 153.887L173.427 152.291C172.217 152.28 171.007 152.378 169.814 152.584C169.528 152.696 169.25 152.825 168.981 152.972Z" fill="#FBA53B"/>
<path d="M166.13 191.768C165.061 188.648 164.661 185.339 164.957 182.054C165.309 179.461 169.262 174.429 170.752 172.669L171.925 171.32C170.005 170.586 168.394 169.215 167.362 167.437L166.412 165.665C167.761 168.011 169.415 168.68 174.518 170.522C166.435 180.482 165.274 180.858 168.946 193.176C167.092 195.522 166.024 198.596 168.101 200.531C166.926 199.954 166.018 198.945 165.567 197.716C165.477 197.368 165.459 197.005 165.516 196.649C165.572 196.294 165.702 195.954 165.895 195.651C166.142 195.276 166.353 194.912 166.576 194.478L166.869 193.927L166.658 193.34C166.482 192.871 166.294 192.319 166.13 191.768Z" fill="white"/>
<path d="M159.091 161.946C159.226 161.821 159.371 161.707 159.525 161.606C159.208 164.175 163.044 167.636 164.499 167.976C164.429 167.976 163.631 168.07 163.537 168.105C163.476 168.124 163.411 168.124 163.349 168.105C162.094 168.105 159.701 166.404 158.927 165.524C158.665 164.338 158.722 163.104 159.091 161.946Z" fill="white"/>
<path d="M159.923 206.139V206.057C159.827 204.528 159.859 202.994 160.017 201.47C160.686 202.655 161.593 203.69 162.68 204.509V211.289C161.838 210.737 161.145 209.985 160.662 209.102C160.18 208.218 159.922 207.229 159.912 206.221L159.923 206.139Z" fill="white"/>
<path d="M164.089 117.342L166.998 122.352C173.136 120.135 179.855 120.135 185.992 122.352L188.901 117.401C193.336 120.592 193.793 124.722 193.594 130.118C193.793 132.781 192.139 135.491 188.608 137.521C181.944 141.369 171.14 141.369 164.476 137.521C160.957 135.491 159.291 132.828 159.49 130.118C159.197 124.698 159.654 120.533 164.089 117.342Z" fill="#FBA53B"/>
<path d="M165.872 116.076C160.006 119.454 160.006 124.945 165.872 128.323C171.737 131.702 181.217 131.702 187.071 128.323C192.925 124.945 192.937 119.454 187.071 116.076C181.205 112.697 171.726 112.697 165.872 116.076Z" fill="#FFDEAB"/>
<path d="M165.638 118.973C170.072 112.204 169.708 98.7126 169.251 87.7552H183.646C183.188 98.7126 182.836 112.204 187.247 118.938C188.655 121.284 187.752 123.971 184.537 125.836C182.036 127.1 179.273 127.762 176.47 127.768C173.667 127.774 170.902 127.125 168.395 125.871C165.145 123.971 164.242 121.296 165.638 118.973Z" fill="#FBA53B"/>
<path d="M176.477 90.6765C183.066 90.6765 188.408 87.5933 188.408 83.79C188.408 79.9867 183.066 76.9036 176.477 76.9036C169.888 76.9036 164.546 79.9867 164.546 83.79C164.546 87.5933 169.888 90.6765 176.477 90.6765Z" fill="#FFC375"/>
<path d="M169.192 75.7539C165.168 78.1003 165.168 81.8427 169.192 84.1655C171.449 85.3105 173.945 85.9073 176.477 85.9073C179.009 85.9073 181.504 85.3105 183.762 84.1655C187.786 81.8192 187.786 78.0768 183.762 75.7539C181.504 74.6089 179.009 74.0122 176.477 74.0122C173.945 74.0122 171.449 74.6089 169.192 75.7539Z" fill="#FFDEAB"/>
<path d="M165.825 65.9579H187.165L183.199 79.2381C182.782 79.9374 182.182 80.5093 181.463 80.8923C179.93 81.6676 178.236 82.0715 176.518 82.0715C174.8 82.0715 173.106 81.6676 171.573 80.8923C170.855 80.5093 170.254 79.9374 169.837 79.2381L165.825 65.9579Z" fill="#FBA53B"/>
<path d="M166.951 61.7226C167.501 61.167 168.125 60.6893 168.805 60.3031C171.182 59.0945 173.811 58.4646 176.477 58.4646C179.144 58.4646 181.773 59.0945 184.15 60.3031C184.826 60.6894 185.446 61.167 185.992 61.7226H187.329V64.7377C187.329 66.3332 186.261 67.9404 184.15 69.1605C181.773 70.3691 179.144 70.999 176.477 70.999C173.811 70.999 171.182 70.3691 168.805 69.1605C166.681 67.9873 165.625 66.3332 165.625 64.7377V61.7226H166.951Z" fill="#FBA53B"/>
<path d="M176.477 67.9875C182.471 67.9875 187.329 65.1827 187.329 61.7228C187.329 58.2629 182.471 55.4581 176.477 55.4581C170.484 55.4581 165.625 58.2629 165.625 61.7228C165.625 65.1827 170.484 67.9875 176.477 67.9875Z" fill="#FFDEAB"/>
<path d="M169.474 58.4379L171.21 56.6547H172.536C175.105 55.8684 177.85 55.8684 180.419 56.6547H181.733L183.481 58.391C185.288 60.1859 184.866 62.5205 182.214 64.0574C180.437 64.9601 178.471 65.4305 176.478 65.4305C174.484 65.4305 172.518 64.9601 170.741 64.0574C168.078 62.5205 167.655 60.2329 169.474 58.4379Z" fill="#FBA53B"/>
<path d="M172.171 55.9859C169.825 57.3585 169.825 59.5757 172.171 60.9483C173.506 61.6254 174.981 61.9783 176.477 61.9783C177.973 61.9783 179.448 61.6254 180.783 60.9483C183.129 59.5757 183.129 57.3585 180.783 55.9859C179.448 55.3088 177.973 54.9559 176.477 54.9559C174.981 54.9559 173.506 55.3088 172.171 55.9859Z" fill="#FFDEAB"/>
<path d="M172.512 54.9536C172.51 55.7383 172.74 56.5061 173.175 57.1598C173.609 57.8134 174.227 58.3235 174.952 58.6254C175.676 58.9273 176.474 59.0075 177.244 58.8558C178.014 58.7041 178.721 58.3274 179.277 57.7733C179.833 57.2192 180.212 56.5127 180.366 55.7432C180.519 54.9737 180.442 54.1758 180.142 53.4506C179.842 52.7253 179.334 52.1053 178.681 51.6691C178.029 51.2329 177.262 51 176.477 51C175.428 51 174.421 51.4162 173.678 52.1573C172.934 52.8984 172.515 53.9039 172.512 54.9536Z" fill="black"/>
<path d="M160.816 129.895V129.813C160.73 128.28 160.765 126.742 160.922 125.214C161.589 126.391 162.496 127.415 163.585 128.218V134.999C161.673 133.497 160.675 131.702 160.816 129.93V129.895Z" fill="white"/>
<path d="M166.482 121.589C166.393 121.243 166.375 120.883 166.43 120.53C166.484 120.177 166.61 119.839 166.799 119.536C167.589 118.302 168.23 116.979 168.711 115.594C170.94 109.247 171.057 100.179 170.776 91.0986C171.585 91.3253 172.408 91.5016 173.239 91.6266C173.439 102.76 175.269 115.09 169.368 124.592L169.051 124.428C167.852 123.859 166.928 122.838 166.482 121.589Z" fill="white"/>
<path d="M167.785 67.2133L167.703 66.9786C167.831 67.0676 167.964 67.1498 168.101 67.225C169.504 68.0101 171.026 68.5609 172.606 68.8557L173.146 79.989C172.826 79.868 172.517 79.7229 172.219 79.555C171.753 79.3124 171.351 78.9626 171.046 78.5343L167.703 67.2133H167.785Z" fill="white"/>
</svg>
