<svg width="370" height="146" viewBox="0 0 370 146" fill="none" xmlns="http://www.w3.org/2000/svg">
<path d="M101.18 27.3887C99.9622 26.0605 99.3535 24.2474 99.3535 21.9492C99.3535 19.651 99.959 17.8411 101.17 16.5195C102.387 15.1914 104.054 14.5273 106.17 14.5273C107.335 14.5273 108.393 14.7682 109.344 15.25C110.301 15.7253 111.059 16.3893 111.619 17.2422C112.179 18.0885 112.475 19.0358 112.508 20.084H109.061C108.969 19.3158 108.657 18.6973 108.123 18.2285C107.589 17.7533 106.938 17.5156 106.17 17.5156C105.187 17.5156 104.412 17.9095 103.846 18.6973C103.286 19.485 103.006 20.5658 103.006 21.9395C103.006 23.3197 103.289 24.4069 103.855 25.2012C104.422 25.9954 105.197 26.3926 106.18 26.3926C106.954 26.3926 107.605 26.1647 108.133 25.709C108.66 25.2467 108.976 24.638 109.08 23.8828H112.518C112.459 25.4974 111.837 26.819 110.652 27.8477C109.467 28.8698 107.973 29.3809 106.17 29.3809C104.061 29.3809 102.397 28.7168 101.18 27.3887ZM116.266 23.6387C116.266 21.8483 116.744 20.4421 117.701 19.4199C118.665 18.3913 119.99 17.877 121.676 17.877C123.349 17.877 124.651 18.362 125.582 19.332C126.513 20.2956 126.979 21.6432 126.979 23.375V24.332H119.664V24.5078C119.677 25.2174 119.876 25.7773 120.26 26.1875C120.644 26.5977 121.165 26.8027 121.822 26.8027C122.324 26.8027 122.74 26.7148 123.072 26.5391C123.411 26.3633 123.639 26.1159 123.756 25.7969H126.91C126.721 26.8581 126.161 27.7012 125.23 28.3262C124.299 28.9447 123.131 29.2539 121.725 29.2539C119.993 29.2539 118.648 28.7656 117.691 27.7891C116.741 26.806 116.266 25.4225 116.266 23.6387ZM119.684 22.3496H123.629C123.603 21.7181 123.417 21.2233 123.072 20.8652C122.734 20.5072 122.275 20.3281 121.695 20.3281C121.129 20.3281 120.663 20.5137 120.299 20.8848C119.934 21.2493 119.729 21.7376 119.684 22.3496ZM131.225 29V14.0586H134.672V29H131.225ZM138.938 23.6387C138.938 21.8483 139.416 20.4421 140.373 19.4199C141.337 18.3913 142.661 17.877 144.348 17.877C146.021 17.877 147.323 18.362 148.254 19.332C149.185 20.2956 149.65 21.6432 149.65 23.375V24.332H142.336V24.5078C142.349 25.2174 142.548 25.7773 142.932 26.1875C143.316 26.5977 143.837 26.8027 144.494 26.8027C144.995 26.8027 145.412 26.7148 145.744 26.5391C146.083 26.3633 146.311 26.1159 146.428 25.7969H149.582C149.393 26.8581 148.833 27.7012 147.902 28.3262C146.971 28.9447 145.803 29.2539 144.396 29.2539C142.665 29.2539 141.32 28.7656 140.363 27.7891C139.413 26.806 138.938 25.4225 138.938 23.6387ZM142.355 22.3496H146.301C146.275 21.7181 146.089 21.2233 145.744 20.8652C145.406 20.5072 144.947 20.3281 144.367 20.3281C143.801 20.3281 143.335 20.5137 142.971 20.8848C142.606 21.2493 142.401 21.7376 142.355 22.3496ZM153.896 29V14.0586H157.344V19.8789H157.529C157.796 19.2734 158.206 18.8047 158.76 18.4727C159.32 18.1341 159.974 17.9648 160.723 17.9648C162.096 17.9648 163.161 18.4564 163.916 19.4395C164.678 20.416 165.059 21.7897 165.059 23.5605C165.059 25.3249 164.674 26.7018 163.906 27.6914C163.145 28.6745 162.083 29.166 160.723 29.166C159.948 29.166 159.271 29.0033 158.691 28.6777C158.118 28.3457 157.702 27.8867 157.441 27.3008H157.256V29H153.896ZM157.324 23.5703C157.331 24.4622 157.52 25.1654 157.891 25.6797C158.268 26.194 158.783 26.4512 159.434 26.4512C160.078 26.4512 160.586 26.194 160.957 25.6797C161.328 25.1589 161.514 24.4525 161.514 23.5605C161.514 22.6751 161.325 21.9753 160.947 21.4609C160.576 20.9401 160.072 20.6797 159.434 20.6797C158.789 20.6797 158.278 20.9401 157.9 21.4609C157.523 21.9753 157.331 22.6784 157.324 23.5703ZM169.217 29V18.1309H172.576V19.918H172.762C172.898 19.3581 173.211 18.8926 173.699 18.5215C174.194 18.1504 174.773 17.9648 175.438 17.9648C176.01 17.9648 176.427 18.0202 176.688 18.1309V21.0703C176.368 20.9401 175.874 20.875 175.203 20.875C174.428 20.875 173.81 21.0833 173.348 21.5C172.892 21.9167 172.664 22.4993 172.664 23.248V29H169.217ZM180.592 28.2676C179.947 27.6621 179.625 26.8646 179.625 25.875C179.625 24.8854 179.996 24.1107 180.738 23.5508C181.487 22.9844 182.564 22.6589 183.971 22.5742L186.344 22.4375V21.5879C186.344 21.2168 186.21 20.9303 185.943 20.7285C185.683 20.5202 185.315 20.416 184.84 20.416C183.922 20.416 183.349 20.709 183.121 21.2949H180.016C180.094 20.2402 180.582 19.4069 181.48 18.7949C182.379 18.1829 183.564 17.877 185.035 17.877C186.533 17.877 187.691 18.2025 188.512 18.8535C189.332 19.5046 189.742 20.416 189.742 21.5879V29H186.383V27.6523H186.197C185.956 28.1146 185.559 28.4824 185.006 28.7559C184.452 29.0293 183.831 29.166 183.141 29.166C182.092 29.166 181.243 28.8665 180.592 28.2676ZM182.955 25.6309C182.955 25.9759 183.085 26.2493 183.346 26.4512C183.613 26.653 183.964 26.7539 184.4 26.7539C184.947 26.7539 185.406 26.5944 185.777 26.2754C186.155 25.9564 186.344 25.5625 186.344 25.0938V24.3809L184.518 24.498C184.01 24.5371 183.622 24.6543 183.355 24.8496C183.089 25.0449 182.955 25.3053 182.955 25.6309ZM193.559 20.8457V18.2773H195.229V15.6406H198.676V18.2773H200.863V20.8457H198.676V25.25C198.676 26.0638 199.115 26.4707 199.994 26.4707C200.294 26.4707 200.583 26.4544 200.863 26.4219V28.8828C200.44 28.974 199.89 29.0195 199.213 29.0195C197.787 29.0195 196.765 28.7884 196.146 28.3262C195.535 27.8574 195.229 27.0892 195.229 26.0215V20.8457H193.559ZM204.562 23.6387C204.562 21.8483 205.041 20.4421 205.998 19.4199C206.962 18.3913 208.286 17.877 209.973 17.877C211.646 17.877 212.948 18.362 213.879 19.332C214.81 20.2956 215.275 21.6432 215.275 23.375V24.332H207.961V24.5078C207.974 25.2174 208.173 25.7773 208.557 26.1875C208.941 26.5977 209.462 26.8027 210.119 26.8027C210.62 26.8027 211.037 26.7148 211.369 26.5391C211.708 26.3633 211.936 26.1159 212.053 25.7969H215.207C215.018 26.8581 214.458 27.7012 213.527 28.3262C212.596 28.9447 211.428 29.2539 210.021 29.2539C208.29 29.2539 206.945 28.7656 205.988 27.7891C205.038 26.806 204.562 25.4225 204.562 23.6387ZM207.98 22.3496H211.926C211.9 21.7181 211.714 21.2233 211.369 20.8652C211.031 20.5072 210.572 20.3281 209.992 20.3281C209.426 20.3281 208.96 20.5137 208.596 20.8848C208.231 21.2493 208.026 21.7376 207.98 22.3496ZM226.424 29V14.0586H229.871V29H226.424ZM234.459 15.3379C234.459 14.8691 234.632 14.4948 234.977 14.2148C235.328 13.9349 235.803 13.7949 236.402 13.7949C237.008 13.7949 237.483 13.9349 237.828 14.2148C238.18 14.4948 238.355 14.8691 238.355 15.3379C238.355 15.8001 238.18 16.1712 237.828 16.4512C237.483 16.7311 237.008 16.8711 236.402 16.8711C235.803 16.8711 235.328 16.7311 234.977 16.4512C234.632 16.1712 234.459 15.8001 234.459 15.3379ZM234.674 29V18.1309H238.131V29H234.674ZM241.996 20.8457V18.2773H243.734V17.2227C243.734 16.1159 244.047 15.2956 244.672 14.7617C245.303 14.2214 246.332 13.9512 247.758 13.9512C248.389 13.9512 248.936 13.987 249.398 14.0586V16.334C249.177 16.2949 248.884 16.2754 248.52 16.2754C248.005 16.2754 247.637 16.373 247.416 16.5684C247.201 16.7637 247.094 17.0729 247.094 17.4961V18.2773H249.311V20.8457H247.182V29H243.734V20.8457H241.996ZM252.629 23.6387C252.629 21.8483 253.107 20.4421 254.064 19.4199C255.028 18.3913 256.353 17.877 258.039 17.877C259.712 17.877 261.014 18.362 261.945 19.332C262.876 20.2956 263.342 21.6432 263.342 23.375V24.332H256.027V24.5078C256.04 25.2174 256.239 25.7773 256.623 26.1875C257.007 26.5977 257.528 26.8027 258.186 26.8027C258.687 26.8027 259.104 26.7148 259.436 26.5391C259.774 26.3633 260.002 26.1159 260.119 25.7969H263.273C263.085 26.8581 262.525 27.7012 261.594 28.3262C260.663 28.9447 259.494 29.2539 258.088 29.2539C256.356 29.2539 255.012 28.7656 254.055 27.7891C253.104 26.806 252.629 25.4225 252.629 23.6387ZM256.047 22.3496H259.992C259.966 21.7181 259.781 21.2233 259.436 20.8652C259.097 20.5072 258.638 20.3281 258.059 20.3281C257.492 20.3281 257.027 20.5137 256.662 20.8848C256.298 21.2493 256.092 21.7376 256.047 22.3496ZM267.51 32.9062L268.389 26.5977H271.67L269.756 32.9062H267.51ZM53.791 57V42.9082H63.4492V45.7891H57.375V48.6016H63.0879V51.2383H57.375V54.1191H63.4492V57H53.791ZM68.1934 57V46.1309H71.5527V47.9277H71.7383C71.9466 47.2962 72.321 46.7982 72.8613 46.4336C73.4017 46.0625 74.0267 45.877 74.7363 45.877C75.5111 45.877 76.1556 46.056 76.6699 46.4141C77.1842 46.7656 77.5456 47.2702 77.7539 47.9277H77.9395C78.1673 47.3092 78.5742 46.8145 79.1602 46.4434C79.7526 46.0658 80.4297 45.877 81.1914 45.877C82.2591 45.877 83.1152 46.2155 83.7598 46.8926C84.4108 47.5632 84.7363 48.4551 84.7363 49.5684V57H81.2891V50.4473C81.2891 49.2819 80.765 48.6992 79.7168 48.6992C79.2285 48.6992 78.8379 48.862 78.5449 49.1875C78.2585 49.513 78.1152 49.9427 78.1152 50.4766V57H74.8145V50.3887C74.8145 49.8418 74.681 49.4251 74.4141 49.1387C74.1471 48.8457 73.763 48.6992 73.2617 48.6992C72.7799 48.6992 72.3893 48.8685 72.0898 49.207C71.7904 49.5456 71.6406 49.9883 71.6406 50.5352V57H68.1934ZM89.4316 57V42.0586H92.8789V47.8789H93.0645C93.3314 47.2734 93.7415 46.8047 94.2949 46.4727C94.8548 46.1341 95.5091 45.9648 96.2578 45.9648C97.6315 45.9648 98.696 46.4564 99.4512 47.4395C100.213 48.416 100.594 49.7897 100.594 51.5605C100.594 53.3249 100.21 54.7018 99.4414 55.6914C98.6797 56.6745 97.6185 57.166 96.2578 57.166C95.4831 57.166 94.806 57.0033 94.2266 56.6777C93.6536 56.3457 93.237 55.8867 92.9766 55.3008H92.791V57H89.4316ZM92.8594 51.5703C92.8659 52.4622 93.0547 53.1654 93.4258 53.6797C93.8034 54.194 94.3177 54.4512 94.9688 54.4512C95.6133 54.4512 96.1211 54.194 96.4922 53.6797C96.8633 53.1589 97.0488 52.4525 97.0488 51.5605C97.0488 50.6751 96.86 49.9753 96.4824 49.4609C96.1113 48.9401 95.6068 48.6797 94.9688 48.6797C94.3242 48.6797 93.8132 48.9401 93.4355 49.4609C93.0579 49.9753 92.8659 50.6784 92.8594 51.5703ZM104.752 57V46.1309H108.111V47.918H108.297C108.434 47.3581 108.746 46.8926 109.234 46.5215C109.729 46.1504 110.309 45.9648 110.973 45.9648C111.546 45.9648 111.962 46.0202 112.223 46.1309V49.0703C111.904 48.9401 111.409 48.875 110.738 48.875C109.964 48.875 109.345 49.0833 108.883 49.5C108.427 49.9167 108.199 50.4993 108.199 51.248V57H104.752ZM116.127 56.2676C115.482 55.6621 115.16 54.8646 115.16 53.875C115.16 52.8854 115.531 52.1107 116.273 51.5508C117.022 50.9844 118.1 50.6589 119.506 50.5742L121.879 50.4375V49.5879C121.879 49.2168 121.745 48.9303 121.479 48.7285C121.218 48.5202 120.85 48.416 120.375 48.416C119.457 48.416 118.884 48.709 118.656 49.2949H115.551C115.629 48.2402 116.117 47.4069 117.016 46.7949C117.914 46.1829 119.099 45.877 120.57 45.877C122.068 45.877 123.227 46.2025 124.047 46.8535C124.867 47.5046 125.277 48.416 125.277 49.5879V57H121.918V55.6523H121.732C121.492 56.1146 121.094 56.4824 120.541 56.7559C119.988 57.0293 119.366 57.166 118.676 57.166C117.628 57.166 116.778 56.8665 116.127 56.2676ZM118.49 53.6309C118.49 53.9759 118.62 54.2493 118.881 54.4512C119.148 54.653 119.499 54.7539 119.936 54.7539C120.482 54.7539 120.941 54.5944 121.312 54.2754C121.69 53.9564 121.879 53.5625 121.879 53.0938V52.3809L120.053 52.498C119.545 52.5371 119.158 52.6543 118.891 52.8496C118.624 53.0449 118.49 53.3053 118.49 53.6309ZM129.367 51.5508C129.367 49.7018 129.836 48.2956 130.773 47.332C131.711 46.362 133.075 45.877 134.865 45.877C136.35 45.877 137.525 46.2546 138.391 47.0098C139.263 47.765 139.755 48.8132 139.865 50.1543H136.691C136.62 49.64 136.428 49.2428 136.115 48.9629C135.803 48.6764 135.386 48.5332 134.865 48.5332C133.511 48.5332 132.834 49.5391 132.834 51.5508C132.834 53.582 133.511 54.5977 134.865 54.5977C135.926 54.5977 136.535 54.0833 136.691 53.0547H139.865C139.761 54.3633 139.266 55.3919 138.381 56.1406C137.502 56.8828 136.33 57.2539 134.865 57.2539C133.075 57.2539 131.711 56.7689 130.773 55.7988C129.836 54.8223 129.367 53.4062 129.367 51.5508ZM143.418 51.6387C143.418 49.8483 143.896 48.4421 144.854 47.4199C145.817 46.3913 147.142 45.877 148.828 45.877C150.501 45.877 151.803 46.362 152.734 47.332C153.665 48.2956 154.131 49.6432 154.131 51.375V52.332H146.816V52.5078C146.829 53.2174 147.028 53.7773 147.412 54.1875C147.796 54.5977 148.317 54.8027 148.975 54.8027C149.476 54.8027 149.893 54.7148 150.225 54.5391C150.563 54.3633 150.791 54.1159 150.908 53.7969H154.062C153.874 54.8581 153.314 55.7012 152.383 56.3262C151.452 56.9447 150.283 57.2539 148.877 57.2539C147.145 57.2539 145.801 56.7656 144.844 55.7891C143.893 54.806 143.418 53.4225 143.418 51.6387ZM146.836 50.3496H150.781C150.755 49.7181 150.57 49.2233 150.225 48.8652C149.886 48.5072 149.427 48.3281 148.848 48.3281C148.281 48.3281 147.816 48.5137 147.451 48.8848C147.087 49.2493 146.882 49.7376 146.836 50.3496ZM164.371 48.8457V46.2773H166.041V43.6406H169.488V46.2773H171.676V48.8457H169.488V53.25C169.488 54.0638 169.928 54.4707 170.807 54.4707C171.106 54.4707 171.396 54.4544 171.676 54.4219V56.8828C171.253 56.974 170.702 57.0195 170.025 57.0195C168.6 57.0195 167.577 56.7884 166.959 56.3262C166.347 55.8574 166.041 55.0892 166.041 54.0215V48.8457H164.371ZM176.049 57V42.0586H179.428V47.9375H179.613C179.854 47.3125 180.261 46.821 180.834 46.4629C181.407 46.1048 182.084 45.9258 182.865 45.9258C184.05 45.9258 184.965 46.2806 185.609 46.9902C186.26 47.6934 186.586 48.7025 186.586 50.0176V57H183.139V50.7988C183.139 50.1283 182.989 49.6172 182.689 49.2656C182.39 48.9141 181.954 48.7383 181.381 48.7383C180.795 48.7383 180.333 48.9303 179.994 49.3145C179.662 49.6986 179.496 50.2064 179.496 50.8379V57H176.049ZM190.656 51.6387C190.656 49.8483 191.135 48.4421 192.092 47.4199C193.055 46.3913 194.38 45.877 196.066 45.877C197.74 45.877 199.042 46.362 199.973 47.332C200.904 48.2956 201.369 49.6432 201.369 51.375V52.332H194.055V52.5078C194.068 53.2174 194.266 53.7773 194.65 54.1875C195.035 54.5977 195.555 54.8027 196.213 54.8027C196.714 54.8027 197.131 54.7148 197.463 54.5391C197.801 54.3633 198.029 54.1159 198.146 53.7969H201.301C201.112 54.8581 200.552 55.7012 199.621 56.3262C198.69 56.9447 197.521 57.2539 196.115 57.2539C194.383 57.2539 193.039 56.7656 192.082 55.7891C191.132 54.806 190.656 53.4225 190.656 51.6387ZM194.074 50.3496H198.02C197.993 49.7181 197.808 49.2233 197.463 48.8652C197.124 48.5072 196.665 48.3281 196.086 48.3281C195.52 48.3281 195.054 48.5137 194.689 48.8848C194.325 49.2493 194.12 49.7376 194.074 50.3496ZM212.42 57V46.1309H215.779V47.9277H215.965C216.173 47.2962 216.548 46.7982 217.088 46.4336C217.628 46.0625 218.253 45.877 218.963 45.877C219.738 45.877 220.382 46.056 220.896 46.4141C221.411 46.7656 221.772 47.2702 221.98 47.9277H222.166C222.394 47.3092 222.801 46.8145 223.387 46.4434C223.979 46.0658 224.656 45.877 225.418 45.877C226.486 45.877 227.342 46.2155 227.986 46.8926C228.637 47.5632 228.963 48.4551 228.963 49.5684V57H225.516V50.4473C225.516 49.2819 224.992 48.6992 223.943 48.6992C223.455 48.6992 223.064 48.862 222.771 49.1875C222.485 49.513 222.342 49.9427 222.342 50.4766V57H219.041V50.3887C219.041 49.8418 218.908 49.4251 218.641 49.1387C218.374 48.8457 217.99 48.6992 217.488 48.6992C217.007 48.6992 216.616 48.8685 216.316 49.207C216.017 49.5456 215.867 49.9883 215.867 50.5352V57H212.42ZM233.023 51.5605C233.023 49.8027 233.518 48.416 234.508 47.4004C235.497 46.3848 236.848 45.877 238.561 45.877C240.279 45.877 241.63 46.3848 242.613 47.4004C243.603 48.4095 244.098 49.7962 244.098 51.5605C244.098 53.3509 243.609 54.7474 242.633 55.75C241.663 56.7526 240.305 57.2539 238.561 57.2539C236.822 57.2539 235.465 56.7526 234.488 55.75C233.512 54.7474 233.023 53.3509 233.023 51.5605ZM236.568 51.5605C236.568 52.5306 236.741 53.2826 237.086 53.8164C237.438 54.3503 237.929 54.6172 238.561 54.6172C239.192 54.6172 239.68 54.3503 240.025 53.8164C240.377 53.2826 240.553 52.5306 240.553 51.5605C240.553 50.61 240.377 49.8646 240.025 49.3242C239.674 48.7839 239.186 48.5137 238.561 48.5137C237.936 48.5137 237.447 48.7839 237.096 49.3242C236.744 49.8646 236.568 50.61 236.568 51.5605ZM248.256 57V46.1309H251.615V47.9277H251.801C252.009 47.2962 252.383 46.7982 252.924 46.4336C253.464 46.0625 254.089 45.877 254.799 45.877C255.574 45.877 256.218 46.056 256.732 46.4141C257.247 46.7656 257.608 47.2702 257.816 47.9277H258.002C258.23 47.3092 258.637 46.8145 259.223 46.4434C259.815 46.0658 260.492 45.877 261.254 45.877C262.322 45.877 263.178 46.2155 263.822 46.8926C264.473 47.5632 264.799 48.4551 264.799 49.5684V57H261.352V50.4473C261.352 49.2819 260.827 48.6992 259.779 48.6992C259.291 48.6992 258.9 48.862 258.607 49.1875C258.321 49.513 258.178 49.9427 258.178 50.4766V57H254.877V50.3887C254.877 49.8418 254.743 49.4251 254.477 49.1387C254.21 48.8457 253.826 48.6992 253.324 48.6992C252.842 48.6992 252.452 48.8685 252.152 49.207C251.853 49.5456 251.703 49.9883 251.703 50.5352V57H248.256ZM268.859 51.6387C268.859 49.8483 269.338 48.4421 270.295 47.4199C271.258 46.3913 272.583 45.877 274.27 45.877C275.943 45.877 277.245 46.362 278.176 47.332C279.107 48.2956 279.572 49.6432 279.572 51.375V52.332H272.258V52.5078C272.271 53.2174 272.469 53.7773 272.854 54.1875C273.238 54.5977 273.758 54.8027 274.416 54.8027C274.917 54.8027 275.334 54.7148 275.666 54.5391C276.005 54.3633 276.232 54.1159 276.35 53.7969H279.504C279.315 54.8581 278.755 55.7012 277.824 56.3262C276.893 56.9447 275.725 57.2539 274.318 57.2539C272.587 57.2539 271.242 56.7656 270.285 55.7891C269.335 54.806 268.859 53.4225 268.859 51.6387ZM272.277 50.3496H276.223C276.197 49.7181 276.011 49.2233 275.666 48.8652C275.327 48.5072 274.868 48.3281 274.289 48.3281C273.723 48.3281 273.257 48.5137 272.893 48.8848C272.528 49.2493 272.323 49.7376 272.277 50.3496ZM283.721 57V46.1309H287.08V47.8984H287.266C287.507 47.2734 287.904 46.7819 288.457 46.4238C289.01 46.0592 289.674 45.877 290.449 45.877C291.647 45.877 292.559 46.2318 293.184 46.9414C293.815 47.651 294.131 48.6634 294.131 49.9785V57H290.674V50.75C290.674 49.3828 290.104 48.6992 288.965 48.6992C288.411 48.6992 287.972 48.8913 287.646 49.2754C287.327 49.653 287.168 50.1576 287.168 50.7891V57H283.721ZM297.918 48.8457V46.2773H299.588V43.6406H303.035V46.2773H305.223V48.8457H303.035V53.25C303.035 54.0638 303.475 54.4707 304.354 54.4707C304.653 54.4707 304.943 54.4544 305.223 54.4219V56.8828C304.799 56.974 304.249 57.0195 303.572 57.0195C302.146 57.0195 301.124 56.7884 300.506 56.3262C299.894 55.8574 299.588 55.0892 299.588 54.0215V48.8457H297.918ZM308.932 53.8848H312.262C312.444 54.5749 313.046 54.9199 314.068 54.9199C314.544 54.9199 314.921 54.832 315.201 54.6562C315.488 54.4805 315.631 54.2461 315.631 53.9531C315.631 53.7253 315.54 53.543 315.357 53.4062C315.182 53.2695 314.876 53.1556 314.439 53.0645L312.418 52.6348C310.27 52.179 309.195 51.1016 309.195 49.4023C309.195 48.3216 309.625 47.4655 310.484 46.834C311.344 46.196 312.506 45.877 313.971 45.877C315.475 45.877 316.63 46.1634 317.438 46.7363C318.251 47.3027 318.691 48.1328 318.756 49.2266H315.611C315.559 48.9076 315.393 48.6602 315.113 48.4844C314.833 48.3021 314.462 48.2109 314 48.2109C313.551 48.2109 313.183 48.3021 312.896 48.4844C312.617 48.6602 312.477 48.8945 312.477 49.1875C312.477 49.4154 312.574 49.6042 312.77 49.7539C312.971 49.8971 313.29 50.0143 313.727 50.1055L315.973 50.5645C317.047 50.7923 317.825 51.1439 318.307 51.6191C318.795 52.0879 319.039 52.7324 319.039 53.5527C319.039 54.679 318.583 55.5775 317.672 56.248C316.76 56.9186 315.543 57.2539 314.02 57.2539C312.464 57.2539 311.249 56.9674 310.377 56.3945C309.511 55.8151 309.029 54.9785 308.932 53.8848ZM75.0605 79.5605C75.0605 77.8027 75.5553 76.416 76.5449 75.4004C77.5345 74.3848 78.8854 73.877 80.5977 73.877C82.3164 73.877 83.6673 74.3848 84.6504 75.4004C85.64 76.4095 86.1348 77.7962 86.1348 79.5605C86.1348 81.3509 85.6465 82.7474 84.6699 83.75C83.6999 84.7526 82.3424 85.2539 80.5977 85.2539C78.8594 85.2539 77.502 84.7526 76.5254 83.75C75.5488 82.7474 75.0605 81.3509 75.0605 79.5605ZM78.6055 79.5605C78.6055 80.5306 78.778 81.2826 79.123 81.8164C79.4746 82.3503 79.9661 82.6172 80.5977 82.6172C81.2292 82.6172 81.7174 82.3503 82.0625 81.8164C82.4141 81.2826 82.5898 80.5306 82.5898 79.5605C82.5898 78.61 82.4141 77.8646 82.0625 77.3242C81.7109 76.7839 81.2227 76.5137 80.5977 76.5137C79.9727 76.5137 79.4844 76.7839 79.1328 77.3242C78.7812 77.8646 78.6055 78.61 78.6055 79.5605ZM89.4434 76.8457V74.2773H91.1816V73.2227C91.1816 72.1159 91.4941 71.2956 92.1191 70.7617C92.7507 70.2214 93.7793 69.9512 95.2051 69.9512C95.8366 69.9512 96.3835 69.987 96.8457 70.0586V72.334C96.6243 72.2949 96.3314 72.2754 95.9668 72.2754C95.4525 72.2754 95.0846 72.373 94.8633 72.5684C94.6484 72.7637 94.541 73.0729 94.541 73.4961V74.2773H96.7578V76.8457H94.6289V85H91.1816V76.8457H89.4434ZM106.178 86.1719C106.295 86.1849 106.432 86.1914 106.588 86.1914C107.037 86.1914 107.359 86.1068 107.555 85.9375C107.75 85.7747 107.848 85.5078 107.848 85.1367V74.1309H111.305V85.2637C111.305 86.3704 110.95 87.2168 110.24 87.8027C109.531 88.3952 108.512 88.6914 107.184 88.6914C106.826 88.6914 106.49 88.6751 106.178 88.6426V86.1719ZM107.633 71.3379C107.633 70.8691 107.805 70.4948 108.15 70.2148C108.502 69.9349 108.977 69.7949 109.576 69.7949C110.182 69.7949 110.657 69.9349 111.002 70.2148C111.354 70.4948 111.529 70.8691 111.529 71.3379C111.529 71.8001 111.354 72.1712 111.002 72.4512C110.657 72.7311 110.182 72.8711 109.576 72.8711C108.977 72.8711 108.502 72.7311 108.15 72.4512C107.805 72.1712 107.633 71.8001 107.633 71.3379ZM115.482 79.5605C115.482 77.8027 115.977 76.416 116.967 75.4004C117.956 74.3848 119.307 73.877 121.02 73.877C122.738 73.877 124.089 74.3848 125.072 75.4004C126.062 76.4095 126.557 77.7962 126.557 79.5605C126.557 81.3509 126.068 82.7474 125.092 83.75C124.122 84.7526 122.764 85.2539 121.02 85.2539C119.281 85.2539 117.924 84.7526 116.947 83.75C115.971 82.7474 115.482 81.3509 115.482 79.5605ZM119.027 79.5605C119.027 80.5306 119.2 81.2826 119.545 81.8164C119.896 82.3503 120.388 82.6172 121.02 82.6172C121.651 82.6172 122.139 82.3503 122.484 81.8164C122.836 81.2826 123.012 80.5306 123.012 79.5605C123.012 78.61 122.836 77.8646 122.484 77.3242C122.133 76.7839 121.645 76.5137 121.02 76.5137C120.395 76.5137 119.906 76.7839 119.555 77.3242C119.203 77.8646 119.027 78.61 119.027 79.5605ZM129.387 74.1309H133.205L135.148 82.0996H135.334L137.277 74.1309H140.93L137.434 84.9805C136.971 86.4258 136.307 87.4479 135.441 88.0469C134.582 88.6523 133.371 88.9551 131.809 88.9551C131.001 88.9551 130.581 88.9518 130.549 88.9453V86.3184C130.614 86.3314 130.816 86.3379 131.154 86.3379C132.3 86.3379 132.932 86.0221 133.049 85.3906L133.098 85.0879L129.387 74.1309ZM150.877 74.1309H154.373L155.73 81.582H155.916L157.557 74.1309H160.848L162.508 81.582H162.693L164.051 74.1309H167.469L164.656 85H160.936L159.236 77.8418H159.051L157.371 85H153.709L150.877 74.1309ZM171.168 71.3379C171.168 70.8691 171.34 70.4948 171.686 70.2148C172.037 69.9349 172.512 69.7949 173.111 69.7949C173.717 69.7949 174.192 69.9349 174.537 70.2148C174.889 70.4948 175.064 70.8691 175.064 71.3379C175.064 71.8001 174.889 72.1712 174.537 72.4512C174.192 72.7311 173.717 72.8711 173.111 72.8711C172.512 72.8711 172.037 72.7311 171.686 72.4512C171.34 72.1712 171.168 71.8001 171.168 71.3379ZM171.383 85V74.1309H174.84V85H171.383ZM178.744 76.8457V74.2773H180.414V71.6406H183.861V74.2773H186.049V76.8457H183.861V81.25C183.861 82.0638 184.301 82.4707 185.18 82.4707C185.479 82.4707 185.769 82.4544 186.049 82.4219V84.8828C185.626 84.974 185.076 85.0195 184.398 85.0195C182.973 85.0195 181.951 84.7884 181.332 84.3262C180.72 83.8574 180.414 83.0892 180.414 82.0215V76.8457H178.744ZM190.422 85V70.0586H193.801V75.9375H193.986C194.227 75.3125 194.634 74.821 195.207 74.4629C195.78 74.1048 196.457 73.9258 197.238 73.9258C198.423 73.9258 199.338 74.2806 199.982 74.9902C200.633 75.6934 200.959 76.7025 200.959 78.0176V85H197.512V78.7988C197.512 78.1283 197.362 77.6172 197.062 77.2656C196.763 76.9141 196.327 76.7383 195.754 76.7383C195.168 76.7383 194.706 76.9303 194.367 77.3145C194.035 77.6986 193.869 78.2064 193.869 78.8379V85H190.422ZM211.619 76.8457V74.2773H213.357V73.2227C213.357 72.1159 213.67 71.2956 214.295 70.7617C214.926 70.2214 215.955 69.9512 217.381 69.9512C218.012 69.9512 218.559 69.987 219.021 70.0586V72.334C218.8 72.2949 218.507 72.2754 218.143 72.2754C217.628 72.2754 217.26 72.373 217.039 72.5684C216.824 72.7637 216.717 73.0729 216.717 73.4961V74.2773H218.934V76.8457H216.805V85H213.357V76.8457H211.619ZM223.121 85V74.1309H226.48V75.918H226.666C226.803 75.3581 227.115 74.8926 227.604 74.5215C228.098 74.1504 228.678 73.9648 229.342 73.9648C229.915 73.9648 230.331 74.0202 230.592 74.1309V77.0703C230.273 76.9401 229.778 76.875 229.107 76.875C228.333 76.875 227.714 77.0833 227.252 77.5C226.796 77.9167 226.568 78.4993 226.568 79.248V85H223.121ZM234.184 71.3379C234.184 70.8691 234.356 70.4948 234.701 70.2148C235.053 69.9349 235.528 69.7949 236.127 69.7949C236.732 69.7949 237.208 69.9349 237.553 70.2148C237.904 70.4948 238.08 70.8691 238.08 71.3379C238.08 71.8001 237.904 72.1712 237.553 72.4512C237.208 72.7311 236.732 72.8711 236.127 72.8711C235.528 72.8711 235.053 72.7311 234.701 72.4512C234.356 72.1712 234.184 71.8001 234.184 71.3379ZM234.398 85V74.1309H237.855V85H234.398ZM242.033 79.6387C242.033 77.8483 242.512 76.4421 243.469 75.4199C244.432 74.3913 245.757 73.877 247.443 73.877C249.117 73.877 250.419 74.362 251.35 75.332C252.281 76.2956 252.746 77.6432 252.746 79.375V80.332H245.432V80.5078C245.445 81.2174 245.643 81.7773 246.027 82.1875C246.411 82.5977 246.932 82.8027 247.59 82.8027C248.091 82.8027 248.508 82.7148 248.84 82.5391C249.178 82.3633 249.406 82.1159 249.523 81.7969H252.678C252.489 82.8581 251.929 83.7012 250.998 84.3262C250.067 84.9447 248.898 85.2539 247.492 85.2539C245.76 85.2539 244.416 84.7656 243.459 83.7891C242.508 82.806 242.033 81.4225 242.033 79.6387ZM245.451 78.3496H249.396C249.37 77.7181 249.185 77.2233 248.84 76.8652C248.501 76.5072 248.042 76.3281 247.463 76.3281C246.896 76.3281 246.431 76.5137 246.066 76.8848C245.702 77.2493 245.497 77.7376 245.451 78.3496ZM256.895 85V74.1309H260.254V75.8984H260.439C260.68 75.2734 261.077 74.7819 261.631 74.4238C262.184 74.0592 262.848 73.877 263.623 73.877C264.821 73.877 265.732 74.2318 266.357 74.9414C266.989 75.651 267.305 76.6634 267.305 77.9785V85H263.848V78.75C263.848 77.3828 263.278 76.6992 262.139 76.6992C261.585 76.6992 261.146 76.8913 260.82 77.2754C260.501 77.653 260.342 78.1576 260.342 78.7891V85H256.895ZM271.365 79.541C271.365 77.8092 271.753 76.4486 272.527 75.459C273.309 74.4629 274.376 73.9648 275.73 73.9648C276.46 73.9648 277.101 74.1341 277.654 74.4727C278.214 74.8112 278.628 75.2799 278.895 75.8789H279.08V70.0586H282.537V85H279.168V83.3008H278.982C278.715 83.8867 278.296 84.3457 277.723 84.6777C277.15 85.0033 276.486 85.166 275.73 85.166C274.37 85.166 273.302 84.668 272.527 83.6719C271.753 82.6693 271.365 81.2923 271.365 79.541ZM274.91 79.5605C274.91 80.4655 275.092 81.1751 275.457 81.6895C275.828 82.1973 276.342 82.4512 277 82.4512C277.658 82.4512 278.172 82.1973 278.543 81.6895C278.914 81.1751 279.1 80.4688 279.1 79.5703C279.1 78.6719 278.911 77.9655 278.533 77.4512C278.162 76.9368 277.651 76.6797 277 76.6797C276.349 76.6797 275.838 76.9368 275.467 77.4512C275.096 77.959 274.91 78.6621 274.91 79.5605ZM286.812 81.8848H290.143C290.325 82.5749 290.927 82.9199 291.949 82.9199C292.424 82.9199 292.802 82.832 293.082 82.6562C293.368 82.4805 293.512 82.2461 293.512 81.9531C293.512 81.7253 293.421 81.543 293.238 81.4062C293.062 81.2695 292.757 81.1556 292.32 81.0645L290.299 80.6348C288.15 80.179 287.076 79.1016 287.076 77.4023C287.076 76.3216 287.506 75.4655 288.365 74.834C289.225 74.196 290.387 73.877 291.852 73.877C293.355 73.877 294.511 74.1634 295.318 74.7363C296.132 75.3027 296.572 76.1328 296.637 77.2266H293.492C293.44 76.9076 293.274 76.6602 292.994 76.4844C292.714 76.3021 292.343 76.2109 291.881 76.2109C291.432 76.2109 291.064 76.3021 290.777 76.4844C290.497 76.6602 290.357 76.8945 290.357 77.1875C290.357 77.4154 290.455 77.6042 290.65 77.7539C290.852 77.8971 291.171 78.0143 291.607 78.1055L293.854 78.5645C294.928 78.7923 295.706 79.1439 296.188 79.6191C296.676 80.0879 296.92 80.7324 296.92 81.5527C296.92 82.679 296.464 83.5775 295.553 84.248C294.641 84.9186 293.424 85.2539 291.9 85.2539C290.344 85.2539 289.13 84.9674 288.258 84.3945C287.392 83.8151 286.91 82.9785 286.812 81.8848ZM23.0938 112.268C22.4492 111.662 22.127 110.865 22.127 109.875C22.127 108.885 22.498 108.111 23.2402 107.551C23.9889 106.984 25.0664 106.659 26.4727 106.574L28.8457 106.438V105.588C28.8457 105.217 28.7122 104.93 28.4453 104.729C28.1849 104.52 27.8171 104.416 27.3418 104.416C26.4238 104.416 25.8509 104.709 25.623 105.295H22.5176C22.5957 104.24 23.084 103.407 23.9824 102.795C24.8809 102.183 26.0658 101.877 27.5371 101.877C29.0345 101.877 30.1934 102.202 31.0137 102.854C31.834 103.505 32.2441 104.416 32.2441 105.588V113H28.8848V111.652H28.6992C28.4583 112.115 28.0612 112.482 27.5078 112.756C26.9544 113.029 26.3327 113.166 25.6426 113.166C24.5944 113.166 23.7448 112.867 23.0938 112.268ZM25.457 109.631C25.457 109.976 25.5872 110.249 25.8477 110.451C26.1146 110.653 26.4661 110.754 26.9023 110.754C27.4492 110.754 27.9082 110.594 28.2793 110.275C28.6569 109.956 28.8457 109.562 28.8457 109.094V108.381L27.0195 108.498C26.5117 108.537 26.1243 108.654 25.8574 108.85C25.5905 109.045 25.457 109.305 25.457 109.631ZM36.8711 113V102.131H40.2305V103.898H40.416C40.6569 103.273 41.054 102.782 41.6074 102.424C42.1608 102.059 42.8249 101.877 43.5996 101.877C44.7975 101.877 45.709 102.232 46.334 102.941C46.9655 103.651 47.2812 104.663 47.2812 105.979V113H43.8242V106.75C43.8242 105.383 43.2546 104.699 42.1152 104.699C41.5618 104.699 41.1224 104.891 40.7969 105.275C40.4779 105.653 40.3184 106.158 40.3184 106.789V113H36.8711ZM51.3418 107.541C51.3418 105.809 51.7292 104.449 52.5039 103.459C53.2852 102.463 54.3529 101.965 55.707 101.965C56.4362 101.965 57.0775 102.134 57.6309 102.473C58.1908 102.811 58.6042 103.28 58.8711 103.879H59.0566V98.0586H62.5137V113H59.1445V111.301H58.959C58.6921 111.887 58.2721 112.346 57.6992 112.678C57.1263 113.003 56.4622 113.166 55.707 113.166C54.3464 113.166 53.2786 112.668 52.5039 111.672C51.7292 110.669 51.3418 109.292 51.3418 107.541ZM54.8867 107.561C54.8867 108.465 55.069 109.175 55.4336 109.689C55.8047 110.197 56.319 110.451 56.9766 110.451C57.6341 110.451 58.1484 110.197 58.5195 109.689C58.8906 109.175 59.0762 108.469 59.0762 107.57C59.0762 106.672 58.8874 105.965 58.5098 105.451C58.1387 104.937 57.6276 104.68 56.9766 104.68C56.3255 104.68 55.8145 104.937 55.4434 105.451C55.0723 105.959 54.8867 106.662 54.8867 107.561ZM73.3496 104.846V102.277H75.0879V101.223C75.0879 100.116 75.4004 99.2956 76.0254 98.7617C76.6569 98.2214 77.6855 97.9512 79.1113 97.9512C79.7428 97.9512 80.2897 97.987 80.752 98.0586V100.334C80.5306 100.295 80.2376 100.275 79.873 100.275C79.3587 100.275 78.9909 100.373 78.7695 100.568C78.5547 100.764 78.4473 101.073 78.4473 101.496V102.277H80.6641V104.846H78.5352V113H75.0879V104.846H73.3496ZM84.8906 112.268C84.2461 111.662 83.9238 110.865 83.9238 109.875C83.9238 108.885 84.2949 108.111 85.0371 107.551C85.7858 106.984 86.8633 106.659 88.2695 106.574L90.6426 106.438V105.588C90.6426 105.217 90.5091 104.93 90.2422 104.729C89.9818 104.52 89.6139 104.416 89.1387 104.416C88.2207 104.416 87.6478 104.709 87.4199 105.295H84.3145C84.3926 104.24 84.8809 103.407 85.7793 102.795C86.6777 102.183 87.8626 101.877 89.334 101.877C90.8314 101.877 91.9902 102.202 92.8105 102.854C93.6309 103.505 94.041 104.416 94.041 105.588V113H90.6816V111.652H90.4961C90.2552 112.115 89.8581 112.482 89.3047 112.756C88.7513 113.029 88.1296 113.166 87.4395 113.166C86.3913 113.166 85.5417 112.867 84.8906 112.268ZM87.2539 109.631C87.2539 109.976 87.3841 110.249 87.6445 110.451C87.9115 110.653 88.263 110.754 88.6992 110.754C89.2461 110.754 89.7051 110.594 90.0762 110.275C90.4538 109.956 90.6426 109.562 90.6426 109.094V108.381L88.8164 108.498C88.3086 108.537 87.9212 108.654 87.6543 108.85C87.3874 109.045 87.2539 109.305 87.2539 109.631ZM98.668 113V102.131H102.027V103.928H102.213C102.421 103.296 102.796 102.798 103.336 102.434C103.876 102.062 104.501 101.877 105.211 101.877C105.986 101.877 106.63 102.056 107.145 102.414C107.659 102.766 108.02 103.27 108.229 103.928H108.414C108.642 103.309 109.049 102.814 109.635 102.443C110.227 102.066 110.904 101.877 111.666 101.877C112.734 101.877 113.59 102.215 114.234 102.893C114.885 103.563 115.211 104.455 115.211 105.568V113H111.764V106.447C111.764 105.282 111.24 104.699 110.191 104.699C109.703 104.699 109.312 104.862 109.02 105.188C108.733 105.513 108.59 105.943 108.59 106.477V113H105.289V106.389C105.289 105.842 105.156 105.425 104.889 105.139C104.622 104.846 104.238 104.699 103.736 104.699C103.255 104.699 102.864 104.868 102.564 105.207C102.265 105.546 102.115 105.988 102.115 106.535V113H98.668ZM119.594 99.3379C119.594 98.8691 119.766 98.4948 120.111 98.2148C120.463 97.9349 120.938 97.7949 121.537 97.7949C122.143 97.7949 122.618 97.9349 122.963 98.2148C123.314 98.4948 123.49 98.8691 123.49 99.3379C123.49 99.8001 123.314 100.171 122.963 100.451C122.618 100.731 122.143 100.871 121.537 100.871C120.938 100.871 120.463 100.731 120.111 100.451C119.766 100.171 119.594 99.8001 119.594 99.3379ZM119.809 113V102.131H123.266V113H119.809ZM128.078 113V98.0586H131.525V113H128.078ZM135.469 102.131H139.287L141.23 110.1H141.416L143.359 102.131H147.012L143.516 112.98C143.053 114.426 142.389 115.448 141.523 116.047C140.664 116.652 139.453 116.955 137.891 116.955C137.083 116.955 136.663 116.952 136.631 116.945V114.318C136.696 114.331 136.898 114.338 137.236 114.338C138.382 114.338 139.014 114.022 139.131 113.391L139.18 113.088L135.469 102.131ZM158.16 112.268C157.516 111.662 157.193 110.865 157.193 109.875C157.193 108.885 157.564 108.111 158.307 107.551C159.055 106.984 160.133 106.659 161.539 106.574L163.912 106.438V105.588C163.912 105.217 163.779 104.93 163.512 104.729C163.251 104.52 162.883 104.416 162.408 104.416C161.49 104.416 160.917 104.709 160.689 105.295H157.584C157.662 104.24 158.15 103.407 159.049 102.795C159.947 102.183 161.132 101.877 162.604 101.877C164.101 101.877 165.26 102.202 166.08 102.854C166.9 103.505 167.311 104.416 167.311 105.588V113H163.951V111.652H163.766C163.525 112.115 163.128 112.482 162.574 112.756C162.021 113.029 161.399 113.166 160.709 113.166C159.661 113.166 158.811 112.867 158.16 112.268ZM160.523 109.631C160.523 109.976 160.654 110.249 160.914 110.451C161.181 110.653 161.533 110.754 161.969 110.754C162.516 110.754 162.975 110.594 163.346 110.275C163.723 109.956 163.912 109.562 163.912 109.094V108.381L162.086 108.498C161.578 108.537 161.191 108.654 160.924 108.85C160.657 109.045 160.523 109.305 160.523 109.631ZM171.4 107.551C171.4 105.702 171.869 104.296 172.807 103.332C173.744 102.362 175.108 101.877 176.898 101.877C178.383 101.877 179.558 102.255 180.424 103.01C181.296 103.765 181.788 104.813 181.898 106.154H178.725C178.653 105.64 178.461 105.243 178.148 104.963C177.836 104.676 177.419 104.533 176.898 104.533C175.544 104.533 174.867 105.539 174.867 107.551C174.867 109.582 175.544 110.598 176.898 110.598C177.96 110.598 178.568 110.083 178.725 109.055H181.898C181.794 110.363 181.299 111.392 180.414 112.141C179.535 112.883 178.363 113.254 176.898 113.254C175.108 113.254 173.744 112.769 172.807 111.799C171.869 110.822 171.4 109.406 171.4 107.551ZM185.988 113V102.131H189.348V103.918H189.533C189.67 103.358 189.982 102.893 190.471 102.521C190.965 102.15 191.545 101.965 192.209 101.965C192.782 101.965 193.199 102.02 193.459 102.131V105.07C193.14 104.94 192.645 104.875 191.975 104.875C191.2 104.875 190.581 105.083 190.119 105.5C189.663 105.917 189.436 106.499 189.436 107.248V113H185.988ZM196.514 107.561C196.514 105.803 197.008 104.416 197.998 103.4C198.988 102.385 200.339 101.877 202.051 101.877C203.77 101.877 205.12 102.385 206.104 103.4C207.093 104.41 207.588 105.796 207.588 107.561C207.588 109.351 207.1 110.747 206.123 111.75C205.153 112.753 203.796 113.254 202.051 113.254C200.312 113.254 198.955 112.753 197.979 111.75C197.002 110.747 196.514 109.351 196.514 107.561ZM200.059 107.561C200.059 108.531 200.231 109.283 200.576 109.816C200.928 110.35 201.419 110.617 202.051 110.617C202.682 110.617 203.171 110.35 203.516 109.816C203.867 109.283 204.043 108.531 204.043 107.561C204.043 106.61 203.867 105.865 203.516 105.324C203.164 104.784 202.676 104.514 202.051 104.514C201.426 104.514 200.938 104.784 200.586 105.324C200.234 105.865 200.059 106.61 200.059 107.561ZM211.238 109.885H214.568C214.751 110.575 215.353 110.92 216.375 110.92C216.85 110.92 217.228 110.832 217.508 110.656C217.794 110.48 217.938 110.246 217.938 109.953C217.938 109.725 217.846 109.543 217.664 109.406C217.488 109.27 217.182 109.156 216.746 109.064L214.725 108.635C212.576 108.179 211.502 107.102 211.502 105.402C211.502 104.322 211.932 103.465 212.791 102.834C213.65 102.196 214.812 101.877 216.277 101.877C217.781 101.877 218.937 102.163 219.744 102.736C220.558 103.303 220.997 104.133 221.062 105.227H217.918C217.866 104.908 217.7 104.66 217.42 104.484C217.14 104.302 216.769 104.211 216.307 104.211C215.857 104.211 215.49 104.302 215.203 104.484C214.923 104.66 214.783 104.895 214.783 105.188C214.783 105.415 214.881 105.604 215.076 105.754C215.278 105.897 215.597 106.014 216.033 106.105L218.279 106.564C219.354 106.792 220.132 107.144 220.613 107.619C221.102 108.088 221.346 108.732 221.346 109.553C221.346 110.679 220.89 111.577 219.979 112.248C219.067 112.919 217.85 113.254 216.326 113.254C214.77 113.254 213.556 112.967 212.684 112.395C211.818 111.815 211.336 110.979 211.238 109.885ZM224.82 109.885H228.15C228.333 110.575 228.935 110.92 229.957 110.92C230.432 110.92 230.81 110.832 231.09 110.656C231.376 110.48 231.52 110.246 231.52 109.953C231.52 109.725 231.428 109.543 231.246 109.406C231.07 109.27 230.764 109.156 230.328 109.064L228.307 108.635C226.158 108.179 225.084 107.102 225.084 105.402C225.084 104.322 225.514 103.465 226.373 102.834C227.232 102.196 228.395 101.877 229.859 101.877C231.363 101.877 232.519 102.163 233.326 102.736C234.14 103.303 234.579 104.133 234.645 105.227H231.5C231.448 104.908 231.282 104.66 231.002 104.484C230.722 104.302 230.351 104.211 229.889 104.211C229.439 104.211 229.072 104.302 228.785 104.484C228.505 104.66 228.365 104.895 228.365 105.188C228.365 105.415 228.463 105.604 228.658 105.754C228.86 105.897 229.179 106.014 229.615 106.105L231.861 106.564C232.936 106.792 233.714 107.144 234.195 107.619C234.684 108.088 234.928 108.732 234.928 109.553C234.928 110.679 234.472 111.577 233.561 112.248C232.649 112.919 231.432 113.254 229.908 113.254C228.352 113.254 227.138 112.967 226.266 112.395C225.4 111.815 224.918 110.979 224.82 109.885ZM245.705 108.986H249.123C249.169 109.501 249.426 109.911 249.895 110.217C250.37 110.516 250.979 110.666 251.721 110.666C252.391 110.666 252.935 110.52 253.352 110.227C253.768 109.934 253.977 109.556 253.977 109.094C253.977 108.703 253.807 108.394 253.469 108.166C253.13 107.932 252.557 107.733 251.75 107.57L249.895 107.199C248.605 106.958 247.632 106.49 246.975 105.793C246.317 105.096 245.988 104.195 245.988 103.088C245.988 101.708 246.496 100.604 247.512 99.7773C248.534 98.944 249.895 98.5273 251.594 98.5273C253.241 98.5273 254.585 98.9342 255.627 99.748C256.669 100.562 257.206 101.62 257.238 102.922H253.928C253.889 102.427 253.654 102.023 253.225 101.711C252.801 101.392 252.274 101.232 251.643 101.232C251.011 101.232 250.503 101.372 250.119 101.652C249.742 101.926 249.553 102.297 249.553 102.766C249.553 103.15 249.719 103.462 250.051 103.703C250.383 103.944 250.92 104.136 251.662 104.279L253.479 104.631C254.872 104.898 255.891 105.357 256.535 106.008C257.186 106.659 257.512 107.544 257.512 108.664C257.512 110.135 256.984 111.291 255.93 112.131C254.875 112.964 253.423 113.381 251.574 113.381C249.79 113.381 248.371 112.987 247.316 112.199C246.268 111.411 245.731 110.34 245.705 108.986ZM261.377 107.561C261.377 105.803 261.872 104.416 262.861 103.4C263.851 102.385 265.202 101.877 266.914 101.877C268.633 101.877 269.984 102.385 270.967 103.4C271.956 104.41 272.451 105.796 272.451 107.561C272.451 109.351 271.963 110.747 270.986 111.75C270.016 112.753 268.659 113.254 266.914 113.254C265.176 113.254 263.818 112.753 262.842 111.75C261.865 110.747 261.377 109.351 261.377 107.561ZM264.922 107.561C264.922 108.531 265.094 109.283 265.439 109.816C265.791 110.35 266.283 110.617 266.914 110.617C267.546 110.617 268.034 110.35 268.379 109.816C268.73 109.283 268.906 108.531 268.906 107.561C268.906 106.61 268.73 105.865 268.379 105.324C268.027 104.784 267.539 104.514 266.914 104.514C266.289 104.514 265.801 104.784 265.449 105.324C265.098 105.865 264.922 106.61 264.922 107.561ZM278.084 111.389C276.867 110.061 276.258 108.247 276.258 105.949C276.258 103.651 276.863 101.841 278.074 100.52C279.292 99.1914 280.958 98.5273 283.074 98.5273C284.24 98.5273 285.298 98.7682 286.248 99.25C287.205 99.7253 287.964 100.389 288.523 101.242C289.083 102.089 289.38 103.036 289.412 104.084H285.965C285.874 103.316 285.561 102.697 285.027 102.229C284.493 101.753 283.842 101.516 283.074 101.516C282.091 101.516 281.316 101.91 280.75 102.697C280.19 103.485 279.91 104.566 279.91 105.939C279.91 107.32 280.193 108.407 280.76 109.201C281.326 109.995 282.101 110.393 283.084 110.393C283.859 110.393 284.51 110.165 285.037 109.709C285.564 109.247 285.88 108.638 285.984 107.883H289.422C289.363 109.497 288.742 110.819 287.557 111.848C286.372 112.87 284.878 113.381 283.074 113.381C280.965 113.381 279.301 112.717 278.084 111.389ZM293.805 113V98.0586H297.184V103.938H297.369C297.61 103.312 298.017 102.821 298.59 102.463C299.163 102.105 299.84 101.926 300.621 101.926C301.806 101.926 302.721 102.281 303.365 102.99C304.016 103.693 304.342 104.702 304.342 106.018V113H300.895V106.799C300.895 106.128 300.745 105.617 300.445 105.266C300.146 104.914 299.71 104.738 299.137 104.738C298.551 104.738 298.089 104.93 297.75 105.314C297.418 105.699 297.252 106.206 297.252 106.838V113H293.805ZM308.412 107.639C308.412 105.848 308.891 104.442 309.848 103.42C310.811 102.391 312.136 101.877 313.822 101.877C315.495 101.877 316.798 102.362 317.729 103.332C318.66 104.296 319.125 105.643 319.125 107.375V108.332H311.811V108.508C311.824 109.217 312.022 109.777 312.406 110.188C312.79 110.598 313.311 110.803 313.969 110.803C314.47 110.803 314.887 110.715 315.219 110.539C315.557 110.363 315.785 110.116 315.902 109.797H319.057C318.868 110.858 318.308 111.701 317.377 112.326C316.446 112.945 315.277 113.254 313.871 113.254C312.139 113.254 310.795 112.766 309.838 111.789C308.887 110.806 308.412 109.423 308.412 107.639ZM311.83 106.35H315.775C315.749 105.718 315.564 105.223 315.219 104.865C314.88 104.507 314.421 104.328 313.842 104.328C313.275 104.328 312.81 104.514 312.445 104.885C312.081 105.249 311.876 105.738 311.83 106.35ZM323.273 113V102.131H326.633V103.928H326.818C327.027 103.296 327.401 102.798 327.941 102.434C328.482 102.062 329.107 101.877 329.816 101.877C330.591 101.877 331.236 102.056 331.75 102.414C332.264 102.766 332.626 103.27 332.834 103.928H333.02C333.247 103.309 333.654 102.814 334.24 102.443C334.833 102.066 335.51 101.877 336.271 101.877C337.339 101.877 338.195 102.215 338.84 102.893C339.491 103.563 339.816 104.455 339.816 105.568V113H336.369V106.447C336.369 105.282 335.845 104.699 334.797 104.699C334.309 104.699 333.918 104.862 333.625 105.188C333.339 105.513 333.195 105.943 333.195 106.477V113H329.895V106.389C329.895 105.842 329.761 105.425 329.494 105.139C329.227 104.846 328.843 104.699 328.342 104.699C327.86 104.699 327.469 104.868 327.17 105.207C326.87 105.546 326.721 105.988 326.721 106.535V113H323.273ZM344.873 111.564C344.873 110.998 345.046 110.559 345.391 110.246C345.742 109.934 346.234 109.777 346.865 109.777C347.497 109.777 347.988 109.934 348.34 110.246C348.691 110.559 348.867 110.998 348.867 111.564C348.867 112.124 348.691 112.561 348.34 112.873C347.988 113.186 347.497 113.342 346.865 113.342C346.234 113.342 345.742 113.186 345.391 112.873C345.046 112.561 344.873 112.124 344.873 111.564ZM344.99 98.9082H348.74L348.428 108.381H345.303L344.99 98.9082Z" fill="black"/>
<path d="M0.203125 0.783691H369.038V21.5048H0.203125V0.783691Z" fill="#CF8AFE"/>
<path d="M0.203125 21.5046H369.038V42.2257H0.203125V21.5046Z" fill="#13AEF4"/>
<path d="M0.203125 41.8804H369.038V62.6014H0.203125V41.8804Z" fill="#FF532D"/>
<path d="M0.203125 62.6016H369.038V83.3226H0.203125V62.6016Z" fill="#22B0A0"/>
<path d="M0.203125 83.3225H369.038V104.044H0.203125V83.3225Z" fill="#EE5C8D"/>
<path d="M0.203125 83.3225H369.038V104.044H0.203125V83.3225Z" fill="#EE5C8D"/>
<path d="M0.203125 104.044H369.038V124.765H0.203125V104.044Z" fill="#74D234"/>
<path d="M0.203125 124.765H369.038V145.486H0.203125V124.765Z" fill="#F08F02"/>
<path d="M0.203125 124.765H369.038V145.486H0.203125V124.765Z" fill="#F08F02"/>
</svg>
