<svg width="509" height="472" viewBox="0 0 509 472" fill="none" xmlns="http://www.w3.org/2000/svg">
<path d="M441.894 110.894C440.673 119.116 437.117 126.815 431.648 133.075C426.179 139.335 419.028 143.893 411.044 146.208C403.06 148.522 394.58 148.495 386.611 146.13C378.642 143.765 371.52 139.162 366.091 132.867C360.662 126.572 357.155 118.851 355.987 110.621C354.818 102.391 356.038 93.9986 359.5 86.4414C362.962 78.8843 368.521 72.4803 375.517 67.9907C382.513 63.5011 390.65 61.1147 398.963 61.1152V104.507L441.894 110.894Z" fill="#EBEBEB"/>
<path d="M451.195 95.6934C451.197 97.8269 451.039 99.9576 450.721 102.067L407.803 95.6934V52.3013C413.502 52.2965 419.147 53.4156 424.414 55.5946C429.681 57.7735 434.466 60.9696 438.496 64.9998C442.527 69.0301 445.723 73.8155 447.902 79.0823C450.081 84.349 451.2 89.9937 451.195 95.6934Z" fill="#DBDBDB"/>
<path d="M449.801 119.939H403.653V121.154H449.801V119.939Z" fill="#029E82"/>
<path d="M453.048 124.395C452.287 124.398 451.541 124.174 450.907 123.752C450.272 123.331 449.777 122.731 449.484 122.028C449.191 121.325 449.113 120.55 449.26 119.803C449.407 119.056 449.773 118.369 450.31 117.829C450.848 117.29 451.534 116.922 452.281 116.773C453.028 116.623 453.802 116.699 454.506 116.99C455.21 117.28 455.812 117.774 456.235 118.407C456.659 119.04 456.885 119.785 456.885 120.546C456.887 121.051 456.788 121.551 456.596 122.018C456.404 122.485 456.122 122.91 455.766 123.267C455.409 123.625 454.986 123.908 454.519 124.102C454.053 124.296 453.553 124.395 453.048 124.395ZM453.048 117.924C452.526 117.922 452.015 118.074 451.58 118.363C451.145 118.652 450.805 119.063 450.605 119.545C450.404 120.027 450.35 120.557 450.452 121.07C450.553 121.582 450.804 122.052 451.173 122.422C451.542 122.791 452.013 123.042 452.525 123.143C453.037 123.244 453.568 123.191 454.05 122.99C454.532 122.789 454.943 122.45 455.232 122.015C455.52 121.58 455.673 121.069 455.671 120.546C455.671 119.851 455.395 119.184 454.903 118.692C454.411 118.2 453.744 117.924 453.048 117.924Z" fill="#029E82"/>
<path d="M500.631 118.118H464.778V119.732H500.631V118.118Z" fill="#029E82"/>
<path d="M485.066 121.36H464.778V122.975H485.066V121.36Z" fill="#029E82"/>
<path d="M28.825 203.239H17.376V284.705H28.825V203.239Z" fill="#EBEBEB"/>
<path d="M48.5047 222.967H37.0557V284.717H48.5047V222.967Z" fill="#EBEBEB"/>
<path d="M68.1951 253.83H56.7461V284.705H68.1951V253.83Z" fill="#EBEBEB"/>
<path d="M87.8601 236.202H76.4111V284.706H87.8601V236.202Z" fill="#EBEBEB"/>
<path d="M107.535 217.687H96.0859V284.718H107.535V217.687Z" fill="#EBEBEB"/>
<path d="M127.216 206.795H115.767V284.717H127.216V206.795Z" fill="#EBEBEB"/>
<path d="M10.7392 192.881L10.8728 215.84L10.9456 238.799L11.0306 284.704L10.7392 284.425C21.2614 284.425 31.7837 284.425 42.3059 284.425L73.8726 284.485L105.439 284.546L137.006 284.716L105.439 284.886L73.8726 284.959L42.3059 285.02C31.7837 285.02 21.2614 285.02 10.7392 285.02H10.46V284.728L10.5449 238.823V215.864L10.7392 192.881Z" fill="#EBEBEB"/>
<path d="M8.21191 197.46C9.03347 197.231 9.8845 197.124 10.7373 197.144C11.5901 197.122 12.4414 197.229 13.2626 197.46C12.4407 197.689 11.5903 197.799 10.7373 197.788C9.88426 197.798 9.03412 197.687 8.21191 197.46Z" fill="#EBEBEB"/>
<path d="M8.21191 204.465C9.03412 204.238 9.88426 204.128 10.7373 204.138C11.5903 204.126 12.4407 204.236 13.2626 204.465C12.4407 204.694 11.5903 204.805 10.7373 204.793C9.88426 204.803 9.03412 204.693 8.21191 204.465Z" fill="#EBEBEB"/>
<path d="M8.21191 211.447C9.03412 211.219 9.88426 211.109 10.7373 211.119C11.5903 211.107 12.4407 211.218 13.2626 211.447C12.4407 211.676 11.5903 211.786 10.7373 211.775C9.88426 211.784 9.03412 211.674 8.21191 211.447Z" fill="#EBEBEB"/>
<path d="M8.21191 218.426C9.03412 218.199 9.88426 218.089 10.7373 218.098C11.5903 218.087 12.4407 218.197 13.2626 218.426C12.4414 218.658 11.5901 218.764 10.7373 218.742C9.8845 218.762 9.03347 218.656 8.21191 218.426Z" fill="#EBEBEB"/>
<path d="M8.21191 225.384C9.03412 225.157 9.88426 225.047 10.7373 225.057C11.5907 225.038 12.442 225.149 13.2626 225.384C12.4401 225.609 11.5898 225.716 10.7373 225.7C9.88481 225.714 9.03464 225.608 8.21191 225.384Z" fill="#EBEBEB"/>
<path d="M8.21191 232.378C9.03347 232.148 9.8845 232.042 10.7373 232.062C11.5901 232.04 12.4414 232.146 13.2626 232.378C12.4407 232.607 11.5903 232.717 10.7373 232.705C9.88426 232.715 9.03412 232.605 8.21191 232.378Z" fill="#EBEBEB"/>
<path d="M8.21191 239.358C9.03412 239.131 9.88426 239.02 10.7373 239.03C11.5903 239.019 12.4407 239.129 13.2626 239.358C12.4407 239.587 11.5903 239.697 10.7373 239.686C9.88426 239.696 9.03412 239.585 8.21191 239.358Z" fill="#EBEBEB"/>
<path d="M8.21191 246.339C9.03412 246.112 9.88426 246.002 10.7373 246.012C11.5903 246 12.4407 246.11 13.2626 246.339C12.4407 246.568 11.5903 246.679 10.7373 246.667C9.88426 246.677 9.03412 246.567 8.21191 246.339Z" fill="#EBEBEB"/>
<path d="M8.21191 253.309C9.03412 253.081 9.88426 252.971 10.7373 252.981C11.5903 252.969 12.4407 253.08 13.2626 253.309C12.4414 253.54 11.5901 253.646 10.7373 253.624C9.8845 253.644 9.03347 253.538 8.21191 253.309Z" fill="#EBEBEB"/>
<path d="M8.21191 260.301C9.03412 260.074 9.88426 259.964 10.7373 259.974C11.5907 259.955 12.442 260.066 13.2626 260.301C12.4414 260.533 11.5901 260.639 10.7373 260.617C9.88481 260.631 9.03464 260.525 8.21191 260.301Z" fill="#EBEBEB"/>
<path d="M8.21191 267.271C9.03464 267.048 9.88481 266.941 10.7373 266.955C11.5901 266.933 12.4414 267.04 13.2626 267.271C12.442 267.507 11.5907 267.617 10.7373 267.599C9.88426 267.609 9.03412 267.499 8.21191 267.271Z" fill="#EBEBEB"/>
<path d="M8.21191 274.251C9.03412 274.024 9.88426 273.914 10.7373 273.924C11.5903 273.912 12.4407 274.023 13.2626 274.251C12.4407 274.48 11.5903 274.591 10.7373 274.579C9.88426 274.589 9.03412 274.479 8.21191 274.251Z" fill="#EBEBEB"/>
<path d="M95.3545 181.69H129.702L202.062 295.889H167.703L95.3545 181.69Z" fill="#029E82"/>
<path opacity="0.1" d="M95.3545 181.69H129.702L202.062 295.889H167.703L95.3545 181.69Z" fill="black"/>
<path d="M280.847 117.305H315.206L387.554 231.515H353.207L280.847 117.305Z" fill="#029E82"/>
<path opacity="0.1" d="M280.847 117.305H315.206L387.554 231.515H353.207L280.847 117.305Z" fill="black"/>
<path d="M129.667 181.69H95.3079L0.316406 331.632H34.6634L129.667 181.69Z" fill="#029E82"/>
<path d="M315.264 117.305H280.905L167.763 295.887H202.11L315.264 117.305Z" fill="#029E82"/>
<path d="M500.526 52.9214H466.178L353.036 231.516H387.383L500.526 52.9214Z" fill="#029E82"/>
<path d="M458.199 52.9211H508.645L495.703 29.064L458.199 52.9211Z" fill="#029E82"/>
<path d="M243.411 247.105C219.238 267.029 156.42 338.649 153.203 343.59C144.789 356.557 137.516 419.641 175.057 410.778C212.597 401.916 254.435 296.203 267.061 260.375C273.763 241.387 263.14 230.848 243.411 247.105Z" fill="#029E82"/>
<path opacity="0.1" d="M188.081 404.209C221.821 378.713 255.852 292.111 266.998 260.374C271.089 248.804 268.734 240.354 261.801 239.225L188.081 404.209Z" fill="black"/>
<path d="M159.316 277.288C154.994 269.238 96.9478 292.258 101.634 304.86C118.777 350.996 143.412 394.91 152.384 403.615C164.148 415.028 182.591 408.411 188.224 398.759C196.043 385.258 163.602 285.264 159.316 277.288Z" fill="#D3766A"/>
<path d="M114.472 314.633C121.866 317.948 161.215 283.929 159.394 275.782C157.743 268.497 156.82 246.789 161.64 231.127C165.671 217.966 173.174 198.893 166.169 196.452C155.983 192.883 143.611 215.878 137.31 229.488C132.538 222.871 127.803 217.626 123.954 215.575C111.085 208.776 73.4113 262.403 79.3118 275.988C84.9453 289.113 107.066 311.331 114.472 314.633Z" fill="#D3766A"/>
<path d="M149.8 203.858L140.369 197.176L110.973 238.663L120.403 245.346L149.8 203.858Z" fill="#029E82"/>
<path d="M102.535 275.732L88.2695 265.619L114.324 228.844L128.59 238.945L102.535 275.732Z" fill="#263238"/>
<path d="M141.644 230.047C140.636 237.538 132.38 232.062 132.38 232.062C132.38 232.062 142.373 242.819 138.342 250.153C134.432 257.206 124.683 250.225 123.979 249.74C124.501 250.31 133.425 260.436 128.617 267.381C123.615 274.665 115.031 265.924 114.485 265.353C114.812 266.057 118.94 275.345 114.084 279.789C105.743 287.438 94.5247 264.005 85.7588 261.298C85.7588 261.298 79.5183 275.624 79.2512 276.001C79.2512 276.001 68.1179 253.904 72.4037 242.285C72.9993 240.588 74.1571 239.145 75.6851 238.195C77.213 237.246 79.0196 236.847 80.8053 237.064C80.8053 237.064 76.4224 230.338 80.0404 224.741C81.898 221.876 88.1385 222.313 88.1385 222.313C88.1385 222.313 84.8604 216.777 88.3934 212.005C91.1859 208.181 97.0136 209.213 97.0136 209.213C97.0136 209.213 96.3215 202.438 100.449 199.5C108.742 193.454 143.793 213.984 141.644 230.047Z" fill="#D3766A"/>
<path d="M97.9546 209.224C97.9373 209.224 97.9205 209.219 97.9054 209.21C97.8903 209.202 97.8774 209.19 97.8679 209.176C97.8583 209.161 97.8523 209.145 97.8503 209.128C97.8484 209.11 97.8505 209.093 97.8566 209.077C97.8626 209.061 97.8725 209.046 97.8853 209.034C97.898 209.023 97.9134 209.014 97.9301 209.01C97.9468 209.005 97.9643 209.005 97.9812 209.008C97.9981 209.012 98.014 209.019 98.0275 209.03C111.188 212.964 124.446 221.329 132.848 232.304C133.127 232.669 132.666 233.276 132.277 232.936C121.46 223.272 111.079 215.562 97.9546 209.224Z" fill="#263238"/>
<path d="M88.0084 222.13C87.8749 222.13 88.0084 221.827 88.142 221.875C101.691 226.015 116.358 235.838 124.565 249.63C124.844 250.103 124.565 250.844 124.249 250.298C118.106 241.532 99.8581 227.812 88.0084 222.13Z" fill="#263238"/>
<path d="M114.731 266.519C106.354 253.601 94.6862 244.665 81.3796 237.198C81.2096 237.101 81.3796 236.858 81.5253 236.907C89.0285 238.776 97.0173 244.422 102.857 249.327C108.368 253.789 112.617 259.616 115.18 266.227C115.277 266.494 114.901 266.798 114.731 266.519Z" fill="#263238"/>
<path d="M132.64 232.05C132.968 232.487 131.972 232.487 132.288 232.936C133.623 234.794 140.677 246.692 137.363 250.358C134.716 253.284 128.937 251.743 126.946 250.286L121.944 246.643L125.367 251.84C126.9 254.132 128.052 256.658 128.779 259.319C129.447 261.929 129.423 264.697 128.038 266.7C127.439 267.717 126.51 268.498 125.407 268.915C124.303 269.332 123.09 269.36 121.968 268.995C119.454 268.106 117.21 266.589 115.448 264.588L110.41 259.246L113.409 265.911C114.247 267.771 114.846 269.729 115.193 271.739C115.587 273.628 115.419 275.591 114.708 277.384C114.353 278.18 113.783 278.861 113.063 279.35C112.342 279.839 111.499 280.117 110.628 280.153C108.675 279.934 106.823 279.168 105.286 277.943C101.928 275.33 98.7783 272.46 95.8647 269.359C94.335 267.842 92.8052 266.324 91.2026 264.867C89.6761 263.315 87.8334 262.11 85.7998 261.334C87.6995 262.319 89.3901 263.663 90.7776 265.292C92.2588 266.846 93.6551 268.473 95.0634 270.148C97.8261 273.521 100.899 276.626 104.242 279.424C106.022 280.97 108.218 281.959 110.555 282.265C111.848 282.301 113.122 281.956 114.221 281.274C115.32 280.592 116.194 279.603 116.735 278.429C117.692 276.229 117.967 273.793 117.524 271.435C117.178 269.193 116.542 267.006 115.63 264.928L113.603 266.166C115.653 268.559 118.288 270.378 121.252 271.447C122.913 271.988 124.711 271.936 126.339 271.302C127.912 270.627 129.245 269.493 130.163 268.048C130.973 266.643 131.475 265.082 131.636 263.468C131.798 261.854 131.614 260.225 131.098 258.687C130.263 255.768 128.95 253.007 127.213 250.516L125.635 252.034C128.221 253.807 134.498 256.235 139.196 252.204C144.477 246.024 134.607 234.102 132.64 232.05Z" fill="#263238"/>
<path d="M132.378 232.062C133.82 232.651 135.343 233.02 136.894 233.154C137.516 233.224 138.144 233.125 138.714 232.869C139.284 232.612 139.775 232.208 140.136 231.698C140.775 230.473 141.045 229.09 140.913 227.715C140.84 226.185 140.682 224.595 140.464 222.944C141.465 224.302 142.176 225.852 142.552 227.497C142.803 228.392 142.875 229.328 142.762 230.252C142.65 231.175 142.356 232.066 141.897 232.875C141.299 233.726 140.45 234.367 139.468 234.708C138.543 234.999 137.554 235.024 136.615 234.781C134.951 234.346 133.467 233.394 132.378 232.062Z" fill="#263238"/>
<path d="M166.726 288.639L101.528 335.868C101.528 335.868 142.711 408.593 162.234 411.057C175.261 412.696 191.688 408.92 191.081 384.153C190.474 359.385 166.726 288.639 166.726 288.639Z" fill="#029E82"/>
<path d="M172.693 308.004C174.866 312.392 176.705 316.937 178.193 321.602C179.808 326.204 181.289 330.829 182.588 335.528C185.162 345.007 187.093 354.648 188.367 364.387C189.108 369.826 189.581 375.314 190.249 380.741C190.249 380.767 190.239 380.792 190.22 380.81C190.202 380.828 190.178 380.838 190.152 380.838C190.126 380.838 190.101 380.828 190.083 380.81C190.065 380.792 190.055 380.767 190.055 380.741C189.52 375.885 188.671 371.028 187.736 366.293C186.801 361.558 185.769 356.666 184.603 351.894C182.321 342.533 179.868 333.209 177.149 323.97C176.384 321.384 175.595 318.798 174.721 316.236C173.846 313.674 172.948 310.918 172.292 308.186C172.28 307.944 172.572 307.786 172.693 308.004Z" fill="#263238"/>
<path d="M168.634 308.029C166.801 309.049 165.101 310.336 163.389 311.525L158.059 315.168C154.417 317.596 150.908 320.146 147.363 322.683C140.273 327.746 133.182 332.784 126.189 337.969C124.259 339.389 122.34 340.822 120.459 342.303C118.577 343.784 116.61 345.545 114.619 347.087C114.497 347.172 114.619 347.342 114.777 347.257C116.573 346.042 118.419 344.998 120.264 343.796C122.11 342.594 123.907 341.368 125.752 340.057C129.313 337.548 132.855 335.014 136.375 332.457C143.308 327.418 150.277 322.404 157.1 317.22L162.807 312.861C164.798 311.343 166.91 309.911 168.756 308.223C168.853 308.138 168.756 307.944 168.634 308.029Z" fill="#263238"/>
<path d="M226.416 474.507H327.66C328.498 471.253 329.299 468.048 330.088 464.891C331.011 461.249 331.922 457.716 332.796 454.268C332.99 453.491 333.196 452.726 333.391 451.961L335.345 444.24C335.734 442.71 336.122 441.216 336.487 439.723C336.851 438.23 337.264 436.724 337.628 435.267C337.737 434.891 337.822 434.502 337.931 434.126C338.041 433.75 338.138 433.3 338.235 432.912C338.332 432.523 338.49 431.904 338.624 431.406L339.024 429.852C339.279 428.881 339.522 427.922 339.753 426.987C340.105 425.591 340.457 424.231 340.785 422.92C340.93 422.337 341.088 421.706 341.222 421.196C341.465 420.273 341.695 419.375 341.914 418.488C342.072 417.893 342.217 417.274 342.351 416.752C342.958 414.437 343.516 412.256 344.026 410.208C344.16 409.674 344.293 409.152 344.439 408.63C344.658 407.744 344.876 406.906 345.07 406.08C345.216 405.57 345.35 405.06 345.459 404.575C345.908 402.839 346.321 401.248 346.673 399.84C346.782 399.476 346.867 399.111 346.964 398.771C347.195 397.836 347.414 397.023 347.596 396.343C347.669 396.04 347.729 395.76 347.802 395.505C347.875 395.25 347.948 394.935 348.009 394.692C348.069 394.449 348.106 394.34 348.142 394.182C348.179 394.024 348.276 393.696 348.324 393.49C348.373 393.284 348.324 393.271 348.397 393.186C348.555 392.579 348.628 392.276 348.628 392.276H250.091C250.091 392.276 246.837 403.458 241.592 421.499L238.181 433.349C234.781 445.284 230.75 459.319 226.416 474.507Z" fill="#3B436C"/>
<path d="M311.082 474.506H313.607C317.355 459.006 320.997 443.47 324.534 427.897C325.384 424.109 326.222 420.317 327.047 416.52C327.132 416.168 327.205 415.816 327.278 415.464C327.351 415.112 327.035 415.185 326.987 415.379L326.89 415.731C325.748 419.799 324.595 423.878 323.49 427.957C319.192 443.457 315.056 458.974 311.082 474.506Z" fill="#263238"/>
<path d="M253.285 392.191L257.632 413.96L261.201 431.783L267.272 462.22L267.891 465.341L268.935 470.537L269.712 474.471H327.673C328.499 471.205 329.325 468 330.102 464.855C331.024 461.213 331.935 457.68 332.809 454.232C333.003 453.455 333.21 452.69 333.404 451.925L335.359 444.203C335.747 442.673 336.136 441.18 336.5 439.687C336.864 438.193 337.277 436.688 337.641 435.231C337.75 434.855 337.835 434.466 337.945 434.09C338.054 433.713 338.151 433.264 338.248 432.876C338.345 432.487 338.503 431.868 338.637 431.37L339.037 429.816C339.292 428.845 339.535 427.886 339.766 426.951C340.118 425.554 340.47 424.195 340.798 422.883C340.956 422.289 341.101 421.669 341.235 421.159C341.478 420.237 341.708 419.338 341.927 418.452C342.085 417.857 342.23 417.238 342.364 416.716C342.971 414.401 343.529 412.22 344.039 410.172C344.173 409.638 344.307 409.116 344.452 408.593C344.671 407.707 344.889 406.869 345.084 406.044C345.229 405.534 345.363 405.024 345.472 404.538C345.921 402.802 346.334 401.212 346.686 399.803C346.795 399.439 346.88 399.075 346.978 398.735C347.208 397.8 347.427 396.987 347.609 396.307C347.682 396.003 347.742 395.724 347.815 395.469C347.888 395.214 347.961 394.898 348.022 394.656C348.082 394.413 348.119 394.303 348.155 394.146C348.192 393.988 348.289 393.66 348.337 393.454C348.386 393.247 348.337 393.235 348.41 393.15C348.568 392.543 348.641 392.239 348.641 392.239L253.285 392.191Z" fill="#263238"/>
<path d="M253.221 392.142C253.221 392.676 253.621 398.552 254.58 407.525C254.848 410.135 255.163 413.012 255.54 416.096C256.11 420.953 256.839 426.319 257.725 431.989C259.231 441.884 261.209 452.629 263.796 463.216C264.706 467.016 265.714 470.779 266.782 474.458H393.996C392.503 455.032 391.119 437.537 390.038 423.721C388.508 404.295 387.537 392.093 387.537 392.093H272.124L253.221 392.142Z" fill="#3B436C"/>
<path d="M253.537 403.857C253.671 408.41 253.865 412.951 254.168 417.492C254.472 422.348 254.921 427.302 255.565 432.207C255.565 432.389 255.565 432.559 255.565 432.741C256.172 437.33 256.86 441.911 257.629 446.485C258.357 450.746 258.843 455.335 260.785 459.281C261.498 460.803 262.509 462.166 263.76 463.288C264.909 464.334 266.311 465.062 267.827 465.4C268.079 465.459 268.334 465.5 268.592 465.522H268.811C268.762 465.549 268.723 465.59 268.697 465.64C268.671 465.689 268.66 465.745 268.665 465.801C268.665 467.319 268.665 468.873 268.847 470.39C268.847 470.39 268.847 470.524 268.847 470.585C269.005 471.908 269.248 473.207 269.49 474.518H271.676C271.676 474.518 271.676 474.518 271.676 474.445C271.299 473.013 270.972 471.556 270.62 470.111C270.267 468.666 269.745 467.185 269.405 465.68C269.405 465.619 269.345 465.582 269.308 465.534C270.693 465.604 272.066 465.247 273.241 464.51C274.416 463.774 275.336 462.695 275.877 461.418C276.425 459.469 276.458 457.411 275.974 455.445C275.585 452.834 275.197 450.236 274.76 447.626C274.019 442.842 273.06 438.107 272.21 433.348C272.077 432.632 271.955 431.891 271.822 431.175C270.122 421.462 268.337 411.749 266.188 402.206C266.115 401.806 266.018 401.405 265.933 400.992C265.848 400.579 265.447 400.798 265.472 401.053C265.532 401.696 265.605 402.352 265.678 402.983C266.05 406.674 266.492 410.345 267.002 413.995C267.621 418.293 268.034 422.615 268.641 426.913C268.847 428.382 269.053 429.839 269.272 431.308C270.255 438.374 271.287 445.453 272.489 452.494C273.06 455.76 275.1 461.624 270.389 462.644C269.31 462.878 268.184 462.736 267.196 462.244C265.113 460.99 263.555 459.023 262.813 456.707C261.656 452.857 260.819 448.918 260.312 444.931C259.551 440.625 258.867 436.31 258.26 431.988C257.499 426.581 256.69 421.187 255.832 415.804C255.419 413.06 254.982 410.316 254.545 407.573L253.926 403.76C253.962 403.493 253.537 403.566 253.537 403.857Z" fill="#263238"/>
<path d="M366.135 437.658C360.834 437.607 355.561 436.897 350.436 435.546C348.069 434.939 345.738 434.186 343.419 433.421C341.117 432.788 338.964 431.707 337.081 430.24C333.512 427.168 331.848 422.324 330.306 418.014C328.608 413.165 327.233 408.209 326.191 403.178C326.191 402.923 325.778 403.008 325.766 403.238C325.642 408.93 326.362 414.609 327.902 420.09C329.177 424.74 330.901 429.937 334.665 433.203C338.611 436.626 343.989 437.828 349.04 438.46C354.729 439.12 360.479 439.038 366.147 438.217C366.221 438.215 366.291 438.184 366.342 438.131C366.394 438.077 366.421 438.006 366.42 437.931C366.418 437.857 366.387 437.787 366.334 437.736C366.28 437.685 366.209 437.657 366.135 437.658Z" fill="#263238"/>
<path d="M374.93 403.324C375.213 410.439 375.513 417.565 375.829 424.704C376.557 441.297 377.366 457.89 378.257 474.483H380.685C379.592 457.849 378.439 441.22 377.225 424.595C376.699 417.488 376.16 410.386 375.61 403.288C375.605 403.197 375.565 403.113 375.498 403.052C375.43 402.992 375.342 402.961 375.252 402.966C375.162 402.971 375.077 403.011 375.017 403.078C374.957 403.145 374.925 403.234 374.93 403.324Z" fill="#263238"/>
<path d="M231.361 444.846L399.089 431.782C399.089 431.782 366.393 303.233 300.953 235.097C285.862 219.387 267.93 230.763 259.285 240.427C237.346 265.013 230.839 444.299 231.361 444.846Z" fill="#029E82"/>
<path d="M395.269 417.965L231.862 429.22C231.968 426.791 232.093 424.088 232.239 421.109L392.84 410.061C393.69 412.951 394.504 415.597 395.269 417.965Z" fill="#DBDBDB"/>
<path d="M390.604 403.189L232.516 414.116C232.661 411.534 232.811 408.831 232.965 406.006L387.982 395.358C388.921 398.078 389.795 400.688 390.604 403.189Z" fill="#DBDBDB"/>
<path d="M318.782 251.281C354.088 297.866 413.033 419.252 421.702 437.039C427.578 449.18 363.109 481.075 360.377 472.248C356.868 460.957 299.211 311.986 291.173 257.704C286.693 228.019 306.519 235.17 318.782 251.281Z" fill="#D3766A"/>
<path d="M358.597 466.25C360.102 477.238 367.69 499.347 373.348 502.674C379.006 506 408.666 505.332 423.624 505.332C438.582 505.332 441.532 501.229 441.277 496.178C441.022 491.127 409.65 490.108 409.65 490.108C409.65 490.108 451.573 501.909 462.111 503.839C472.65 505.77 496.944 511.779 500.453 503.196C502.043 499.323 495.39 495.401 495.39 495.401C495.39 495.401 505.588 498.327 507.203 493.349C509.048 487.691 500.95 484.571 500.95 484.571C500.95 484.571 507.312 485.785 507.47 481.22C507.786 470.9 467.927 465.825 467.927 465.825C467.927 465.825 498.449 480.395 499.493 472.005C500.853 460.35 438.29 447.577 431.783 442.503C427.05 438.626 422.618 434.397 418.525 429.852L358.597 466.25Z" fill="#D3766A"/>
<path d="M454.759 470.33C458.839 470.588 462.897 471.136 466.9 471.969C470.892 472.757 474.84 473.758 478.725 474.968C482.59 476.138 486.384 477.529 490.089 479.132C493.829 480.71 497.456 482.543 500.943 484.62C497.082 483.309 493.331 481.864 489.494 480.601C485.658 479.339 481.87 478.052 478.009 476.898C474.148 475.745 470.299 474.592 466.426 473.475C462.553 472.358 458.644 471.374 454.759 470.33Z" fill="#263238"/>
<path d="M460.897 460.508C467.46 461.021 473.929 462.384 480.141 464.563C486.385 466.578 492.337 469.407 497.843 472.977C491.651 470.816 485.629 468.521 479.461 466.505C473.293 464.49 467.15 462.487 460.897 460.508Z" fill="#263238"/>
<path d="M426.841 433.142L351.651 463.774C351.651 463.774 293.484 301.181 288.166 264.017C282.848 226.854 293.484 220.88 319.32 250.286C345.156 279.692 426.841 433.142 426.841 433.142Z" fill="#029E82"/>
<path d="M414.173 419.034C412.17 419.605 410.215 420.454 408.26 421.195L402.19 423.478C398.111 425.019 394.055 426.634 390.049 428.261C381.963 431.515 373.877 434.744 365.864 438.132C363.654 439.067 361.457 440.002 359.271 440.985C357.086 441.968 354.767 443.231 352.484 444.263C352.339 444.324 352.484 444.53 352.582 444.469C354.609 443.729 356.697 443.146 358.737 442.405C360.777 441.665 362.889 440.864 364.941 440.05C368.988 438.431 373.035 436.812 377.082 435.194C385.01 431.928 392.951 428.698 400.806 425.262L407.374 422.373C409.669 421.377 412.073 420.467 414.258 419.265C414.289 419.253 414.314 419.23 414.327 419.201C414.341 419.171 414.342 419.137 414.331 419.107C414.32 419.076 414.297 419.051 414.267 419.038C414.238 419.024 414.204 419.023 414.173 419.034Z" fill="#263238"/>
<path d="M344.082 442.442C339.169 429.604 334.438 416.703 329.889 403.736C325.312 390.781 320.905 377.766 316.534 364.727C312.163 351.687 308.035 338.599 304.041 325.451C300.046 312.302 296.222 299.08 293.017 285.713L296.149 295.535L299.366 305.321L305.874 324.941L318.865 364.035C323.163 377.074 327.473 390.114 331.686 403.19C335.899 416.266 340.051 429.354 344.082 442.442Z" fill="#263238"/>
<path d="M298.139 303.232C297.277 302.49 296.518 301.637 295.881 300.694C295.235 299.773 294.655 298.808 294.145 297.805C293.104 295.803 292.364 293.66 291.947 291.443C292.578 292.37 293.158 293.33 293.683 294.32C294.23 295.292 294.715 296.275 295.225 297.258C296.185 299.225 297.144 301.18 298.139 303.232Z" fill="#263238"/>
<path d="M291.072 190.552C291.072 190.552 290.61 201.03 291.545 204.66C292.48 208.29 300.663 212.103 300.663 212.103C300.663 212.103 291.351 215.405 288.704 214.774C286.057 214.142 281.784 207.355 281.784 207.355C281.784 207.355 285.718 218.222 289.506 218.792C291.849 219.144 283.739 219.229 283.739 219.229C281.05 219.044 278.525 217.873 276.648 215.939C273.856 212.819 291.072 190.552 291.072 190.552Z" fill="#263238"/>
<path d="M263.373 264.382C273.438 264.297 286.21 245.77 289.767 232.427C290.01 231.516 278.743 200.071 277.153 193.575C276.837 192.24 238.981 213.365 238.981 213.365C238.981 213.365 246.266 225.931 248.986 237.222C249.204 238.206 253.648 264.455 263.373 264.382Z" fill="#D3766A"/>
<path d="M238.981 213.401C238.981 213.401 246.266 225.967 248.998 237.258C248.998 237.477 249.326 239.116 249.86 241.495C268.715 234.988 278.088 220.139 282.434 210.05C280.006 202.923 277.796 196.221 277.165 193.611C276.825 192.288 238.981 213.401 238.981 213.401Z" fill="#263238"/>
<path d="M290.549 149.528C295.32 164.243 288.205 207.125 277.825 216.826C262.782 230.885 237.759 232.609 225.728 214.471C214.036 196.89 224.295 141.175 235.926 132.324C253.045 119.285 283.567 127.784 290.549 149.528Z" fill="#D3766A"/>
<path d="M250.883 174.076C252.172 174.024 253.456 173.898 254.731 173.7C256.104 173.759 257.457 173.362 258.58 172.571C258.89 172.254 259.084 171.843 259.133 171.403C259.181 170.963 259.081 170.519 258.847 170.143C257.766 168.589 255.909 168.334 254.124 168.455C252.306 168.509 250.574 169.241 249.268 170.507C248.983 170.814 248.795 171.197 248.728 171.61C248.661 172.023 248.717 172.447 248.889 172.828C249.062 173.209 249.343 173.531 249.697 173.753C250.052 173.975 250.464 174.088 250.883 174.076Z" fill="#263238"/>
<path d="M234.276 173.615C234.276 173.506 234.021 173.712 234.009 173.833C233.62 176.735 232.686 180.001 229.905 180.523C229.82 180.523 229.808 180.693 229.905 180.693C233.171 180.778 234.373 176.432 234.276 173.615Z" fill="#263238"/>
<path d="M232.189 170.167C227.6 169.038 225.694 178.314 229.943 179.346C234.193 180.378 236.038 171.114 232.189 170.167Z" fill="#263238"/>
<path d="M229.158 162.36C230.432 162.593 231.716 162.759 233.007 162.857C234.335 163.227 235.749 163.146 237.026 162.627C237.4 162.389 237.684 162.032 237.831 161.614C237.979 161.196 237.982 160.74 237.839 160.32C237.147 158.559 235.411 157.892 233.614 157.6C231.837 157.25 229.993 157.575 228.442 158.511C228.098 158.744 227.83 159.073 227.67 159.456C227.511 159.839 227.466 160.261 227.542 160.669C227.618 161.078 227.811 161.455 228.098 161.755C228.385 162.055 228.754 162.265 229.158 162.36Z" fill="#263238"/>
<path d="M250.107 203.238C249.293 203.809 248.456 204.622 247.387 204.537C246.318 204.346 245.301 203.932 244.401 203.323C244.383 203.31 244.362 203.303 244.339 203.303C244.317 203.303 244.296 203.311 244.279 203.325C244.262 203.34 244.25 203.359 244.246 203.381C244.242 203.402 244.245 203.425 244.255 203.445C244.572 204.084 245.057 204.625 245.658 205.01C246.259 205.395 246.953 205.609 247.667 205.63C248.281 205.572 248.865 205.333 249.344 204.945C249.824 204.556 250.178 204.034 250.362 203.445C250.435 203.262 250.216 203.165 250.107 203.238Z" fill="#263238"/>
<path d="M248.512 194.084C247.589 195.103 246.465 195.92 245.212 196.486C243.959 197.052 242.603 197.355 241.228 197.374C240.024 197.402 238.822 197.259 237.658 196.949C237.43 196.905 237.207 196.84 236.991 196.755L236.371 196.549C236.221 196.495 236.093 196.394 236.008 196.26C235.922 196.125 235.883 195.967 235.898 195.808C235.906 195.708 235.931 195.609 235.971 195.517V195.262C236.274 193.028 237.051 189.677 237.051 189.677C236.177 189.944 231.721 191.122 231.976 189.968C234.15 180.438 236.566 169.838 240.742 160.83C240.765 160.762 240.813 160.706 240.877 160.674C240.941 160.642 241.015 160.637 241.082 160.66C241.15 160.682 241.206 160.731 241.238 160.795C241.269 160.858 241.275 160.932 241.252 161C239.528 170.239 236.189 179.114 234.307 188.378C235.888 187.938 237.523 187.721 239.164 187.734C239.467 187.88 237.549 194.181 237.488 195.201V195.31C241.131 196.415 244.166 195.747 248.209 193.841C248.525 193.647 248.719 193.878 248.512 194.084Z" fill="#263238"/>
<path d="M259.638 177.014C258.808 176.612 257.925 176.33 257.016 176.177C256.08 176.023 255.128 176.002 254.187 176.116C253.196 176.249 252.24 176.57 251.37 177.063C250.482 177.595 249.727 178.321 249.16 179.187L248.141 180.754H250.022C251.358 180.726 252.692 180.836 254.005 181.081C255.37 181.303 256.656 181.867 257.744 182.721C257.084 181.319 255.904 180.23 254.454 179.685C253.028 179.087 251.496 178.782 249.95 178.787L250.812 180.317C251.725 179.075 253.036 178.184 254.527 177.791C256.191 177.319 257.909 177.058 259.638 177.014Z" fill="#263238"/>
<path d="M253.705 183.995C252.326 183.555 251.012 182.934 249.795 182.15C249.516 181.931 248.448 181.009 248.581 180.778C248.787 180.093 249.085 179.44 249.467 178.835C248.908 179.358 248.461 179.99 248.156 180.693C248.218 181.1 248.369 181.488 248.598 181.83C248.826 182.172 249.127 182.459 249.48 182.672C250.746 183.479 252.204 183.935 253.705 183.995Z" fill="#263238"/>
<path d="M289.851 189.896C282.129 186.934 280.478 159.993 280.478 159.993L277.649 174.465C274.187 170.989 271.487 166.829 269.721 162.251C268.094 157.395 269.308 150.899 270.353 147.755C270.353 147.755 260.385 154.274 250.016 156.035C246.204 156.69 222.092 155.003 222.213 153.291C222.663 148.216 231.562 131.498 238.883 127.418C247.309 122.72 266.625 117.232 282.457 124.99C295.12 131.182 292.947 141.211 295.181 148.556C295.181 148.556 304.032 157.055 304.153 161.025C304.396 169.536 292.692 190.989 289.851 189.896Z" fill="#263238"/>
<path d="M250.794 192.822C247.697 191.733 245.158 189.459 243.736 186.5C242.313 183.541 242.123 180.138 243.206 177.039C243.972 174.851 245.336 172.921 247.145 171.471C248.953 170.02 251.132 169.106 253.434 168.832C255.737 168.559 258.069 168.938 260.167 169.925C262.265 170.912 264.043 172.468 265.3 174.416C266.557 176.364 267.242 178.626 267.277 180.944C267.312 183.262 266.695 185.543 265.497 187.528C264.3 189.513 262.569 191.122 260.502 192.172C258.435 193.221 256.114 193.67 253.805 193.466C252.778 193.381 251.766 193.165 250.794 192.822ZM244.723 177.585C244.022 179.589 243.93 181.755 244.46 183.81C244.989 185.865 246.116 187.717 247.698 189.132C249.281 190.547 251.247 191.461 253.348 191.759C255.449 192.057 257.592 191.724 259.505 190.805C261.417 189.885 263.015 188.418 264.094 186.591C265.173 184.763 265.687 182.657 265.569 180.538C265.452 178.419 264.709 176.382 263.434 174.685C262.159 172.988 260.409 171.708 258.406 171.005C257.563 170.71 256.686 170.518 255.796 170.434C253.419 170.234 251.043 170.827 249.04 172.121C247.036 173.415 245.518 175.336 244.723 177.585Z" fill="#029E82"/>
<path d="M225.729 187.541C220.703 186.752 217.485 180.621 218.542 173.87C218.974 170.812 220.349 167.965 222.475 165.724C223.328 164.704 224.43 163.923 225.675 163.456C226.919 162.989 228.263 162.852 229.576 163.059C230.889 163.265 232.126 163.809 233.166 164.635C234.207 165.462 235.016 166.544 235.515 167.776C236.842 170.563 237.266 173.695 236.729 176.736C235.721 183.122 231.229 187.808 226.494 187.663C226.237 187.639 225.981 187.598 225.729 187.541ZM223.641 166.902C221.751 168.906 220.541 171.455 220.181 174.186C219.258 180.038 221.868 185.319 225.984 185.963C230.1 186.606 234.203 182.381 235.126 176.542C235.605 173.843 235.227 171.062 234.046 168.589C233.623 167.62 232.973 166.766 232.151 166.1C231.329 165.435 230.359 164.977 229.323 164.765C229.114 164.733 228.903 164.713 228.691 164.704C227.744 164.698 226.806 164.889 225.936 165.265C225.066 165.641 224.285 166.194 223.641 166.889V166.902Z" fill="#029E82"/>
<path d="M243.251 178.52L244.55 177.5C243.032 175.57 239.208 172.644 235.59 175.169L236.549 176.517C239.791 174.222 243.117 178.35 243.251 178.52Z" fill="#029E82"/>
<path d="M296.644 192.846L298.235 192.409C298.028 191.657 296.11 185.125 292.601 183.765C289.335 182.551 267.178 180.05 266.231 179.94L266.049 181.592C272.411 182.296 289.493 184.348 292.018 185.307C294.325 186.193 296.134 191.049 296.644 192.846Z" fill="#029E82"/>
<path d="M281.335 186.678C281.335 186.678 290.926 172.801 297.227 176.213C303.528 179.624 296.365 199.706 289.008 202.486C288.088 202.907 287.093 203.138 286.082 203.165C285.071 203.193 284.065 203.016 283.124 202.645C282.184 202.274 281.327 201.717 280.607 201.008C279.886 200.298 279.316 199.451 278.931 198.516L281.335 186.678Z" fill="#D3766A"/>
<path d="M295.037 181.919C295.063 181.919 295.088 181.929 295.106 181.947C295.124 181.966 295.134 181.99 295.134 182.016C295.134 182.042 295.124 182.067 295.106 182.085C295.088 182.103 295.063 182.113 295.037 182.113C289.877 184.226 287.182 189.034 285.324 194.011C286.854 192.093 288.967 191.025 291.516 192.797C291.65 192.894 291.516 193.101 291.37 193.077C290.462 192.79 289.487 192.793 288.58 193.085C287.673 193.376 286.879 193.942 286.308 194.703C285.354 195.985 284.541 197.365 283.879 198.819C283.637 199.281 282.799 199.038 282.969 198.504V198.394C282.896 191.85 287.971 182.611 295.037 181.919Z" fill="#263238"/>
<path d="M249.327 238.97L261.723 260.302L287.486 224.801L297.393 233.009C297.393 233.009 275.078 284.875 274.593 282.726L261.577 264.381L248.72 280.954L246.438 245.101L249.327 238.97Z" fill="#EBEBEB"/>
<path d="M246.181 245.49C246.181 245.271 246.545 245.113 246.569 245.368C247.419 251.937 248.791 274.956 249.252 278.987L249.313 278.914C249.799 278.21 261.454 264.211 261.576 264.345C264.222 267.234 273.717 280.468 274.445 281.731C277.735 273.438 292.001 243.547 296.202 235.534C296.221 235.483 296.26 235.441 296.31 235.418C296.36 235.395 296.417 235.393 296.469 235.413C296.52 235.432 296.562 235.471 296.585 235.521C296.608 235.571 296.61 235.628 296.59 235.68C293.895 244.3 275.562 284.632 275.198 284.584C274.979 284.802 263.178 268.424 261.551 265.158C259.864 268.096 248.293 283.637 248.196 282.763C247.528 277.591 246.181 251.026 246.181 245.49Z" fill="#263238"/>
<path d="M142.737 191.39C143.84 192.423 145.035 193.354 146.307 194.17C146.598 194.364 146.914 194.547 147.229 194.729C147.545 194.911 147.788 195.056 148.079 195.202L148.674 195.518L157.646 199.937C156.829 199.544 156.038 199.098 155.279 198.602C154.625 198.185 153.993 197.736 153.385 197.254C152.814 196.817 152.256 196.331 151.697 195.821C138.075 183.122 139.01 156.691 153.786 136.792C165.174 121.433 181.443 114.44 194.555 117.852C196.187 118.265 197.77 118.851 199.278 119.6L190.306 115.168C190.283 115.159 190.256 115.159 190.233 115.168C189.857 114.962 189.456 114.792 189.019 114.622C188.582 114.452 188.339 114.331 187.987 114.209L187.513 114.039L186.712 113.772L186.251 113.639C178.25 111.295 168.986 112.934 160.366 118.034L159.055 118.835C153.506 122.443 148.663 127.035 144.765 132.384C130.05 152.284 129.103 178.715 142.737 191.39Z" fill="#3B436C"/>
<path d="M207.418 186.776C192.399 207.003 170.133 214.858 153.997 206.918L145.037 202.486C161.1 210.439 183.379 202.571 198.458 182.344C215.771 158.997 216.864 127.965 200.886 113.068C199.591 111.859 198.189 110.77 196.697 109.814C195.805 109.24 194.88 108.717 193.929 108.248L202.889 112.667C203.836 113.153 204.771 113.675 205.682 114.245C207.167 115.205 208.565 116.294 209.858 117.499C225.836 132.408 224.743 163.465 207.418 186.776Z" fill="#3B436C"/>
<path d="M138.109 197.666C139.403 198.871 140.801 199.96 142.285 200.92C143.374 201.617 144.51 202.237 145.685 202.778C145.721 202.787 145.758 202.787 145.794 202.778C146.292 203.008 146.777 203.215 147.275 203.409C147.579 203.543 147.87 203.64 148.186 203.749C152.47 205.24 157.025 205.791 161.541 205.364C162.573 205.279 163.605 205.145 164.625 204.975C166.204 204.713 167.765 204.352 169.299 203.895L170.865 203.409C171.909 203.057 172.953 202.668 173.973 202.195C174.993 201.721 176.074 201.284 177.094 200.762C178.113 200.24 179.158 199.682 180.165 199.075C187.322 194.748 193.543 189.035 198.462 182.271C215.763 158.936 216.868 127.904 200.89 112.995C200.234 112.375 199.542 111.781 198.85 111.258C198.158 110.736 197.442 110.214 196.714 109.741C196.301 109.486 195.888 109.231 195.499 108.988L195.208 108.83C194.868 108.624 194.504 108.442 194.152 108.26C178.053 100.162 155.677 108.017 140.61 128.317C123.212 151.737 122.095 182.757 138.109 197.666ZM144.823 132.384C148.721 127.034 153.564 122.443 159.113 118.834L160.424 118.033C169.044 112.934 178.308 111.295 186.309 113.638L186.77 113.772L187.571 114.039L188.045 114.209C188.397 114.33 188.725 114.476 189.077 114.622C189.429 114.767 189.866 114.961 190.291 115.168C190.314 115.158 190.34 115.158 190.364 115.168C191.877 115.899 193.302 116.799 194.613 117.851C195.197 118.298 195.756 118.776 196.289 119.284C209.911 131.995 208.988 158.439 194.225 178.338C182.836 193.684 166.555 200.677 153.443 197.253C151.6 196.779 149.82 196.09 148.137 195.202C147.846 195.056 147.567 194.898 147.287 194.728C147.008 194.558 146.656 194.364 146.365 194.17C145.072 193.357 143.856 192.426 142.734 191.389C129.1 178.714 130.047 152.283 144.823 132.384Z" fill="#3A466D"/>
<path opacity="0.4" d="M151.712 195.845C152.271 196.355 152.829 196.841 153.4 197.278C166.512 200.702 182.793 193.709 194.182 178.362C208.945 158.463 209.868 132.02 196.246 119.308C195.713 118.801 195.154 118.323 194.57 117.876C181.458 114.464 165.189 121.518 153.801 136.816C139.025 156.715 138.09 183.146 151.712 195.845Z" fill="white"/>
<g opacity="0.3">
<path d="M173.629 120.279L201.347 165.893C202.564 163.034 203.55 160.082 204.297 157.066L180.513 117.96C178.147 118.502 175.841 119.278 173.629 120.279Z" fill="#EBEBEB"/>
<path d="M190.081 117.134L205.864 143.128C205.597 133.633 202.416 125.062 196.249 119.307C195.716 118.8 195.157 118.322 194.573 117.874C193.101 117.494 191.598 117.246 190.081 117.134Z" fill="#EBEBEB"/>
<path d="M168.688 122.889L198.434 171.769C199.114 170.555 199.77 169.341 200.34 168.066L171.784 121.141C170.752 121.675 169.72 122.245 168.688 122.889Z" fill="#EBEBEB"/>
<path d="M142.454 164.678C142.192 166.74 142.066 168.816 142.078 170.894L158.602 198.054C159.98 198.163 161.364 198.163 162.742 198.054L142.454 164.678Z" fill="#EBEBEB"/>
<path d="M146.656 149.235L174.423 194.849C178.929 192.778 183.08 190.008 186.722 186.642L155.264 134.933C154.766 135.54 154.281 136.147 153.795 136.815C150.934 140.659 148.538 144.828 146.656 149.235Z" fill="#EBEBEB"/>
</g>
<path d="M19.8372 8.78809H18.623V64.9161H19.8372V8.78809Z" fill="#263238"/>
<path d="M19.232 9.3954C18.3329 9.40021 17.4527 9.13799 16.7027 8.64198C15.9528 8.14597 15.3671 7.43849 15.0196 6.60921C14.6722 5.77994 14.5788 4.86619 14.7513 3.98378C14.9238 3.10136 15.3543 2.29001 15.9884 1.65254C16.6224 1.01507 17.4314 0.580193 18.3129 0.40301C19.1944 0.225827 20.1086 0.314318 20.9398 0.657271C21.7709 1.00022 22.4815 1.5822 22.9815 2.32944C23.4816 3.07668 23.7485 3.95555 23.7485 4.85465C23.7453 6.05377 23.2692 7.20322 22.4236 8.05339C21.578 8.90357 20.4311 9.38581 19.232 9.3954ZM19.232 1.52801C18.5731 1.5232 17.9275 1.7142 17.3773 2.0768C16.827 2.4394 16.3969 2.95726 16.1414 3.56469C15.8858 4.17211 15.8165 4.84174 15.9421 5.48864C16.0677 6.13553 16.3826 6.73055 16.8469 7.19823C17.3111 7.6659 17.9038 7.98515 18.5498 8.11549C19.1957 8.24583 19.8658 8.18138 20.4751 7.93033C21.0844 7.67927 21.6054 7.25291 21.972 6.70533C22.3386 6.15776 22.5344 5.51363 22.5344 4.85465C22.5344 3.97656 22.1873 3.13408 21.5686 2.5109C20.95 1.88773 20.1101 1.53441 19.232 1.52801Z" fill="#263238"/>
<path d="M74.7518 0.921875H31.1533V2.88873H74.7518V0.921875Z" fill="#263238"/>
<path d="M55.8361 4.85498H31.1533V6.82183H55.8361V4.85498Z" fill="#263238"/>
<path d="M186.789 16.061H177.404V25.4461H186.789V16.061Z" fill="#029E82"/>
<path d="M236.376 16.061H192.777V18.0279H236.376V16.061Z" fill="#263238"/>
<path d="M217.46 19.9946H192.777V21.9615H217.46V19.9946Z" fill="#263238"/>
<path d="M186.789 35.1958H177.404V44.5808H186.789V35.1958Z" fill="#3B436C"/>
<path d="M236.376 35.1958H192.777V37.1627H236.376V35.1958Z" fill="#263238"/>
<path d="M217.46 39.1289H192.777V41.0958H217.46V39.1289Z" fill="#263238"/>
<path d="M186.789 54.3418H177.404V63.7268H186.789V54.3418Z" fill="#029E82"/>
<path d="M236.376 54.3418H192.777V56.3086H236.376V54.3418Z" fill="#263238"/>
<path d="M217.46 58.2759H192.777V60.2427H217.46V58.2759Z" fill="#263238"/>
<path d="M186.789 73.4751H177.404V82.8601H186.789V73.4751Z" fill="#3A466D"/>
<path d="M236.376 73.4751H192.777V75.4419H236.376V73.4751Z" fill="#263238"/>
<path d="M217.46 77.4097H192.777V79.3765H217.46V77.4097Z" fill="#263238"/>
<path d="M3.70096 98.5352H3.88307H4.05305L7.4404 97.3211H7.6468L9.57723 96.6412L9.8079 96.5684L12.8796 95.4999L13.1224 95.4028L15.0043 94.7472L15.2835 94.6622L18.8166 93.4481L19.1079 93.351L21.2326 92.6104L21.5604 92.5011L24.2072 91.5784L24.5593 91.457L26.8782 90.6435L27.2546 90.5221L30.4598 89.4051L30.7876 89.2837L33.2158 88.4339L33.5315 88.3246L35.8747 87.5111L36.154 87.414L38.825 86.4791L39.08 86.382L41.3989 85.5807L41.6296 85.5079L44.8834 84.3666L45.1262 84.2938L48.55 83.0797L48.7321 83.0068L51.3545 82.0962H51.5245L54.924 80.8821H55.0697L57.935 79.8866H58.0685L61.0674 78.8424L58.2142 77.9197H58.0928L54.7905 76.8634H54.6448L51.8159 75.9529H51.6581L48.0158 74.7388H47.8094L45.3812 73.9617L45.1626 73.8889L39.857 72.177L39.5899 72.092L38.3151 71.1936L38.0358 71.1086L32.8516 69.4331L32.5359 69.336L31.3947 68.9718L31.0547 68.8746L25.7369 67.187L25.3242 67.0656L24.1101 66.6771L23.7215 66.5557L18.1245 64.7467L17.7117 64.6253L17.0682 64.4189L16.6797 64.2853L10.5121 62.3063L10.1479 62.1849L9.58937 62.0028L9.26156 61.9057L3.10605 59.9146C3.10605 60.0845 2.99678 60.2545 2.94821 60.4366C2.94821 60.5823 2.85108 60.728 2.81466 60.8737V60.9951C2.75396 61.1651 2.7054 61.3472 2.65683 61.5172C1.44046 65.8775 0.687587 70.354 0.410736 74.8723V75.4187C0.29538 77.4851 0.29538 79.5563 0.410736 81.6227C0.410736 82.0234 0.410737 82.4119 0.483584 82.8368C0.910099 88.1815 1.99063 93.4537 3.70096 98.5352Z" fill="#029E82"/>
<path d="M58.2285 77.6282L58.0828 79.5951H57.9492L58.107 77.5433L58.2285 77.6282ZM54.659 76.487L54.9382 80.6878H55.0839L54.8047 76.5841L54.659 76.487ZM51.3688 81.9383H51.5387L51.8301 75.6371H51.6723L51.3688 81.9383ZM47.86 74.3016L48.5642 82.9217L48.7463 82.8489L48.0664 74.3502L47.86 74.3016ZM44.8976 84.1844L45.1404 84.1116L45.4439 73.5246L45.2254 73.4517L44.8976 84.1844ZM39.9198 71.7398L39.6527 71.6548L40.5511 78.6481L41.4131 85.3985L41.6438 85.3257L40.7454 78.6117L39.9198 71.7398ZM38.8392 86.3091L39.0942 86.212L38.3172 71.1935L38.0379 71.1085L38.8392 86.3091ZM32.8658 69.4816L32.5502 69.3845L35.8889 87.3289L36.1682 87.2318L32.8658 69.4816ZM31.0325 68.8988L33.1936 88.2517L33.5093 88.1424L31.3725 68.996L31.0325 68.8988ZM25.7026 67.1748L25.2898 67.0534L30.4255 89.2229L30.7533 89.1015L25.7026 67.2476V67.1748ZM23.7479 66.5435L26.8803 90.4613L27.2567 90.3399L24.1364 66.6649L23.7479 66.5435ZM17.6774 64.613L24.1486 91.3962L24.5006 91.2748L18.1509 64.7345L17.6774 64.613ZM16.6454 64.2731L21.174 92.4282L21.5018 92.3189L17.0339 64.3945L16.6454 64.2731ZM10.1135 62.1727L18.7579 93.2659L19.0493 93.1688L10.5384 62.2941L10.1135 62.1727ZM9.22722 61.8934L14.9456 94.5893L15.2249 94.5043L9.61573 61.9906L9.22722 61.8934ZM2.80461 60.8857L12.821 95.342L13.0638 95.2449L2.99886 60.4365C2.99886 60.5822 2.90173 60.7279 2.86531 60.8736L2.80461 60.8857ZM2.61035 61.5414L9.5186 96.4833L9.74928 96.4104L2.82889 61.0193C2.76818 61.1893 2.71962 61.3714 2.67105 61.5414H2.61035ZM0.388536 75.4429L7.44248 97.2239H7.64888L0.364258 74.9572V75.5036L0.388536 75.4429ZM0.485666 82.8367L3.88516 98.4501H4.05513L0.412818 81.6833C0.424959 82.0476 0.449243 82.4361 0.485666 82.8367Z" fill="#DBDBDB"/>
<path d="M3.70117 98.535L8.56973 98.013L65.9361 78.0288L61.0797 78.5509L3.70117 98.535Z" fill="#37496E"/>
<path d="M61.0835 78.5502L65.94 78.0281L8.01505 59.3916L3.14648 59.9137L61.0835 78.5502Z" fill="#37496E"/>
<path d="M93.1662 16.085L93.5669 78.587L34.9014 59.647C43.1694 33.3374 65.9581 16.2671 93.1662 16.085Z" fill="#3B436C"/>
<path d="M91.5658 16.1094L93.1685 18.829V19.1932L91.3473 16.1215L91.5658 16.1094ZM89.2955 16.2308L93.217 24.9481V24.4624L89.5747 16.2065L89.2955 16.2308ZM82.4843 17.0442L93.2777 34.7702V34.2845L82.7393 17.0078L82.4843 17.0442ZM81.0274 17.3235L93.3384 43.6331V43.0139L81.2702 17.2871C81.1884 17.2923 81.1072 17.3045 81.0274 17.3235ZM85.1554 38.8617L93.387 51.0027V50.5535L85.4225 38.7646L75.7825 24.4503L72.553 19.6788C72.4532 19.7079 72.3558 19.7444 72.2616 19.7881L75.5275 24.6445L85.1554 38.8617ZM71.5331 20.0552L93.387 58.3966V57.7167L71.8245 19.9338L71.5331 20.0552ZM64.1514 23.4304L93.4477 61.8447V61.2619L64.4792 23.2483L64.1514 23.4304ZM63.4836 23.7947L93.5084 69.7606V69.0322L63.8114 23.6125C63.712 23.7026 63.6019 23.78 63.4836 23.8432V23.7947ZM57.1217 27.9105L93.5448 71.6182V70.9747L57.4859 27.6555L57.1217 27.9105ZM56.3811 28.4811L89.6597 77.3245L90.376 77.5552L56.7332 28.214C56.608 28.2921 56.4901 28.3815 56.3811 28.4811ZM50.8934 33.2161L87.8871 76.7539L88.7248 77.021L51.209 32.9126C51.1099 33.0198 51.0044 33.1212 50.8934 33.2161ZM50.2985 33.8232L79.437 74.0221L80.0804 74.2285L50.602 33.556L50.2985 33.8232ZM45.527 39.2259L76.256 72.9902L77.0087 73.2451L45.7577 38.9345L45.527 39.2259ZM44.7743 40.2215L66.9802 69.9792L67.5387 70.1613L45.005 39.918C44.92 40.0151 44.8471 40.1243 44.7743 40.2215ZM40.9741 45.9278L61.881 68.3523L62.5002 68.5587L41.132 45.6971C41.0738 45.7701 41.0211 45.8472 40.9741 45.9278ZM40.4035 46.9112L55.5555 66.3369L56.0169 66.4826L40.5492 46.6441C40.4955 46.7303 40.4469 46.8194 40.4035 46.9112ZM37.2225 53.3581L47.4696 63.7144L48.0281 63.9086L37.3561 53.1395C37.307 53.2095 37.2624 53.2825 37.2225 53.3581ZM36.6641 54.6936L42.7346 62.1846L43.1231 62.3182L36.7369 54.4508C36.7076 54.5301 36.6833 54.6112 36.6641 54.6936Z" fill="#263238"/>
<path d="M93.5745 78.5874L152.24 97.5153C148.402 110.021 140.689 120.983 130.213 128.817C119.738 136.652 107.043 140.954 93.963 141.102C87.4969 141.136 81.0666 140.14 74.9137 138.151C55.488 131.874 41.5623 117.937 35.1396 98.2802L93.5745 78.5874Z" fill="#029E82"/>
<path d="M152.239 97.5156H157.095C153.257 110.02 145.543 120.98 135.067 128.813C124.592 136.645 111.898 140.945 98.8183 141.09H93.9619C107.041 140.943 119.734 136.643 130.209 128.81C140.684 120.978 148.399 110.019 152.239 97.5156Z" fill="#029E82"/>
<g opacity="0.1">
<path d="M152.239 97.5151H157.095C153.257 110.019 145.543 120.979 135.067 128.812C124.592 136.645 111.898 140.944 98.8183 141.089H93.9619C107.041 140.942 119.734 136.642 130.209 128.81C140.684 120.977 148.399 110.018 152.239 97.5151Z" fill="black"/>
</g>
<path opacity="0.1" d="M149.59 96.6899L150.258 102.955C150.263 102.979 150.263 103.004 150.258 103.028L149.578 96.6777L149.59 96.6899ZM142.864 94.5166L147.793 108.2L142.937 94.5895L142.864 94.5166ZM140.436 93.7518L143.422 115.205V115.12L140.436 93.776V93.7518ZM136.198 92.3798L142.463 116.528V116.443L136.235 92.4284L136.198 92.3798ZM134.547 91.8577L137.874 121.968L137.971 121.858L134.717 91.8335L134.547 91.8577ZM129.545 90.243L136.83 123.024L136.939 122.915L129.654 90.3158L129.545 90.243ZM128.331 89.8423L131.281 127.953L131.439 127.844L128.489 89.8909L128.331 89.8423ZM123.754 88.3733L123.547 88.3004L130.395 128.645L130.553 128.524L123.754 88.3733ZM121.945 87.7905L122.467 133.769L122.673 133.647L122.151 87.8512L121.945 87.7905ZM116.712 86.1029L116.445 86.0058L121.787 134.121L122.006 134.011L116.712 86.1029ZM114.842 137.241L115.134 137.132L115.534 85.7265L115.292 85.6294L114.842 137.241ZM110.35 84.0511L110.047 83.9418L114.32 137.435L114.587 137.338L110.35 84.0511ZM107.521 139.475C107.636 139.458 107.75 139.433 107.861 139.402L109.561 83.7232L109.245 83.6261L107.521 139.475ZM103.333 81.72L102.956 81.5986L106.902 139.621L107.242 139.548L103.333 81.72ZM97.4078 79.8017L96.9707 79.6681L99.0347 140.859H99.4353H99.836L102.434 81.5014L102.058 81.38L99.4353 140.786L97.4078 79.8017ZM90.1232 79.8017L89.7225 79.9231L91.1673 141.065H91.5437H91.9686L96.4608 79.4739L96.0237 79.3403L91.5801 140.665L90.1232 79.8017ZM83.4092 140.24L83.7613 140.301L89.3461 80.0567L88.9455 80.1902L83.4092 140.24ZM84.2105 81.7928L83.0692 140.179H83.4092L84.5383 81.6228L84.2105 81.7928ZM74.9104 138.139H75.0076H75.1897L83.822 81.8292L83.4699 81.9507L74.9104 138.139ZM74.7405 135.541L74.5462 138.067L74.8376 138.164L75.0318 135.553L75.6632 127.346L76.8773 110.919L78.9534 83.5654L78.6863 83.6625L76.5859 110.907L75.3718 127.322L74.7405 135.541ZM65.7925 134.473L66.0111 134.582L78.0428 83.8932L77.7514 83.9904L65.7925 134.473ZM70.9889 86.2729L65.0276 134.048L65.2462 134.157L71.1589 86.1393L70.9889 86.2729ZM58.8479 130.454L59.0057 130.563L70.1997 86.5278L69.969 86.6007L58.8479 130.454ZM55.2905 91.6028L51.2476 124.384C51.2935 124.413 51.3345 124.45 51.369 124.493L55.3998 91.5421L55.2905 91.6028ZM45.5777 118.107L45.6505 118.204L54.1493 92.0034H54.0279L45.5777 118.107ZM63.4372 88.871L57.743 129.653C57.7896 129.697 57.8429 129.734 57.9008 129.762L63.51 88.7011L63.4372 88.871ZM52.0974 125.161L52.2067 125.246L58.2772 104.084L62.0652 90.7286L62.5023 89.1867H62.3323L61.8588 90.6194L58.0708 103.975L52.0974 125.161ZM49.9606 93.2904L44.8978 117.16C44.8955 117.192 44.8955 117.224 44.8978 117.257L49.9849 93.2661L49.9606 93.2904ZM41.6683 112.473C41.6599 112.497 41.6599 112.523 41.6683 112.546L48.8679 93.7032H48.7829L41.6683 112.473ZM44.9706 95.0266L40.9034 111.211V111.283L44.9828 95.0144L44.9706 95.0266ZM39.0944 97.0177L36.8847 103.088L39.1065 97.0177H39.0944ZM35.2578 98.6446C35.3589 98.4852 35.4683 98.3312 35.5856 98.1832L35.2578 98.6446Z" fill="black"/>
<path d="M93.1689 16.0858C127.164 15.8672 154.894 43.6702 155.088 78.1872C155.186 84.7436 154.214 91.2721 152.211 97.5157L93.5453 78.5878L93.1689 16.0858Z" fill="#3A466D"/>
<path d="M147.456 48.393L147.663 48.7937L93.4774 66.0825V65.609L147.456 48.393ZM147.821 49.0851L93.5259 72.408V72.8451L148.015 49.4614C147.958 49.3323 147.893 49.2066 147.821 49.0851ZM93.4409 58.7979V59.2228L143.219 41.7519C143.144 41.6208 143.055 41.4987 142.952 41.3876L93.4409 58.7979ZM143.486 42.0554L93.4652 64.0914V64.5892L143.717 42.4196C143.656 42.2739 143.559 42.1525 143.486 42.0554ZM93.3317 43.8037V44.0951L131.272 29.2345L131.017 29.0281L93.3317 43.8037ZM132.098 29.9144L93.3681 49.0972V49.4614L132.353 30.0358C132.272 29.9874 132.187 29.9468 132.098 29.9144ZM93.3802 50.7969V51.149L137.598 34.9772C137.511 34.8781 137.418 34.7849 137.319 34.6979L93.3802 50.7969ZM138.302 35.6814L93.4288 57.2317V57.6566L138.521 35.8999C138.436 35.8149 138.351 35.7178 138.254 35.6328L138.302 35.6814ZM93.2345 28.7003V28.8702L112.745 19.2302H112.527L93.2345 28.7003ZM115.088 20.0558L93.3195 33.411V33.5567L115.319 20.0801L115.088 20.0558ZM93.2831 36.2398V36.4705L123.478 23.9652C123.393 23.9096 123.304 23.8608 123.211 23.8196L93.2831 36.2398ZM124.923 24.8151L93.3559 41.7276V42.0554L125.19 24.9851L124.923 24.8151ZM93.1981 21.4156V21.537L102.267 16.6806H102.085L93.1981 21.4156ZM105.995 17.3605L93.2224 26.1142V26.272L106.189 17.3848C106.125 17.3739 106.06 17.3698 105.995 17.3727V17.3605ZM93.1738 18.259V18.3682L96.2091 16.1343H96.0512L93.1738 18.259ZM154.862 84.1363L130.022 90.3646L130.338 90.4739L154.862 84.3305C154.862 84.3305 154.862 84.2091 154.862 84.1363ZM121.22 87.5236L121.681 87.6693L154.923 83.2257C154.923 83.1528 154.923 83.0921 154.923 83.0193L121.22 87.5236ZM153.648 92.21L143.838 94.8082L144.069 94.8811L153.624 92.3557C153.638 92.3083 153.646 92.2594 153.648 92.21ZM138.812 93.1935L139.152 93.3027L153.721 91.773C153.727 91.7246 153.727 91.6757 153.721 91.6273L138.812 93.1935ZM155.045 75.6739L116.315 85.9331L116.715 86.0545L155.045 75.9168V75.6739ZM105.145 82.3151L105.728 82.5094L155.008 75.1155C155.014 75.0306 155.014 74.9454 155.008 74.8605L105.145 82.3151ZM127.715 73.5128L102.498 81.4652L102.96 81.623L127.812 73.7921L144.215 68.62L152.434 66.0461L153.794 65.6212C153.794 65.524 153.794 65.4269 153.794 65.3176L152.41 65.7547L144.203 68.3408L127.715 73.5128ZM94.1572 78.7821L94.7764 78.9763L153.648 65.1841C153.634 65.0858 153.614 64.9885 153.588 64.8927L94.1572 78.7821ZM151.22 56.7461L93.5988 78.5999L94.1087 78.7578L151.354 57.0981C151.32 56.977 151.275 56.8592 151.22 56.7461ZM93.5138 73.3429V73.7557L151.22 56.6246C151.188 56.5028 151.144 56.3848 151.087 56.2726L93.5138 73.3429Z" fill="#3B436C"/>
<path d="M93.1689 16.0849H98.0254C132.02 15.8542 159.763 43.6572 159.945 78.1742C160.045 84.7357 159.069 91.2693 157.055 97.5149H152.199C154.202 91.2712 155.174 84.7428 155.076 78.1863C154.87 43.6694 127.152 15.8664 93.1689 16.0849Z" fill="#3B436C"/>
<path d="M385.266 95.6457C385.268 102.966 383.236 110.143 379.395 116.375C375.555 122.607 370.058 127.649 363.518 130.938C356.979 134.228 349.654 135.635 342.361 135.003C335.068 134.37 328.094 131.724 322.218 127.358L302.865 132.3L310.927 114.282C308.093 108.987 306.504 103.114 306.28 97.1122C306.056 91.11 307.204 85.1359 309.636 79.644C312.068 74.1521 315.721 69.287 320.316 65.4187C324.91 61.5504 330.327 58.7807 336.153 57.3201C341.979 55.8596 348.061 55.7466 353.937 56.9899C359.814 58.2332 365.329 60.8 370.064 64.4951C374.799 68.1902 378.63 72.9163 381.264 78.3141C383.898 83.7119 385.267 89.6394 385.266 95.6457Z" fill="white"/>
<path d="M385.268 95.6458C385.263 102.967 383.233 110.143 379.404 116.383C378.455 117.936 377.408 119.428 376.272 120.851C375.092 122.235 373.831 123.549 372.496 124.784C371.839 125.419 371.15 126.018 370.432 126.581L368.259 128.257C367.53 128.803 366.717 129.228 365.952 129.726L364.738 130.442C364.337 130.673 363.924 130.855 363.524 131.061L361.095 132.275L358.521 133.235C357.671 133.562 356.799 133.83 355.911 134.036C355.025 134.242 354.151 134.546 353.252 134.679C351.458 135.035 349.64 135.258 347.813 135.347C345.987 135.493 344.152 135.493 342.325 135.347C334.962 134.766 327.907 132.142 321.953 127.771L322.317 127.844L302.988 132.822L301.92 133.101L302.369 132.081L310.382 114.04V114.562C307.476 109.201 305.863 103.234 305.671 97.1392C305.373 89.5475 307.259 82.0296 311.105 75.4775C314.951 68.9253 320.596 63.6139 327.37 60.1733C334.144 56.7327 341.762 55.3074 349.322 56.0664C356.881 56.8254 364.064 59.7369 370.019 64.4555C374.757 68.1598 378.592 72.8922 381.234 78.2954C383.875 83.6986 385.255 89.6314 385.268 95.6458ZM385.268 95.6458C385.275 89.6582 383.909 83.7488 381.276 78.3714C378.642 72.9939 374.811 68.2916 370.077 64.6256C365.343 60.9595 359.832 58.4273 353.967 57.2234C348.101 56.0195 342.038 56.176 336.243 57.6808C330.486 59.1562 325.142 61.9259 320.617 65.7789C316.141 69.6596 312.565 74.47 310.139 79.8746C307.764 85.2938 306.652 91.1818 306.885 97.094C307.118 103.006 308.692 108.788 311.487 114.003L311.633 114.258L311.511 114.513L303.401 132.518L302.794 131.79L322.22 126.933H322.414L322.584 127.067C328.375 131.428 335.265 134.093 342.483 134.764C344.279 134.938 346.086 134.967 347.886 134.849C349.694 134.777 351.495 134.582 353.277 134.266C354.175 134.145 355.037 133.854 355.911 133.647C356.8 133.465 357.672 133.213 358.521 132.895L361.071 131.984L363.499 130.831C363.9 130.624 364.325 130.454 364.713 130.236L365.927 129.531C366.705 129.058 367.506 128.633 368.246 128.099L370.432 126.484C371.146 125.929 371.831 125.338 372.484 124.711C373.828 123.49 375.094 122.185 376.272 120.802C377.412 119.393 378.462 117.912 379.416 116.371C383.244 110.135 385.269 102.962 385.268 95.6458Z" fill="#263238"/>
<path d="M339.361 119.151L321.659 101.231L327.596 95.3543L337.94 105.82L359.43 72.1406L366.484 76.6328L339.361 119.151Z" fill="#029E82"/>
</svg>
