<svg width="434" height="265" viewBox="0 0 434 265" fill="none" xmlns="http://www.w3.org/2000/svg">
<g filter="url(#filter0_d_74_200)">
<path d="M382.695 144.587C382.695 144.587 373.555 130.587 353.115 133.297C333.675 135.887 321.595 169.927 340.415 175.927C359.235 181.927 358.905 149.327 366.415 144.507C371.955 140.977 379.265 142.547 382.695 144.587Z" fill="#7EAF4B"/>
<path d="M335.844 150.88C337.258 149.861 338.738 148.935 340.274 148.11C341.72 147.313 343.267 146.718 344.874 146.34C345.764 145.225 346.744 144.185 347.804 143.23C349.743 141.495 351.935 140.065 354.304 138.99C354.104 138.99 353.914 138.91 353.714 138.89C352.656 138.746 351.592 138.655 350.524 138.62C348.378 138.555 346.237 138.877 344.204 139.57C344.18 139.578 344.154 139.577 344.132 139.565C344.109 139.554 344.092 139.534 344.084 139.51C344.076 139.487 344.078 139.461 344.089 139.438C344.101 139.416 344.12 139.398 344.144 139.39C346.202 138.724 348.329 138.298 350.484 138.12C351.532 138.025 352.586 138.025 353.634 138.12C354.194 138.17 354.754 138.27 355.304 138.37L355.624 138.43C357.558 137.677 359.571 137.147 361.624 136.85L361.084 136.65C360.126 136.34 359.151 136.083 358.164 135.88C356.193 135.465 354.176 135.307 352.164 135.41C352.044 135.41 352.024 135.22 352.164 135.22C354.193 135.167 356.223 135.274 358.234 135.54C359.935 135.748 361.61 136.127 363.234 136.67C364.461 136.567 365.694 136.544 366.924 136.6C373.924 136.97 381.294 140.3 385.044 146.44C388.794 152.58 388.914 160.32 389.044 167.32C389.295 177.082 388.625 186.845 387.044 196.48C386.944 197.05 386.144 196.87 386.184 196.32C386.694 188.07 387.184 179.82 387.184 171.55C387.184 167.72 387.184 163.87 386.864 160.05C386.714 156.77 386.084 153.529 384.994 150.43C383.797 147.255 381.684 144.506 378.924 142.53C376.152 140.579 372.984 139.264 369.644 138.68C366.648 138.15 363.581 138.15 360.584 138.68C360.634 139.276 360.594 139.877 360.464 140.46C360.333 141.196 360.119 141.914 359.824 142.6C359.552 143.255 359.217 143.881 358.824 144.47C358.394 145.12 357.874 145.69 357.394 146.31C357.314 146.4 357.164 146.31 357.244 146.18C358.183 145.087 358.845 143.783 359.174 142.38C359.362 141.724 359.506 141.056 359.604 140.38C359.684 139.86 359.684 139.38 359.754 138.83C356.489 139.508 353.379 140.79 350.584 142.61C350.064 142.96 349.584 143.32 349.054 143.7C349.653 144.38 350.157 145.137 350.554 145.95C351.147 147.017 351.642 148.135 352.034 149.29C352.749 151.603 353.15 154.001 353.224 156.42C353.224 156.55 353.034 156.56 353.034 156.42C352.882 154.072 352.324 151.768 351.384 149.61C350.951 148.546 350.45 147.511 349.884 146.51C349.594 146 349.284 145.51 348.964 144.99C348.794 144.72 348.604 144.45 348.444 144.17C345.873 146.249 343.695 148.773 342.014 151.62C342.854 152.712 343.528 153.922 344.014 155.21C344.61 156.57 345.108 157.97 345.504 159.4C346.219 162.157 346.76 164.956 347.124 167.78C347.124 167.9 346.944 167.92 346.934 167.78C346.588 164.935 345.89 162.143 344.854 159.47C344.374 158.16 343.854 156.87 343.314 155.59C342.725 154.395 342.208 153.167 341.764 151.91C340.153 154.702 339.081 157.772 338.604 160.96C338.598 160.98 338.585 160.998 338.568 161.01C338.551 161.023 338.53 161.029 338.509 161.029C338.488 161.029 338.468 161.023 338.451 161.01C338.434 160.998 338.421 160.98 338.414 160.96C339.257 155.968 341.257 151.242 344.254 147.16C342.974 147.56 341.704 147.95 340.464 148.47C338.888 149.132 337.397 149.981 336.024 151C335.864 151.12 335.774 150.96 335.844 150.88Z" fill="#B3360F"/>
<path d="M350.454 153.008C350.864 155.008 351.454 157.008 351.794 159.078C352.166 161.055 352.277 163.072 352.124 165.078C352.124 165.128 352.024 165.128 352.024 165.078C351.864 161.027 351.274 157.004 350.264 153.078C350.259 153.065 350.257 153.052 350.258 153.039C350.258 153.025 350.262 153.012 350.267 153C350.273 152.988 350.281 152.977 350.29 152.968C350.3 152.959 350.312 152.952 350.324 152.948C350.337 152.943 350.35 152.941 350.363 152.941C350.376 152.942 350.389 152.945 350.402 152.951C350.414 152.956 350.424 152.964 350.433 152.974C350.442 152.984 350.449 152.995 350.454 153.008Z" fill="#B3360F"/>
<path d="M338.245 146.909C339.103 146.226 340.056 145.673 341.075 145.269C342.107 144.912 343.168 144.644 344.245 144.469C344.365 144.469 344.385 144.649 344.245 144.669C343.188 144.838 342.158 145.151 341.185 145.599C340.194 146.002 339.232 146.473 338.305 147.009C338.299 147.015 338.291 147.02 338.282 147.023C338.274 147.026 338.265 147.027 338.256 147.026C338.247 147.024 338.238 147.021 338.23 147.016C338.223 147.011 338.216 147.005 338.212 146.997C338.207 146.989 338.204 146.98 338.203 146.971C338.203 146.962 338.204 146.953 338.207 146.945C338.21 146.936 338.215 146.929 338.222 146.922C338.229 146.916 338.237 146.911 338.245 146.909Z" fill="#B3360F"/>
<path d="M372.774 128.317C372.774 128.317 370.844 104.797 353.364 97.1773C338.764 90.8073 330.414 107.177 340.734 117.257C349.114 125.377 362.494 121.717 372.774 128.317Z" fill="#7EAF4B"/>
<path d="M343.993 101.728C346.657 102.818 349.255 104.063 351.773 105.458C353.854 106.665 355.858 108.001 357.773 109.458C357.483 108.868 357.233 108.238 356.943 107.658C356.483 106.758 355.993 105.868 355.453 105.008C354.379 103.227 353.085 101.588 351.603 100.128C351.513 100.048 351.653 99.9079 351.743 99.9979C353.218 101.46 354.572 103.039 355.793 104.718C356.398 105.572 356.952 106.46 357.453 107.378C357.972 108.221 358.369 109.134 358.633 110.088L358.823 110.228C361.881 112.656 364.679 115.394 367.173 118.398C367.123 118.158 367.073 117.928 367.013 117.718C366.693 116.568 366.333 115.438 365.953 114.298C365.204 111.888 364.146 109.585 362.803 107.448C362.733 107.338 362.903 107.248 362.963 107.348C364.341 109.488 365.564 111.724 366.623 114.038C367.11 115.167 367.514 116.33 367.833 117.518C368.088 118.288 368.278 119.077 368.403 119.878C369.163 120.878 369.913 121.818 370.623 122.818C378.123 133.508 381.893 146.428 382.793 159.358C383.06 163.212 383.127 167.077 382.993 170.938C382.976 174.835 382.642 178.725 381.993 182.568C381.943 182.808 381.563 182.738 381.573 182.498C381.663 179.098 382.013 175.718 382.073 172.318C382.138 168.911 382.028 165.503 381.743 162.108C381.196 155.324 379.919 148.618 377.933 142.108C375.904 135.437 372.909 129.1 369.043 123.298C368.313 123.158 367.583 122.958 366.853 122.768C366.123 122.578 365.113 122.318 364.243 122.078C362.562 121.643 360.927 121.043 359.363 120.288C359.253 120.288 359.363 120.058 359.463 120.128C361.007 120.967 362.68 121.542 364.413 121.828C365.773 122.108 367.203 122.278 368.573 122.598C367.311 120.748 365.952 118.966 364.503 117.258C361.171 117.559 357.812 117.306 354.563 116.508C352.833 116.098 351.132 115.57 349.473 114.928C347.713 114.248 346.063 113.388 344.333 112.658C344.311 112.647 344.293 112.628 344.285 112.605C344.277 112.581 344.278 112.555 344.288 112.533C344.299 112.51 344.318 112.493 344.342 112.484C344.365 112.476 344.391 112.477 344.413 112.488C347.544 114.193 350.96 115.312 354.493 115.788C357.612 116.287 360.765 116.548 363.923 116.568C362.683 115.148 361.403 113.758 360.033 112.448C355.443 108.078 349.983 104.058 343.933 101.968C343.823 101.878 343.883 101.688 343.993 101.728Z" fill="#B3360F"/>
<path d="M358.226 101.81C359.013 102.801 359.728 103.847 360.366 104.94C361.018 106.093 361.535 107.318 361.906 108.59C361.906 108.59 361.856 108.65 361.836 108.59C361.256 107.44 360.756 106.24 360.166 105.1C359.592 103.966 358.895 102.9 358.086 101.92C358.006 101.84 358.146 101.71 358.226 101.81Z" fill="#B3360F"/>
<path d="M341.965 109.63C343.1 110.258 344.3 110.761 345.545 111.13C346.744 111.533 347.966 111.867 349.205 112.13C349.255 112.13 349.205 112.24 349.205 112.23C347.918 112.095 346.65 111.816 345.425 111.4C344.212 110.949 343.03 110.421 341.885 109.82C341.775 109.74 341.855 109.57 341.965 109.63Z" fill="#B3360F"/>
<path d="M385.426 124.849C385.536 125.849 388.066 116.309 402.856 107.849C416.276 100.149 432.296 80.1091 419.136 67.4591C408.516 57.2191 380.526 79.4591 385.426 124.849Z" fill="#7EAF4B"/>
<path d="M375.253 179.618C375.467 169.675 376.249 159.752 377.593 149.898C378.761 140.837 380.855 131.921 383.843 123.288C384.943 120.188 386.193 117.128 387.563 114.118C387.478 112.945 387.498 111.767 387.623 110.598C387.693 109.088 387.823 107.598 387.963 106.088C388.103 104.578 388.253 103.088 388.433 101.588C388.613 100.088 388.933 98.5879 388.993 97.1079C388.988 97.0929 388.987 97.0769 388.989 97.0613C388.992 97.0457 388.998 97.0309 389.007 97.018C389.016 97.0052 389.029 96.9948 389.043 96.9877C389.057 96.9805 389.072 96.9767 389.088 96.9767C389.104 96.9767 389.119 96.9805 389.134 96.9877C389.148 96.9948 389.16 97.0052 389.169 97.018C389.178 97.0309 389.184 97.0457 389.187 97.0613C389.189 97.0769 389.188 97.0929 389.183 97.1079C388.886 98.6789 388.709 100.27 388.653 101.868C388.543 103.318 388.453 104.768 388.413 106.218C388.373 107.668 388.413 109.128 388.413 110.588C388.413 111.108 388.413 111.668 388.413 112.228C389.806 109.288 391.303 106.405 392.903 103.578C391.903 97.4479 393.203 91.0479 394.453 85.0579C394.46 85.0341 394.476 85.0138 394.497 85.0016C394.519 84.9894 394.544 84.9863 394.568 84.9929C394.592 84.9996 394.612 85.0154 394.624 85.037C394.637 85.0585 394.64 85.0841 394.633 85.1079C394.01 88.2374 393.676 91.4174 393.633 94.6079C393.573 97.1279 393.693 99.6079 393.703 102.158C394.063 101.558 394.413 100.948 394.773 100.358C396.693 97.2279 398.773 94.1579 400.913 91.1779C400.743 89.7254 400.793 88.2553 401.063 86.8179C401.3 85.2001 401.657 83.6022 402.133 82.0379C402.606 80.4779 403.15 78.9413 403.763 77.4279C404.403 75.8779 405.263 74.4279 405.873 72.8479C405.933 72.7179 406.123 72.7979 406.053 72.9179C405.268 74.3918 404.647 75.9479 404.203 77.5579C403.711 79.0666 403.307 80.6025 402.993 82.1579C402.683 83.7179 402.423 85.2679 402.203 86.8479C402.063 87.8479 401.963 88.9579 401.793 90.0179C404.956 85.779 408.415 81.769 412.143 78.0179C412.223 77.9279 412.353 78.0179 412.273 78.1579C406.648 84.4897 401.626 91.3327 397.273 98.5979L396.773 99.4579C397.593 98.9479 398.523 98.5379 399.293 98.1079L403.603 95.7479C405.003 94.9879 406.4 94.2246 407.793 93.4579C408.503 93.0579 409.213 92.6479 409.943 92.2679C410.815 91.8781 411.652 91.413 412.443 90.8779C412.563 90.7979 412.683 90.9679 412.563 91.0379C411.143 91.8179 409.883 92.9779 408.503 93.8579C407.123 94.7379 405.723 95.5879 404.283 96.3879C401.663 97.8479 398.803 98.9079 396.223 100.388C394.423 103.528 392.773 106.748 391.223 110.028C392.793 109.028 394.393 108.028 396.023 107.158C397.073 106.568 398.123 105.988 399.183 105.428C400.248 104.943 401.254 104.339 402.183 103.628C402.273 103.548 402.403 103.688 402.313 103.768C400.593 105.317 398.684 106.645 396.633 107.718C394.733 108.828 392.823 109.908 390.843 110.868C389.263 114.341 387.836 117.868 386.563 121.448C380.343 139.068 378.063 157.768 376.963 176.338C376.643 181.878 376.473 187.408 376.403 192.958C376.333 198.508 376.623 204.028 376.613 209.558C376.613 209.728 376.343 209.768 376.323 209.558C375.663 204.648 375.543 199.648 375.323 194.708C375.103 189.768 375.133 184.648 375.253 179.618Z" fill="#B3360F"/>
<path d="M402.105 99.8603C404.804 98.6732 407.426 97.3172 409.955 95.8003C412.523 94.3559 415.013 92.777 417.415 91.0703C417.415 91.0703 417.505 91.0703 417.465 91.1403C415.2 92.9755 412.808 94.6464 410.305 96.1403C407.688 97.611 404.979 98.9105 402.195 100.03C402.085 100.08 401.995 99.9103 402.105 99.8603Z" fill="#B3360F"/>
<path d="M397.825 79.9502C398.045 79.0902 398.315 78.2502 398.605 77.4102C398.593 77.396 398.587 77.3783 398.587 77.3602C398.587 77.342 398.593 77.3244 398.605 77.3102C398.795 76.8302 398.985 76.3102 399.185 75.8902C399.198 75.8299 399.222 75.7724 399.255 75.7202C399.255 75.6302 399.325 75.5402 399.365 75.4502C399.405 75.3602 399.425 75.4502 399.415 75.4502C399.405 75.4502 399.315 75.7802 399.265 75.9402C399.247 76.0327 399.22 76.1231 399.185 76.2102C398.212 79.4858 397.48 82.828 396.995 86.2102C396.995 86.3102 396.815 86.3202 396.825 86.2102C396.96 84.0967 397.295 82.0007 397.825 79.9502Z" fill="#B3360F"/>
<path d="M382.773 150.31C387.923 134.31 399.573 124.81 414.533 127.01C429.493 129.21 434.573 148.91 424.573 155.46C414.573 162.01 401.753 148.81 395.653 146.58C389.553 144.35 382.773 150.31 382.773 150.31Z" fill="#7EAF4B"/>
<path d="M381.406 191.16C381.186 189.35 380.996 187.54 380.806 185.72C380.42 182.1 380.033 178.48 379.646 174.86C378.946 168.24 378.736 161.67 380.596 155.21C382.217 149.344 385.586 144.112 390.256 140.21C391.984 138.791 393.899 137.617 395.946 136.72C397.606 134.492 399.873 132.791 402.476 131.82C405.708 130.67 409.116 130.098 412.546 130.13C412.666 130.13 412.696 130.31 412.546 130.32C409.291 130.352 406.076 131.032 403.086 132.32C401.812 132.907 400.602 133.624 399.476 134.46C398.765 134.984 398.097 135.562 397.476 136.19C400.289 135.175 403.286 134.776 406.266 135.02C407.344 135.12 408.411 135.311 409.456 135.59C410.215 135.303 411.009 135.122 411.816 135.05C412.87 134.93 413.933 134.93 414.986 135.05C417.149 135.334 419.263 135.916 421.266 136.78C421.286 136.793 421.3 136.813 421.307 136.835C421.313 136.858 421.311 136.882 421.302 136.904C421.292 136.925 421.276 136.943 421.254 136.953C421.233 136.963 421.209 136.966 421.186 136.96C419.236 136.227 417.193 135.773 415.116 135.61C414.118 135.532 413.115 135.532 412.116 135.61C411.562 135.659 411.011 135.743 410.466 135.86C414.828 137.163 418.587 139.969 421.076 143.78C421.146 143.89 420.986 144 420.926 143.9C419.455 141.692 417.506 139.844 415.222 138.494C412.938 137.144 410.38 136.325 407.736 136.1C407.406 136.1 407.076 136.1 406.736 136.05C406.883 136.52 407.003 136.997 407.096 137.48C407.296 138.19 407.526 138.9 407.776 139.6C408.286 141.039 408.884 142.445 409.566 143.81C410.256 145.197 411.041 146.533 411.916 147.81C412.764 149.178 413.771 150.44 414.916 151.57C414.93 151.578 414.941 151.589 414.95 151.602C414.959 151.615 414.964 151.63 414.966 151.646C414.968 151.661 414.966 151.677 414.96 151.692C414.955 151.706 414.946 151.719 414.934 151.73C414.923 151.741 414.909 151.749 414.894 151.753C414.879 151.757 414.863 151.758 414.848 151.755C414.832 151.752 414.818 151.746 414.806 151.736C414.793 151.727 414.783 151.714 414.776 151.7C413.776 150.47 412.546 149.37 411.556 148.08C410.613 146.846 409.764 145.542 409.016 144.18C408.255 142.801 407.612 141.359 407.096 139.87C406.816 139.09 406.576 138.29 406.366 137.49C406.201 137.016 406.101 136.521 406.066 136.02C404.34 136.002 402.618 136.21 400.946 136.64C402.096 140.12 403.316 143.74 405.756 146.56C405.836 146.65 405.676 146.78 405.606 146.68C404.433 145.168 403.364 143.578 402.406 141.92C401.498 140.311 400.824 138.58 400.406 136.78C397.511 137.596 394.796 138.953 392.406 140.78C387.911 144.335 384.607 149.178 382.936 154.66C381.191 160.555 380.63 166.737 381.286 172.85C381.896 180.57 382.896 188.28 383.216 196.02C383.216 196.52 382.476 196.8 382.296 196.25C381.834 194.587 381.536 192.882 381.406 191.16Z" fill="#B3360F"/>
<path d="M391.114 138.9C391.515 138.253 391.999 137.661 392.554 137.14C393.084 136.56 393.624 135.99 394.204 135.47C395.339 134.421 396.645 133.572 398.064 132.96C398.087 132.954 398.111 132.957 398.132 132.967C398.153 132.977 398.17 132.995 398.18 133.016C398.189 133.038 398.191 133.062 398.184 133.085C398.178 133.107 398.164 133.127 398.144 133.14C396.707 133.722 395.411 134.605 394.344 135.73C393.794 136.26 393.284 136.82 392.784 137.4C392.351 138.001 391.858 138.557 391.314 139.06C391.29 139.073 391.263 139.078 391.236 139.075C391.209 139.073 391.183 139.062 391.162 139.045C391.141 139.028 391.125 139.005 391.116 138.98C391.108 138.954 391.107 138.926 391.114 138.9Z" fill="#B3360F"/>
<path d="M415.137 141.007C416.549 142.238 417.884 143.554 419.137 144.947C420.351 146.357 421.416 147.889 422.317 149.517C422.317 149.567 422.267 149.607 422.237 149.567C420.103 146.549 417.697 143.734 415.047 141.157C414.927 141.077 415.047 140.927 415.137 141.007Z" fill="#B3360F"/>
<path d="M399.254 141.758C399.538 142.672 399.946 143.544 400.464 144.348C400.981 145.13 401.56 145.869 402.194 146.558C402.194 146.558 402.194 146.668 402.114 146.628C400.67 145.357 399.628 143.692 399.114 141.838C399.044 141.718 399.214 141.648 399.254 141.758Z" fill="#B3360F"/>
<path d="M359.633 183.188L360.683 195.688L363.913 233.817H398.503L401.733 195.688L402.783 183.188H359.633Z" fill="#C9522D"/>
<path d="M359.633 183.188L360.683 195.688H401.733L402.783 183.188H359.633Z" fill="#B3360F"/>
<path d="M356.244 190.168H406.184V178.178H356.244V190.168Z" fill="#C9522D"/>
</g>
<g filter="url(#filter1_d_74_200)">
<path d="M44.8408 234.73L205.631 235.42C244.711 204.73 248.751 159.27 220.871 131.71C203.991 115.04 182.571 118.4 162.161 115.71H162.101C154.895 114.946 147.887 112.89 141.411 109.64C120.411 98.5496 108.551 72.4096 90.8808 50.4096C88.6808 47.6496 86.3741 44.9829 83.9608 42.4096C69.4208 26.8896 40.4908 26.4096 25.3608 48.1996C-13.0392 103.65 4.53077 186.17 44.8408 234.73Z" fill="#0794D0"/>
<path opacity="0.3" d="M44.8408 234.73L205.631 235.42C244.711 204.73 248.751 159.27 220.871 131.71C203.991 115.04 182.571 118.4 162.161 115.71H162.101C154.895 114.946 147.887 112.89 141.411 109.64C120.411 98.5496 108.551 72.4096 90.8808 50.4096C88.6808 47.6496 86.3741 44.9829 83.9608 42.4096C69.4208 26.8896 40.4908 26.4096 25.3608 48.1996C-13.0392 103.65 4.53077 186.17 44.8408 234.73Z" fill="#020100"/>
<path opacity="0.3" d="M41.2709 107.881C45.4809 173.881 121.671 198.481 169.271 178.711C210.641 161.531 197.101 122.311 162.181 115.711H162.121C154.916 114.948 147.907 112.891 141.431 109.641C120.431 98.551 108.571 72.411 90.9009 50.411C64.5509 36.771 38.1809 59.581 41.2709 107.881Z" fill="#020100"/>
<path d="M189.51 247.713C187.01 246.793 130.51 201.613 129.41 198.533C129 197.363 135.1 188.743 142.76 178.533C144.42 176.333 146.14 174.063 147.9 171.773C159.33 156.893 171.8 141.363 171.8 141.363L209.7 171.473L184.76 201.073L179.29 207.563C179.29 207.563 193.2 234.563 194.01 238.053C194.82 241.543 192.01 248.633 189.51 247.713Z" fill="#F7A9A0"/>
<path d="M189.51 247.711C187.01 246.791 130.51 201.611 129.41 198.531C128.92 197.101 138.02 184.681 147.9 171.781L184.76 201.071L179.29 207.561C179.29 207.561 193.2 234.561 194.01 238.051C194.82 241.541 192.01 248.631 189.51 247.711Z" fill="white"/>
<path d="M189.51 247.711C187.01 246.791 130.51 201.611 129.41 198.531C129 197.361 135.1 188.741 142.76 178.531L179.29 207.531C179.29 207.531 193.2 234.531 194.01 238.021C194.82 241.511 192.01 248.631 189.51 247.711Z" fill="#0794D0"/>
<path d="M190.502 244.8C181.212 236.99 143.012 206.39 133.232 199.38C133.152 199.32 133.112 199.38 133.232 199.44C142.232 207.38 180.722 237.67 190.422 244.96C190.592 245.11 190.702 244.96 190.502 244.8Z" fill="#263238"/>
<path d="M191.962 233.113C190.929 232.244 189.728 231.599 188.434 231.217C187.14 230.835 185.781 230.725 184.442 230.893C182.032 231.182 179.826 232.389 178.282 234.263C178.232 234.323 178.342 234.403 178.392 234.353C180.215 232.736 182.513 231.754 184.941 231.552C187.369 231.35 189.797 231.94 191.862 233.233C191.878 233.241 191.897 233.244 191.915 233.24C191.933 233.236 191.949 233.227 191.96 233.213C191.972 233.199 191.979 233.181 191.979 233.163C191.979 233.145 191.973 233.127 191.962 233.113Z" fill="#263238"/>
<path d="M182.22 211.422C178.47 208.342 173 206.162 168.16 207.422C167.98 207.422 168.04 207.742 168.16 207.772C172.898 208.669 177.524 210.074 181.96 211.962C182.028 211.975 182.097 211.965 182.158 211.935C182.219 211.904 182.269 211.854 182.298 211.792C182.328 211.731 182.336 211.661 182.322 211.594C182.308 211.527 182.272 211.467 182.22 211.422Z" fill="#263238"/>
<path d="M184.23 214.922C180.48 211.842 175.01 209.672 170.18 210.922C169.99 210.972 170.06 211.242 170.18 211.272C174.909 212.158 179.529 213.55 183.96 215.422C184.02 215.427 184.081 215.415 184.134 215.386C184.187 215.357 184.23 215.314 184.259 215.261C184.288 215.208 184.3 215.147 184.295 215.087C184.29 215.027 184.267 214.97 184.23 214.922Z" fill="#263238"/>
<path d="M186.252 218.423C182.502 215.333 177.032 213.163 172.192 214.423C172.012 214.423 172.082 214.733 172.242 214.763C176.948 215.673 181.541 217.088 185.942 218.983C186.017 219.024 186.104 219.034 186.186 219.011C186.267 218.987 186.336 218.932 186.377 218.858C186.418 218.784 186.428 218.696 186.405 218.615C186.381 218.533 186.327 218.464 186.252 218.423Z" fill="#263238"/>
<path d="M188.261 221.892C184.511 218.802 179.051 216.632 174.211 217.892C174.021 217.892 174.091 218.202 174.211 218.232C178.932 219.13 183.542 220.535 187.961 222.422C187.996 222.442 188.035 222.454 188.074 222.459C188.114 222.464 188.154 222.461 188.193 222.45C188.231 222.44 188.267 222.421 188.299 222.397C188.33 222.372 188.357 222.342 188.376 222.307C188.396 222.272 188.409 222.234 188.414 222.194C188.419 222.154 188.416 222.114 188.405 222.076C188.394 222.037 188.376 222.001 188.351 221.969C188.327 221.938 188.296 221.912 188.261 221.892Z" fill="#263238"/>
<path d="M142.839 192.31C138.569 188.92 133.299 195.54 137.569 198.94C141.839 202.34 147.109 195.7 142.839 192.31Z" fill="white"/>
<path d="M194.401 204.6C193.761 201.47 190.091 201.1 187.591 201.8C183.314 203.097 179.452 205.493 176.391 208.75C176.321 208.82 176.391 208.9 176.391 208.95C176.351 209.033 176.331 209.125 176.332 209.218C176.334 209.311 176.357 209.402 176.399 209.484C176.442 209.567 176.503 209.638 176.578 209.693C176.653 209.747 176.739 209.784 176.831 209.8C181.021 210.09 185.471 210.92 189.631 209.92C192.081 209.33 195.021 207.56 194.401 204.6ZM183.311 208.94C181.241 208.85 179.191 208.65 177.121 208.64C179.262 207.223 181.475 205.918 183.751 204.73C184.859 204.168 186.005 203.684 187.181 203.28C189.011 202.68 195.261 202.49 192.341 206.91C190.731 209.36 185.771 209.05 183.311 208.94Z" fill="#263238"/>
<path d="M165.842 202.621C168.742 205.771 172.902 207.551 176.552 209.621C176.636 209.659 176.727 209.677 176.82 209.674C176.912 209.67 177.002 209.645 177.083 209.6C177.163 209.556 177.233 209.493 177.284 209.416C177.336 209.34 177.37 209.253 177.382 209.161C177.462 209.161 177.542 209.111 177.522 209.001C176.794 204.591 174.914 200.451 172.072 197.001C170.392 195.001 167.132 193.301 164.862 195.531C162.592 197.761 164.152 200.781 165.842 202.621ZM165.282 198.621C165.282 193.321 170.412 196.961 171.592 198.471C172.347 199.458 173.032 200.498 173.642 201.581C174.942 203.811 175.902 206.181 176.972 208.521C175.242 207.381 173.432 206.401 171.672 205.331C169.562 204.061 165.262 201.561 165.282 198.631V198.621Z" fill="#263238"/>
<path d="M247.959 113.58C245.359 133.27 196.829 190.12 191.229 196.64L189.959 198.12L149.819 167.27L150.279 166.68L185.639 120.42L80.1992 131L107.509 100.21C107.509 100.21 110.759 102.08 117.509 101.1C140.779 97.6899 205.969 78.5899 218.339 79.0999C234.299 79.7399 250.359 95.5199 247.959 113.58Z" fill="#37474F"/>
<path d="M198.33 103.19C197.02 104.669 195.805 106.229 194.69 107.86C193.44 109.5 192.17 111.12 190.92 112.76V112.81C191.14 112.33 191.35 111.81 191.58 111.37C192.37 109.74 193 108.06 193.93 106.5C193.99 106.4 193.84 106.31 193.79 106.41C192.79 107.96 191.72 109.41 190.9 111.06C190.51 111.83 190.15 112.6 189.81 113.39C189.62 113.82 189.43 114.25 189.26 114.69C189.19 114.89 189.09 115.11 189.03 115.32C188.47 116.08 187.92 116.85 187.39 117.63C186.2 119.35 185.14 121.17 183.94 122.88C183.88 122.97 184.02 123.06 184.09 122.97C185.31 121.36 186.67 119.87 187.91 118.27C189.15 116.67 190.37 114.97 191.55 113.27C192.73 111.57 193.84 109.97 194.99 108.33C196.251 106.71 197.41 105.014 198.46 103.25C198.464 103.241 198.467 103.232 198.467 103.223C198.467 103.214 198.466 103.204 198.463 103.195C198.459 103.186 198.454 103.178 198.448 103.171C198.442 103.165 198.434 103.159 198.425 103.155C198.417 103.151 198.408 103.149 198.398 103.148C198.389 103.148 198.379 103.15 198.371 103.153C198.362 103.156 198.354 103.161 198.347 103.167C198.34 103.174 198.334 103.181 198.33 103.19Z" fill="#263238"/>
<path d="M96.1511 56.5003C101.931 79.1703 113.431 106.24 118.151 110.57C124.151 116.04 163.151 125.4 165.041 125.57C169.841 125.94 178.591 91.2803 173.481 90.6703C165.701 89.7303 137.481 88.8803 135.741 87.1803C134.001 85.4803 121.741 70.6903 109.051 54.0303C100.331 42.5103 92.5611 42.4203 96.1511 56.5003Z" fill="#F7A9A0"/>
<path d="M161.172 123.8C161.742 124.07 169.932 127.95 174.972 129.28C178.732 130.28 189.632 132.83 191.132 128.81C192.132 126.06 185.932 123.81 181.562 122.1C179.262 121.2 176.392 118.88 177.032 117.4C178.142 114.81 184.032 117.24 188.032 119.4C195.602 123.56 205.722 131.12 210.192 127.23C211.882 125.76 209.812 123.23 206.832 120.72C211.652 123.58 216.772 125.9 218.712 124.34C219.822 123.45 219.852 122.26 219.182 120.93C220.662 121.37 221.952 121.25 222.832 120.27C224.342 118.62 223.532 116.27 221.782 113.85C222.076 113.807 222.354 113.694 222.595 113.52C222.835 113.346 223.03 113.116 223.162 112.85C226.312 107.79 209.612 93.8504 203.922 92.6704C187.172 89.1104 169.652 90.2704 169.652 90.2704C163.192 95.6804 161.152 123.79 161.172 123.8Z" fill="#F7A9A0"/>
<path d="M185.281 107.883C189.256 108.408 193.073 109.771 196.481 111.883C200.771 114.573 203.651 117.763 207.271 120.963C207.287 120.981 207.297 121.004 207.297 121.029C207.297 121.053 207.288 121.077 207.272 121.095C207.256 121.114 207.234 121.126 207.21 121.129C207.186 121.132 207.161 121.126 207.141 121.113C205.421 119.593 198.281 113.893 196.451 112.603C193.127 110.221 189.303 108.627 185.271 107.943C185.221 107.953 185.231 107.883 185.281 107.883Z" fill="#263238"/>
<path d="M188.211 100.753C192.674 101.697 197.029 103.091 201.211 104.913C205.711 107.073 209.271 110.683 212.781 114.153C214.881 116.233 216.938 118.363 218.951 120.543C219.031 120.633 218.951 120.783 218.821 120.693C215.261 117.107 211.594 113.63 207.821 110.263C204.332 107.112 200.253 104.682 195.821 103.113C193.291 102.223 190.701 101.523 188.121 100.823C188.151 100.813 188.161 100.733 188.211 100.753Z" fill="#263238"/>
<path d="M192.739 94.4219C197.009 95.1919 200.739 95.8519 204.549 98.0319C209.609 100.932 214.549 105.902 216.269 107.662C218.179 109.602 220.029 111.662 221.839 113.662C221.919 113.752 221.779 113.882 221.699 113.792C217.546 109.334 213.11 105.149 208.419 101.262C206.215 99.3773 203.732 97.8458 201.059 96.7219C198.351 95.7366 195.565 94.9838 192.729 94.4719C192.729 94.4719 192.719 94.4219 192.739 94.4219Z" fill="#263238"/>
<path d="M166.889 88.9627L155.889 126.963C155.889 126.963 123.429 118.533 117.389 112.313C111.349 106.093 99.6794 73.5526 96.0994 57.7226C92.5194 41.8926 100.569 42.1026 108.199 51.9526C115.829 61.8026 134.819 85.6626 135.859 86.1626C136.899 86.6626 166.889 88.9627 166.889 88.9627Z" fill="#0794D0"/>
<path d="M152.391 110.283C153.721 105.803 155.101 101.333 156.261 96.7928C156.931 94.2228 157.611 91.6428 158.261 89.0628C158.261 88.9728 158.121 88.9128 158.091 89.0128C156.571 93.4528 155.091 97.9228 153.741 102.433C152.391 106.943 151.081 111.433 149.831 115.913C149.121 118.483 148.491 121.053 147.941 123.663C147.941 123.713 148.011 123.743 148.031 123.663C149.691 119.293 151.041 114.793 152.391 110.283Z" fill="#263238"/>
<path d="M153.32 88.1917C153.302 89.0535 153.218 89.9126 153.07 90.7617C152.578 93.3205 151.419 95.7041 149.71 97.6717C148.599 99.014 147.192 100.082 145.6 100.792C144.012 101.472 142.323 101.891 140.6 102.032C139.148 102.177 137.687 102.207 136.23 102.122H135.96C135.79 102.122 135.63 102.122 135.46 102.122C133.75 102.002 132.05 101.812 130.35 101.602C126.968 101.073 123.56 100.723 120.14 100.552C118.436 100.484 116.73 100.648 115.07 101.042C113.828 101.34 112.66 101.891 111.64 102.662L111.57 102.512C112.601 101.739 113.778 101.185 115.03 100.882C116.702 100.479 118.421 100.304 120.14 100.362C123.565 100.52 126.98 100.853 130.37 101.362C132.07 101.572 133.77 101.772 135.48 101.872H136.23H136.53C137.885 101.935 139.242 101.898 140.59 101.762C142.287 101.618 143.948 101.199 145.51 100.522C147.065 99.8331 148.435 98.7882 149.51 97.4717C150.606 96.168 151.484 94.6957 152.11 93.1117C152.71 91.5118 153.028 89.8202 153.05 88.1117C153.06 88.0053 153.06 87.8981 153.05 87.7917H153.32C153.33 87.9817 153.32 88.0917 153.32 88.1917ZM143.13 87.0717V87.0117H142.88C142.88 87.0117 142.88 87.0717 142.88 87.1017C142.936 88.8036 142.765 90.5053 142.37 92.1617C141.952 93.8147 141.302 95.4004 140.44 96.8717C139.601 98.3598 138.558 99.723 137.34 100.922C136.98 101.272 136.6 101.602 136.2 101.922C136.115 101.997 136.025 102.067 135.93 102.132C135.07 102.787 134.145 103.353 133.17 103.822C131.621 104.545 130.003 105.111 128.34 105.512C125.04 106.352 121.61 106.842 118.42 108.172C117.367 108.598 116.361 109.134 115.42 109.772C115.42 109.822 115.49 109.852 115.5 109.892C116.445 109.266 117.45 108.737 118.5 108.312C121.66 107.002 125.08 106.522 128.39 105.682C130.066 105.284 131.698 104.718 133.26 103.992C134.33 103.495 135.336 102.874 136.26 102.142C136.362 102.083 136.456 102.013 136.54 101.932C136.88 101.652 137.21 101.362 137.54 101.052C138.773 99.8455 139.83 98.4721 140.68 96.9717C141.553 95.4892 142.21 93.8898 142.63 92.2217C143.037 90.5369 143.206 88.8033 143.13 87.0717Z" fill="white"/>
<path opacity="0.1" d="M156.961 123.193L155.871 126.973C155.871 126.973 123.401 118.533 117.351 112.333C111.301 106.133 99.6509 73.5627 96.0709 57.7327C93.4509 46.1627 97.0709 43.1527 102.161 46.2327C115.961 65.2527 142.051 101.323 156.961 123.193Z" fill="black"/>
<path d="M58.8801 131.312C59.0701 131.492 127.68 116.462 128.32 115.662C129.21 114.542 116.95 62.9417 104.01 47.5417C100.77 43.6917 90.4701 43.9618 85.8601 47.8418C63.0101 67.1018 58.2301 130.642 58.8801 131.312Z" fill="#0794D0"/>
<path d="M80.2201 51.7304C65.9601 62.6804 28.5001 106.92 36.3301 117.42C44.1601 127.92 97.8901 124.42 113.57 119.91C118.23 118.56 106.27 88.9104 101.29 87.4304C97.1501 86.2004 73.8901 92.5204 73.4701 91.1704C72.9901 89.6504 78.1501 79.8404 86.4701 61.9104C96.0401 41.2504 86.5001 46.9004 80.2201 51.7304Z" fill="#F7A9A0"/>
<path d="M124.199 82.2826C134.949 82.5626 137.669 84.2826 146.859 79.6926C152.859 76.6926 157.399 79.2526 153.299 84.9326C146.599 94.2426 132.659 96.7926 127.569 96.2926L124.199 82.2826Z" fill="#F7A9A0"/>
<path d="M94.6289 87.7798C94.6289 87.7798 107.509 83.1798 118.999 82.3398C126.939 81.7598 144.349 82.4198 157.879 101.95C161.089 106.58 162.379 115.46 154.389 109.8C148.719 105.8 146.329 101.51 142.599 99.7998C142.599 99.7998 142.899 111.29 138.139 114.32C133.98 116.977 129.635 119.333 125.139 121.37C124.574 120.632 124.06 119.857 123.599 119.05C123.599 119.05 118.879 121.46 111.089 119.4L94.6289 87.7798Z" fill="#F7A9A0"/>
<path d="M126.66 82.9922C130 85.5022 136.98 90.9322 141.14 97.3622C145.76 104.502 152.75 119.512 147.44 122.872C143.55 125.332 140.38 119.872 140.38 119.872C140.38 119.872 141.96 126.682 137.96 128.132C134.31 129.462 132.11 125.062 132.11 125.062C132.11 125.062 132.36 129.362 128.6 129.962C124.08 130.692 124.3 121.562 119.09 118.342C117.96 117.592 126.66 82.9922 126.66 82.9922Z" fill="#F7A9A0"/>
<path d="M132.781 100.992C135.531 103.862 140.101 111.992 140.461 119.682C140.461 119.862 140.351 119.962 140.301 119.802C138.542 113.261 135.993 106.958 132.711 101.032C132.711 101.032 132.751 100.962 132.781 100.992Z" fill="#263238"/>
<path d="M125.701 105.871C127.821 108.591 132.161 117.181 132.261 124.991C132.261 125.161 132.131 125.251 132.091 125.091C130.673 118.474 128.509 112.039 125.641 105.911C125.641 105.911 125.681 105.831 125.701 105.871Z" fill="#263238"/>
<path d="M142.621 99.6999C145.871 101.28 147.821 103.33 150.381 105.81C151.647 107.058 152.982 108.233 154.381 109.33C155.651 110.33 157.521 111.8 159.201 110.86C159.607 110.55 159.922 110.137 160.114 109.664C160.306 109.191 160.367 108.675 160.291 108.17C160.105 106.709 159.687 105.288 159.051 103.96C159.051 103.91 159.111 103.87 159.141 103.96C159.765 105.175 160.261 106.452 160.621 107.77C160.854 108.669 160.808 109.617 160.491 110.49C159.681 112.3 157.411 112.18 155.921 111.4C155.04 110.897 154.21 110.311 153.441 109.65C152.691 109.03 151.971 108.38 151.261 107.72C149.821 106.35 148.451 104.9 147.021 103.51C145.626 102.198 144.149 100.976 142.601 99.8499C142.581 99.8472 142.563 99.8368 142.551 99.8209C142.539 99.8049 142.533 99.7848 142.536 99.7649C142.538 99.745 142.549 99.727 142.565 99.7148C142.581 99.7026 142.601 99.6972 142.621 99.6999Z" fill="#263238"/>
<path d="M147.789 112.93C146.327 108.433 144.569 104.036 142.529 99.7699C142.529 99.7199 142.579 99.6699 142.619 99.7199C144.869 102.72 148.039 110.12 148.689 112.43C149.339 114.74 150.009 117.63 149.619 120C149.029 123.58 146.539 123.87 145.619 123.9C144.534 123.923 143.474 123.57 142.619 122.9C141.642 122.053 140.849 121.015 140.289 119.85C140.289 119.8 140.339 119.74 140.369 119.8C141.369 121.41 143.209 123.14 145.199 123.21C145.636 123.239 146.074 123.181 146.488 123.039C146.902 122.896 147.283 122.672 147.609 122.38C148.264 121.603 148.619 120.616 148.609 119.6C148.717 117.346 148.44 115.09 147.789 112.93Z" fill="#263238"/>
<path d="M94.6293 87.783L105.419 125.353C105.419 125.353 38.2493 129.183 34.5293 116.983C30.8093 104.783 63.2593 64.823 76.7193 53.853C92.3193 41.133 93.1493 46.473 88.0793 59.193C82.7593 72.513 73.5993 91.533 73.5993 91.533L94.6293 87.783Z" fill="#0794D0"/>
<path d="M76.6902 85.0216C76.6475 85.0987 76.6107 85.1789 76.5802 85.2616C76.1802 85.2616 75.7802 85.2616 75.3802 85.2616C73.6552 85.1083 71.9666 84.676 70.3802 83.9816C69.0468 83.4091 67.7568 82.7407 66.5202 81.9816L66.2502 81.8216C66.1087 81.7464 65.9718 81.6629 65.8402 81.5716C64.3802 80.6616 62.9802 79.6816 61.5802 78.6716C59.9602 77.5116 58.3502 76.3116 56.7002 75.1716C56.7339 75.1169 56.7742 75.0665 56.8202 75.0216C58.4702 76.1516 60.0802 77.3516 61.7002 78.5016C63.1002 79.5016 64.5002 80.5016 65.9502 81.3816C66.1502 81.5116 66.3702 81.6416 66.5902 81.7616C66.6752 81.8229 66.7656 81.8764 66.8602 81.9216C68.0158 82.6301 69.2224 83.2518 70.4702 83.7816C72.0337 84.4525 73.6949 84.8678 75.3902 85.0116C75.8229 85.0399 76.257 85.0432 76.6902 85.0216ZM86.5802 55.4216C86.0369 56.0982 85.5487 56.8171 85.1202 57.5716C84.2852 59.0759 83.5954 60.6564 83.0602 62.2916C82.4902 63.9116 82.0602 65.5616 81.4602 67.1716C80.9383 68.7998 80.2896 70.3847 79.5202 71.9116C78.7581 73.4357 77.7963 74.8515 76.6602 76.1216C75.5089 77.3792 74.1818 78.4637 72.7202 79.3416C71.2796 80.2533 69.7175 80.9569 68.0802 81.4316C67.5912 81.5716 67.0934 81.6785 66.5902 81.7516C66.4799 81.786 66.3656 81.8062 66.2502 81.8116C65.1839 81.9946 64.1005 82.0583 63.0202 82.0016C61.3303 81.8958 59.6553 81.6211 58.0202 81.1816C56.3602 80.7616 54.7102 80.2516 53.0202 79.8116C52.9866 79.8606 52.9499 79.9074 52.9102 79.9516C54.5902 80.4116 56.2502 80.9516 57.9102 81.3516C59.5693 81.8075 61.2722 82.0858 62.9902 82.1816C64.1643 82.2419 65.3416 82.1714 66.5002 81.9716C66.6151 81.9621 66.7289 81.9421 66.8402 81.9116C67.2684 81.8376 67.6923 81.7409 68.1102 81.6216C69.7676 81.1457 71.3498 80.4387 72.8102 79.5216C74.2943 78.6343 75.6417 77.5361 76.8102 76.2616C77.9656 74.9849 78.9444 73.5588 79.7202 72.0216C80.5031 70.4863 81.1716 68.8953 81.7202 67.2616C82.2702 65.6316 82.7202 63.9816 83.3402 62.3716C83.8586 60.7555 84.5282 59.1919 85.3402 57.7016C86.1774 56.2204 87.2632 54.8944 88.5502 53.7816C89.1083 53.2901 89.7109 52.8515 90.3502 52.4716C90.3502 52.3316 90.4102 52.2216 90.4402 52.1016C89.7113 52.5295 89.0219 53.0215 88.3802 53.5716C87.7281 54.1354 87.1259 54.7543 86.5802 55.4216ZM92.7002 88.1316H92.6202C92.7122 88.878 92.759 89.6294 92.7602 90.3816C92.7602 90.8516 92.7602 91.3116 92.7102 91.7916C92.7102 91.7916 92.7102 91.9016 92.7102 91.9616C92.6135 93.1396 92.4162 94.3072 92.1202 95.4516C91.6974 97.1063 91.0479 98.6947 90.1902 100.172C89.3272 101.664 88.2375 103.014 86.9602 104.172C84.4402 106.482 81.4002 108.122 78.5802 110.062C77.1379 111.007 75.7975 112.1 74.5802 113.322C73.7635 114.164 73.0363 115.089 72.4102 116.082L72.2302 116.392C72.0072 116.761 71.8036 117.141 71.6202 117.532C70.8785 119.091 70.3601 120.747 70.0802 122.452C69.8881 123.528 69.7911 124.619 69.7902 125.712H70.0102C70.0136 124.629 70.1072 123.549 70.2902 122.482C70.5579 120.796 71.0629 119.156 71.7902 117.612C72.0077 117.158 72.2515 116.717 72.5202 116.292C72.5728 116.188 72.6365 116.091 72.7102 116.002C73.2878 115.085 73.958 114.231 74.7102 113.452C75.9119 112.24 77.2318 111.151 78.6502 110.202C81.4702 108.262 84.5202 106.632 87.0502 104.282C88.3237 103.117 89.4158 101.769 90.2902 100.282C91.1508 98.7884 91.8003 97.1831 92.2202 95.5116C92.5022 94.4028 92.6895 93.272 92.7802 92.1316C92.7802 92.0716 92.7802 92.0116 92.7802 91.9616C92.7802 91.4416 92.8302 90.9616 92.8302 90.4116C92.832 89.6463 92.7886 88.8817 92.7002 88.1216V88.1316ZM96.9002 100.982C96.6956 99.2663 96.1553 97.6081 95.3102 96.1016C94.5602 94.6616 93.6702 93.3216 92.8102 91.9616L92.7102 91.8216C92.0099 90.7424 91.3722 89.6239 90.8002 88.4716H90.7302C91.324 89.6816 91.9919 90.8538 92.7302 91.9816L92.8202 92.1216C93.6502 93.4416 94.5102 94.7616 95.2302 96.1216C96.0538 97.6164 96.5801 99.2566 96.7802 100.952C96.9377 102.658 96.6661 104.377 95.9902 105.952C95.2895 107.512 94.1587 108.841 92.7302 109.782C91.3059 110.72 89.7622 111.464 88.1402 111.992C84.8749 113.005 81.5607 113.852 78.2102 114.532C76.5402 114.922 74.8602 115.322 73.2102 115.812L72.7302 115.962L72.4302 116.042C71.062 116.475 69.7255 117.003 68.4302 117.622C66.8647 118.354 65.4291 119.337 64.1802 120.532C62.9258 121.738 61.9705 123.221 61.3902 124.862C61.3902 124.972 61.3102 125.072 61.2802 125.182H61.5502C61.5675 125.089 61.5944 124.999 61.6302 124.912C62.1966 123.307 63.1277 121.855 64.3502 120.672C65.5783 119.497 66.9902 118.531 68.5302 117.812C69.7479 117.221 71.0081 116.723 72.3002 116.322C72.3917 116.275 72.4893 116.241 72.5902 116.222C72.8302 116.132 73.0702 116.062 73.3202 115.992C74.9502 115.502 76.6102 115.092 78.3202 114.702C81.6965 114.022 85.0345 113.164 88.3202 112.132C89.9564 111.59 91.5133 110.833 92.9502 109.882C94.4015 108.922 95.5496 107.57 96.2602 105.982C96.8756 104.388 97.0952 102.669 96.9002 100.972V100.982Z" fill="white"/>
<path d="M52.3906 97.5406C55.7422 95.9576 59.2047 94.6207 62.7506 93.5406C66.258 92.4903 69.8375 91.6982 73.4606 91.1706C75.5206 90.8506 77.6006 90.6206 79.6706 90.3906C79.6838 90.3906 79.6966 90.3959 79.7059 90.4053C79.7153 90.4147 79.7206 90.4274 79.7206 90.4406C79.7206 90.4539 79.7153 90.4666 79.7059 90.476C79.6966 90.4854 79.6838 90.4906 79.6706 90.4906C76.0298 91.0385 72.4238 91.7964 68.8706 92.7606C65.3373 93.6806 61.8206 94.6806 58.3206 95.7606C56.3206 96.3506 54.3906 97.0406 52.4306 97.7006C52.4201 97.7032 52.4092 97.7038 52.3985 97.7022C52.3877 97.7006 52.3774 97.6969 52.3682 97.6913C52.3589 97.6858 52.3508 97.6784 52.3443 97.6697C52.3379 97.661 52.3332 97.6511 52.3306 97.6406C52.328 97.6301 52.3274 97.6192 52.329 97.6085C52.3306 97.5978 52.3343 97.5875 52.3399 97.5782C52.3454 97.5689 52.3528 97.5608 52.3615 97.5544C52.3702 97.5479 52.3801 97.5432 52.3906 97.5406Z" fill="#263238"/>
<path d="M94.4722 87.6513C94.1322 87.6513 75.4722 90.6013 74.8322 90.7713C74.9422 90.5213 79.6822 81.6212 80.3822 80.3212L80.5922 79.9313C81.0122 79.3713 81.4422 78.8113 81.8422 78.2313C82.3622 77.4913 82.8422 76.7512 83.3822 76.0012C82.8422 76.7212 82.2922 77.4312 81.7622 78.1612C81.5122 78.4912 81.2722 78.8312 81.0322 79.1612C81.5022 78.2412 81.9622 77.3112 82.4322 76.3812C83.1622 74.9012 83.8522 73.3812 84.5322 71.8812C84.5322 71.8312 84.5322 71.8112 84.4522 71.8812C83.0622 74.4712 81.5922 77.0212 80.1822 79.6012C78.7722 82.1812 73.4722 91.7012 73.4922 91.6912C73.5122 91.6812 94.1422 88.0412 94.4922 87.9412C94.5307 87.9386 94.5665 87.9208 94.5919 87.8917C94.6172 87.8626 94.6299 87.8247 94.6272 87.7862C94.6246 87.7478 94.6068 87.712 94.5777 87.6867C94.5486 87.6613 94.5107 87.6486 94.4722 87.6513Z" fill="#263238"/>
<path d="M91.9001 110.572C90.7301 106.382 89.5801 102.181 88.2401 98.0315C87.4901 95.6815 86.7401 93.3215 85.9601 90.9715C85.9601 90.8815 85.7701 90.9215 85.8001 90.9715C86.8001 95.2215 87.8001 99.4815 89.0501 103.692C90.3001 107.902 91.4301 112.062 92.6901 116.232C93.4101 118.602 94.1901 120.942 95.0501 123.232C95.0501 123.282 95.1501 123.232 95.1401 123.232C94.2601 118.992 93.0901 114.782 91.9001 110.572Z" fill="#263238"/>
<path d="M106.162 126.031C105.692 124.851 105.162 123.171 104.612 122.031C104.472 121.731 104.252 121.751 104.352 122.031C104.682 123.091 104.912 124.251 105.232 125.331C104.292 125.331 103.352 125.331 102.412 125.411L99.1621 125.551C97.0321 125.631 94.9021 125.701 92.7721 125.741C88.4588 125.821 84.1488 125.821 79.8421 125.741C71.1891 125.575 62.5507 124.958 53.9621 123.891C51.5621 123.581 49.1621 123.231 46.7821 122.801C44.4248 122.42 42.0885 121.919 39.7821 121.301C39.7714 121.305 39.7623 121.313 39.7559 121.323C39.7495 121.333 39.7461 121.344 39.7461 121.356C39.7461 121.367 39.7495 121.379 39.7559 121.389C39.7623 121.398 39.7714 121.406 39.7821 121.411C41.7325 122.168 43.7385 122.773 45.7821 123.221C47.9221 123.681 50.0821 124.091 52.2421 124.421C56.5621 125.081 60.9021 125.521 65.2421 125.831C73.8688 126.457 82.5154 126.717 91.1821 126.611C93.6121 126.611 96.0321 126.531 98.4521 126.451C99.6721 126.451 100.902 126.371 102.122 126.301C103.342 126.231 106.242 126.231 106.162 126.031Z" fill="#263238"/>
<path d="M201.793 133.332H122.473V136.882H201.793V133.332Z" fill="#C7C7C7"/>
<path d="M201.791 133.332V136.892H147.871L150.591 133.332H201.791Z" fill="#A6A6A6"/>
<path d="M154.012 136.891H231.312L237.752 84.3906H160.452L154.012 136.891Z" fill="#C7C7C7"/>
<path d="M191.181 110.64C191.167 111.254 191.277 111.864 191.504 112.435C191.73 113.006 192.069 113.526 192.499 113.964C192.93 114.402 193.444 114.75 194.011 114.986C194.578 115.222 195.187 115.343 195.801 115.34C197.055 115.337 198.258 114.844 199.154 113.966C200.049 113.087 200.565 111.894 200.591 110.64C200.603 110.025 200.492 109.413 200.264 108.842C200.037 108.27 199.698 107.75 199.266 107.311C198.835 106.872 198.321 106.524 197.753 106.287C197.185 106.05 196.576 105.928 195.961 105.93C194.707 105.935 193.504 106.43 192.611 107.311C191.718 108.191 191.204 109.386 191.181 110.64Z" fill="white"/>
<path d="M100.76 59.422C97.6201 59.422 91.4501 53.142 89.1901 48.062C89.0401 47.712 89.8401 44.242 90.6201 39.982C91.0801 37.392 91.5401 34.502 91.7601 31.832L108.17 37.302C106.932 40.5611 106.099 43.9599 105.69 47.422C105.655 47.7912 105.655 48.1629 105.69 48.532C105.695 48.5919 105.695 48.6521 105.69 48.712C105.89 50.822 105.68 59.502 100.76 59.422Z" fill="#F7A9A0"/>
<path d="M105.713 48.5305C105.719 48.5903 105.719 48.6506 105.713 48.7105C105.132 48.7426 104.55 48.7259 103.973 48.6605C94.4727 47.6605 93.1127 35.8505 92.9727 32.2305L108.193 37.3005C106.953 40.5603 106.114 43.9584 105.693 47.4205C105.669 47.7904 105.675 48.1616 105.713 48.5305Z" fill="#263238"/>
<path d="M118.382 9.94245C119.322 10.1524 122.112 17.8424 121.482 21.1124C120.852 24.3824 118.362 30.6624 117.392 30.5824C116.422 30.5024 117.662 9.77245 118.382 9.94245Z" fill="#263238"/>
<path d="M93.9626 10.931C90.8626 16.331 90.1025 33.811 93.3825 38.501C98.1325 45.291 107.823 48.041 114.073 41.891C120.133 35.891 120.723 13.131 116.883 8.68101C111.223 2.12101 98.5426 2.94101 93.9626 10.931Z" fill="#F7A9A0"/>
<path d="M105.469 23.0516C105.98 22.9455 106.484 22.8086 106.979 22.6416C107.529 22.5738 108.042 22.328 108.439 21.9416C108.544 21.793 108.596 21.6129 108.585 21.431C108.574 21.2492 108.501 21.0766 108.379 20.9416C108.108 20.7084 107.78 20.552 107.428 20.4887C107.076 20.4254 106.714 20.4574 106.379 20.5816C105.667 20.7331 105.034 21.1382 104.599 21.7216C104.503 21.8621 104.451 22.0279 104.449 22.198C104.448 22.3682 104.496 22.535 104.59 22.6774C104.683 22.8197 104.816 22.9313 104.972 22.9979C105.129 23.0645 105.302 23.0832 105.469 23.0516Z" fill="#263238"/>
<path d="M117.341 24.0518C116.842 23.9107 116.352 23.7438 115.871 23.5518C115.322 23.4495 114.825 23.1639 114.461 22.7418C114.359 22.5879 114.316 22.4029 114.338 22.2199C114.36 22.0368 114.446 21.8675 114.581 21.7418C114.864 21.5301 115.198 21.3973 115.55 21.3568C115.901 21.3164 116.257 21.3699 116.581 21.5118C117.284 21.7067 117.892 22.1511 118.291 22.7618C118.383 22.9081 118.429 23.0789 118.423 23.2519C118.417 23.4248 118.359 23.5919 118.256 23.7312C118.153 23.8706 118.011 23.9757 117.848 24.0329C117.685 24.0901 117.508 24.0967 117.341 24.0518Z" fill="#263238"/>
<path d="M105.281 36.7817C105.541 37.0717 105.791 37.4717 106.221 37.5417C106.657 37.565 107.093 37.4969 107.501 37.3417C107.501 37.3417 107.581 37.3417 107.551 37.4017C107.367 37.6215 107.126 37.787 106.854 37.8804C106.583 37.9738 106.292 37.9915 106.011 37.9317C105.775 37.8512 105.569 37.7029 105.418 37.5054C105.267 37.3079 105.177 37.0699 105.161 36.8217C105.151 36.7517 105.241 36.7317 105.281 36.7817Z" fill="#263238"/>
<path d="M106.78 33.3512C107.041 33.843 107.402 34.2749 107.839 34.6193C108.277 34.9637 108.781 35.213 109.32 35.3512C109.786 35.4777 110.268 35.535 110.75 35.5213C110.843 35.5364 110.938 35.5364 111.03 35.5213C111.117 35.5304 111.204 35.5304 111.29 35.5213C111.353 35.5151 111.411 35.4881 111.457 35.4446C111.502 35.401 111.532 35.3435 111.54 35.2812C111.545 35.2414 111.545 35.2011 111.54 35.1613V35.0612C111.63 34.1512 111.65 32.7713 111.65 32.7713C111.97 32.9613 113.59 33.8512 113.65 33.3712C113.851 29.2834 113.637 25.1858 113.01 21.1413C113.01 21.1121 112.999 21.0841 112.978 21.0635C112.957 21.0428 112.929 21.0312 112.9 21.0312C112.871 21.0312 112.843 21.0428 112.822 21.0635C112.802 21.0841 112.79 21.1121 112.79 21.1413C112.59 24.9113 113.04 28.7013 112.9 32.5013C112.32 32.1767 111.697 31.9344 111.05 31.7812C110.92 31.7812 111.05 34.4513 110.99 34.8613C110.251 34.8735 109.516 34.7383 108.829 34.4636C108.143 34.1889 107.517 33.7802 106.99 33.2612C106.81 33.1812 106.72 33.2512 106.78 33.3512Z" fill="#263238"/>
<path d="M110.249 35.0098C109.707 35.6172 109.018 36.0752 108.249 36.3398C107.826 36.4746 107.372 36.4746 106.949 36.3398C106.029 36.0198 106.069 35.1598 106.299 34.4398C106.42 34.0541 106.588 33.6846 106.799 33.3398C107.744 34.2469 108.951 34.8315 110.249 35.0098Z" fill="#263238"/>
<path d="M108.241 36.3414C107.818 36.4762 107.364 36.4762 106.941 36.3414C106.021 36.0214 106.061 35.1614 106.291 34.4414C106.782 34.4933 107.242 34.7089 107.595 35.0535C107.949 35.3982 108.176 35.8518 108.241 36.3414Z" fill="#FF9ABB"/>
<path d="M107.959 26.1211C107.959 26.1211 107.859 26.1211 107.859 26.2111C107.769 27.3811 107.469 28.7011 106.379 28.9711V29.0411C107.659 29.0011 108.029 27.2411 107.959 26.1211Z" fill="#263238"/>
<path d="M107.022 24.7914C105.162 24.4514 104.612 28.1914 106.342 28.5014C108.072 28.8114 108.572 25.0814 107.022 24.7914Z" fill="#263238"/>
<path d="M114.729 26.6523C114.729 26.6523 114.819 26.7224 114.809 26.7724C114.589 27.9224 114.539 29.2723 115.529 29.8223C115.529 29.8223 115.529 29.8924 115.529 29.8824C114.259 29.5124 114.349 27.7123 114.729 26.6523Z" fill="#263238"/>
<path d="M115.96 25.6005C117.85 25.7505 117.42 29.5005 115.67 29.3705C113.92 29.2405 114.38 25.4805 115.96 25.6005Z" fill="#263238"/>
<path d="M92.9624 26.4203C95.9624 27.1103 97.8724 23.9803 99.5624 19.4203C100.562 16.7703 100.562 11.2303 100.562 11.2303C100.562 11.2303 107.732 15.9103 112.142 16.1503C116.552 16.3903 120.802 13.1503 121.082 9.71034C121.332 6.71034 116.922 2.25035 110.462 1.05035C105.962 0.220351 97.7824 2.77035 93.7124 7.17035C93.7124 7.17035 87.6224 9.09035 87.8624 13.5204C88.1024 17.9504 89.6224 25.6703 92.9624 26.4203Z" fill="#0B181F"/>
<path d="M93.2516 26.1519C97.0916 27.5519 100.022 21.8819 100.562 18.7919C101.102 15.7019 100.342 12.1419 100.222 8.92188C101.022 12.9219 101.782 17.9219 99.9216 21.7819C98.7416 24.1819 96.3116 28.0719 93.1416 26.3719C93.0616 26.3019 93.1216 26.1019 93.2516 26.1519Z" fill="#263238"/>
<path d="M87.2504 12.1602C88.1804 9.59016 91.5804 7.40016 94.2504 7.16016C91.0604 7.83016 87.0404 10.8402 87.5004 14.3802C87.8704 17.2102 88.6804 20.9702 90.2304 23.3802C90.2344 23.393 90.234 23.4068 90.2292 23.4194C90.2244 23.432 90.2156 23.4426 90.204 23.4495C90.1925 23.4564 90.179 23.4592 90.1656 23.4576C90.1523 23.4559 90.1399 23.4497 90.1304 23.4402C88.8704 21.7802 88.5104 19.7902 88.0104 17.8002C87.5304 16.1002 86.6004 13.9502 87.2504 12.1602Z" fill="#263238"/>
<path d="M93.1498 7.56134C97.4498 2.93134 106 -1.80865 112.38 0.691348C105.52 -1.36865 98.3798 3.69135 93.3798 7.77135C93.1998 7.92135 93.0198 7.69134 93.1498 7.56134Z" fill="#263238"/>
<path d="M104.101 31.902C103.102 31.6933 102.182 31.2082 101.445 30.5021C100.708 29.7959 100.184 28.8971 99.9331 27.9079C99.682 26.9187 99.7138 25.8788 100.025 24.9068C100.336 23.9347 100.913 23.0695 101.692 22.4096C102.47 21.7498 103.419 21.3217 104.428 21.1743C105.438 21.0269 106.469 21.166 107.404 21.5758C108.339 21.9856 109.14 22.6497 109.715 23.4923C110.291 24.3349 110.619 25.3223 110.661 26.342C110.695 27.1706 110.54 27.9961 110.207 28.7556C109.874 29.5151 109.372 30.1886 108.739 30.7248C108.107 31.261 107.36 31.6457 106.556 31.8497C105.753 32.0537 104.913 32.0716 104.101 31.902ZM106.191 21.962C105.807 21.8783 105.414 21.8446 105.021 21.862C103.818 21.9091 102.679 22.413 101.835 23.2709C100.991 24.1288 100.505 25.2762 100.478 26.4794C100.45 27.6826 100.882 28.8512 101.686 29.747C102.489 30.6429 103.604 31.1987 104.803 31.3012C106.003 31.4037 107.196 31.0452 108.14 30.2987C109.084 29.5522 109.708 28.4739 109.885 27.2835C110.062 26.093 109.778 24.8798 109.092 23.8911C108.406 22.9024 107.368 22.2125 106.191 21.962Z" fill="#455A64"/>
<path d="M116.302 33.3022C114.302 32.7722 112.992 30.2322 113.392 27.4122C113.554 26.0648 114.135 24.8021 115.052 23.8022C115.435 23.3647 115.917 23.0255 116.459 22.8132C117 22.6009 117.584 22.5217 118.162 22.5822C118.731 22.6783 119.268 22.9104 119.727 23.2586C120.187 23.6068 120.556 24.0609 120.802 24.5822C121.419 25.794 121.636 27.1696 121.422 28.5122C121.002 31.5122 118.862 33.6522 116.652 33.3422L116.302 33.3022ZM118.302 23.3622L118.022 23.3022C117.56 23.2585 117.095 23.3265 116.665 23.5006C116.235 23.6746 115.853 23.9496 115.552 24.3022C114.737 25.1912 114.223 26.3144 114.082 27.5122C113.722 30.0822 114.902 32.3822 116.722 32.6422C118.542 32.9022 120.302 31.0022 120.722 28.4322C120.906 27.241 120.717 26.0222 120.182 24.9422C120.001 24.5643 119.743 24.2284 119.425 23.9563C119.106 23.6841 118.734 23.4818 118.332 23.3622H118.302Z" fill="#455A64"/>
<path d="M110.42 26.9618L110 26.3618C110.89 25.7418 112.88 24.9918 114.07 26.5218L113.5 26.9718C112.43 25.5918 110.5 26.9018 110.42 26.9618Z" fill="#455A64"/>
<path d="M86.1295 26.1595L85.5195 25.7695C85.6995 25.4795 87.3495 22.9695 88.9895 22.8495C90.6295 22.7295 100.16 24.5395 100.57 24.6195L100.44 25.3295C97.6695 24.8195 90.2295 23.4995 89.0395 23.5795C87.8495 23.6595 86.5695 25.4695 86.1295 26.1595Z" fill="#455A64"/>
<path d="M95.7022 25.7313C95.7022 25.7313 93.0122 19.4913 90.2622 20.3413C87.5122 21.1913 88.7322 29.6813 91.4122 31.3413C91.7405 31.5835 92.1148 31.7561 92.5121 31.8487C92.9094 31.9413 93.3214 31.9519 93.723 31.8798C94.1245 31.8077 94.5071 31.6545 94.8475 31.4295C95.1878 31.2045 95.4786 30.9125 95.7022 30.5713V25.7313Z" fill="#F7A9A0"/>
<path d="M90.6719 22.7617V22.8417C92.5419 24.0817 93.2219 26.1917 93.5619 28.3117C93.4905 28.0792 93.3691 27.8651 93.2063 27.6843C93.0435 27.5036 92.8432 27.3606 92.6194 27.2654C92.3955 27.1701 92.1536 27.1249 91.9105 27.1329C91.6674 27.1409 91.4289 27.202 91.2119 27.3117C91.1519 27.3117 91.2119 27.4417 91.2119 27.4417C91.5871 27.3973 91.9668 27.4694 92.2996 27.6483C92.6324 27.8272 92.902 28.1042 93.0719 28.4417C93.347 29.0238 93.5583 29.6341 93.7019 30.2617C93.7519 30.4617 94.1019 30.4317 94.0819 30.2617V30.2117C94.6719 27.6517 93.4019 23.6017 90.6719 22.7617Z" fill="#263238"/>
<path d="M336.049 196.512C335.129 199.012 289.769 255.392 286.679 256.452C285.509 256.852 276.909 250.732 266.679 243.032C264.489 241.372 262.229 239.642 259.939 237.872C245.089 226.392 229.609 213.872 229.609 213.872L259.839 176.062L289.339 201.062L295.819 206.552C295.819 206.552 322.819 192.732 326.359 191.942C329.899 191.152 336.959 194.012 336.049 196.512Z" fill="#F7A9A0"/>
<path d="M336.052 196.513C335.132 199.013 289.772 255.393 286.682 256.453C285.252 256.943 272.862 247.793 259.992 237.873L289.392 201.103L295.872 206.593C295.872 206.593 322.872 192.773 326.412 191.983C329.952 191.193 336.962 194.013 336.052 196.513Z" fill="white"/>
<path d="M336.05 196.513C335.13 199.013 289.77 255.393 286.68 256.453C285.51 256.853 276.91 250.733 266.68 243.033L295.82 206.593C295.82 206.593 322.82 192.773 326.36 191.983C329.9 191.193 336.96 194.013 336.05 196.513Z" fill="#0794D0"/>
<path d="M333.15 195.5C325.31 204.77 294.58 242.87 287.54 252.63C287.48 252.71 287.541 252.75 287.601 252.63C295.601 243.63 325.98 205.27 333.3 195.63C333.45 195.42 333.31 195.31 333.15 195.5Z" fill="#263238"/>
<path d="M321.462 193.97C320.59 194.999 319.942 196.198 319.556 197.49C319.171 198.783 319.057 200.141 319.222 201.48C319.501 203.892 320.701 206.102 322.572 207.65C322.632 207.65 322.712 207.59 322.662 207.54C321.046 205.715 320.067 203.415 319.872 200.985C319.677 198.556 320.277 196.129 321.582 194.07C321.59 194.054 321.593 194.035 321.589 194.017C321.586 193.999 321.576 193.983 321.562 193.972C321.548 193.96 321.531 193.953 321.512 193.953C321.494 193.953 321.476 193.959 321.462 193.97Z" fill="#263238"/>
<path d="M299.761 203.68C296.671 207.42 294.471 212.88 295.681 217.68C295.681 217.87 295.991 217.8 296.021 217.68C296.949 212.977 298.378 208.388 300.281 203.99C300.304 203.923 300.302 203.85 300.278 203.784C300.253 203.718 300.207 203.662 300.146 203.626C300.085 203.59 300.014 203.575 299.944 203.585C299.874 203.595 299.81 203.628 299.761 203.68Z" fill="#263238"/>
<path d="M303.252 201.68C300.152 205.42 297.962 210.88 299.162 215.68C299.212 215.87 299.482 215.8 299.512 215.68C300.439 210.977 301.867 206.388 303.772 201.99C303.794 201.923 303.793 201.85 303.768 201.784C303.744 201.718 303.697 201.662 303.636 201.626C303.576 201.59 303.505 201.575 303.435 201.585C303.365 201.595 303.3 201.628 303.252 201.68Z" fill="#263238"/>
<path d="M306.74 199.672C303.64 203.412 301.45 208.872 302.65 213.672C302.7 213.862 302.96 213.792 303 213.672C303.93 208.97 305.358 204.381 307.26 199.982C307.282 199.915 307.281 199.842 307.257 199.776C307.232 199.71 307.185 199.654 307.125 199.618C307.064 199.582 306.993 199.567 306.923 199.577C306.853 199.587 306.789 199.62 306.74 199.672Z" fill="#263238"/>
<path d="M310.232 197.669C307.132 201.409 304.942 206.869 306.142 211.669C306.192 211.859 306.452 211.789 306.482 211.669C307.409 206.967 308.837 202.377 310.742 197.979C310.774 197.912 310.78 197.836 310.759 197.765C310.738 197.694 310.691 197.633 310.627 197.594C310.564 197.556 310.488 197.542 310.415 197.556C310.343 197.57 310.277 197.61 310.232 197.669Z" fill="#263238"/>
<path d="M280.501 243.001C277.101 247.251 283.701 252.551 287.111 248.281C290.521 244.011 283.961 238.741 280.501 243.001Z" fill="white"/>
<path d="M292.96 191.47C289.83 192.11 289.44 195.77 290.14 198.28C291.42 202.56 293.803 206.43 297.05 209.5C297.12 209.57 297.2 209.5 297.25 209.5C297.333 209.542 297.426 209.564 297.519 209.563C297.612 209.563 297.705 209.54 297.788 209.497C297.871 209.454 297.942 209.392 297.996 209.316C298.051 209.24 298.086 209.152 298.1 209.06C298.41 204.87 299.25 200.43 298.26 196.27C297.68 193.81 295.96 190.87 292.96 191.47ZM297.26 202.58C297.16 204.65 296.96 206.7 296.94 208.76C295.532 206.614 294.233 204.397 293.05 202.12C292.496 201.009 292.015 199.863 291.61 198.69C291.02 196.86 290.85 190.6 295.27 193.54C297.7 195.16 297.38 200.12 297.26 202.58Z" fill="#263238"/>
<path d="M290.893 220.02C294.043 217.14 295.843 213.02 297.943 209.35C297.983 209.266 298.003 209.173 298 209.08C297.998 208.986 297.973 208.895 297.928 208.812C297.883 208.73 297.819 208.66 297.742 208.608C297.664 208.555 297.575 208.522 297.483 208.51C297.483 208.43 297.483 208.35 297.333 208.37C292.927 209.09 288.789 210.956 285.333 213.78C283.333 215.46 281.623 218.71 283.853 220.99C286.083 223.27 289.053 221.71 290.893 220.02ZM286.893 220.58C281.583 220.53 285.243 215.45 286.753 214.26C287.747 213.525 288.789 212.857 289.873 212.26C292.131 211.039 294.451 209.934 296.823 208.95C295.683 210.67 294.693 212.48 293.623 214.24C292.343 216.32 289.823 220.6 286.903 220.58H286.893Z" fill="#263238"/>
<path d="M287.811 195.42L256.351 237.87L150.191 164.18L139.961 157.07C139.961 157.07 137.061 159.07 132.701 161.43C126.641 164.78 117.751 169.03 109.901 170.18C96.7208 172.18 74.7108 171.93 63.6008 157.07C54.2508 144.56 59.3308 128.24 59.3308 128.24L73.8008 122.03C73.8008 122.03 108.041 93.4995 130.231 92.6395C139.651 92.2595 153.371 99.3995 166.081 106.86C178.791 114.32 287.811 195.42 287.811 195.42Z" fill="#37474F"/>
<path d="M139.962 157.072C139.962 157.072 137.062 159.072 132.702 161.432C124.982 152.202 108.702 135.432 108.152 134.832L139.962 157.072Z" fill="#263238"/>
<path d="M86.3399 112.481C84.3399 113.901 82.3399 115.411 80.3399 116.871C78.3399 118.331 76.3399 119.651 74.4099 121.221C72.4799 122.791 70.6699 124.521 68.8599 126.221C67.9933 127.048 67.1333 127.888 66.2799 128.741C65.3784 129.572 64.5394 130.467 63.7699 131.421C63.6999 131.511 63.8299 131.621 63.9199 131.561C64.882 130.88 65.7974 130.135 66.6599 129.331C67.6599 128.531 68.5699 127.711 69.5199 126.901C71.3599 125.331 73.2399 123.811 75.0699 122.241C76.8999 120.671 78.5899 118.981 80.3999 117.401C82.2099 115.821 84.3999 114.131 86.3999 112.531C86.4199 112.511 86.3799 112.421 86.3399 112.481Z" fill="#263238"/>
<path d="M280.432 193.882C278.382 196.082 276.492 198.452 274.592 200.782C272.692 203.112 270.782 205.462 268.892 207.782C265.122 212.502 261.322 217.192 257.612 221.952C255.612 224.572 253.612 227.212 251.672 229.952C251.582 230.072 251.772 230.212 251.872 230.102C255.932 225.642 259.642 220.882 263.412 216.172C267.182 211.462 270.942 206.722 274.642 201.952C276.642 199.332 278.752 196.732 280.642 193.952C280.692 193.902 280.522 193.782 280.432 193.882Z" fill="#263238"/>
<path d="M193.302 194.312C188.022 190.152 182.542 186.222 177.062 182.312C171.582 178.402 166.172 174.532 160.642 170.762C159.052 169.682 157.452 168.622 155.852 167.562C154.252 166.502 152.592 165.562 151.022 164.412C150.932 164.352 150.852 164.502 150.942 164.562C152.382 165.562 153.732 166.752 155.152 167.822C156.572 168.892 157.832 169.872 159.152 170.882C161.802 172.882 164.482 174.772 167.152 176.702C172.572 180.622 178.032 184.502 183.552 188.282C186.692 190.432 189.812 192.592 193.012 194.632C193.252 194.752 193.482 194.422 193.302 194.312Z" fill="#263238"/>
<path d="M227.251 150.512C222.371 146.512 217.141 142.832 212.021 139.092C206.901 135.352 201.7 131.482 196.5 127.732L181.041 116.552C176.041 112.942 171.041 109.272 165.791 106.072C162.911 104.322 159.941 102.702 156.901 101.242C153.95 99.7286 150.875 98.4707 147.711 97.4817C147.691 97.4784 147.67 97.4817 147.653 97.4913C147.635 97.5008 147.621 97.516 147.613 97.5344C147.605 97.5528 147.603 97.5733 147.608 97.5928C147.613 97.6122 147.625 97.6295 147.64 97.6417C150.25 99.0917 152.98 100.322 155.64 101.722C158.3 103.122 160.8 104.562 163.33 106.092C168.56 109.272 173.511 112.872 178.481 116.452C188.801 123.872 199.101 131.322 209.481 138.642C215.301 142.742 221 147.062 227.04 150.832C227.21 150.942 227.421 150.652 227.251 150.512Z" fill="#263238"/>
</g>
<defs>
<filter id="filter0_d_74_200" x="327" y="65" width="106.754" height="176.816" filterUnits="userSpaceOnUse" color-interpolation-filters="sRGB">
<feFlood flood-opacity="0" result="BackgroundImageFix"/>
<feColorMatrix in="SourceAlpha" type="matrix" values="0 0 0 0 0 0 0 0 0 0 0 0 0 0 0 0 0 0 127 0" result="hardAlpha"/>
<feOffset dy="4"/>
<feGaussianBlur stdDeviation="2"/>
<feComposite in2="hardAlpha" operator="out"/>
<feColorMatrix type="matrix" values="0 0 0 0 0 0 0 0 0 0 0 0 0 0 0 0 0 0 0.25 0"/>
<feBlend mode="normal" in2="BackgroundImageFix" result="effect1_dropShadow_74_200"/>
<feBlend mode="normal" in="SourceGraphic" in2="effect1_dropShadow_74_200" result="shape"/>
</filter>
<filter id="filter1_d_74_200" x="0" y="0" width="340.133" height="264.473" filterUnits="userSpaceOnUse" color-interpolation-filters="sRGB">
<feFlood flood-opacity="0" result="BackgroundImageFix"/>
<feColorMatrix in="SourceAlpha" type="matrix" values="0 0 0 0 0 0 0 0 0 0 0 0 0 0 0 0 0 0 127 0" result="hardAlpha"/>
<feOffset dy="4"/>
<feGaussianBlur stdDeviation="2"/>
<feComposite in2="hardAlpha" operator="out"/>
<feColorMatrix type="matrix" values="0 0 0 0 0 0 0 0 0 0 0 0 0 0 0 0 0 0 0.25 0"/>
<feBlend mode="normal" in2="BackgroundImageFix" result="effect1_dropShadow_74_200"/>
<feBlend mode="normal" in="SourceGraphic" in2="effect1_dropShadow_74_200" result="shape"/>
</filter>
</defs>
</svg>
