<svg width="192" height="170" viewBox="0 0 192 170" fill="none" xmlns="http://www.w3.org/2000/svg">
<g clip-path="url(#clip0_258_1668)">
<path d="M14.7269 46.9309C14.7269 46.5664 14.7728 45.5184 14.7728 45.1084C14.7728 43.2402 14.1305 42.4201 12.3871 42.3745C11.5613 42.3289 11.1025 41.8277 11.1025 41.1443C11.1025 40.4608 11.6072 39.9596 12.3871 39.914C14.1305 39.8229 14.7728 39.0028 14.7728 37.1346C14.7728 36.7246 14.7269 35.6766 14.7269 35.3121C14.7269 32.8516 15.7821 31.2568 19.7276 30.3911C20.5076 30.2089 21.1498 30.7101 21.1498 31.4391C21.1498 32.0314 20.7369 32.396 20.4158 32.4871C17.9384 33.2617 17.5714 34.0363 17.5714 35.7677C17.5714 36.2689 17.6172 37.1346 17.6172 37.6358C17.6172 39.5951 16.6538 40.5975 14.9563 41.0987C16.6538 41.6455 17.6172 42.6023 17.6172 44.5616C17.6172 45.1084 17.5714 45.9285 17.5714 46.4297C17.5714 48.1612 17.9384 48.9358 20.4158 49.7103C20.7369 49.8015 21.1498 50.1204 21.1498 50.7583C21.1498 51.4873 20.5534 51.9886 19.7276 51.8063C15.7362 50.9861 14.7269 49.437 14.7269 46.9309Z" fill="#EBEBEB"/>
<path d="M29.6832 35.3121C29.6832 35.6767 29.6373 36.7246 29.6373 37.1347C29.6373 39.0028 30.3255 39.823 32.0689 39.9141C32.8488 39.9597 33.3534 40.4609 33.3534 41.1444C33.3534 41.8278 32.8488 42.329 32.0689 42.3746C30.3255 42.4202 29.6373 43.2859 29.6373 45.1084C29.6373 45.5185 29.6832 46.5665 29.6832 46.931C29.6832 49.437 28.628 50.9862 24.6825 51.8519C23.9025 52.0342 23.2603 51.533 23.2603 50.804C23.2603 50.2116 23.6732 49.8471 23.9943 49.756C26.4717 48.9814 26.7929 48.2068 26.7929 46.4754C26.7929 45.9742 26.747 45.1084 26.747 44.6072C26.747 42.648 27.7104 41.6456 29.4079 41.1444C27.7104 40.5976 26.747 39.6407 26.747 37.6815C26.747 37.1347 26.7929 36.3146 26.7929 35.8134C26.7929 34.0819 26.4258 33.3073 23.9943 32.5327C23.6732 32.4416 23.2603 32.1227 23.2603 31.4848C23.2603 30.7557 23.8567 30.2545 24.6825 30.4368C28.628 31.3025 29.6832 32.8517 29.6832 35.3121Z" fill="#EBEBEB"/>
<path d="M78.9563 13.8514C79.5527 14.4438 79.5527 15.4006 78.9563 15.9929C78.6351 16.2663 78.2681 16.403 77.9011 16.403C77.4882 16.403 77.1212 16.2663 76.8 15.9929L70.1018 9.24944C70.01 9.20388 70.01 9.15831 69.9642 9.11275C69.9183 9.06718 69.8724 9.06718 69.8724 9.06718C69.8265 8.97606 69.8265 8.93049 69.7807 8.88493C69.7348 8.83936 69.6889 8.7938 69.6889 8.7938C69.643 8.74823 69.643 8.65711 69.643 8.65711C69.643 8.56598 69.5971 8.56598 69.5971 8.52041C69.5971 8.42929 69.5971 8.38372 69.5971 8.33816C69.5971 8.29259 69.5513 8.24703 69.5513 8.20146C69.5513 8.1559 69.5971 8.11034 69.5971 8.06477C69.5971 8.01921 69.5971 7.92808 69.5971 7.88251C69.5971 7.83695 69.643 7.79139 69.643 7.79139C69.6889 7.70026 69.6889 7.65469 69.6889 7.60913C69.6889 7.56357 69.7348 7.56357 69.7348 7.56357C69.7807 7.47244 69.8265 7.38131 69.8724 7.33574C69.8724 7.33574 69.8724 7.29018 69.9183 7.29018C69.9642 7.24462 70.01 7.15349 70.0559 7.10792L76.7541 0.364423C77.3506 -0.182347 78.314 -0.182347 78.9104 0.364423C79.5068 0.956758 79.5068 1.91361 78.9104 2.50594L73.3133 8.20146L78.9563 13.8514Z" fill="#EBEBEB"/>
<path d="M85.0122 14.6259L90.8387 0.819963C91.114 0.1365 91.8939 -0.136885 92.5821 0.1365C93.2244 0.409886 93.5456 1.18448 93.2703 1.82238L87.4438 15.6283C87.2144 16.1295 86.7097 16.4029 86.2509 16.4029C86.1133 16.4029 85.9298 16.3574 85.7921 16.3118C85.0581 16.0384 84.737 15.2638 85.0122 14.6259Z" fill="#EBEBEB"/>
<path d="M104.786 9.06727C104.694 9.1584 104.648 9.20397 104.602 9.24953L97.9039 15.993C97.6286 16.2664 97.2157 16.4031 96.8487 16.4031C96.4358 16.4031 96.0688 16.2664 95.7935 15.993C95.1971 15.4007 95.1971 14.4894 95.7935 13.8515L101.391 8.20155L95.7476 2.55159C95.1512 1.95926 95.1512 1.00241 95.7476 0.410078C96.2981 -0.136693 97.3075 -0.136693 97.9039 0.410078L104.602 7.15358C104.694 7.19914 104.74 7.29027 104.786 7.33583C104.831 7.33583 104.831 7.3814 104.831 7.3814C104.877 7.47253 104.923 7.51809 104.969 7.60922C104.969 7.65478 105.015 7.65478 105.015 7.65478C105.061 7.74591 105.061 7.79148 105.107 7.8826C105.107 7.92817 105.153 7.92817 105.153 7.97373C105.153 8.0193 105.153 8.11043 105.153 8.15599C105.153 8.20155 105.199 8.24712 105.199 8.29268C105.199 8.33825 105.153 8.38381 105.153 8.42937C105.153 8.5205 105.153 8.56607 105.153 8.61163C105.153 8.6572 105.107 8.6572 105.107 8.6572C105.061 8.74832 105.061 8.83945 105.015 8.88502C105.015 8.93058 104.969 8.93058 104.969 8.97615C104.877 8.88502 104.831 8.97614 104.786 9.06727Z" fill="#EBEBEB"/>
<path d="M19.9111 153.779V96.5049L7.66162 79.874V48.7537" stroke="#EBEBEB" stroke-miterlimit="10"/>
<path d="M8.7627 47.6602C8.7627 48.2525 8.25804 48.7537 7.66162 48.7537C7.06521 48.7537 6.56055 48.2525 6.56055 47.6602C6.56055 47.0679 7.06521 46.5667 7.66162 46.5667C8.25804 46.6122 8.7627 47.0679 8.7627 47.6602Z" stroke="#EBEBEB" stroke-miterlimit="10"/>
<path d="M16.7914 153.779V98.5098L4.49609 81.8789V60.1448" stroke="#EBEBEB" stroke-miterlimit="10"/>
<path d="M5.59717 59.0513C5.59717 59.6436 5.09251 60.1448 4.49609 60.1448C3.89968 60.1448 3.39502 59.6436 3.39502 59.0513C3.39502 58.459 3.89968 57.9578 4.49609 57.9578C5.09251 58.0033 5.59717 58.459 5.59717 59.0513Z" stroke="#EBEBEB" stroke-miterlimit="10"/>
<path d="M22.9849 153.779V77.9148" stroke="#EBEBEB" stroke-miterlimit="10"/>
<path d="M24.0859 76.8667C24.0859 77.4591 23.5813 77.9603 22.9849 77.9603C22.3884 77.9603 21.8838 77.4591 21.8838 76.8667C21.8838 76.2744 22.3884 75.7732 22.9849 75.7732C23.5813 75.7732 24.0859 76.2744 24.0859 76.8667Z" stroke="#EBEBEB" stroke-miterlimit="10"/>
<path d="M25.9214 153.779V115.232L34.2253 99.6488V71.6724" stroke="#EBEBEB" stroke-miterlimit="10"/>
<path d="M35.3262 70.5789C35.3262 71.1712 34.8215 71.6724 34.2251 71.6724C33.6287 71.6724 33.124 71.1712 33.124 70.5789C33.124 69.9866 33.6287 69.4854 34.2251 69.4854C34.8215 69.4854 35.3262 69.9866 35.3262 70.5789Z" stroke="#EBEBEB" stroke-miterlimit="10"/>
<path d="M28.8115 153.779V116.872L38.6294 99.6489V81.241" stroke="#EBEBEB" stroke-miterlimit="10"/>
<path d="M39.7305 80.1475C39.7305 80.7398 39.2258 81.241 38.6294 81.241C38.033 81.241 37.5283 80.7398 37.5283 80.1475C37.5283 79.5552 38.033 79.054 38.6294 79.054C39.2258 79.054 39.7305 79.5552 39.7305 80.1475Z" stroke="#EBEBEB" stroke-miterlimit="10"/>
<path d="M172.089 153.779V123.843L184.338 107.213V89.7615" stroke="#EBEBEB" stroke-miterlimit="10"/>
<path d="M183.237 88.668C183.237 89.2603 183.742 89.7615 184.338 89.7615C184.935 89.7615 185.439 89.2603 185.439 88.668C185.439 88.0757 184.935 87.5745 184.338 87.5745C183.742 87.62 183.237 88.0757 183.237 88.668Z" stroke="#EBEBEB" stroke-miterlimit="10"/>
<path d="M175.254 153.779V125.848L187.504 109.217V101.153" stroke="#EBEBEB" stroke-miterlimit="10"/>
<path d="M186.403 100.059C186.403 100.651 186.908 101.153 187.504 101.153C188.1 101.153 188.605 100.651 188.605 100.059C188.605 99.4668 188.1 98.9656 187.504 98.9656C186.908 99.0111 186.403 99.4668 186.403 100.059Z" stroke="#EBEBEB" stroke-miterlimit="10"/>
<path d="M169.015 153.779V105.253" stroke="#EBEBEB" stroke-miterlimit="10"/>
<path d="M167.96 104.205C167.96 104.798 168.465 105.299 169.061 105.299C169.657 105.299 170.162 104.798 170.162 104.205C170.162 103.613 169.657 103.112 169.061 103.112C168.419 103.112 167.96 103.613 167.96 104.205Z" stroke="#EBEBEB" stroke-miterlimit="10"/>
<path d="M166.125 153.779V128.901L157.775 113.318V85.3418" stroke="#EBEBEB" stroke-miterlimit="10"/>
<path d="M156.674 84.2483C156.674 84.8407 157.178 85.3419 157.775 85.3419C158.371 85.3419 158.876 84.8407 158.876 84.2483C158.876 83.656 158.371 83.1548 157.775 83.1548C157.178 83.1548 156.674 83.656 156.674 84.2483Z" stroke="#EBEBEB" stroke-miterlimit="10"/>
<path d="M163.189 153.779V130.541L153.371 113.318V94.9102" stroke="#EBEBEB" stroke-miterlimit="10"/>
<path d="M152.27 93.8167C152.27 94.409 152.774 94.9102 153.371 94.9102C153.967 94.9102 154.472 94.409 154.472 93.8167C154.472 93.2243 153.967 92.7231 153.371 92.7231C152.774 92.7231 152.27 93.2243 152.27 93.8167Z" stroke="#EBEBEB" stroke-miterlimit="10"/>
<path d="M96.0231 170.045C147.079 170.045 188.467 166.761 188.467 162.71C188.467 158.658 147.079 155.374 96.0231 155.374C44.9674 155.374 3.57861 158.658 3.57861 162.71C3.57861 166.761 44.9674 170.045 96.0231 170.045Z" fill="#EBEBEB"/>
<path d="M6.28516 153.825H61.8436L50.787 89.8071H9.22136L6.28516 153.825Z" fill="#DBDBDB"/>
<path d="M6.28516 153.825H11.1482L13.9009 89.8071H9.22136L6.28516 153.825Z" fill="#A6A6A6"/>
<path d="M0 153.825L23.9943 153.734L47.9885 153.688L96.0229 153.597L144.011 153.688L168.006 153.734L192 153.825L168.006 153.961L144.011 154.007L96.0229 154.053L47.9885 154.007L23.9943 153.961L0 153.825Z" fill="#263238"/>
<path d="M103.822 153.278H100.519V155.42H103.822V153.278Z" fill="#455A64"/>
<path d="M108.089 153.141H104.786V155.283H108.089V153.141Z" fill="#455A64"/>
<path d="M112.355 152.959H109.052V155.1H112.355V152.959Z" fill="#455A64"/>
<path d="M116.622 152.822H113.319V154.964H116.622V152.822Z" fill="#455A64"/>
<path d="M120.935 152.686H117.631V154.827H120.935V152.686Z" fill="#455A64"/>
<path d="M125.202 152.549H121.898V154.691H125.202V152.549Z" fill="#455A64"/>
<path d="M129.468 152.412H126.165V154.554H129.468V152.412Z" fill="#455A64"/>
<path d="M133.735 152.276H130.432V154.417H133.735V152.276Z" fill="#455A64"/>
<path d="M138.001 152.139H134.698V154.28H138.001V152.139Z" fill="#455A64"/>
<path d="M138.827 156.65H99.6934V154.007L138.827 152.959V156.65Z" fill="#37474F"/>
<path d="M176.952 146.398H112.447L122.678 98.6465H187.229L176.952 146.398Z" fill="#455A64"/>
<path d="M179.338 146.398H114.833L125.064 98.6465H189.614L179.338 146.398Z" fill="#37474F"/>
<path d="M157.362 123.525C156.995 125.712 154.93 127.489 152.728 127.489C150.526 127.489 149.012 125.712 149.379 123.525C149.746 121.338 151.811 119.561 154.013 119.561C156.215 119.561 157.729 121.338 157.362 123.525Z" fill="#263238"/>
<path d="M149.241 107.759L147.727 115.004H146.305L147.865 107.759H149.241Z" fill="#263238"/>
<path d="M152.269 107.759L150.709 115.004H149.287L150.847 107.759H152.269Z" fill="#263238"/>
<path d="M155.252 107.759L153.692 115.004H152.315L153.875 107.759H155.252Z" fill="#263238"/>
<path d="M158.279 107.759L156.72 115.004H155.297L156.857 107.759H158.279Z" fill="#263238"/>
<path d="M161.261 107.759L159.702 115.004H158.325L159.885 107.759H161.261Z" fill="#263238"/>
<path d="M164.289 107.759L162.729 115.004H161.307L162.867 107.759H164.289Z" fill="#263238"/>
<path d="M160.206 158.837H128.458V156.376L160.206 155.374V158.837Z" fill="#455A64"/>
<path d="M168.831 158.837H151.764L141.488 132.091H158.554L168.831 158.837Z" fill="#455A64"/>
<path d="M171.63 158.837H154.563L144.333 132.091H161.353L171.63 158.837Z" fill="#263238"/>
<path d="M106.896 159.475C106.896 159.475 76.9837 159.475 74.1851 159.475C71.3865 159.475 75.4238 151.592 85.6088 148.539C95.8396 145.532 110.108 156.513 106.896 159.475Z" fill="#37474F"/>
<path d="M94.0503 159.475C94.0962 158.563 94.2338 157.698 94.5091 156.832C94.7843 155.966 95.1514 155.146 95.6101 154.371C96.0689 153.597 96.6653 152.868 97.3535 152.276C97.9958 151.638 98.8216 151.228 99.6474 150.863C99.2804 151.136 98.9134 151.364 98.5922 151.638L98.0876 152.048L97.6288 152.503C97.0324 153.141 96.4818 153.825 96.0231 154.599C95.5643 155.328 95.1972 156.148 94.8761 156.969C94.555 157.789 94.2797 158.609 94.0503 159.475Z" fill="#263238"/>
<path d="M97.9497 151.957C98.9131 152.275 99.8766 152.64 100.748 153.096C101.666 153.551 102.538 154.052 103.363 154.645C104.189 155.237 104.969 155.921 105.657 156.695C105.978 157.105 106.254 157.515 106.483 157.971C106.712 158.427 106.85 158.928 106.85 159.429C106.712 158.928 106.529 158.472 106.254 158.062C105.978 157.652 105.703 157.242 105.336 156.877C104.648 156.148 103.868 155.556 103.042 154.964C102.216 154.371 101.391 153.87 100.519 153.369C100.106 153.096 99.6472 152.868 99.1884 152.64C98.8673 152.458 98.4085 152.23 97.9497 151.957Z" fill="#263238"/>
<path d="M50.0989 60.0078C48.539 57.0006 42.9419 50.7583 36.2895 54.13C26.7928 58.9143 30.6465 78.5525 27.3433 85.8883C21.2874 99.2386 23.9483 110.083 31.8852 109.764C40.7397 109.399 46.3827 98.3273 40.7856 79.1904C37.253 67.2525 39.2257 60.9647 41.7032 60.6913C44.2265 60.3723 46.3827 63.0606 46.3827 63.0606L50.0989 60.0078Z" fill="#263238"/>
<path d="M49.4108 58.9144C48.4932 57.593 47.438 56.3172 46.2452 55.2237C45.0065 54.1301 43.6301 53.2189 42.0244 52.6721C40.4186 52.1253 38.6294 52.0798 37.0237 52.6265C35.4179 53.1277 33.9039 53.9935 32.7111 55.1781C31.5183 56.3628 30.6466 57.8664 30.0961 59.4156C29.5455 60.9648 29.1785 62.6051 28.995 64.1998C28.628 67.4349 28.8115 70.67 29.1785 73.905C29.1326 70.67 29.2703 67.4805 29.729 64.291C30.0043 62.7418 30.3254 61.1926 30.9219 59.7345C31.4724 58.2765 32.2982 56.9096 33.3993 55.816C34.5004 54.7225 35.8767 53.9023 37.3448 53.4467C38.8129 52.9455 40.3728 52.9455 41.8867 53.3556C43.4007 53.7656 44.7771 54.5858 46.0616 55.5426C46.7039 55.9983 47.3004 56.5451 47.8968 57.0918C48.3097 57.6842 48.8602 58.2765 49.4108 58.9144Z" fill="#263238"/>
<path d="M38.9503 72.5381C39.3632 74.4518 40.0055 76.3655 40.556 78.2336C41.1524 80.1017 41.7489 82.0154 42.2535 83.8836C42.7582 85.7973 43.2628 87.6654 43.584 89.6247C43.9051 91.5384 44.1345 93.4976 44.0886 95.4113C44.0428 97.325 43.7675 99.2843 43.0334 101.016C42.2994 102.747 41.1524 104.387 39.822 105.8C38.4915 107.167 36.8399 108.306 35.0048 108.944C34.0872 109.263 33.1238 109.491 32.1603 109.582C31.6557 109.627 31.1969 109.627 30.6922 109.582C30.1876 109.536 29.6829 109.491 29.2241 109.354C30.1417 109.764 31.151 109.81 32.1603 109.81C33.1696 109.81 34.179 109.627 35.1424 109.354C36.1058 109.081 37.0693 108.67 37.941 108.169C38.8126 107.668 39.6385 107.03 40.3725 106.301C41.1066 105.618 41.7489 104.843 42.3453 103.977L42.7582 103.339L43.1711 102.702C43.4463 102.292 43.6757 101.79 43.8592 101.335C44.6851 99.4665 45.0062 97.4161 45.0521 95.4113C45.098 91.3561 44.1804 87.4376 42.9876 83.6558C42.3911 81.7421 41.703 79.9195 41.0148 78.0514C40.2808 76.2744 39.5926 74.4062 38.9503 72.5381Z" fill="#263238"/>
<path d="M50.6493 59.9167C50.5117 59.0054 49.64 57.9574 48.9977 57.8663C48.3554 57.8207 44.3181 60.4635 44.1346 61.6481C43.9511 62.8328 46.1074 63.4707 46.1074 63.4707L50.6493 59.9167Z" fill="#FFC727"/>
<path d="M51.0619 102.292C64.5959 110.402 83.5895 118.786 90.2418 117.51C95.6095 116.508 115.796 101.973 116.805 101.107C119.283 99.0111 107.446 80.4209 104.464 82.1979C100.702 84.385 86.2963 98.2821 84.6447 98.2821C82.9472 98.2821 70.7436 96.6418 56.7966 94.6369C47.1622 93.3156 42.6662 97.2797 51.0619 102.292Z" fill="#AD6359"/>
<path d="M107.859 75.91C111.071 74.2697 114.649 72.1282 118.457 71.7181C122.219 71.3081 126.027 75.8189 126.21 77.2314C126.394 78.6439 126.164 87.6656 122.402 88.1668C118.64 88.668 120.017 81.6056 119.742 80.831C119.512 80.0564 119.237 79.0995 118.503 79.2818C117.815 79.4641 106.162 86.9366 106.162 86.9366L107.859 75.91Z" fill="#AD6359"/>
<path d="M108.18 76.4111C108.41 76.3656 117.952 71.0801 121.714 70.67C125.476 70.26 129.284 74.7708 129.468 76.1833C129.651 77.5958 129.422 86.6175 125.66 87.1187C121.898 87.6199 123.274 80.5575 122.999 79.7829C122.769 79.0083 122.494 78.0514 121.76 78.2337C121.072 78.4159 109.419 85.8885 109.419 85.8885L108.18 76.4111Z" fill="#AD6359"/>
<path d="M124.329 86.7997C123.779 86.2529 123.595 85.3872 123.412 84.6581C123.228 83.8835 123.183 83.0634 123.228 82.2432C123.274 81.5598 123.458 80.8307 123.412 80.1473C123.366 79.5094 122.999 78.7804 122.632 78.2336C122.265 77.7324 121.76 78.0058 121.302 78.2336C120.613 78.5525 120.017 79.0082 119.375 79.4183C118.686 79.8739 118.044 80.3295 117.356 80.7852C116.668 81.2408 115.934 81.6965 115.337 82.2888C115.291 82.3344 115.337 82.4255 115.383 82.3799C116.026 82.061 116.576 81.6509 117.172 81.2864C117.861 80.8763 118.503 80.4207 119.191 80.0106C119.833 79.6461 120.43 79.1904 121.072 78.8259C121.302 78.6892 121.76 78.3703 122.036 78.4158C122.311 78.4614 122.586 79.1449 122.678 79.3271C122.953 80.0106 122.907 80.6485 122.816 81.3775C122.724 82.061 122.678 82.79 122.724 83.4735C122.77 84.1114 122.861 84.7948 123.137 85.3872C123.412 85.9795 123.871 86.3896 124.238 86.8908C124.284 86.9363 124.375 86.8452 124.329 86.7997Z" fill="#263238"/>
<path d="M97.5366 87.8022C97.5366 87.8022 106.712 76.9579 108.639 74.8164C112.493 70.4878 129.835 60.6004 132.358 60.0081C134.881 59.4157 136.487 64.4733 124.788 71.5358C118.595 75.2721 117.952 79.145 118.319 81.1954C118.732 83.2458 121.21 86.8454 124.742 86.2986C128.229 85.7518 129.835 80.3752 132.955 79.3728C136.12 78.3704 134.744 84.5216 132.955 88.2123C131.119 91.903 127.403 95.2292 124.513 96.7784C121.623 98.3275 112.768 103.567 112.768 103.567L97.5366 87.8022Z" fill="#AD6359"/>
<path d="M128.78 83.2458C127.587 84.4305 126.256 85.9341 124.559 86.2531C122.769 86.572 121.439 85.5696 120.43 84.2027C119.375 82.8358 118.686 81.241 118.87 79.5096C119.053 77.9604 119.742 76.5023 120.751 75.2721C121.99 73.7685 123.504 72.5838 125.063 71.4903C125.155 71.4447 125.063 71.3536 124.972 71.3991C123.458 72.3104 118.686 75.0443 118.273 79.5551C118.09 81.4233 118.87 82.9269 119.925 84.3394C120.888 85.6152 122.219 86.7998 123.916 86.7087C126.027 86.6176 127.587 84.7039 128.871 83.2458C128.917 83.2458 128.825 83.2003 128.78 83.2458Z" fill="#263238"/>
<path d="M82.9473 96.9151L67.3029 111.678C67.3029 111.678 56.8886 107.076 49.0893 101.563C41.2441 96.0493 49.3187 92.632 62.2563 93.9534C75.1022 95.2748 82.9473 96.9151 82.9473 96.9151Z" fill="#FFC727"/>
<path d="M63.5411 109.901C63.4494 109.855 63.4035 109.855 63.3576 109.81C63.3576 109.764 63.3576 109.764 63.3576 109.719C63.2659 108.488 63.0823 107.213 62.6236 106.074C62.3942 105.527 62.0271 104.98 61.5225 104.661C61.2472 104.479 60.972 104.388 60.6967 104.342C60.4214 104.297 60.1003 104.297 59.7791 104.297C58.5404 104.342 57.3017 104.616 56.1089 105.026C55.7877 105.117 55.4666 105.253 55.1454 105.39C55.0995 105.345 55.0078 105.345 54.9619 105.299C55.3289 105.162 55.696 105.026 56.063 104.889C57.2558 104.479 58.4945 104.16 59.7791 104.114C60.1003 104.114 60.4214 104.114 60.7426 104.16C61.0637 104.205 61.3848 104.342 61.6601 104.524C62.2107 104.889 62.5777 105.436 62.853 106.028C63.3576 107.213 63.4952 108.488 63.6329 109.719C63.5411 109.764 63.5411 109.855 63.5411 109.901ZM74.2307 95.4571C74.1849 95.5027 74.1849 95.5938 74.1849 95.6394C73.6343 97.143 72.9003 98.6922 71.6616 99.7401C71.0193 100.241 70.2852 100.606 69.4594 100.697C68.6336 100.788 67.8078 100.606 67.0737 100.241C65.6056 99.5579 64.3669 98.3732 63.22 97.2341C62.1189 96.095 61.0178 94.9103 59.9168 93.7712C59.8709 93.7712 59.8709 93.7712 59.825 93.7712C60.9261 94.9559 62.0271 96.1406 63.1282 97.3252C64.2752 98.5099 65.468 99.649 66.982 100.378C67.716 100.743 68.5877 100.925 69.4135 100.834C70.2393 100.743 71.0193 100.378 71.6616 99.8768C72.9461 98.7833 73.6802 97.2341 74.2307 95.7305C74.2766 95.6394 74.2766 95.5938 74.3225 95.5027C74.3225 95.4571 74.2766 95.4571 74.2307 95.4571ZM65.9727 111.086C66.7985 111.45 67.2573 111.678 67.2573 111.678H67.3031C66.8443 111.45 66.4314 111.268 65.9727 111.086Z" fill="white"/>
<path d="M63.4033 108.944C66.5689 105.527 69.9639 102.337 73.4047 99.1932C74.3682 98.3275 75.3775 97.4617 76.3868 96.596C76.4327 96.5505 76.4786 96.596 76.4327 96.6416C74.8269 98.3275 73.1294 99.9222 71.4778 101.517C69.7803 103.157 68.1287 104.752 66.3854 106.301C65.4219 107.167 64.4585 108.078 63.4492 108.944C63.4033 109.035 63.3574 108.989 63.4033 108.944Z" fill="#263238"/>
<path opacity="0.1" d="M73.7717 105.527L67.257 111.678C67.257 111.678 56.8427 107.076 49.0434 101.563C45.8778 99.3299 45.3273 97.4162 46.6577 96.0493L73.7717 105.527Z" fill="black"/>
<path d="M72.7166 153.916H20.3696C20.3696 153.916 31.7474 110.311 42.2535 98.0085C42.4829 97.7351 42.7123 97.4618 42.9875 97.1884C43.0334 97.1428 43.0793 97.0972 43.1252 97.0517C44.0427 96.0948 44.9603 95.4114 45.9237 94.9102C46.1073 94.819 46.2908 94.7279 46.4743 94.6368C50.5116 92.7686 54.8241 94.3178 57.8979 96.9605C58.8614 97.7807 69.9639 112.133 70.9732 117.601C71.799 122.431 68.5417 127.625 68.5417 127.625L72.7166 153.916Z" fill="#FFC727"/>
<path d="M60.6966 125.711C58.4944 125.939 56.2464 126.258 54.0901 126.851C53.0349 127.124 51.9797 127.488 50.9245 127.807C50.4199 127.99 49.8694 128.126 49.3188 128.309C48.7683 128.491 48.1719 128.628 47.6213 128.628C47.5754 128.628 47.5754 128.719 47.6213 128.719C48.1719 128.719 48.7224 128.719 49.2729 128.673C49.7776 128.628 50.3281 128.491 50.8328 128.354C51.9339 128.081 52.9891 127.762 54.0901 127.443C56.2923 126.851 58.4944 126.258 60.7425 125.848C60.8342 125.894 60.7883 125.711 60.6966 125.711Z" fill="#263238"/>
<path d="M66.2478 127.625C64.4126 127.443 62.5316 127.352 60.6965 127.397C59.779 127.397 58.8614 127.488 57.9438 127.58C57.4851 127.625 57.0721 127.671 56.6134 127.716C56.1546 127.762 55.6499 127.899 55.1911 127.99C55.1453 127.99 55.1453 128.081 55.1911 128.081C55.6499 128.035 56.1087 128.081 56.5675 128.081C57.0263 128.081 57.4851 128.035 57.9438 128.035C58.8614 127.99 59.779 127.99 60.6965 127.944C62.5316 127.853 64.3668 127.807 66.2019 127.807C66.3395 127.807 66.3395 127.625 66.2478 127.625Z" fill="#263238"/>
<g opacity="0.1">
<path d="M55.696 120.472C56.063 120.7 56.2007 121.11 56.0172 121.383C55.9254 121.52 55.7878 121.611 55.6043 121.611C55.4207 121.611 55.2372 121.565 55.0537 121.474L51.1082 118.832C51.0623 118.832 51.0623 118.786 51.0164 118.786H50.9706C50.9247 118.74 50.9247 118.74 50.9247 118.695C50.8788 118.695 50.8788 118.649 50.8788 118.649L50.8329 118.604C50.8329 118.558 50.787 118.558 50.787 118.558C50.787 118.513 50.787 118.513 50.7412 118.467C50.7412 118.467 50.7412 118.421 50.6953 118.421V118.376C50.6953 118.376 50.6953 118.33 50.6494 118.285V118.239C50.6494 118.194 50.6494 118.194 50.6494 118.148C50.6494 118.102 50.6494 118.057 50.6494 118.057C50.6494 118.057 50.6494 118.011 50.6953 117.966L52.7139 114.776C52.8974 114.503 53.3103 114.457 53.6774 114.685C54.0444 114.913 54.182 115.323 53.9985 115.596L52.301 118.285L55.696 120.472Z" fill="black"/>
<path d="M58.4946 120.563L59.091 114.366C59.1369 114.047 59.4121 113.91 59.7791 114.002C60.1003 114.093 60.3297 114.412 60.3297 114.685L59.7333 120.882C59.6874 121.11 59.5498 121.246 59.3204 121.246C59.2745 121.246 59.1827 121.246 59.091 121.246C58.6781 121.155 58.4487 120.836 58.4946 120.563Z" fill="black"/>
<path d="M66.4316 117.373C66.4316 117.419 66.3857 117.419 66.3857 117.465L64.3671 120.654C64.2754 120.791 64.1377 120.882 63.9542 120.882C63.7707 120.882 63.5872 120.836 63.4037 120.745C63.0366 120.517 62.9449 120.107 63.0825 119.834L64.78 117.146L61.4768 114.913C61.1098 114.685 60.9721 114.275 61.1556 114.002C61.3392 113.728 61.7521 113.683 62.1191 113.911L66.0646 116.553C66.1105 116.553 66.1564 116.599 66.1564 116.599C66.2022 116.644 66.2022 116.644 66.2481 116.69C66.2481 116.736 66.294 116.735 66.294 116.781C66.294 116.781 66.294 116.781 66.294 116.827C66.294 116.827 66.294 116.872 66.3399 116.918L66.3857 116.963V117.009C66.3857 117.054 66.3857 117.054 66.4316 117.1C66.4316 117.146 66.4316 117.191 66.4316 117.191C66.4316 117.191 66.4316 117.191 66.4316 117.237C66.4316 117.282 66.4316 117.328 66.4316 117.373Z" fill="black"/>
</g>
<path d="M69.6885 134.642C69.5967 134.688 69.5509 134.733 69.4591 134.779L69.0462 134.961C68.9086 135.007 68.7251 135.052 68.5874 135.143C68.3121 135.28 67.9451 135.28 67.6699 135.371C67.0276 135.417 66.3853 135.462 65.743 135.235C65.4218 135.143 65.1466 134.961 64.8713 134.779C64.6419 134.551 64.4125 134.323 64.229 134.05C63.862 133.503 63.6326 132.911 63.4491 132.318C63.082 131.088 62.9903 129.812 62.8985 128.582C62.8985 128.354 62.8985 128.127 62.8985 127.944C62.8985 127.853 62.8985 127.762 62.8985 127.716C62.8527 125.484 62.9444 123.297 63.082 121.064C63.2197 118.558 63.4032 116.052 63.4491 113.546C63.4949 112.452 63.4949 111.313 63.4032 110.22C63.4032 110.174 63.4032 110.129 63.4032 110.083C63.4032 109.992 63.4032 109.901 63.4032 109.81C63.3114 108.58 63.1279 107.304 62.6691 106.165C62.4398 105.618 62.0727 105.071 61.5681 104.752C61.2928 104.57 61.0175 104.479 60.7423 104.433C60.467 104.388 60.1458 104.388 59.8247 104.388C58.586 104.433 57.3473 104.707 56.1544 105.117C55.3286 105.39 54.5487 105.709 53.8147 106.074L53.6311 106.165C52.163 106.848 50.7867 107.668 49.4104 108.488C47.2541 109.764 45.0978 111.131 42.8498 112.27C42.0699 112.68 41.2899 113.045 40.51 113.364C40.4641 113.364 40.4641 113.409 40.4182 113.409C40.0512 113.546 39.7301 113.683 39.3631 113.819C38.1702 114.229 36.9315 114.548 35.6469 114.594C34.9587 114.594 34.2247 114.503 33.5824 114.321C33.5824 114.275 33.5824 114.275 33.6283 114.229C34.2706 114.412 34.9587 114.503 35.6469 114.503C36.8856 114.457 38.1702 114.184 39.3172 113.728C39.6842 113.592 40.0053 113.455 40.3265 113.318C40.3724 113.318 40.3724 113.273 40.4182 113.273C41.1982 112.954 41.9781 112.589 42.758 112.179C45.0061 110.994 47.1165 109.673 49.3186 108.352C50.6491 107.577 52.0254 106.757 53.4476 106.074C53.4935 106.028 53.5394 106.028 53.6311 105.982C54.457 105.572 55.2828 105.253 56.1086 104.934C57.3014 104.524 58.5401 104.205 59.8247 104.16C60.1458 104.16 60.467 104.16 60.7881 104.205C61.1093 104.251 61.4304 104.388 61.7057 104.57C62.2562 104.934 62.6233 105.481 62.8985 106.074C63.4032 107.258 63.5408 108.534 63.6785 109.764C63.6785 109.901 63.6785 110.038 63.7243 110.174C63.7243 110.22 63.7243 110.265 63.7243 110.311C63.7702 111.405 63.7702 112.452 63.7702 113.546C63.7243 116.052 63.5408 118.558 63.4032 121.064C63.3114 123.16 63.1738 125.302 63.2197 127.398C63.2197 127.489 63.2197 127.58 63.2197 127.625C63.2197 127.944 63.2197 128.263 63.2656 128.582C63.3114 129.812 63.4491 131.088 63.7702 132.273C63.9537 132.865 64.1831 133.458 64.5043 133.959C64.6878 134.232 64.8713 134.46 65.1007 134.642C65.3301 134.825 65.6053 135.007 65.8806 135.098C66.477 135.28 67.1193 135.28 67.7157 135.235C68.0369 135.189 68.3122 135.143 68.6333 135.007C68.7709 134.961 68.9086 134.916 69.0921 134.87L69.505 134.688C69.5967 134.642 69.6885 134.597 69.7803 134.551L69.6885 134.642ZM70.9272 117.373C69.9179 118.376 68.9544 119.469 68.0369 120.563C66.2476 122.75 64.6419 125.028 63.0362 127.352C62.9903 127.443 62.8985 127.534 62.8527 127.625C62.6691 127.899 62.4397 128.172 62.2562 128.491C61.1093 130.086 60.0082 131.681 58.7695 133.184C58.7236 133.23 58.7236 133.275 58.6777 133.321C57.8978 134.323 57.072 135.28 56.1544 136.237C55.0075 137.422 53.8147 138.515 52.4383 139.472C52.1172 139.7 51.7501 139.928 51.429 140.11C51.062 140.338 50.6949 140.52 50.3279 140.702C49.5939 141.067 48.7681 141.203 47.9881 141.067C47.2082 140.885 46.52 140.474 45.8777 139.928C45.2813 139.381 44.7308 138.789 44.272 138.105C43.3086 136.784 42.5286 135.371 41.7946 133.913C40.3265 130.997 39.0878 127.944 37.7573 124.937C36.4727 121.93 35.1423 118.923 33.4906 116.052C33.353 115.779 33.1695 115.505 32.986 115.232C32.9401 115.323 32.9401 115.414 32.8942 115.46C33.0319 115.688 33.1695 115.915 33.3071 116.143C34.9129 118.968 36.2433 122.021 37.5279 124.983C38.8125 127.99 40.0971 130.997 41.5652 133.959C42.2992 135.417 43.1251 136.875 44.0885 138.196C44.5932 138.88 45.0978 139.518 45.7401 140.064C46.3824 140.611 47.1165 141.067 47.9423 141.249C48.7681 141.431 49.6398 141.249 50.3738 140.885C50.7408 140.702 51.1079 140.52 51.4749 140.292C51.8419 140.11 52.163 139.882 52.5301 139.609C53.9064 138.652 55.0993 137.558 56.2462 136.374C57.1179 135.462 57.9437 134.46 58.7236 133.503C58.7695 133.458 58.8154 133.412 58.8154 133.366C60.0541 131.817 61.201 130.223 62.3021 128.628C62.4856 128.4 62.6233 128.172 62.8068 127.944C62.8526 127.853 62.9444 127.762 62.9903 127.671C64.6419 125.302 66.2935 122.978 68.1286 120.745C69.0003 119.652 69.9179 118.604 70.9272 117.647C70.9731 117.51 70.9731 117.419 70.9272 117.373ZM45.786 150.316C43.7215 147.765 41.7487 145.168 39.5007 142.707C37.2985 140.292 34.8211 138.014 31.839 136.556C31.0591 136.237 30.2792 135.964 29.4993 135.781C29.0863 135.69 28.6734 135.645 28.2605 135.599C27.8476 135.599 27.4347 135.554 27.0218 135.599C26.5631 135.599 26.1043 135.645 25.6455 135.736C25.6455 135.781 25.6455 135.781 25.5996 135.827C26.0584 135.736 26.5172 135.736 26.976 135.69C27.3889 135.645 27.8018 135.69 28.2147 135.736C28.6276 135.781 29.0405 135.827 29.4075 135.918C30.2333 136.055 30.9674 136.374 31.7473 136.693C34.7294 138.105 37.1609 140.383 39.3631 142.798C41.5652 145.213 43.5838 147.81 45.6025 150.407C46.5659 151.592 47.4835 152.777 48.4928 153.916H48.7222C47.7587 152.731 46.7953 151.501 45.786 150.316ZM70.9731 142.844C70.6519 143.664 70.3308 144.53 70.0555 145.35C69.0003 148.22 67.991 151.091 66.7982 153.916H67.0276C68.2204 151.136 69.2297 148.266 70.2849 145.395C70.5602 144.666 70.7896 143.983 71.0648 143.254L70.9731 142.844ZM66.2018 147.4C66.1559 147.172 66.11 146.899 66.0641 146.671L65.8806 145.942C65.7889 145.487 65.6512 144.985 65.5136 144.53C64.963 142.662 64.1372 140.885 63.1738 139.199C61.9351 137.057 60.467 135.143 58.8613 133.275C58.8154 133.23 58.7695 133.184 58.7695 133.139C57.8519 132.091 56.8885 131.088 55.9251 130.086C53.1724 127.306 50.3279 124.709 47.5752 121.93C46.1989 120.563 44.8684 119.15 43.5838 117.692C43.2627 117.328 42.9415 116.963 42.6204 116.599C42.2993 116.234 42.024 115.87 41.7028 115.46C41.1982 114.776 40.7394 114.047 40.3724 113.273C40.3724 113.227 40.3265 113.182 40.3265 113.182C40.2806 113.136 40.2806 113.045 40.2347 112.999C39.4089 111.268 38.996 109.309 38.996 107.395C38.9501 105.481 39.3172 103.522 39.8677 101.699C39.9595 101.472 40.0053 101.244 40.0971 101.016C40.0512 101.061 40.0053 101.107 40.0053 101.198C39.9595 101.38 39.9136 101.517 39.8218 101.699C39.2254 103.567 38.9043 105.481 38.9043 107.44C38.9043 109.4 39.3172 111.313 40.143 113.09C40.1889 113.136 40.1889 113.227 40.2347 113.273C40.2347 113.318 40.2806 113.364 40.2806 113.364C40.6476 114.138 41.1064 114.867 41.6111 115.596C41.8863 116.006 42.2075 116.371 42.5286 116.736C42.8498 117.1 43.1251 117.465 43.4921 117.829C44.7767 119.287 46.1071 120.7 47.4835 122.112C50.2362 124.846 53.1265 127.489 55.8333 130.268C56.7967 131.27 57.7602 132.318 58.6777 133.366C58.7236 133.412 58.7695 133.458 58.7695 133.503C60.3752 135.326 61.8433 137.285 63.0362 139.381C63.9996 141.067 64.8254 142.844 65.3759 144.666C65.5136 145.122 65.6512 145.578 65.743 146.079L65.9265 146.808C65.9724 147.036 66.0182 147.264 66.0641 147.537C66.2476 148.494 66.3394 149.451 66.2018 150.407C66.11 151.683 65.6971 152.913 65.1466 154.007H65.3759C65.9265 152.868 66.2935 151.683 66.4311 150.407C66.4311 149.359 66.3853 148.357 66.2018 147.4ZM68.7709 112.316C68.6792 112.27 68.5874 112.225 68.4957 112.179C66.8441 111.405 65.1924 110.721 63.5408 110.083C63.4491 110.038 63.4032 110.038 63.3573 109.992C61.8892 109.445 60.4211 108.853 58.9989 108.306C57.3932 107.668 55.8333 107.03 54.2734 106.256C54.0899 106.165 53.9064 106.074 53.677 105.982C53.6311 105.937 53.5394 105.937 53.4935 105.891C52.2089 105.253 51.0161 104.524 49.8691 103.613C48.5387 102.565 47.3458 101.289 46.5659 99.7856C46.153 99.0566 45.8777 98.2365 45.6942 97.4163C45.5566 96.6417 45.5107 95.8671 45.5566 95.0925C45.5107 95.1381 45.419 95.1837 45.3731 95.2292C45.3272 95.9583 45.3731 96.7328 45.5107 97.4619C45.6942 98.3276 46.0154 99.1022 46.3824 99.8768C47.2082 101.38 48.401 102.702 49.7315 103.75C50.8326 104.615 52.0254 105.344 53.2641 105.982C53.31 106.028 53.4018 106.028 53.4476 106.074C53.677 106.21 53.9064 106.301 54.1358 106.438C55.6957 107.167 57.2555 107.851 58.8613 108.443C60.3294 109.035 61.7975 109.582 63.3114 110.174C63.4032 110.22 63.4491 110.22 63.4949 110.265C65.1466 110.903 66.7982 111.587 68.4039 112.361C68.5415 112.407 68.6792 112.498 68.8168 112.544C68.8168 112.452 68.8168 112.407 68.7709 112.316Z" fill="white"/>
<path d="M40.3725 99.1478C31.2887 108.443 9.45067 143.527 16.1948 150.18C22.9847 156.923 60.4672 152.686 70.8356 150.726C74.2765 150.089 65.9725 127.443 62.2564 126.896C59.1367 126.441 40.8313 129.995 40.189 129.175C39.6844 128.537 43.3546 120.062 47.4378 106.392C52.1632 90.6273 44.3639 95.047 40.3725 99.1478Z" fill="#AD6359"/>
<path d="M80.0112 123.843C87.8105 123.935 89.7833 125.165 96.4356 121.748C100.794 119.515 104.097 121.337 101.161 125.484C96.3897 132.273 86.2965 134.232 82.5804 133.913L80.0112 123.843Z" fill="#AD6359"/>
<path d="M58.5859 128.081C58.5859 128.081 67.8992 124.664 76.2031 123.935C81.9379 123.433 94.6003 123.752 104.602 137.695C106.987 141.021 107.997 147.4 102.124 143.391C97.9494 140.566 96.206 137.513 93.4533 136.283C93.4533 136.283 93.7745 144.575 90.3336 146.808C88.8196 147.81 84.553 150.407 80.9286 152.002C80.9286 152.002 80.378 151.319 79.7816 150.362C79.7816 150.362 76.3867 152.139 70.6978 150.726L58.5859 128.081Z" fill="#AD6359"/>
<path d="M81.8002 124.345C84.2318 126.122 89.3701 129.995 92.444 134.551C95.8848 139.654 101.069 150.407 97.2612 152.868C94.4626 154.69 92.1228 150.726 92.1228 150.726C92.1228 150.726 93.3157 155.602 90.4253 156.695C87.8103 157.698 86.1587 154.554 86.1587 154.554C86.1587 154.554 86.3881 157.652 83.6354 158.108C80.378 158.655 80.4239 152.093 76.616 149.815C75.7902 149.359 81.8002 124.345 81.8002 124.345Z" fill="#AD6359"/>
<path d="M86.3877 137.24C88.4063 139.29 91.8013 145.122 92.1224 150.635C92.1224 150.772 92.0307 150.818 91.9848 150.726C90.3332 144.712 87.5805 139.427 86.2959 137.285C86.3418 137.239 86.3877 137.24 86.3877 137.24Z" fill="#263238"/>
<path d="M81.2954 140.839C82.8552 142.798 86.0667 148.95 86.2502 154.554C86.2502 154.691 86.1585 154.736 86.1126 154.645C84.6445 148.266 82.3965 143.117 81.2495 140.885C81.2495 140.839 81.2954 140.794 81.2954 140.839Z" fill="#263238"/>
<path d="M93.5453 136.237C95.931 137.331 97.3532 138.789 99.2342 140.566C100.152 141.431 101.115 142.297 102.125 143.072C103.042 143.755 104.418 144.803 105.657 144.12C106.345 143.755 106.437 142.889 106.437 142.16C106.391 141.386 106.208 140.611 105.841 139.882C105.841 139.837 105.887 139.791 105.887 139.837C106.208 140.475 106.483 141.112 106.621 141.842C106.758 142.479 106.804 143.208 106.529 143.801C105.932 145.122 104.327 145.031 103.226 144.484C102.583 144.165 101.987 143.71 101.391 143.254C100.84 142.798 100.289 142.343 99.7848 141.887C98.7296 140.93 97.7203 139.882 96.6651 138.88C95.5181 137.786 94.6923 137.24 93.4077 136.283C93.4536 136.283 93.4995 136.192 93.5453 136.237Z" fill="#263238"/>
<path d="M97.399 145.714C96.9861 144.211 94.3711 137.786 93.4535 136.283C93.4076 136.237 93.4994 136.192 93.4994 136.237C95.151 138.379 97.5366 143.664 98.0413 145.35C98.546 146.99 99.0506 149.086 98.7754 150.818C98.3625 153.415 96.5732 153.643 95.9309 153.643C95.151 153.688 94.4169 153.415 93.7746 152.959C93.0865 152.458 92.4442 151.547 92.0771 150.772C92.0771 150.727 92.123 150.681 92.123 150.727C92.8571 151.866 94.2334 153.096 95.6556 153.141C96.2979 153.141 96.9402 152.959 97.399 152.504C97.9496 151.957 98.0872 151.182 98.1331 150.499C98.2707 148.904 97.8578 147.264 97.399 145.714Z" fill="#263238"/>
<path d="M86.2504 154.554C86.5716 154.918 87.168 156.103 88.315 156.513C89.1408 156.832 90.0583 156.878 90.8383 156.331C91.5723 155.83 91.9393 154.964 92.1228 154.144C92.2146 153.643 92.1687 151.456 92.077 150.818C92.077 150.772 92.1228 150.772 92.1687 150.818C92.3522 152.002 92.5816 153.324 92.3981 154.417C92.2605 155.328 91.8017 156.285 91.0218 156.832C90.196 157.379 89.0949 157.47 88.2232 156.969C87.7644 156.741 86.4798 155.556 86.1587 154.599C86.1587 154.554 86.2504 154.554 86.2504 154.554Z" fill="#263238"/>
<path d="M76.9374 149.451C77.3045 149.77 77.6256 150.18 77.9009 150.544C78.222 150.954 78.4973 151.364 78.8184 151.775C79.4149 152.64 79.8736 153.552 80.2407 154.508C80.6536 155.465 80.9747 156.513 81.7088 157.242C82.4428 157.971 83.5898 158.245 84.5532 157.743C85.0579 157.47 85.4249 157.06 85.6543 156.559C85.8837 156.058 86.0672 155.374 86.1131 154.827C86.1131 154.782 86.2048 154.782 86.2048 154.827C86.1589 155.374 86.2507 155.921 86.0672 156.468C85.9296 156.923 85.7002 157.379 85.3331 157.743C84.5991 158.472 83.498 158.655 82.5346 158.336C81.4794 157.971 80.7912 157.06 80.3324 156.058C79.8278 154.964 79.4607 153.87 78.9102 152.822C78.6349 152.276 78.3138 151.729 77.9926 151.182C77.6256 150.635 77.2127 150.089 76.8916 149.542C76.8457 149.451 76.8916 149.405 76.9374 149.451Z" fill="#263238"/>
<path d="M73.5424 151.182C74.3682 151.228 76.295 151.228 77.8549 150.954C77.9008 150.954 77.9467 151.091 77.9008 151.091C77.3044 151.319 76.1115 151.456 75.7445 151.456C75.0105 151.501 74.2305 151.456 73.5424 151.273C73.5424 151.228 73.4965 151.182 73.5424 151.182Z" fill="#263238"/>
<path d="M21.3789 136.921C23.6269 135.463 26.0126 134.187 28.4441 133.093C30.8756 132 33.3989 131.134 35.9222 130.359C37.3903 129.949 38.8584 129.585 40.3265 129.22C40.3724 129.22 40.3724 129.266 40.3265 129.311C37.7574 130.04 35.2341 130.952 32.7566 131.954C30.2792 132.956 27.8477 134.004 25.462 135.098C24.0857 135.69 22.7552 136.374 21.4247 137.057C21.3789 137.057 21.333 136.966 21.3789 136.921Z" fill="#263238"/>
<path d="M21.7002 121.064L43.3088 120.791C43.3088 120.791 47.5296 110.311 49.2271 100.925C50.9246 91.5384 43.1253 94.2723 34.8213 104.205C26.5174 114.138 21.7002 121.064 21.7002 121.064Z" fill="#FFC727"/>
<path d="M47.1625 109.491C47.1625 109.582 47.1166 109.627 47.1166 109.673C45.6485 110.539 44.2263 111.404 42.7123 112.179C41.9323 112.589 41.1524 112.954 40.3725 113.273C40.3266 113.273 40.3266 113.318 40.2807 113.318C39.9137 113.455 39.5926 113.591 39.2255 113.728C38.0327 114.138 36.794 114.457 35.5094 114.503C34.2707 114.548 33.032 114.229 31.9768 113.637C31.9309 113.637 31.885 113.591 31.885 113.591C31.7474 113.5 31.6556 113.455 31.518 113.364C30.6004 112.771 29.8664 112.042 29.1782 111.177C29.1782 111.177 29.1782 111.131 29.2241 111.131C29.8205 111.906 30.5546 112.589 31.3804 113.136C31.5639 113.273 31.7015 113.364 31.885 113.455L31.9309 113.5C33.032 114.138 34.2707 114.457 35.5553 114.412C36.794 114.366 38.0786 114.093 39.2255 113.637C39.5926 113.5 39.9137 113.364 40.2349 113.227C40.2807 113.227 40.2807 113.181 40.3266 113.181C41.1065 112.862 41.8865 112.498 42.6664 112.088C44.1804 111.268 45.6485 110.356 47.1625 109.491ZM33.5366 116.006C33.0779 115.186 32.5273 114.366 31.9768 113.591C31.9309 113.546 31.885 113.5 31.8392 113.409C31.4721 112.908 31.0592 112.452 30.6004 111.997C30.1875 111.587 29.7746 111.222 29.3159 110.949C29.27 110.994 29.2241 111.04 29.1782 111.085C29.637 111.404 30.0499 111.769 30.4628 112.133C30.784 112.452 31.0592 112.771 31.3345 113.09C31.3804 113.181 31.4263 113.227 31.518 113.318C32.2062 114.184 32.8026 115.141 33.3531 116.098C34.2248 117.647 35.0506 119.241 35.7847 120.882H36.0141C35.2341 119.241 34.4542 117.601 33.5366 116.006ZM43.5381 117.738C43.2169 117.373 42.8958 117.009 42.5746 116.644C42.2535 116.28 41.9782 115.915 41.6571 115.505C41.1524 114.822 40.6936 114.093 40.3266 113.318C40.3266 113.273 40.2807 113.227 40.2807 113.227C40.2349 113.181 40.2349 113.09 40.189 113.045C39.3632 111.313 38.9503 109.354 38.9503 107.44C38.9044 105.527 39.2714 103.567 39.822 101.745C40.2807 100.378 40.8313 99.011 41.4736 97.7352L41.4277 97.7807C40.7854 99.0565 40.2349 100.378 39.7761 101.745C39.1797 103.613 38.8585 105.527 38.8585 107.486C38.8585 109.445 39.2714 111.359 40.0972 113.136C40.1431 113.181 40.1431 113.273 40.189 113.318C40.189 113.364 40.2349 113.409 40.2349 113.409C40.6019 114.184 41.0607 114.913 41.5653 115.642C41.8406 116.052 42.1617 116.416 42.4829 116.781C42.804 117.145 43.0793 117.51 43.4463 117.875C43.6757 118.148 43.9051 118.376 44.1345 118.649C44.1345 118.604 44.1804 118.558 44.1804 118.512C43.951 118.239 43.7675 117.966 43.5381 117.738ZM46.5202 99.8311C46.1073 99.1021 45.832 98.2819 45.6485 97.4618C45.5108 96.7783 45.465 96.0948 45.5108 95.4114C45.465 95.4114 45.3732 95.4569 45.3273 95.4569C45.2815 96.1404 45.3273 96.8239 45.465 97.5073C45.6485 98.3731 45.9696 99.1476 46.3366 99.9222C46.9331 101.107 47.8047 102.109 48.7682 103.021C48.7682 102.975 48.8141 102.884 48.8141 102.838C47.9424 101.927 47.1166 100.925 46.5202 99.8311Z" fill="white"/>
<path d="M42.4372 120.699C42.5749 120.699 43.3089 120.563 43.3089 120.563C43.3548 120.289 44.6853 115.87 45.0064 114.913C45.6946 112.954 46.5204 111.04 47.3003 109.126C47.3462 109.081 47.4379 109.081 47.3921 109.172C46.8874 110.812 46.3828 112.498 45.8322 114.138C45.9698 113.91 46.1534 113.683 46.291 113.455C46.6121 112.954 46.8415 112.452 47.1627 111.951C47.2086 111.906 47.2544 111.951 47.2544 111.997C47.025 112.68 46.658 113.364 46.2451 113.956C46.0616 114.229 45.8781 114.457 45.6487 114.685C45.6028 114.822 45.5569 114.958 45.5111 115.095C45.1899 116.052 43.4924 120.836 43.4465 120.836C43.4465 120.836 42.6666 120.836 42.3914 120.836C42.3914 120.836 42.3455 120.699 42.4372 120.699Z" fill="#263238"/>
<path d="M25.2787 117.009C29.9582 116.735 34.6378 116.827 39.3174 116.963C40.6478 117.009 41.9783 117.1 43.2629 117.191C43.3088 117.191 43.3088 117.237 43.2629 117.237C40.9231 117.328 38.5833 117.282 36.2894 117.282C33.9496 117.282 31.6099 117.237 29.2701 117.191C27.9396 117.146 26.6091 117.1 25.3245 117.054C25.2328 117.1 25.2328 117.009 25.2787 117.009Z" fill="#263238"/>
<path d="M48.3555 95.0469C48.4932 95.9581 52.5304 102.109 56.7054 102.155C58.0817 102.155 58.4946 94.7735 58.4946 94.7735L58.6322 94.2267L60.7885 86.7086L52.1175 80.4207L50.8788 79.6006C50.8788 79.6006 50.42 81.6965 49.8695 84.3393C49.8236 84.476 49.8236 84.5671 49.7778 84.7038C49.7319 84.8405 49.686 84.9772 49.686 85.1139C49.5942 85.5239 49.5025 85.8884 49.4566 86.2985C49.4107 86.6175 49.319 86.8909 49.2731 87.2098C49.2272 87.5288 49.1813 87.8477 49.0896 88.1667C48.5849 91.3561 48.3097 94.6823 48.3555 95.0469Z" fill="#AD6359"/>
<path d="M49.8696 84.3393C51.7048 90.5361 56.4761 93.3155 58.6324 94.2723L60.7886 86.7542L52.1177 80.4664L50.8789 79.6462C50.8789 79.6007 50.4202 81.6966 49.8696 84.3393Z" fill="#263238"/>
<path d="M70.4685 71.6268C74.3681 84.8404 66.8441 88.6678 63.9997 89.488C61.3846 90.2625 52.4384 92.4952 47.1624 79.7828C41.8864 67.0704 46.8412 61.0559 52.7136 59.0055C58.586 56.9551 66.5688 58.4587 70.4685 71.6268Z" fill="#AD6359"/>
<path d="M67.9454 69.8954C67.6242 69.9409 67.3031 69.9409 66.9819 69.9409C66.6149 69.9409 66.3396 69.9865 66.0185 69.8043C65.835 69.7131 65.7891 69.3942 65.8808 69.2119C66.0644 68.8018 66.5231 68.6652 66.9819 68.6196C67.4407 68.574 67.8536 68.6651 68.2206 68.9385C68.5876 69.2575 68.3583 69.8498 67.9454 69.8954Z" fill="#263238"/>
<path d="M58.9992 72.4014C59.3203 72.2647 59.5497 72.1281 59.8708 71.9914C60.192 71.8091 60.4673 71.718 60.6508 71.399C60.7425 71.2168 60.6508 70.9434 60.5131 70.8067C60.1461 70.5333 59.6873 70.67 59.2744 70.8523C58.8615 71.0345 58.5404 71.3079 58.3569 71.7635C58.0816 72.1281 58.5863 72.5381 58.9992 72.4014Z" fill="#263238"/>
<path d="M61.4305 75.1355C61.4305 75.0899 61.3847 75.181 61.3847 75.2266C61.6599 76.1379 61.8893 77.1859 61.1553 77.7326V77.7782C62.1187 77.3681 61.8893 75.9556 61.4305 75.1355Z" fill="#263238"/>
<path d="M60.3753 74.4519C58.9072 74.7708 59.6412 77.687 61.0176 77.4136C62.348 77.0946 61.614 74.1785 60.3753 74.4519Z" fill="#263238"/>
<path d="M59.8249 74.7252C59.5955 74.9531 59.412 75.3176 59.1367 75.4087C58.7697 75.5454 58.4486 75.3176 58.1274 75.0442C58.0815 74.9986 58.0815 75.0442 58.0815 75.0897C58.2192 75.6365 58.5862 76.1833 59.2285 76.0922C59.779 76.0466 60.0543 75.4087 60.0543 74.8164C60.0543 74.7708 59.9167 74.6341 59.8249 74.7252Z" fill="#263238"/>
<path d="M66.7983 73.586C66.7983 73.5404 66.8901 73.6316 66.8901 73.6316C67.0736 74.5429 67.4865 75.5453 68.3582 75.682C68.4041 75.682 68.4041 75.7275 68.3582 75.7275C67.3489 75.8186 66.8442 74.4517 66.7983 73.586Z" fill="#263238"/>
<path d="M67.3949 72.4014C68.863 71.9458 69.6888 74.8619 68.3583 75.272C67.0278 75.7276 66.1562 72.8115 67.3949 72.4014Z" fill="#263238"/>
<path d="M68.037 72.4471C68.3123 72.5382 68.6334 72.766 68.9087 72.6749C69.2298 72.5838 69.3675 72.2192 69.5051 71.8547C69.5051 71.8092 69.551 71.8547 69.551 71.8547C69.7345 72.4015 69.6886 73.0394 69.184 73.3128C68.7252 73.5406 68.2205 73.1761 67.9452 72.6749C67.8994 72.5838 67.9452 72.4015 68.037 72.4471Z" fill="#263238"/>
<path d="M63.4492 82.8355C63.7244 83.0178 63.9997 83.2456 64.3209 83.2C64.642 83.1545 65.009 82.9266 65.2843 82.7444C65.3302 82.7444 65.3302 82.7444 65.3302 82.7899C65.1467 83.2 64.6879 83.519 64.275 83.519C63.8621 83.519 63.5409 83.2 63.3574 82.8355C63.3574 82.8355 63.4033 82.7899 63.4492 82.8355Z" fill="#263238"/>
<path d="M66.4772 78.2335C66.4772 78.2335 67.0277 79.5549 67.2112 80.1928C67.2112 80.2383 65.0091 81.3319 63.5868 80.0561C63.541 80.0105 63.5868 79.9194 63.6786 79.965C64.6879 80.375 65.6514 80.2839 66.6607 80.0105C66.6607 79.8283 65.6514 77.8234 65.7431 77.7779C66.0643 77.6412 66.8442 77.6868 67.303 77.7323C66.2478 74.9985 64.7338 72.4469 63.7245 69.6674C63.6786 69.5763 63.8162 69.4852 63.8621 69.5763C65.6514 72.1279 66.9359 75.2718 68.0829 78.0968C68.2205 78.4158 66.7983 78.2791 66.4772 78.2335Z" fill="#263238"/>
<path d="M66.4772 80.1929C66.4772 80.1929 66.2019 81.1042 65.5137 81.651C65.2843 81.8332 65.0091 81.9699 64.642 82.0155C63.9539 82.0611 63.7245 81.5143 63.6786 80.9675C63.6327 80.5119 63.6786 80.1018 63.6786 80.1018C63.6786 80.1018 64.9632 80.6486 66.4772 80.1929Z" fill="#263238"/>
<path d="M65.5138 81.651C65.2844 81.8332 65.0092 81.9699 64.6421 82.0155C63.954 82.061 63.7246 81.5143 63.6787 80.9675C64.4128 80.7852 65.2386 81.0131 65.5138 81.651Z" fill="#FF99BA"/>
<path d="M47.8508 81.4687C50.6035 79.5094 50.1906 76.3655 50.1906 76.3655C53.6773 74.0873 55.1454 70.8522 55.3289 70.5333C55.2831 70.8522 55.0078 72.9482 54.8243 74.0417C63.1741 70.8522 64.6881 63.7898 64.6881 63.7898C67.9913 66.068 68.863 67.7538 69.4594 68.574C69.4594 68.574 68.5877 63.2886 65.1927 60.2358C61.0637 56.4995 56.6594 58.1398 56.6594 58.1398C56.6594 58.1398 49.5483 57.3652 45.3275 63.9265C40.7856 70.9889 47.8508 81.4687 47.8508 81.4687Z" fill="#263238"/>
<path d="M61.1095 71.399C59.8708 72.4014 58.4027 73.2216 56.9346 73.8139C59.2744 72.6748 61.2012 71.0345 62.6235 68.8474C63.2199 67.9361 63.6787 66.9337 64.0457 65.9313C64.4127 64.8377 64.7339 63.5619 64.5962 62.4228C64.5962 62.3317 64.7339 62.3317 64.7339 62.4228C64.8256 63.6075 64.9174 64.7466 64.6421 65.9313C64.3668 67.0704 63.908 68.1639 63.2199 69.1208C62.6693 69.9865 61.9353 70.7611 61.1095 71.399Z" fill="#263238"/>
<path d="M60.7426 79.965C58.9533 80.2384 57.1182 79.2815 56.3841 77.5501C55.5125 75.4997 56.4759 73.1304 58.5404 72.2191C60.6049 71.3534 62.9906 72.3102 63.9082 74.3606C64.7798 76.411 63.8164 78.7803 61.7519 79.6916C61.3849 79.8283 61.0637 79.9194 60.7426 79.965ZM59.5497 72.4925C59.2745 72.538 58.9992 72.6292 58.7239 72.7203C56.9347 73.4949 56.1089 75.5453 56.8888 77.3223C57.6687 79.0993 59.7332 79.9194 61.5225 79.1449C63.3117 78.3703 64.1375 76.3199 63.3576 74.5429C62.6694 73.0848 61.1096 72.2647 59.5497 72.4925Z" fill="#FFC727"/>
<path d="M69.6886 77.4135C68.1288 77.6413 66.523 76.3199 65.9266 74.2695C65.6514 73.2671 65.6514 72.1736 65.9725 71.3079C66.2937 70.3966 66.936 69.7587 67.7159 69.5764C68.4958 69.3486 69.3675 69.5764 70.1474 70.1688C70.8815 70.7611 71.432 71.6268 71.7532 72.6748C72.3496 74.8163 71.5238 76.9123 69.918 77.3679C69.8722 77.3679 69.7804 77.4135 69.6886 77.4135ZM68.1288 70.0321C68.0829 70.0321 67.9912 70.0776 67.9453 70.0776C67.303 70.2599 66.8442 70.7611 66.5689 71.4901C66.2937 72.2647 66.2478 73.176 66.523 74.0873C67.0277 75.9554 68.5417 77.1856 69.8722 76.7756C71.2026 76.411 71.8449 74.5885 71.3403 72.7203C71.065 71.8091 70.5603 71.0345 69.918 70.4877C69.3216 70.1687 68.6793 69.9409 68.1288 70.0321Z" fill="#FFC727"/>
<path d="M63.8162 74.8619L63.3574 74.543C63.8162 73.8595 65.009 72.8115 66.2477 73.5861L65.9725 74.0418C64.8714 73.4039 63.8621 74.8164 63.8162 74.8619Z" fill="#FFC727"/>
<path d="M46.658 80.694L46.1074 80.6028C46.1533 80.375 46.658 78.1879 47.759 77.6412C48.8142 77.1855 56.0171 75.8642 56.3382 75.8186L56.43 76.3654C54.3655 76.7299 48.8142 77.7779 47.9884 78.1424C47.2544 78.5069 46.7497 80.1016 46.658 80.694Z" fill="#FFC727"/>
<path d="M49.64 79.2361C49.64 79.2361 45.8321 75.6365 44.0887 77.049C42.3912 78.507 45.8321 84.157 48.2636 84.5215C50.6952 84.886 51.1081 82.6534 51.1081 82.6534L49.64 79.2361Z" fill="#AD6359"/>
<path d="M45.1438 78.6436C45.0979 78.6436 45.0979 78.6892 45.1438 78.6892C46.8413 79.0081 47.9882 80.2839 48.8599 81.6964C48.2635 81.1952 47.5753 81.013 46.8872 81.742C46.8413 81.7876 46.8872 81.8331 46.933 81.8331C47.5753 81.5597 48.0341 81.5597 48.5846 82.0154C48.9517 82.3343 49.2728 82.7444 49.594 83.1089C49.6857 83.2456 49.9151 83.1089 49.8692 82.9722C49.8692 82.9722 49.8692 82.9722 49.8692 82.9267C49.5022 80.9218 47.3459 78.4158 45.1438 78.6436Z" fill="#263238"/>
<path d="M46.6577 96.0493C47.2083 96.7328 47.7588 97.4162 48.3552 98.0997C48.9516 98.7832 49.548 99.4211 50.1903 100.013C51.4749 101.198 52.8513 102.383 54.457 103.066C55.2369 103.385 56.1086 103.613 56.9344 103.476C57.3473 103.431 57.7143 103.294 57.9896 102.975C58.2649 102.656 58.4484 102.292 58.586 101.882C58.8613 101.061 58.9989 100.196 59.0448 99.3299C59.1366 98.4642 59.1366 97.5529 59.0448 96.6872C59.2283 97.5529 59.2742 98.4642 59.2742 99.3299C59.2742 100.241 59.1824 101.107 58.9072 101.973C58.7695 102.428 58.586 102.838 58.2649 103.203C58.1273 103.385 57.8979 103.567 57.6685 103.659C57.4391 103.75 57.2097 103.795 56.9803 103.841C56.0627 103.977 55.0993 103.795 54.2735 103.431C53.4477 103.066 52.6678 102.565 51.9337 102.018C51.1997 101.471 50.5574 100.879 49.9151 100.241C48.7222 98.9199 47.5753 97.5529 46.6577 96.0493Z" fill="#263238"/>
<path d="M39.7764 57.6843H15.6445V68.4375H39.7764V57.6843Z" fill="#455A64"/>
<path d="M22.8473 63.5622H21.838V65.3392C21.838 65.5671 21.6545 65.7949 21.3792 65.7949C21.1498 65.7949 20.9204 65.6126 20.9204 65.3392V60.555C20.9204 60.2816 21.1039 60.0994 21.3792 60.0994H22.8473C23.8107 60.0994 24.5907 60.874 24.5907 61.8308C24.5907 62.7877 23.8107 63.5622 22.8473 63.5622ZM21.838 62.651H22.8473C23.3061 62.651 23.6731 62.2864 23.6731 61.8308C23.6731 61.3752 23.3061 61.0106 22.8473 61.0106H21.838V62.651Z" fill="white"/>
<path d="M25.6919 65.2936V60.5094C25.6919 60.236 25.8754 60.0537 26.1507 60.0537C26.4259 60.0537 26.6095 60.236 26.6095 60.5094V62.4686H28.7199V60.5094C28.7199 60.236 28.9034 60.0537 29.1786 60.0537C29.4539 60.0537 29.6374 60.236 29.6374 60.5094V65.2936C29.6374 65.567 29.4539 65.7492 29.1786 65.7492C28.9034 65.7492 28.7199 65.567 28.7199 65.2936V63.3343H26.6095V65.2936C26.6095 65.567 26.4259 65.7492 26.1507 65.7492C25.8754 65.7492 25.6919 65.567 25.6919 65.2936Z" fill="white"/>
<path d="M33.3531 63.5622H32.3438V65.3392C32.3438 65.5671 32.1603 65.7949 31.8851 65.7949C31.6557 65.7949 31.4263 65.6126 31.4263 65.3392V60.555C31.4263 60.2816 31.6098 60.0994 31.8851 60.0994H33.3531C34.3166 60.0994 35.0965 60.874 35.0965 61.8308C35.0965 62.7877 34.3166 63.5622 33.3531 63.5622ZM32.3438 62.651H33.3531C33.8119 62.651 34.179 62.2864 34.179 61.8308C34.179 61.3752 33.8119 61.0106 33.3531 61.0106H32.3438V62.651Z" fill="white"/>
<path d="M90.7012 24.468H47.7593V51.6698H90.7012V24.468Z" fill="white"/>
<path d="M90.9764 51.9432H47.4839V24.1946H90.9764V51.9432ZM48.0344 51.442H90.4717V24.7414H48.0344V51.442Z" fill="#EBEBEB"/>
<path d="M90.7012 24.468H47.7593V29.6168H90.7012V24.468Z" fill="#455A64"/>
<path d="M90.9764 29.8901H47.4839V24.1946H90.9764V29.8901ZM48.0344 29.3433H90.4717V24.7414H48.0344V29.3433Z" fill="#EBEBEB"/>
<path d="M52.6224 27.0651C52.6224 27.7941 52.026 28.3409 51.3378 28.3409C50.6038 28.3409 50.0532 27.7486 50.0532 27.0651C50.0532 26.3361 50.6496 25.7893 51.3378 25.7893C52.026 25.7893 52.6224 26.3816 52.6224 27.0651Z" fill="#FFC727"/>
<path d="M57.9442 27.0651C57.9442 27.7941 57.3478 28.3409 56.6596 28.3409C55.9255 28.3409 55.375 27.7486 55.375 27.0651C55.375 26.3361 55.9714 25.7893 56.6596 25.7893C57.3936 25.7893 57.9442 26.3816 57.9442 27.0651Z" fill="#EBEBEB"/>
<path d="M63.2659 27.0651C63.2659 27.7941 62.6695 28.3409 61.9814 28.3409C61.2473 28.3409 60.6968 27.7486 60.6968 27.0651C60.6968 26.3361 61.2932 25.7893 61.9814 25.7893C62.7154 25.7893 63.2659 26.3816 63.2659 27.0651Z" fill="white"/>
<path d="M55.7876 39.7774C55.7876 36.9524 58.2191 34.6287 61.0636 34.6287C62.3482 34.6287 63.4951 35.0387 64.4127 35.7678C64.7797 36.0412 64.8256 36.5424 64.5503 36.9069C64.2751 37.2714 63.7245 37.317 63.4034 37.0436C62.7611 36.5424 61.9812 36.269 61.0636 36.269C60.0543 36.269 59.1367 36.6791 58.4485 37.317C57.8062 37.9548 57.3933 38.8206 57.3933 39.823C57.3933 40.7798 57.8062 41.6911 58.4485 42.329C59.1367 42.9669 60.0543 43.377 61.0636 43.377C61.9812 43.377 62.7152 43.1036 63.4034 42.6024C63.7245 42.3746 64.2751 42.4201 64.5503 42.7391C64.8256 43.1036 64.7338 43.6048 64.4127 43.8782C63.4951 44.5617 62.3482 45.0173 61.0636 45.0173C58.2191 44.9717 55.7876 42.648 55.7876 39.7774Z" fill="black"/>
<path d="M69.8264 40.8256H67.7619C67.349 40.8256 66.9819 40.4611 66.9819 40.051C66.9819 39.6409 67.349 39.2764 67.7619 39.2764H69.8264V37.2716C69.8264 36.8159 70.1934 36.4514 70.6522 36.4514C71.111 36.4514 71.478 36.8159 71.478 37.2716V39.2764H73.5425C73.9554 39.2764 74.3224 39.6409 74.3224 40.051C74.3224 40.5066 73.9554 40.8256 73.5425 40.8256H71.478V42.8304C71.478 43.286 71.111 43.6506 70.6522 43.6506C70.1934 43.6506 69.8264 43.286 69.8264 42.8304V40.8256Z" fill="black"/>
<path d="M78.7727 40.8256H76.7081C76.2952 40.8256 75.9282 40.4611 75.9282 40.051C75.9282 39.6409 76.2952 39.2764 76.7081 39.2764H78.7727V37.2716C78.7727 36.8159 79.1397 36.4514 79.5985 36.4514C80.0573 36.4514 80.4243 36.8159 80.4243 37.2716V39.2764H82.4888C82.9017 39.2764 83.2687 39.6409 83.2687 40.051C83.2687 40.5066 82.9017 40.8256 82.4888 40.8256H80.4243V42.8304C80.4243 43.286 80.0573 43.6506 79.5985 43.6506C79.1397 43.6506 78.7727 43.286 78.7727 42.8304V40.8256Z" fill="black"/>
<g opacity="0.6">
<path d="M170.392 30.6191H98.73V80.4664H170.392V30.6191Z" fill="white"/>
<path d="M170.667 80.7397H98.4546V30.3457H170.667V80.7397ZM99.0051 80.1929H170.116V30.8925H99.0051V80.1929Z" fill="#EBEBEB"/>
<path d="M170.392 30.6191H98.73V35.7679H170.392V30.6191Z" fill="#455A64"/>
<path d="M170.667 36.0412H98.4546V30.3457H170.667V36.0412ZM99.0051 35.4945H170.116V30.8925H99.0051V35.4945Z" fill="#EBEBEB"/>
<path d="M103.593 33.2162C103.593 33.9453 102.997 34.492 102.309 34.492C101.62 34.492 101.024 33.8997 101.024 33.2162C101.024 32.4872 101.62 31.9404 102.309 31.9404C102.997 31.9404 103.593 32.4872 103.593 33.2162Z" fill="#FFC727"/>
<path d="M108.915 33.2162C108.915 33.9453 108.318 34.492 107.63 34.492C106.896 34.492 106.346 33.8997 106.346 33.2162C106.346 32.4872 106.942 31.9404 107.63 31.9404C108.318 31.9404 108.915 32.4872 108.915 33.2162Z" fill="#EBEBEB"/>
<path d="M114.237 33.2162C114.237 33.9453 113.64 34.492 112.952 34.492C112.264 34.492 111.667 33.8997 111.667 33.2162C111.667 32.4872 112.264 31.9404 112.952 31.9404C113.64 31.9404 114.237 32.4872 114.237 33.2162Z" fill="white"/>
<path d="M107.034 45.9741H104.281V46.9765H107.034V45.9741Z" fill="#EBEBEB"/>
<path d="M140.892 45.9741H109.099V46.9765H140.892V45.9741Z" fill="#EBEBEB"/>
<path d="M147.819 45.9741H142.543V46.9765H147.819V45.9741Z" fill="#FFC727"/>
<path d="M158.051 45.9741H148.967V46.9765H158.051V45.9741Z" fill="#A6A6A6"/>
<path d="M109.832 48.6624H107.08V49.6648H109.832V48.6624Z" fill="#EBEBEB"/>
<path d="M132.634 48.6624H111.759V49.6648H132.634V48.6624Z" fill="#A6A6A6"/>
<path d="M129.01 56.7729H109.099V57.7754H129.01V56.7729Z" fill="#A6A6A6"/>
<path d="M125.752 51.3962H111.759V52.3987H125.752V51.3962Z" fill="#FFC727"/>
<path d="M151.398 54.0845H146.076V55.0869H151.398V54.0845Z" fill="#A6A6A6"/>
<path d="M149.609 51.3962H127.312V52.3987H149.609V51.3962Z" fill="#A6A6A6"/>
<path d="M135.754 59.4612H109.099V60.4636H135.754V59.4612Z" fill="#FFC727"/>
<path d="M162.822 48.6624H148.37V49.6648H162.822V48.6624Z" fill="#FFC727"/>
<path d="M147.269 48.6624H133.964V49.6648H147.269V48.6624Z" fill="#EBEBEB"/>
<path d="M159.656 51.3962H150.664V52.3987H159.656V51.3962Z" fill="#EBEBEB"/>
<path d="M109.832 51.3962H107.08V52.3987H109.832V51.3962Z" fill="#EBEBEB"/>
<path d="M107.034 54.0845H104.281V55.0869H107.034V54.0845Z" fill="#A6A6A6"/>
<path d="M125.477 54.0845H109.099V55.0869H125.477V54.0845Z" fill="#EBEBEB"/>
<path d="M147.82 56.7729H130.111V57.7754H147.82V56.7729Z" fill="#EBEBEB"/>
<path d="M160.207 56.7729H148.967V57.7754H160.207V56.7729Z" fill="#FFC727"/>
<path d="M144.792 54.0845H127.128V55.0869H144.792V54.0845Z" fill="#FFC727"/>
<path d="M107.034 56.7729H104.281V57.7754H107.034V56.7729Z" fill="#EBEBEB"/>
<path d="M107.034 59.4612H104.281V60.4636H107.034V59.4612Z" fill="#EBEBEB"/>
<path d="M106.025 43.3314C106.117 43.4226 106.117 43.5593 106.025 43.6504C105.979 43.696 105.933 43.696 105.841 43.696C105.795 43.696 105.704 43.696 105.658 43.6504L104.603 42.5569C104.603 42.5569 104.603 42.5569 104.603 42.5113C104.603 42.5113 104.603 42.5113 104.603 42.4657C104.603 42.4657 104.603 42.4657 104.603 42.4202C104.603 42.4202 104.603 42.4202 104.603 42.3746V42.329C104.603 42.329 104.603 42.329 104.603 42.2835L105.658 41.1899C105.749 41.0988 105.887 41.0988 105.979 41.1899C106.071 41.2811 106.071 41.4177 105.979 41.5089L105.061 42.4202L106.025 43.3314Z" fill="#FFC727"/>
<path d="M106.988 43.4682L107.906 41.2811C107.952 41.19 108.089 41.1444 108.181 41.19C108.273 41.2356 108.319 41.3723 108.273 41.4634L107.355 43.6505C107.309 43.7416 107.263 43.7872 107.172 43.7872C107.172 43.7872 107.126 43.7872 107.08 43.7872C106.988 43.696 106.942 43.5593 106.988 43.4682Z" fill="#FFC727"/>
<path d="M110.108 42.6025L109.007 43.696C108.961 43.7416 108.915 43.7416 108.823 43.7416C108.777 43.7416 108.685 43.7416 108.64 43.696C108.548 43.6049 108.548 43.4682 108.64 43.3771L109.557 42.4658L108.64 41.5545C108.548 41.4634 108.548 41.3267 108.64 41.2356C108.731 41.1445 108.869 41.1445 108.961 41.2356L110.016 42.3291C110.016 42.3291 110.016 42.3291 110.062 42.3747C110.062 42.3747 110.062 42.3747 110.062 42.4203C110.062 42.4203 110.062 42.4203 110.062 42.4658C110.062 42.4658 110.062 42.4658 110.062 42.5114C110.062 42.5114 110.062 42.5114 110.062 42.5569C110.154 42.5114 110.154 42.5114 110.108 42.6025Z" fill="#FFC727"/>
</g>
<path d="M55.4665 14.4438H26.1963V25.197H55.4665V14.4438Z" fill="#FFC727"/>
<path d="M30.417 22.0531V17.2689C30.417 16.9955 30.6005 16.8132 30.8758 16.8132C31.151 16.8132 31.3346 16.9955 31.3346 17.2689V19.2281H33.4449V17.2689C33.4449 16.9955 33.6285 16.8132 33.9037 16.8132C34.179 16.8132 34.3625 16.9955 34.3625 17.2689V22.0531C34.3625 22.3265 34.179 22.5088 33.9037 22.5088C33.6285 22.5088 33.4449 22.3265 33.4449 22.0531V20.0939H31.3346V22.0531C31.3346 22.3265 31.151 22.5088 30.8758 22.5088C30.6005 22.5088 30.417 22.3265 30.417 22.0531Z" fill="white"/>
<path d="M39.6843 17.7245H38.3997V22.0531C38.3997 22.3265 38.2162 22.5088 37.9409 22.5088C37.7115 22.5088 37.4821 22.3265 37.4821 22.0531V17.7245H36.1976C35.9223 17.7245 35.7388 17.4967 35.7388 17.2689C35.7388 16.9955 35.9223 16.8132 36.1976 16.8132H39.6843C39.9137 16.8132 40.1431 16.9955 40.1431 17.2689C40.0972 17.5423 39.9137 17.7245 39.6843 17.7245Z" fill="white"/>
<path d="M46.3826 17.2689V22.0531C46.3826 22.2809 46.1532 22.5088 45.9238 22.5088C45.6485 22.5088 45.465 22.3265 45.465 22.0531V18.6358L44.2722 20.2761C44.1804 20.4128 44.0428 20.4584 43.9052 20.4584C43.7675 20.4584 43.6299 20.4128 43.5381 20.2761L42.3912 18.6358V22.0531C42.3912 22.2809 42.2077 22.5088 41.9324 22.5088C41.703 22.5088 41.4736 22.3265 41.4736 22.0531V17.2689C41.4736 17.0411 41.6571 16.8132 41.9324 16.8132C41.9324 16.8132 41.9324 16.8132 41.9783 16.8132C42.1159 16.8132 42.2536 16.8588 42.3453 16.9955L43.9511 19.2281L45.5568 16.9955C45.6485 16.8588 45.7862 16.8132 45.9238 16.8132C46.1532 16.8588 46.3826 17.0411 46.3826 17.2689Z" fill="white"/>
<path d="M48.3555 22.0531V17.2689C48.3555 17.0411 48.539 16.8132 48.8143 16.8132C49.0895 16.8132 49.273 16.9955 49.273 17.2689V21.5975H51.4752C51.7046 21.5975 51.934 21.7797 51.934 22.0531C51.934 22.2809 51.7046 22.5088 51.4752 22.5088H48.8143C48.539 22.5088 48.3555 22.2809 48.3555 22.0531Z" fill="white"/>
<path d="M102.171 72.4016H85.8379V83.1548H102.171V72.4016Z" fill="#FFC727"/>
<path d="M90.2881 78.8261C90.4258 79.2362 90.8387 79.5551 91.3433 79.5551C91.9398 79.5551 92.4444 79.0539 92.4444 78.4616V75.3632C92.4444 75.1354 92.6279 74.9531 92.9032 74.9531C93.1326 74.9531 93.3161 75.1354 93.3161 75.3632V78.4616C93.3161 79.5551 92.4444 80.4208 91.3433 80.4208C90.4717 80.4208 89.7376 79.8741 89.4623 79.0539C89.3706 78.8261 89.5082 78.5983 89.7376 78.5071C89.967 78.4616 90.1964 78.5983 90.2881 78.8261Z" fill="white"/>
<path d="M94.3715 79.0539C94.5092 78.8716 94.7844 78.8716 94.968 79.0083C95.335 79.2817 95.9314 79.6006 96.4819 79.6006C96.8948 79.6006 97.216 79.464 97.4454 79.3273C97.6748 79.145 97.7665 78.9627 97.7665 78.7805C97.7665 78.6894 97.7206 78.5982 97.6748 78.5071C97.6289 78.416 97.5371 78.3704 97.4454 78.2793C97.216 78.1426 96.849 78.0059 96.3443 77.9148C95.9773 77.8236 95.6103 77.7325 95.335 77.5958C95.0138 77.4591 94.7844 77.2769 94.6009 77.0035C94.4633 76.8212 94.4174 76.5934 94.4174 76.3656C94.4174 75.91 94.6927 75.4999 95.0597 75.2265C95.4267 74.9531 95.9314 74.8164 96.4361 74.8164C97.216 74.8164 97.7665 75.1809 98.1335 75.4543C98.3171 75.591 98.3629 75.8188 98.2253 76.0011C98.0877 76.1833 97.8583 76.2289 97.6748 76.1378C97.2619 75.8644 96.8948 75.6366 96.3902 75.6366C96.0232 75.6366 95.702 75.7277 95.5185 75.91C95.2891 76.0466 95.1973 76.2289 95.1973 76.4112C95.1973 76.5023 95.1973 76.5478 95.2432 76.639C95.2891 76.6845 95.335 76.7757 95.4726 76.8212C95.6561 76.9579 96.0232 77.0946 96.4361 77.1857C96.849 77.2769 97.216 77.368 97.5371 77.5047C97.8583 77.6414 98.1335 77.8692 98.3171 78.1426C98.4547 78.3249 98.5006 78.5527 98.5006 78.8261C98.5006 79.3273 98.2253 79.7373 97.8124 80.0563C97.4454 80.3297 96.8948 80.5119 96.3443 80.5119C95.4726 80.5119 94.7844 80.1019 94.3257 79.7373C94.2798 79.5095 94.2339 79.2361 94.3715 79.0539Z" fill="white"/>
<path opacity="0.6" d="M30.3254 148.813C30.3254 148.813 40.3727 144.211 40.3727 138.059C40.3727 131.908 27.3433 127.944 27.3433 123.16C27.3433 118.33 33.0322 115.505 33.0322 115.505C33.0322 115.505 24.0859 118.558 24.0859 124.618C24.0859 130.678 32.6651 134.824 33.491 138.697C34.592 144.074 30.3254 148.813 30.3254 148.813Z" fill="#DBDBDB"/>
<path opacity="0.6" d="M30.83 148.813C30.83 148.813 20.7827 145.213 20.7827 140.383C20.7827 135.553 33.8121 132.409 33.8121 128.673C33.8121 124.891 28.1232 122.659 28.1232 122.659C28.1232 122.659 37.0695 125.028 37.0695 129.812C37.0695 134.597 27.2057 137.877 26.5175 141.75C25.8293 145.577 30.83 148.813 30.83 148.813Z" fill="#DBDBDB"/>
<path d="M35.1882 164.259H25.6455V165.717H35.1882V164.259Z" fill="#37474F"/>
<path d="M35.1882 164.259H25.6455V165.216H35.1882V164.259Z" fill="#263238"/>
<path d="M14.3138 160.295C15.4607 161.889 17.4335 162.983 19.6815 162.573C20.0027 162.527 20.3238 162.436 20.645 162.3C21.1037 162.117 21.5166 161.889 21.9754 161.616L20.7826 159.839C20.5532 160.021 20.2779 160.158 20.0485 160.249C17.7546 161.252 16.3324 159.475 16.0571 159.064C14.7267 157.242 14.2679 153.05 15.5984 151.455C15.6901 151.319 16.0571 151.136 17.617 151.455C17.8923 151.501 18.2134 151.592 18.5804 151.683C18.9933 151.774 19.2227 151.865 19.4521 151.865L19.498 150.772L19.5898 149.724C19.498 149.724 19.3145 149.678 19.131 149.587C18.5346 149.45 17.7546 149.223 16.9747 149.131C15.8278 148.995 14.6808 149.131 13.9468 150.043C11.8364 152.731 12.708 158.017 14.3138 160.295Z" fill="#37474F"/>
<path d="M20.8283 159.793C20.5989 159.976 20.3236 160.112 20.0942 160.204L20.6907 162.299C21.1494 162.117 21.5623 161.889 22.0211 161.616L20.8283 159.793Z" fill="#263238"/>
<path d="M17.0205 149.177L17.6628 151.455C17.9381 151.501 18.2592 151.592 18.6262 151.683C19.0391 151.774 19.2685 151.865 19.4979 151.865L19.5438 150.772L19.6356 149.724C19.5438 149.724 19.3603 149.678 19.1768 149.587C18.6262 149.496 17.8463 149.268 17.0205 149.177Z" fill="#263238"/>
<path d="M43.1255 146.398C43.1255 146.398 41.9785 156.057 40.0058 160.113C38.033 164.168 35.2803 164.623 33.5369 164.623C31.8394 164.623 31.9771 164.623 30.4172 164.623C28.8574 164.623 28.995 164.623 27.2975 164.623C25.6 164.623 22.8015 164.168 20.8287 160.113C18.8559 156.057 17.709 146.398 17.709 146.398H43.1255Z" fill="#37474F"/>
<path d="M41.7492 154.417C41.5657 155.328 41.3363 156.194 41.107 157.014H19.7277C19.4984 156.194 19.269 155.283 19.0854 154.417H41.7492Z" fill="#455A64"/>
<path d="M40.8316 158.017C40.694 158.472 40.5564 158.928 40.3728 159.338H20.5076C20.3241 158.928 20.1865 158.518 20.0488 158.017H40.8316Z" fill="#455A64"/>
<path d="M42.2537 151.957C42.1619 152.367 42.1161 152.822 41.9784 153.278H18.8559C18.7641 152.822 18.6723 152.412 18.6265 151.957H42.2537Z" fill="#455A64"/>
</g>
<defs>
<clipPath id="clip0_258_1668">
<rect width="192" height="170" fill="white"/>
</clipPath>
</defs>
</svg>
