<svg width="212" height="212" viewBox="0 0 212 212" fill="none" xmlns="http://www.w3.org/2000/svg">
<circle cx="106.133" cy="105.867" r="105.867" fill="#FF0568"/>
<path d="M166.962 59.5368C166.567 62.1988 165.416 64.6913 163.645 66.718C161.875 68.7448 159.56 70.2205 156.975 70.9698C154.39 71.719 151.645 71.7103 149.065 70.9447C146.485 70.179 144.179 68.6886 142.421 66.6507C140.664 64.6127 139.528 62.1129 139.15 59.4485C138.771 56.784 139.166 54.067 140.287 51.6203C141.408 49.1737 143.208 47.1004 145.473 45.6468C147.738 44.1933 150.372 43.4207 153.063 43.4209V57.4692L166.962 59.5368Z" fill="#EBEBEB"/>
<path d="M169.971 54.6157C169.971 55.3064 169.92 55.9963 169.817 56.6793L155.922 54.6157V40.5674C157.768 40.5658 159.595 40.9281 161.3 41.6336C163.005 42.339 164.555 43.3738 165.859 44.6786C167.164 45.9834 168.199 47.5327 168.904 49.2378C169.61 50.9429 169.972 52.7704 169.971 54.6157Z" fill="#DBDBDB"/>
<path d="M169.52 62.4653H154.58V62.8584H169.52V62.4653Z" fill="#029E82"/>
<path d="M170.571 63.9081C170.324 63.9089 170.083 63.8364 169.877 63.7C169.672 63.5636 169.512 63.3692 169.417 63.1416C169.322 62.914 169.297 62.6633 169.344 62.4214C169.392 62.1794 169.51 61.957 169.684 61.7824C169.858 61.6077 170.08 61.4886 170.322 61.4402C170.564 61.3918 170.815 61.4163 171.043 61.5105C171.271 61.6047 171.466 61.7644 171.603 61.9694C171.74 62.1744 171.813 62.4154 171.813 62.662C171.813 62.8255 171.782 62.9874 171.719 63.1386C171.657 63.2897 171.566 63.4271 171.45 63.5429C171.335 63.6586 171.198 63.7505 171.047 63.8132C170.896 63.8758 170.734 63.9081 170.571 63.9081ZM170.571 61.813C170.402 61.8122 170.236 61.8617 170.095 61.9551C169.955 62.0486 169.845 62.1817 169.78 62.3377C169.715 62.4938 169.697 62.6656 169.73 62.8314C169.763 62.9972 169.844 63.1496 169.964 63.2691C170.083 63.3886 170.236 63.4699 170.401 63.5027C170.567 63.5355 170.739 63.5183 170.895 63.4532C171.051 63.3882 171.184 63.2783 171.278 63.1374C171.371 62.9965 171.421 62.8311 171.42 62.662C171.42 62.4369 171.33 62.2209 171.171 62.0617C171.012 61.9025 170.796 61.813 170.571 61.813Z" fill="#029E82"/>
<path d="M185.979 61.8755H174.372V62.3983H185.979V61.8755Z" fill="#029E82"/>
<path d="M180.94 62.9253H174.372V63.4481H180.94V62.9253Z" fill="#029E82"/>
<path d="M33.2316 89.4336H29.5249V115.809H33.2316V89.4336Z" fill="#EBEBEB"/>
<path d="M39.6026 95.8213H35.896V115.813H39.6026V95.8213Z" fill="#EBEBEB"/>
<path d="M45.9772 105.813H42.2705V115.809H45.9772V105.813Z" fill="#EBEBEB"/>
<path d="M52.3404 100.106H48.6338V115.809H52.3404V100.106Z" fill="#EBEBEB"/>
<path d="M58.7115 94.1113H55.0049V115.813H58.7115V94.1113Z" fill="#EBEBEB"/>
<path d="M65.0826 90.5854H61.376V115.813H65.0826V90.5854Z" fill="#EBEBEB"/>
<path d="M27.3736 86.0811L27.4168 93.514L27.4404 100.947L27.4679 115.809L27.3736 115.719C30.7802 115.719 34.1868 115.719 37.5934 115.719L47.8132 115.738L58.033 115.758L68.2529 115.813L58.033 115.868L47.8132 115.891L37.5934 115.911C34.1868 115.911 30.7802 115.911 27.3736 115.911H27.2832V115.817L27.3107 100.955V93.5219L27.3736 86.0811Z" fill="#EBEBEB"/>
<path d="M26.5557 87.5626C26.8216 87.4883 27.0972 87.4539 27.3732 87.4604C27.6494 87.4532 27.925 87.4877 28.1908 87.5626C27.9247 87.6367 27.6494 87.6725 27.3732 87.6687C27.0971 87.6719 26.8219 87.6362 26.5557 87.5626Z" fill="#EBEBEB"/>
<path d="M26.5557 89.831C26.8219 89.7574 27.0971 89.7217 27.3732 89.7249C27.6494 89.7211 27.9247 89.7569 28.1908 89.831C27.9247 89.9051 27.6494 89.9409 27.3732 89.9371C27.0971 89.9403 26.8219 89.9046 26.5557 89.831Z" fill="#EBEBEB"/>
<path d="M26.5557 92.0913C26.8219 92.0177 27.0971 91.9819 27.3732 91.9851C27.6494 91.9814 27.9247 92.0171 28.1908 92.0913C27.9247 92.1654 27.6494 92.2011 27.3732 92.1974C27.0971 92.2006 26.8219 92.1649 26.5557 92.0913Z" fill="#EBEBEB"/>
<path d="M26.5557 94.351C26.8219 94.2774 27.0971 94.2417 27.3732 94.2449C27.6494 94.2412 27.9247 94.2769 28.1908 94.351C27.925 94.4259 27.6494 94.4604 27.3732 94.4532C27.0972 94.4597 26.8216 94.4253 26.5557 94.351Z" fill="#EBEBEB"/>
<path d="M26.5557 96.6038C26.8219 96.5302 27.0971 96.4945 27.3732 96.4977C27.6496 96.4918 27.9252 96.5276 28.1908 96.6038C27.9246 96.6767 27.6493 96.7111 27.3732 96.706C27.0973 96.7106 26.822 96.6762 26.5557 96.6038Z" fill="#EBEBEB"/>
<path d="M26.5557 98.8673C26.8216 98.793 27.0972 98.7586 27.3732 98.7651C27.6494 98.7579 27.925 98.7924 28.1908 98.8673C27.9247 98.9414 27.6494 98.9771 27.3732 98.9734C27.0971 98.9766 26.8219 98.9409 26.5557 98.8673Z" fill="#EBEBEB"/>
<path d="M26.5557 101.128C26.8219 101.054 27.0971 101.019 27.3732 101.022C27.6494 101.018 27.9247 101.054 28.1908 101.128C27.9247 101.202 27.6494 101.238 27.3732 101.234C27.0971 101.237 26.8219 101.201 26.5557 101.128Z" fill="#EBEBEB"/>
<path d="M26.5557 103.388C26.8219 103.315 27.0971 103.279 27.3732 103.282C27.6494 103.278 27.9247 103.314 28.1908 103.388C27.9247 103.462 27.6494 103.498 27.3732 103.494C27.0971 103.497 26.8219 103.462 26.5557 103.388Z" fill="#EBEBEB"/>
<path d="M26.5557 105.644C26.8219 105.57 27.0971 105.535 27.3732 105.538C27.6494 105.534 27.9247 105.57 28.1908 105.644C27.925 105.719 27.6494 105.753 27.3732 105.746C27.0972 105.753 26.8216 105.718 26.5557 105.644Z" fill="#EBEBEB"/>
<path d="M26.5557 107.909C26.8219 107.835 27.0971 107.799 27.3732 107.802C27.6496 107.796 27.9252 107.832 28.1908 107.909C27.925 107.983 27.6494 108.018 27.3732 108.011C27.0973 108.015 26.822 107.981 26.5557 107.909Z" fill="#EBEBEB"/>
<path d="M26.5557 110.164C26.822 110.092 27.0973 110.057 27.3732 110.062C27.6494 110.055 27.925 110.089 28.1908 110.164C27.9252 110.24 27.6496 110.276 27.3732 110.27C27.0971 110.273 26.8219 110.238 26.5557 110.164Z" fill="#EBEBEB"/>
<path d="M26.5557 112.425C26.8219 112.351 27.0971 112.315 27.3732 112.319C27.6494 112.315 27.9247 112.351 28.1908 112.425C27.9247 112.499 27.6494 112.535 27.3732 112.531C27.0971 112.534 26.8219 112.498 26.5557 112.425Z" fill="#EBEBEB"/>
<path d="M54.7734 82.4561H65.8934L89.3203 119.428H78.1965L54.7734 82.4561Z" fill="#029E82"/>
<path opacity="0.1" d="M54.7734 82.4561H65.8934L89.3203 119.428H78.1965L54.7734 82.4561Z" fill="black"/>
<path d="M114.824 61.6118H125.948L149.371 98.5879H138.251L114.824 61.6118Z" fill="#029E82"/>
<path opacity="0.1" d="M114.824 61.6118H125.948L149.371 98.5879H138.251L114.824 61.6118Z" fill="black"/>
<path d="M65.8816 82.4561H54.7577L24.0039 131H35.1238L65.8816 82.4561Z" fill="#029E82"/>
<path d="M125.971 61.6118H114.847L78.2168 119.428H89.3367L125.971 61.6118Z" fill="#029E82"/>
<path d="M185.947 40.7671H174.827L138.197 98.5876H149.317L185.947 40.7671Z" fill="#029E82"/>
<path d="M172.245 40.7673H188.577L184.387 33.0435L172.245 40.7673Z" fill="#029E82"/>
<path d="M102.699 103.635C94.8732 110.085 74.5358 133.273 73.4941 134.872C70.7702 139.07 68.4157 159.494 80.5694 156.625C92.7231 153.756 106.268 119.531 110.356 107.931C112.526 101.784 109.087 98.372 102.699 103.635Z" fill="#029E82"/>
<path opacity="0.1" d="M84.7886 154.498C95.712 146.244 106.73 118.206 110.338 107.931C111.663 104.185 110.9 101.45 108.656 101.084L84.7886 154.498Z" fill="black"/>
<path d="M75.4737 113.407C74.0744 110.801 55.2817 118.253 56.799 122.334C62.3491 137.27 70.3245 151.487 73.2293 154.306C77.0382 158.001 83.0089 155.858 84.8327 152.734C87.3641 148.363 76.8613 115.989 75.4737 113.407Z" fill="#D3766A"/>
<path d="M60.9559 125.498C63.3497 126.571 76.0891 115.557 75.4995 112.92C74.9649 110.561 74.6662 103.533 76.2266 98.4625C77.5316 94.2017 79.9608 88.0265 77.6928 87.2365C74.3949 86.0808 70.3896 93.5256 68.3495 97.9319C66.8048 95.7897 65.2718 94.0916 64.0258 93.4273C59.8592 91.2261 47.6623 108.588 49.5726 112.986C51.3964 117.236 58.5582 124.429 60.9559 125.498Z" fill="#D3766A"/>
<path d="M72.3916 89.6336L69.3384 87.4702L59.8211 100.902L62.8744 103.065L72.3916 89.6336Z" fill="#029E82"/>
<path d="M57.0932 112.904L52.4746 109.63L60.9099 97.7236L65.5285 100.994L57.0932 112.904Z" fill="#263238"/>
<path d="M69.7522 98.1127C69.426 100.538 66.7531 98.7652 66.7531 98.7652C66.7531 98.7652 69.9881 102.248 68.6831 104.622C67.4174 106.906 64.261 104.646 64.033 104.488C64.2021 104.673 67.0911 107.951 65.5346 110.2C63.9151 112.558 61.1361 109.728 60.9592 109.543C61.0654 109.771 62.4018 112.778 60.8295 114.217C58.1291 116.693 54.4972 109.107 51.6592 108.23C51.6592 108.23 49.6388 112.869 49.5524 112.99C49.5524 112.99 45.9479 105.837 47.3354 102.075C47.5283 101.525 47.9031 101.058 48.3978 100.751C48.8925 100.443 49.4774 100.314 50.0555 100.385C50.0555 100.385 48.6365 98.207 49.8079 96.395C50.4092 95.4673 52.4296 95.6088 52.4296 95.6088C52.4296 95.6088 51.3683 93.8164 52.5122 92.2717C53.4162 91.0335 55.303 91.3676 55.303 91.3676C55.303 91.3676 55.0789 89.1743 56.4154 88.2231C59.1 86.2656 70.4479 92.9124 69.7522 98.1127Z" fill="#D3766A"/>
<path d="M55.6082 91.3715C55.6026 91.3713 55.5972 91.3697 55.5923 91.367C55.5874 91.3643 55.5832 91.3604 55.5801 91.3557C55.577 91.3511 55.5751 91.3457 55.5744 91.3402C55.5738 91.3346 55.5745 91.329 55.5765 91.3237C55.5784 91.3185 55.5816 91.3138 55.5858 91.31C55.5899 91.3062 55.5949 91.3035 55.6003 91.302C55.6057 91.3006 55.6113 91.3004 55.6168 91.3015C55.6223 91.3027 55.6274 91.3051 55.6318 91.3086C59.8927 92.5822 64.185 95.2904 66.905 98.8438C66.9954 98.9617 66.8461 99.1582 66.7203 99.0482C63.218 95.9193 59.8573 93.4233 55.6082 91.3715Z" fill="#263238"/>
<path d="M52.388 95.5496C52.3448 95.5496 52.388 95.4513 52.4313 95.467C56.8179 96.8074 61.5662 99.9873 64.2234 104.453C64.3138 104.606 64.2234 104.846 64.1212 104.669C62.1322 101.831 56.2244 97.3891 52.388 95.5496Z" fill="#263238"/>
<path d="M61.0384 109.92C58.3262 105.738 54.5488 102.845 50.2408 100.427C50.1857 100.396 50.2408 100.317 50.2879 100.333C52.7171 100.938 55.3035 102.766 57.1942 104.354C58.9784 105.799 60.3538 107.685 61.1838 109.826C61.2153 109.912 61.0934 110.01 61.0384 109.92Z" fill="#263238"/>
<path d="M66.8375 98.7612C66.9436 98.9027 66.6213 98.9027 66.7235 99.0482C67.1559 99.6496 69.4396 103.502 68.3665 104.689C67.5096 105.636 65.6386 105.137 64.994 104.665L63.3745 103.486L64.483 105.168C64.9793 105.911 65.3523 106.728 65.5875 107.59C65.8037 108.435 65.7958 109.331 65.3477 109.979C65.1536 110.308 64.853 110.561 64.4957 110.696C64.1384 110.832 63.7456 110.841 63.3824 110.722C62.5686 110.435 61.842 109.943 61.2716 109.295L59.6404 107.566L60.6113 109.724C60.8827 110.326 61.0768 110.96 61.1891 111.611C61.3167 112.222 61.262 112.858 61.0318 113.438C60.9171 113.696 60.7326 113.916 60.4992 114.075C60.2659 114.233 59.9929 114.323 59.7111 114.335C59.0787 114.264 58.4792 114.016 57.9816 113.619C56.8945 112.773 55.8747 111.844 54.9314 110.84C54.4361 110.349 53.9409 109.858 53.422 109.386C52.9278 108.883 52.3312 108.493 51.6729 108.242C52.2879 108.561 52.8352 108.996 53.2844 109.523C53.764 110.027 54.216 110.553 54.672 111.096C55.5664 112.188 56.5613 113.193 57.6436 114.099C58.2198 114.599 58.9307 114.919 59.6875 115.019C60.106 115.03 60.5186 114.919 60.8743 114.698C61.23 114.477 61.513 114.157 61.6883 113.776C61.9981 113.064 62.0871 112.276 61.9438 111.512C61.8317 110.786 61.6256 110.078 61.3306 109.406L60.6741 109.806C61.3378 110.581 62.191 111.17 63.1505 111.516C63.6884 111.691 64.2704 111.675 64.7975 111.469C65.3069 111.251 65.7384 110.884 66.0356 110.416C66.2978 109.961 66.4604 109.455 66.5126 108.933C66.5648 108.411 66.5054 107.883 66.3383 107.385C66.0679 106.44 65.6429 105.546 65.0805 104.74L64.5695 105.231C65.4067 105.805 67.4389 106.591 68.9601 105.286C70.6699 103.285 67.4743 99.4255 66.8375 98.7612Z" fill="#263238"/>
<path d="M66.7534 98.7649C67.2202 98.9558 67.7132 99.075 68.2156 99.1187C68.4168 99.1411 68.6202 99.1091 68.8048 99.0261C68.9894 98.9432 69.1483 98.8123 69.2651 98.647C69.4721 98.2507 69.5595 97.8028 69.5167 97.3577C69.4931 96.8625 69.442 96.3476 69.3713 95.813C69.6955 96.2526 69.9257 96.7544 70.0473 97.287C70.1287 97.5769 70.1518 97.88 70.1154 98.1789C70.079 98.4778 69.9837 98.7664 69.8351 99.0283C69.6418 99.3037 69.3668 99.5114 69.0489 99.6218C68.7493 99.7158 68.4293 99.7239 68.1252 99.6454C67.5864 99.5044 67.1061 99.1961 66.7534 98.7649Z" fill="#263238"/>
<path d="M77.872 117.082L56.7642 132.372C56.7642 132.372 70.0971 155.917 76.4176 156.715C80.6353 157.246 85.9535 156.023 85.757 148.005C85.5605 139.986 77.872 117.082 77.872 117.082Z" fill="#029E82"/>
<path d="M79.8041 123.351C80.5078 124.772 81.103 126.244 81.5848 127.754C82.1075 129.244 82.5871 130.741 83.0077 132.262C83.8411 135.331 84.4662 138.453 84.8787 141.606C85.1184 143.367 85.2717 145.143 85.4879 146.9C85.4879 146.909 85.4846 146.917 85.4787 146.923C85.4728 146.928 85.4648 146.932 85.4565 146.932C85.4481 146.932 85.4402 146.928 85.4343 146.923C85.4284 146.917 85.425 146.909 85.425 146.9C85.2521 145.328 84.9769 143.756 84.6743 142.223C84.3716 140.69 84.0375 139.106 83.6602 137.561C82.9212 134.53 82.1272 131.512 81.2467 128.52C80.9991 127.683 80.7436 126.846 80.4606 126.017C80.1776 125.187 79.8867 124.295 79.6744 123.41C79.6705 123.332 79.7648 123.281 79.8041 123.351Z" fill="#263238"/>
<path d="M78.4905 123.359C77.897 123.689 77.3467 124.106 76.7924 124.491L75.0668 125.67C73.8876 126.456 72.7517 127.282 71.6039 128.103C69.3084 129.742 67.0129 131.374 64.7488 133.052C64.1238 133.512 63.5027 133.976 62.8935 134.455C62.2842 134.935 61.6474 135.505 61.0028 136.004C60.9635 136.031 61.0028 136.086 61.0539 136.059C61.6357 135.666 62.2331 135.328 62.8306 134.939C63.4281 134.55 64.0098 134.153 64.6073 133.728C65.7603 132.916 66.9067 132.095 68.0466 131.267C70.2911 129.636 72.5473 128.013 74.7563 126.334L76.6038 124.923C77.2484 124.432 77.9323 123.968 78.5298 123.422C78.5612 123.394 78.5298 123.331 78.4905 123.359Z" fill="#263238"/>
<path d="M97.1982 177.257H129.976C130.248 176.203 130.507 175.166 130.762 174.144C131.061 172.965 131.356 171.821 131.639 170.704C131.702 170.453 131.769 170.205 131.832 169.958L132.464 167.458C132.59 166.962 132.716 166.479 132.834 165.995C132.952 165.512 133.086 165.025 133.203 164.553C133.239 164.431 133.266 164.305 133.302 164.183C133.337 164.062 133.369 163.916 133.4 163.79C133.431 163.665 133.483 163.464 133.526 163.303L133.655 162.8C133.738 162.485 133.817 162.175 133.891 161.872C134.005 161.42 134.119 160.98 134.225 160.555C134.273 160.367 134.324 160.162 134.367 159.997C134.446 159.698 134.52 159.408 134.591 159.121C134.642 158.928 134.689 158.728 134.732 158.559C134.929 157.809 135.11 157.103 135.275 156.44C135.318 156.267 135.361 156.098 135.409 155.929C135.479 155.642 135.55 155.371 135.613 155.103C135.66 154.938 135.703 154.773 135.739 154.616C135.884 154.054 136.018 153.539 136.132 153.083C136.167 152.965 136.195 152.847 136.226 152.737C136.301 152.435 136.372 152.171 136.431 151.951C136.454 151.853 136.474 151.762 136.497 151.68C136.521 151.597 136.545 151.495 136.564 151.416C136.584 151.338 136.596 151.302 136.607 151.251C136.619 151.2 136.651 151.094 136.666 151.027C136.682 150.961 136.666 150.957 136.69 150.929C136.741 150.733 136.765 150.634 136.765 150.634H104.863C104.863 150.634 103.81 154.254 102.112 160.095L101.007 163.932C99.9065 167.796 98.6015 172.34 97.1982 177.257Z" fill="#3B436C"/>
<path d="M124.607 177.257H125.425C126.638 172.239 127.817 167.209 128.962 162.167C129.237 160.941 129.509 159.713 129.776 158.484C129.803 158.37 129.827 158.256 129.85 158.142C129.874 158.028 129.772 158.052 129.756 158.115L129.725 158.229C129.355 159.545 128.982 160.866 128.624 162.187C127.233 167.205 125.894 172.228 124.607 177.257Z" fill="#263238"/>
<path d="M105.893 150.607L107.3 157.655L108.456 163.425L110.421 173.279L110.622 174.289L110.96 175.972L111.211 177.245H129.976C130.244 176.188 130.511 175.15 130.763 174.132C131.061 172.953 131.356 171.809 131.639 170.693C131.702 170.441 131.769 170.194 131.832 169.946L132.465 167.446C132.59 166.951 132.716 166.467 132.834 165.984C132.952 165.5 133.086 165.013 133.204 164.541C133.239 164.419 133.266 164.294 133.302 164.172C133.337 164.05 133.369 163.904 133.4 163.779C133.432 163.653 133.483 163.452 133.526 163.291L133.656 162.788C133.738 162.474 133.817 162.163 133.891 161.861C134.005 161.408 134.119 160.968 134.226 160.544C134.277 160.351 134.324 160.151 134.367 159.986C134.446 159.687 134.52 159.396 134.591 159.109C134.642 158.916 134.689 158.716 134.733 158.547C134.929 157.797 135.11 157.091 135.275 156.428C135.318 156.255 135.362 156.086 135.409 155.917C135.479 155.63 135.55 155.359 135.613 155.092C135.66 154.927 135.703 154.762 135.739 154.604C135.884 154.042 136.018 153.527 136.132 153.071C136.167 152.954 136.195 152.836 136.226 152.726C136.301 152.423 136.372 152.16 136.431 151.939C136.454 151.841 136.474 151.751 136.497 151.668C136.521 151.586 136.545 151.483 136.564 151.405C136.584 151.326 136.596 151.291 136.608 151.24C136.619 151.189 136.651 151.083 136.666 151.016C136.682 150.949 136.666 150.945 136.69 150.917C136.741 150.721 136.765 150.623 136.765 150.623L105.893 150.607Z" fill="#263238"/>
<path d="M105.875 150.591C105.875 150.764 106.004 152.666 106.315 155.571C106.401 156.416 106.503 157.348 106.625 158.346C106.81 159.918 107.046 161.656 107.333 163.491C107.82 166.695 108.461 170.174 109.298 173.601C109.593 174.832 109.919 176.05 110.265 177.241H151.451C150.967 170.952 150.519 165.288 150.17 160.815C149.674 154.526 149.36 150.575 149.36 150.575H111.995L105.875 150.591Z" fill="#3B436C"/>
<path d="M105.979 154.384C106.022 155.858 106.085 157.328 106.183 158.798C106.282 160.371 106.427 161.974 106.635 163.562C106.635 163.621 106.635 163.676 106.635 163.735C106.832 165.221 107.055 166.704 107.304 168.185C107.539 169.564 107.697 171.05 108.326 172.328C108.556 172.82 108.884 173.262 109.289 173.625C109.661 173.964 110.114 174.199 110.605 174.309C110.687 174.328 110.77 174.341 110.853 174.348H110.924C110.908 174.357 110.895 174.37 110.887 174.386C110.879 174.402 110.875 174.42 110.877 174.438C110.877 174.93 110.877 175.433 110.936 175.924C110.936 175.924 110.936 175.968 110.936 175.987C110.987 176.416 111.065 176.836 111.144 177.261H111.851C111.851 177.261 111.851 177.261 111.851 177.237C111.73 176.773 111.623 176.302 111.509 175.834C111.396 175.366 111.226 174.887 111.116 174.399C111.116 174.38 111.097 174.368 111.085 174.352C111.533 174.375 111.978 174.259 112.358 174.021C112.738 173.782 113.036 173.433 113.211 173.02C113.389 172.388 113.4 171.722 113.243 171.086C113.117 170.24 112.991 169.399 112.85 168.554C112.61 167.006 112.3 165.473 112.024 163.932C111.981 163.7 111.942 163.46 111.899 163.228C111.348 160.084 110.771 156.939 110.075 153.85C110.051 153.72 110.02 153.59 109.992 153.456C109.965 153.323 109.835 153.394 109.843 153.476C109.863 153.684 109.886 153.897 109.91 154.101C110.03 155.296 110.173 156.484 110.338 157.666C110.539 159.058 110.672 160.457 110.869 161.848C110.936 162.324 111.002 162.796 111.073 163.271C111.392 165.559 111.726 167.851 112.115 170.13C112.3 171.188 112.96 173.086 111.435 173.417C111.086 173.492 110.721 173.446 110.401 173.287C109.727 172.881 109.222 172.244 108.982 171.494C108.607 170.248 108.337 168.973 108.172 167.682C107.926 166.288 107.705 164.891 107.508 163.492C107.262 161.741 107 159.994 106.722 158.252C106.588 157.364 106.447 156.475 106.305 155.587L106.105 154.353C106.117 154.266 105.979 154.29 105.979 154.384Z" fill="#263238"/>
<path d="M142.433 165.327C140.717 165.311 139.01 165.081 137.351 164.643C136.584 164.447 135.83 164.203 135.079 163.956C134.334 163.751 133.637 163.401 133.027 162.926C131.872 161.931 131.333 160.363 130.834 158.968C130.284 157.398 129.839 155.793 129.501 154.164C129.501 154.082 129.368 154.109 129.364 154.184C129.324 156.027 129.557 157.865 130.056 159.64C130.468 161.145 131.026 162.827 132.245 163.885C133.522 164.993 135.264 165.382 136.899 165.587C138.741 165.8 140.602 165.774 142.437 165.508C142.461 165.508 142.484 165.498 142.501 165.48C142.517 165.463 142.526 165.44 142.526 165.416C142.525 165.392 142.515 165.369 142.498 165.352C142.481 165.336 142.457 165.327 142.433 165.327Z" fill="#263238"/>
<path d="M145.279 154.211C145.371 156.515 145.468 158.822 145.57 161.133C145.806 166.505 146.068 171.877 146.356 177.249H147.143C146.789 171.864 146.415 166.48 146.022 161.098C145.852 158.797 145.678 156.498 145.5 154.2C145.498 154.17 145.485 154.143 145.463 154.123C145.441 154.104 145.413 154.094 145.384 154.095C145.354 154.097 145.327 154.11 145.308 154.132C145.288 154.154 145.278 154.182 145.279 154.211Z" fill="#263238"/>
<path d="M98.8003 167.654L153.103 163.425C153.103 163.425 142.518 121.807 121.331 99.7477C116.445 94.6614 110.64 98.3445 107.841 101.473C100.738 109.433 98.6313 167.478 98.8003 167.654Z" fill="#029E82"/>
<path d="M151.862 158.951L98.959 162.595C98.9931 161.809 99.0337 160.934 99.0808 159.97L151.076 156.393C151.351 157.328 151.615 158.185 151.862 158.951Z" fill="#DBDBDB"/>
<path d="M150.357 154.168L99.1753 157.706C99.2225 156.87 99.2709 155.995 99.3207 155.08L149.508 151.633C149.812 152.513 150.095 153.358 150.357 154.168Z" fill="#DBDBDB"/>
<path d="M127.1 104.987C138.531 120.07 157.614 159.369 160.421 165.127C162.323 169.058 141.451 179.384 140.567 176.526C139.431 172.871 120.764 124.641 118.162 107.067C116.712 97.4562 123.13 99.7714 127.1 104.987Z" fill="#D3766A"/>
<path d="M139.994 174.584C140.481 178.141 142.938 185.299 144.769 186.376C146.601 187.453 156.204 187.237 161.046 187.237C165.889 187.237 166.844 185.908 166.762 184.273C166.679 182.638 156.522 182.308 156.522 182.308C156.522 182.308 170.095 186.128 173.507 186.753C176.919 187.378 184.784 189.324 185.92 186.545C186.435 185.291 184.281 184.022 184.281 184.022C184.281 184.022 187.583 184.969 188.105 183.357C188.703 181.526 186.081 180.515 186.081 180.515C186.081 180.515 188.141 180.909 188.192 179.431C188.294 176.089 175.39 174.446 175.39 174.446C175.39 174.446 185.271 179.163 185.609 176.447C186.05 172.674 165.795 168.539 163.688 166.896C162.156 165.641 160.721 164.271 159.396 162.8L139.994 174.584Z" fill="#D3766A"/>
<path d="M166.686 185.114C166.719 184.88 166.694 184.642 166.614 184.42C166.534 184.198 166.401 183.999 166.226 183.841C165.877 183.526 165.479 183.273 165.047 183.09C164.15 182.713 163.221 182.417 162.272 182.205C160.361 181.73 158.408 181.392 156.458 180.9C158.471 180.869 160.479 181.091 162.437 181.561C163.432 181.785 164.393 182.144 165.29 182.63C165.747 182.883 166.148 183.225 166.469 183.636C166.632 183.842 166.737 184.087 166.775 184.346C166.813 184.606 166.782 184.87 166.686 185.114Z" fill="#263238"/>
<path d="M184.273 184.049C182.878 183.715 181.522 183.33 180.126 182.937C178.731 182.544 177.375 182.15 176.023 181.73L171.935 180.472C170.571 180.051 169.207 179.639 167.831 179.234C169.26 179.387 170.677 179.635 172.072 179.977C173.472 180.291 174.851 180.684 176.219 181.093C177.587 181.502 178.951 181.954 180.291 182.453C181.632 182.952 182.968 183.471 184.273 184.049Z" fill="#263238"/>
<path d="M171.125 175.905C172.446 175.988 173.76 176.166 175.056 176.435C176.348 176.69 177.626 177.015 178.884 177.406C180.135 177.785 181.364 178.235 182.563 178.755C183.774 179.265 184.948 179.859 186.077 180.531C184.827 180.107 183.613 179.639 182.371 179.23C181.129 178.821 179.902 178.405 178.652 178.031C177.402 177.658 176.156 177.284 174.902 176.923C173.649 176.561 172.383 176.243 171.125 175.905Z" fill="#263238"/>
<path d="M173.113 172.725C175.238 172.891 177.332 173.333 179.343 174.038C181.365 174.69 183.291 175.606 185.074 176.762C183.069 176.062 181.12 175.319 179.123 174.667C177.126 174.014 175.137 173.366 173.113 172.725Z" fill="#263238"/>
<path d="M162.083 163.865L137.741 173.782C137.741 173.782 118.909 121.142 117.187 109.11C115.465 97.0783 118.909 95.1444 127.273 104.665C135.638 114.185 162.083 163.865 162.083 163.865Z" fill="#029E82"/>
<path d="M157.983 159.297C157.334 159.482 156.701 159.757 156.068 159.997L154.103 160.736C152.782 161.235 151.469 161.758 150.172 162.285C147.554 163.338 144.937 164.384 142.342 165.48C141.627 165.783 140.915 166.086 140.208 166.404C139.5 166.722 138.75 167.131 138.011 167.465C137.964 167.485 138.011 167.552 138.042 167.532C138.699 167.292 139.375 167.104 140.035 166.864C140.695 166.624 141.379 166.365 142.044 166.101C143.354 165.577 144.664 165.053 145.974 164.529C148.541 163.472 151.112 162.426 153.655 161.314L155.781 160.378C156.524 160.056 157.303 159.761 158.01 159.372C158.02 159.368 158.028 159.361 158.032 159.351C158.037 159.342 158.037 159.331 158.034 159.321C158.03 159.311 158.023 159.303 158.013 159.299C158.003 159.294 157.992 159.294 157.983 159.297Z" fill="#263238"/>
<path d="M135.291 166.876C133.7 162.72 132.169 158.543 130.696 154.345C129.214 150.151 127.787 145.937 126.372 141.716C124.957 137.494 123.621 133.257 122.327 129C121.034 124.743 119.796 120.462 118.758 116.135L119.772 119.315L120.814 122.483L122.921 128.835L127.127 141.492C128.518 145.713 129.914 149.935 131.278 154.168C132.642 158.402 133.986 162.639 135.291 166.876Z" fill="#263238"/>
<path d="M120.42 121.806C120.141 121.566 119.895 121.29 119.689 120.985C119.48 120.687 119.292 120.374 119.126 120.049C118.79 119.402 118.55 118.708 118.415 117.99C118.619 118.29 118.807 118.601 118.977 118.921C119.154 119.236 119.311 119.554 119.476 119.873C119.787 120.509 120.097 121.142 120.42 121.806Z" fill="#263238"/>
<path d="M118.13 85.3257C118.13 85.3257 117.98 88.7179 118.283 89.8932C118.586 91.0684 121.235 92.3027 121.235 92.3027C121.235 92.3027 118.22 93.3718 117.363 93.1674C116.506 92.963 115.123 90.7658 115.123 90.7658C115.123 90.7658 116.396 94.2837 117.623 94.4685C118.381 94.5825 115.756 94.61 115.756 94.61C114.885 94.5501 114.068 94.1707 113.46 93.5448C112.556 92.5346 118.13 85.3257 118.13 85.3257Z" fill="#263238"/>
<path d="M109.161 109.229C112.419 109.201 116.555 103.203 117.706 98.8831C117.785 98.5883 114.137 88.4077 113.622 86.3048C113.52 85.8724 101.264 92.7119 101.264 92.7119C101.264 92.7119 103.623 96.7801 104.503 100.436C104.574 100.754 106.012 109.252 109.161 109.229Z" fill="#D3766A"/>
<path d="M101.264 92.7237C101.264 92.7237 103.623 96.792 104.507 100.448C104.507 100.518 104.613 101.049 104.786 101.819C110.89 99.7125 113.925 94.9053 115.332 91.6389C114.546 89.3315 113.831 87.1618 113.626 86.3167C113.516 85.8882 101.264 92.7237 101.264 92.7237Z" fill="#263238"/>
<path d="M117.963 72.0441C119.508 76.8081 117.204 90.6913 113.844 93.8319C108.974 98.3837 100.872 98.9418 96.9771 93.0694C93.1918 87.3777 96.5133 69.3398 100.279 66.4743C105.821 62.2527 115.703 65.0042 117.963 72.0441Z" fill="#D3766A"/>
<path d="M105.115 79.992C105.533 79.975 105.949 79.9343 106.361 79.8702C106.806 79.8893 107.244 79.7608 107.607 79.5046C107.708 79.4021 107.771 79.269 107.786 79.1265C107.802 78.9839 107.769 78.8403 107.694 78.7185C107.344 78.2153 106.743 78.1328 106.165 78.1721C105.576 78.1895 105.015 78.4264 104.592 78.8364C104.5 78.9357 104.439 79.0599 104.418 79.1936C104.396 79.3273 104.414 79.4645 104.47 79.5879C104.526 79.7113 104.617 79.8155 104.732 79.8874C104.846 79.9593 104.98 79.9957 105.115 79.992Z" fill="#263238"/>
<path d="M99.7433 79.8425C99.7433 79.8071 99.6608 79.874 99.6569 79.9133C99.5311 80.8527 99.2284 81.9101 98.3283 82.0791C98.3008 82.0791 98.2968 82.1341 98.3283 82.1341C99.3856 82.1616 99.7748 80.7544 99.7433 79.8425Z" fill="#263238"/>
<path d="M99.0655 78.7261C97.5797 78.3606 96.9625 81.3636 98.3383 81.6977C99.714 82.0318 100.311 79.0327 99.0655 78.7261Z" fill="#263238"/>
<path d="M98.0877 76.1986C98.4999 76.274 98.9159 76.3278 99.3337 76.3597C99.7637 76.4795 100.221 76.4533 100.635 76.2851C100.756 76.2081 100.848 76.0926 100.896 75.9572C100.943 75.8218 100.944 75.6742 100.898 75.5382C100.674 74.9683 100.112 74.7521 99.5303 74.6578C98.9549 74.5444 98.3579 74.6495 97.8558 74.9526C97.7446 75.0281 97.6578 75.1345 97.606 75.2586C97.5543 75.3827 97.5398 75.5192 97.5644 75.6514C97.589 75.7836 97.6516 75.9057 97.7446 76.0029C97.8375 76.1001 97.9567 76.1681 98.0877 76.1986Z" fill="#263238"/>
<path d="M104.867 89.4332C104.603 89.6179 104.332 89.8813 103.986 89.8538C103.64 89.7917 103.311 89.6578 103.019 89.4607C103.014 89.4563 103.007 89.454 103 89.4541C102.992 89.4543 102.986 89.4568 102.98 89.4614C102.975 89.466 102.971 89.4723 102.969 89.4793C102.968 89.4863 102.969 89.4936 102.972 89.5C103.075 89.707 103.232 89.8823 103.426 90.0069C103.621 90.1315 103.846 90.2009 104.077 90.2075C104.276 90.1887 104.465 90.1115 104.62 89.9856C104.775 89.8597 104.89 89.6908 104.949 89.5C104.973 89.441 104.902 89.4096 104.867 89.4332Z" fill="#263238"/>
<path d="M104.35 86.4697C104.051 86.7995 103.687 87.0642 103.281 87.2475C102.875 87.4307 102.436 87.5286 101.991 87.5349C101.601 87.544 101.212 87.4977 100.836 87.3974C100.762 87.3829 100.689 87.3619 100.619 87.3345L100.419 87.2676C100.37 87.2504 100.329 87.2175 100.301 87.174C100.273 87.1306 100.261 87.0792 100.266 87.0279C100.268 86.9954 100.276 86.9635 100.289 86.9335V86.851C100.388 86.1277 100.639 85.0429 100.639 85.0429C100.356 85.1293 98.9135 85.5106 98.9961 85.1372C99.6997 82.0516 100.482 78.6201 101.834 75.7035C101.841 75.6816 101.857 75.6635 101.878 75.6532C101.898 75.6429 101.922 75.6412 101.944 75.6485C101.966 75.6558 101.984 75.6715 101.994 75.6921C102.005 75.7128 102.006 75.7367 101.999 75.7586C101.441 78.7498 100.36 81.6232 99.7508 84.6223C100.263 84.4799 100.792 84.4098 101.323 84.414C101.421 84.4611 100.8 86.5012 100.781 86.8313V86.8667C101.96 87.2244 102.942 87.0082 104.251 86.3911C104.354 86.3282 104.417 86.4029 104.35 86.4697Z" fill="#263238"/>
<path d="M107.956 80.9432C107.687 80.8129 107.401 80.7216 107.107 80.672C106.804 80.6221 106.496 80.6155 106.191 80.6523C105.87 80.6953 105.561 80.7994 105.279 80.9589C104.991 81.1311 104.747 81.3663 104.564 81.6468L104.233 82.1539H104.843C105.275 82.1448 105.707 82.1804 106.132 82.26C106.574 82.3316 106.99 82.5141 107.343 82.7906C107.129 82.3369 106.747 81.9843 106.277 81.808C105.816 81.6144 105.32 81.5155 104.819 81.5171L105.098 82.0124C105.394 81.6105 105.818 81.322 106.301 81.1948C106.84 81.0419 107.396 80.9574 107.956 80.9432Z" fill="#263238"/>
<path d="M106.03 83.2033C105.583 83.0606 105.158 82.8597 104.764 82.6058C104.674 82.535 104.328 82.2363 104.371 82.1616C104.438 81.9399 104.534 81.7283 104.658 81.5327C104.477 81.7019 104.332 81.9067 104.233 82.1341C104.253 82.2658 104.302 82.3915 104.376 82.5022C104.45 82.6129 104.548 82.706 104.662 82.7748C105.072 83.036 105.544 83.1838 106.03 83.2033Z" fill="#263238"/>
<path d="M117.735 85.1137C115.235 84.1546 114.7 75.4323 114.7 75.4323L113.785 80.1177C112.664 78.9923 111.789 77.6456 111.218 76.1635C110.691 74.5912 111.084 72.4883 111.422 71.4702C111.422 71.4702 108.195 73.581 104.838 74.1509C103.604 74.3632 95.7978 73.8168 95.8371 73.2626C95.9825 71.6196 98.8637 66.207 101.234 64.8863C103.962 63.3651 110.216 61.5884 115.341 64.1001C119.441 66.1048 118.737 69.3516 119.461 71.7296C119.461 71.7296 122.326 74.4811 122.365 75.7665C122.444 78.5219 118.655 85.4674 117.735 85.1137Z" fill="#263238"/>
<path d="M105.091 86.0609C104.088 85.7081 103.266 84.972 102.805 84.014C102.345 83.056 102.283 81.9544 102.634 80.951C102.882 80.2425 103.324 79.6179 103.909 79.1482C104.495 78.6785 105.2 78.3826 105.945 78.2941C106.691 78.2056 107.446 78.3281 108.125 78.6477C108.804 78.9672 109.38 79.471 109.787 80.1017C110.194 80.7324 110.416 81.4646 110.427 82.2151C110.438 82.9656 110.239 83.7042 109.851 84.3468C109.463 84.9895 108.903 85.5104 108.233 85.8502C107.564 86.1901 106.813 86.3352 106.065 86.2692C105.733 86.2418 105.405 86.1718 105.091 86.0609ZM103.125 81.1278C102.898 81.7764 102.868 82.4777 103.04 83.1431C103.211 83.8085 103.576 84.4082 104.088 84.8662C104.601 85.3243 105.237 85.6202 105.917 85.7166C106.598 85.8129 107.291 85.7054 107.911 85.4076C108.53 85.1098 109.047 84.6351 109.396 84.0434C109.746 83.4518 109.912 82.7698 109.874 82.0837C109.836 81.3976 109.595 80.7382 109.183 80.1889C108.77 79.6395 108.204 79.2249 107.555 78.9974C107.282 78.9019 106.998 78.8398 106.71 78.8127C105.941 78.7477 105.171 78.9397 104.523 79.3586C103.874 79.7775 103.383 80.3998 103.125 81.1278Z" fill="#029E82"/>
<path d="M96.9755 84.3511C95.3481 84.0956 94.3065 82.1106 94.6485 79.9251C94.7886 78.9349 95.2337 78.013 95.922 77.2876C96.1981 76.9576 96.555 76.7046 96.9578 76.5534C97.3606 76.4023 97.7958 76.3579 98.2208 76.4248C98.6459 76.4917 99.0464 76.6675 99.3833 76.9351C99.7203 77.2027 99.9822 77.553 100.144 77.9519C100.573 78.8544 100.711 79.8684 100.537 80.8527C100.21 82.9203 98.7561 84.4375 97.2231 84.3904C97.1398 84.3826 97.0571 84.3695 96.9755 84.3511ZM96.2994 77.6689C95.6877 78.318 95.2958 79.1431 95.1791 80.0273C94.8804 81.9219 95.7255 83.6317 97.058 83.8401C98.3905 84.0484 99.7191 82.6805 100.018 80.7899C100.173 79.9162 100.051 79.0159 99.668 78.2152C99.5311 77.9013 99.3208 77.625 99.0546 77.4095C98.7885 77.194 98.4744 77.0457 98.1389 76.9771C98.0712 76.9668 98.003 76.9603 97.9345 76.9574C97.6278 76.9554 97.324 77.0172 97.0425 77.139C96.7609 77.2608 96.5079 77.44 96.2994 77.665V77.6689Z" fill="#029E82"/>
<path d="M102.648 81.4307L103.068 81.1005C102.577 80.4756 101.339 79.5283 100.167 80.3458L100.478 80.7821C101.528 80.0392 102.605 81.3757 102.648 81.4307Z" fill="#029E82"/>
<path d="M119.932 86.069L120.447 85.9274C120.38 85.6837 119.759 83.569 118.623 83.1288C117.565 82.7357 110.392 81.926 110.085 81.8906L110.026 82.4252C112.086 82.6532 117.617 83.3175 118.434 83.628C119.181 83.9149 119.767 85.4872 119.932 86.069Z" fill="#029E82"/>
<path d="M114.978 84.0723C114.978 84.0723 118.084 79.5795 120.124 80.684C122.164 81.7885 119.845 88.2899 117.463 89.1901C117.165 89.3263 116.843 89.4012 116.516 89.41C116.188 89.4188 115.863 89.3616 115.558 89.2415C115.253 89.1215 114.976 88.9413 114.743 88.7116C114.509 88.4819 114.325 88.2074 114.2 87.9047L114.978 84.0723Z" fill="#D3766A"/>
<path d="M119.412 82.5308C119.421 82.5308 119.429 82.5341 119.435 82.54C119.441 82.5459 119.444 82.5539 119.444 82.5622C119.444 82.5705 119.441 82.5785 119.435 82.5844C119.429 82.5903 119.421 82.5937 119.412 82.5937C117.742 83.2776 116.869 84.8342 116.268 86.4457C116.763 85.8247 117.447 85.4788 118.273 86.0527C118.316 86.0841 118.273 86.1509 118.225 86.1431C117.931 86.0504 117.616 86.0513 117.322 86.1457C117.028 86.24 116.771 86.4231 116.586 86.6698C116.278 87.0848 116.014 87.5315 115.8 88.0023C115.722 88.1517 115.45 88.073 115.505 87.9001V87.8647C115.482 85.7461 117.125 82.7548 119.412 82.5308Z" fill="#263238"/>
<path d="M104.613 101.001L108.626 107.907L116.967 96.4141L120.175 99.0712C120.175 99.0712 112.95 115.863 112.793 115.167L108.579 109.228L104.417 114.594L103.678 102.986L104.613 101.001Z" fill="#EBEBEB"/>
<path d="M103.599 103.112C103.599 103.041 103.717 102.99 103.725 103.073C104 105.199 104.444 112.652 104.594 113.957L104.613 113.933C104.77 113.705 108.544 109.173 108.583 109.216C109.44 110.152 112.514 114.436 112.75 114.845C113.815 112.16 118.434 102.483 119.794 99.8888C119.8 99.8721 119.812 99.8586 119.829 99.8512C119.845 99.8439 119.863 99.8432 119.88 99.8495C119.897 99.8557 119.91 99.8684 119.918 99.8846C119.925 99.9008 119.926 99.9193 119.919 99.936C119.047 102.727 113.111 115.785 112.993 115.769C112.923 115.84 109.102 110.537 108.575 109.48C108.029 110.431 104.283 115.462 104.252 115.179C104.035 113.505 103.599 104.904 103.599 103.112Z" fill="#263238"/>
<path d="M70.1079 85.5969C70.4649 85.9315 70.8517 86.2328 71.2636 86.497C71.3579 86.5599 71.4601 86.6188 71.5623 86.6778C71.6645 86.7368 71.7431 86.7839 71.8374 86.8311L72.03 86.9333L74.9348 88.3641C74.6701 88.2369 74.4141 88.0924 74.1683 87.9317C73.9565 87.797 73.7519 87.6513 73.5552 87.4954C73.3704 87.3539 73.1896 87.1966 73.0088 87.0316C68.5985 82.92 68.9012 74.3629 73.6849 67.9205C77.3719 62.9482 82.639 60.6841 86.8841 61.7886C87.4124 61.9226 87.925 62.1123 88.4132 62.3546L85.5084 60.9199C85.5008 60.9169 85.4924 60.9169 85.4848 60.9199C85.363 60.8531 85.2333 60.7981 85.0918 60.7431C84.9502 60.688 84.8716 60.6487 84.7576 60.6094L84.6043 60.5544L84.3449 60.4679L84.1956 60.4247C81.6052 59.666 78.6061 60.1967 75.8153 61.8476L75.3908 62.107C73.5943 63.2751 72.0264 64.7618 70.7644 66.4937C66.0004 72.9361 65.6938 81.4932 70.1079 85.5969Z" fill="#3B436C"/>
<path d="M91.045 84.1034C86.1828 90.652 78.9739 93.1951 73.75 90.6245L70.8491 89.1898C76.0494 91.7644 83.2623 89.2173 88.1442 82.6687C93.7494 75.11 94.1031 65.0631 88.9303 60.2402C88.511 59.8489 88.0571 59.4963 87.5742 59.1867C87.2852 59.0011 86.986 58.8318 86.678 58.6797L89.5789 60.1105C89.8855 60.2677 90.1881 60.4367 90.483 60.6215C90.9638 60.9321 91.4163 61.2846 91.8351 61.6749C97.0079 66.5018 96.6541 76.5565 91.045 84.1034Z" fill="#3B436C"/>
<path d="M68.6078 87.6292C69.0269 88.0192 69.4793 88.3717 69.96 88.6826C70.3126 88.9082 70.6803 89.1091 71.0606 89.284C71.0722 89.287 71.0844 89.287 71.096 89.284C71.2571 89.3587 71.4144 89.4255 71.5755 89.4884C71.6738 89.5317 71.7681 89.5631 71.8703 89.5985C73.2573 90.0814 74.732 90.2597 76.1941 90.1213C76.5282 90.0937 76.8623 90.0505 77.1925 89.9955C77.7038 89.9107 78.2092 89.7939 78.7058 89.6456L79.2129 89.4884C79.5509 89.3744 79.8889 89.2486 80.2191 89.0953C80.5493 88.942 80.8991 88.8005 81.2293 88.6315C81.5595 88.4625 81.8975 88.2817 82.2238 88.0852C84.5409 86.6844 86.5549 84.8349 88.1473 82.6451C93.7486 75.0903 94.1063 65.0434 88.9335 60.2165C88.7212 60.016 88.4972 59.8234 88.2731 59.6544C88.0491 59.4854 87.8172 59.3164 87.5813 59.1631C87.4477 59.0805 87.314 58.998 87.1882 58.9194L87.0939 58.8683C86.9838 58.8015 86.8659 58.7425 86.7519 58.6835C81.5398 56.0618 74.2956 58.6049 69.4176 65.1771C63.7849 72.7594 63.4233 82.8023 68.6078 87.6292ZM70.7815 66.4938C72.0435 64.762 73.6114 63.2753 75.4079 62.1072L75.8325 61.8478C78.6233 60.1969 81.6224 59.6662 84.2127 60.4248L84.3621 60.4681L84.6215 60.5546L84.7748 60.6096C84.8888 60.6489 84.9949 60.6961 85.1089 60.7432C85.2229 60.7904 85.3644 60.8533 85.502 60.9201C85.5095 60.917 85.518 60.917 85.5256 60.9201C86.0155 61.1568 86.477 61.4482 86.9013 61.7888C87.0903 61.9336 87.2714 62.0884 87.4437 62.2526C91.854 66.3681 91.5553 74.9291 86.7755 81.3715C83.0885 86.3399 77.8175 88.604 73.5723 87.4956C72.9758 87.342 72.3993 87.119 71.8546 86.8313C71.7603 86.7841 71.6699 86.733 71.5794 86.678C71.489 86.6229 71.3751 86.56 71.2807 86.4972C70.8621 86.234 70.4686 85.9326 70.1054 85.597C65.6913 81.4934 65.9979 72.9362 70.7815 66.4938Z" fill="#3A466D"/>
<path opacity="0.4" d="M73.0135 87.0396C73.1943 87.2047 73.3751 87.3619 73.5598 87.5034C77.805 88.6119 83.0761 86.3478 86.7631 81.3794C91.5428 74.937 91.8415 66.3759 87.4313 62.2605C87.2589 62.0963 87.0778 61.9415 86.8888 61.7967C82.6437 60.6922 77.3766 62.9759 73.6896 67.9286C68.9059 74.371 68.6032 82.9281 73.0135 87.0396Z" fill="white"/>
<g opacity="0.3">
<path d="M80.1006 62.575L89.0744 77.3426C89.4683 76.417 89.7877 75.4614 90.0295 74.485L82.3293 61.8242C81.5632 61.9996 80.8166 62.2511 80.1006 62.575Z" fill="#EBEBEB"/>
<path d="M85.4312 61.5571L90.5411 69.9728C90.4546 66.8989 89.4247 64.1239 87.4279 62.2607C87.2556 62.0965 87.0745 61.9417 86.8855 61.7969C86.4088 61.6738 85.9221 61.5935 85.4312 61.5571Z" fill="#EBEBEB"/>
<path d="M78.5044 63.4205L88.1346 79.2455C88.3547 78.8524 88.567 78.4594 88.7517 78.0466L79.5067 62.8545C79.1726 63.0274 78.8385 63.2122 78.5044 63.4205Z" fill="#EBEBEB"/>
<path d="M70.0098 76.9497C69.9248 77.6171 69.8841 78.2894 69.8879 78.9622L75.2376 87.7552C75.6837 87.7905 76.1319 87.7905 76.578 87.7552L70.0098 76.9497Z" fill="#EBEBEB"/>
<path d="M71.3721 71.9497L80.3616 86.7173C81.8205 86.0468 83.1643 85.15 84.3434 84.0602L74.1589 67.3193C73.9978 67.5159 73.8406 67.7124 73.6833 67.9286C72.7571 69.1732 71.9813 70.5229 71.3721 71.9497Z" fill="#EBEBEB"/>
</g>
<path d="M30.3203 26.4795H29.9272V44.6511H30.3203V26.4795Z" fill="#263238"/>
<path d="M30.1259 26.676C29.8348 26.6775 29.5498 26.5926 29.307 26.4321C29.0642 26.2715 28.8746 26.0424 28.7621 25.7739C28.6496 25.5055 28.6194 25.2096 28.6752 24.924C28.7311 24.6383 28.8705 24.3756 29.0757 24.1692C29.281 23.9628 29.5429 23.822 29.8283 23.7647C30.1137 23.7073 30.4097 23.736 30.6788 23.847C30.9479 23.958 31.1779 24.1464 31.3398 24.3884C31.5017 24.6303 31.5881 24.9148 31.5881 25.2059C31.5871 25.5941 31.433 25.9663 31.1592 26.2415C30.8854 26.5167 30.5141 26.6729 30.1259 26.676ZM30.1259 24.1289C29.9126 24.1273 29.7036 24.1892 29.5254 24.3066C29.3473 24.424 29.208 24.5916 29.1253 24.7883C29.0426 24.9849 29.0201 25.2017 29.0608 25.4112C29.1014 25.6206 29.2034 25.8132 29.3537 25.9646C29.504 26.116 29.6959 26.2194 29.905 26.2616C30.1141 26.3038 30.3311 26.2829 30.5283 26.2017C30.7256 26.1204 30.8943 25.9823 31.013 25.8051C31.1317 25.6278 31.195 25.4192 31.195 25.2059C31.195 24.9216 31.0827 24.6489 30.8824 24.4471C30.6821 24.2454 30.4102 24.131 30.1259 24.1289Z" fill="#263238"/>
<path d="M48.0971 23.9326H33.9819V24.5694H48.0971V23.9326Z" fill="#263238"/>
<path d="M41.973 25.2061H33.9819V25.8428H41.973V25.2061Z" fill="#263238"/>
<path d="M84.37 28.834H81.3315V31.8724H84.37V28.834Z" fill="#029E82"/>
<path d="M100.426 28.834H86.311V29.4708H100.426V28.834Z" fill="#263238"/>
<path d="M94.3021 30.1074H86.311V30.7442H94.3021V30.1074Z" fill="#263238"/>
<path d="M84.37 35.0288H81.3315V38.0672H84.37V35.0288Z" fill="#3B436C"/>
<path d="M100.426 35.0288H86.311V35.6656H100.426V35.0288Z" fill="#263238"/>
<path d="M94.3021 36.3022H86.311V36.939H94.3021V36.3022Z" fill="#263238"/>
<path d="M84.37 41.2275H81.3315V44.266H84.37V41.2275Z" fill="#029E82"/>
<path d="M100.426 41.2275H86.311V41.8643H100.426V41.2275Z" fill="#263238"/>
<path d="M94.3021 42.501H86.311V43.1378H94.3021V42.501Z" fill="#263238"/>
<path d="M84.37 47.4224H81.3315V50.4608H84.37V47.4224Z" fill="#3A466D"/>
<path d="M100.426 47.4224H86.311V48.0591H100.426V47.4224Z" fill="#263238"/>
<path d="M94.3021 48.6958H86.311V49.3326H94.3021V48.6958Z" fill="#263238"/>
<path d="M25.0971 55.5353H25.1561H25.2111L26.3078 55.1422H26.3746L26.9996 54.9221L27.0743 54.8985L28.0687 54.5526L28.1474 54.5212L28.7566 54.3089L28.847 54.2814L29.9909 53.8883L30.0852 53.8569L30.7731 53.6171L30.8792 53.5817L31.7361 53.283L31.8501 53.2437L32.6008 52.9803L32.7227 52.941L33.7604 52.5794L33.8665 52.5401L34.6527 52.2649L34.7549 52.2296L35.5135 51.9662L35.6039 51.9348L36.4686 51.6321L36.5512 51.6007L37.302 51.3412L37.3766 51.3176L38.4301 50.9482L38.5087 50.9246L39.6171 50.5315L39.6761 50.5079L40.5251 50.2131H40.5802L41.6807 49.8201H41.7279L42.6556 49.4977H42.6988L43.6697 49.1597L42.746 48.861H42.7067L41.6375 48.519H41.5903L40.6745 48.2242H40.6234L39.4442 47.8311H39.3774L38.5912 47.5796L38.5205 47.556L36.8027 47.0017L36.7163 46.9742L36.3036 46.6834L36.2131 46.6558L34.5347 46.1134L34.4325 46.082L34.0631 45.964L33.953 45.9326L32.2314 45.3862L32.0977 45.3469L31.7046 45.2211L31.5789 45.1818L29.7668 44.5962L29.6332 44.5568L29.4248 44.49L29.2991 44.4468L27.3023 43.8061L27.1843 43.7668L27.0035 43.7078L26.8974 43.6764L24.9045 43.0317C24.9045 43.0868 24.8692 43.1418 24.8534 43.2008C24.8534 43.2479 24.822 43.2951 24.8102 43.3423V43.3816C24.7905 43.4366 24.7748 43.4956 24.7591 43.5506C24.3653 44.9623 24.1215 46.4115 24.0319 47.8744V48.0512C23.9946 48.7202 23.9946 49.3908 24.0319 50.0598C24.0319 50.1895 24.0319 50.3153 24.0555 50.4529C24.1936 52.1832 24.5434 53.8901 25.0971 55.5353Z" fill="#029E82"/>
<path d="M42.7523 48.7666L42.7051 49.4033H42.6618L42.7129 48.739L42.7523 48.7666ZM41.5966 48.3971L41.687 49.7571H41.7342L41.6438 48.4285L41.5966 48.3971ZM40.5314 50.1619H40.5864L40.6808 48.1219H40.6297L40.5314 50.1619ZM39.3954 47.6895L39.6234 50.4803L39.6824 50.4568L39.4623 47.7053L39.3954 47.6895ZM38.4363 50.8891L38.515 50.8655L38.6132 47.438L38.5425 47.4144L38.4363 50.8891ZM36.8248 46.8602L36.7383 46.8326L37.0292 49.0967L37.3082 51.2822L37.3829 51.2586L37.0921 49.0849L36.8248 46.8602ZM36.4749 51.577L36.5575 51.5456L36.3059 46.6833L36.2155 46.6558L36.4749 51.577ZM34.541 46.1291L34.4388 46.0976L35.5198 51.9072L35.6102 51.8757L34.541 46.1291ZM33.9475 45.9404L34.6472 52.2059L34.7494 52.1705L34.0576 45.9718L33.9475 45.9404ZM32.2219 45.3822L32.0883 45.3429L33.751 52.5204L33.8571 52.4811L32.2219 45.4058V45.3822ZM31.5891 45.1778L32.6032 52.9213L32.725 52.882L31.7149 45.2171L31.5891 45.1778ZM29.6237 44.5528L31.7188 53.224L31.8328 53.1847L29.777 44.5922L29.6237 44.5528ZM29.2896 44.4428L30.7558 53.5581L30.8619 53.5227L29.4154 44.4821L29.2896 44.4428ZM27.1749 43.7628L29.9736 53.8293L30.0679 53.7978L27.3125 43.8021L27.1749 43.7628ZM26.888 43.6724L28.7393 54.2577L28.8297 54.2302L27.0137 43.7038L26.888 43.6724ZM24.8086 43.3461L28.0514 54.5014L28.1301 54.47L24.8715 43.2007C24.8715 43.2479 24.8401 43.295 24.8283 43.3422L24.8086 43.3461ZM24.7457 43.5584L26.9823 54.8709L27.057 54.8473L24.8165 43.3894C24.7968 43.4444 24.7811 43.5033 24.7654 43.5584H24.7457ZM24.0264 48.059L26.3102 55.1107H26.377L24.0186 47.9018V48.0787L24.0264 48.059ZM24.0579 50.4528L25.1585 55.5077H25.2135L24.0343 50.0794C24.0382 50.1973 24.0461 50.3231 24.0579 50.4528Z" fill="#DBDBDB"/>
<path d="M25.1006 55.5354L26.6768 55.3664L45.2493 48.8965L43.6771 49.0655L25.1006 55.5354Z" fill="#37496E"/>
<path d="M43.6753 49.0654L45.2475 48.8964L26.4942 42.8628L24.918 43.0318L43.6753 49.0654Z" fill="#37496E"/>
<path d="M54.0651 28.8423L54.1948 49.0775L35.2017 42.9456C37.8785 34.4278 45.2564 28.9012 54.0651 28.8423Z" fill="#3B436C"/>
<path d="M53.5393 28.8496L54.0581 29.7301V29.848L53.4685 28.8535L53.5393 28.8496ZM52.8042 28.8889L54.0738 31.7112V31.5539L52.8946 28.8811L52.8042 28.8889ZM50.5991 29.1523L54.0935 34.8911V34.7339L50.6816 29.1405L50.5991 29.1523ZM50.1274 29.2427L54.1131 37.7605V37.56L50.206 29.2309C50.1795 29.2326 50.1532 29.2365 50.1274 29.2427ZM51.4639 36.2157L54.1289 40.1464V40.001L51.5503 36.1843L48.4294 31.55L47.3838 30.0052C47.3515 30.0146 47.32 30.0265 47.2895 30.0406L48.3468 31.6129L51.4639 36.2157ZM47.0536 30.1271L54.1289 42.5402V42.3201L47.1479 30.0878L47.0536 30.1271ZM44.6637 31.2198L54.1485 43.6565V43.4679L44.7699 31.1609L44.6637 31.2198ZM44.4476 31.3377L54.1682 46.2194V45.9835L44.5537 31.2788C44.5215 31.3079 44.4859 31.333 44.4476 31.3535V31.3377ZM42.3879 32.6702L54.18 46.8208V46.6124L42.5058 32.5877L42.3879 32.6702ZM42.1481 32.855L52.9221 48.6682L53.1541 48.7429L42.2621 32.7685C42.2215 32.7938 42.1834 32.8228 42.1481 32.855ZM40.3714 34.388L52.3483 48.4834L52.6195 48.5699L40.4736 34.2897C40.4415 34.3244 40.4074 34.3572 40.3714 34.388ZM40.1788 34.5845L49.6125 47.599L49.8208 47.6659L40.2771 34.498L40.1788 34.5845ZM38.6341 36.3337L48.5827 47.2649L48.8264 47.3475L38.7087 36.2393L38.6341 36.3337ZM38.3904 36.656L45.5796 46.2901L45.7604 46.3491L38.465 36.5577C38.4375 36.5892 38.4139 36.6245 38.3904 36.656ZM37.16 38.5034L43.9287 45.7634L44.1292 45.8302L37.2111 38.4287C37.1923 38.4523 37.1753 38.4773 37.16 38.5034ZM36.9753 38.8218L41.8808 45.1109L42.0302 45.1581L37.0225 38.7353C37.0051 38.7632 36.9894 38.7921 36.9753 38.8218ZM35.9455 40.909L39.263 44.2619L39.4438 44.3248L35.9887 40.8382C35.9728 40.8609 35.9584 40.8845 35.9455 40.909ZM35.7646 41.3414L37.73 43.7666L37.8558 43.8098L35.7882 41.2627C35.7787 41.2884 35.7709 41.3147 35.7646 41.3414Z" fill="#263238"/>
<path d="M54.1948 49.0771L73.1879 55.2051C71.9455 59.2538 69.4481 62.8027 66.0567 65.3392C62.6653 67.8757 58.5554 69.2685 54.3206 69.3163C52.2272 69.3273 50.1454 69.0049 48.1533 68.3611C41.8642 66.329 37.3557 61.8165 35.2764 55.4527L54.1948 49.0771Z" fill="#029E82"/>
<path d="M73.1857 55.2051H74.758C73.5153 59.2533 71.0179 62.8017 67.6264 65.3376C64.2349 67.8734 60.1251 69.2654 55.8906 69.3124H54.3184C58.5526 69.2648 62.6622 67.8726 66.0536 65.3368C69.4449 62.8011 71.9425 59.253 73.1857 55.2051Z" fill="#029E82"/>
<g opacity="0.1">
<path d="M73.1911 55.2051H74.7634C73.5207 59.2533 71.0232 62.8017 67.6318 65.3376C64.2403 67.8734 60.1304 69.2654 55.896 69.3124H54.3237C58.558 69.2648 62.6676 67.8726 66.0589 65.3368C69.4503 62.8011 71.9479 59.253 73.1911 55.2051Z" fill="black"/>
</g>
<path opacity="0.1" d="M72.3288 54.9378L72.545 56.966C72.5467 56.9738 72.5467 56.9818 72.545 56.9896L72.3249 54.9338L72.3288 54.9378ZM70.1512 54.2342L71.7471 58.6641L70.1748 54.2578L70.1512 54.2342ZM69.3651 53.9865L70.3321 60.9321V60.9046L69.3651 53.9944V53.9865ZM67.9933 53.5424L70.0215 61.3605V61.333L68.0051 53.5581L67.9933 53.5424ZM67.4587 53.3733L68.5357 63.1215L68.5672 63.0861L67.5137 53.3655L67.4587 53.3733ZM65.8393 52.8506L68.1977 63.4635L68.2331 63.4281L65.8746 52.8742L65.8393 52.8506ZM65.4462 52.7209L66.4014 65.0593L66.4525 65.0239L65.4973 52.7366L65.4462 52.7209ZM63.9643 52.2452L63.8975 52.2217L66.1144 65.2834L66.1655 65.2441L63.9643 52.2452ZM63.3787 52.0566L63.5477 66.9421L63.6145 66.9028L63.4455 52.0762L63.3787 52.0566ZM61.6845 51.5102L61.598 51.4788L63.3275 67.0561L63.3983 67.0207L61.6845 51.5102ZM61.0792 68.0663L61.1735 68.0309L61.3032 51.3883L61.2246 51.3569L61.0792 68.0663ZM59.6248 50.8459L59.5266 50.8105L60.9102 68.1292L60.9966 68.0977L59.6248 50.8459ZM58.709 68.7895C58.7461 68.784 58.7829 68.7761 58.819 68.766L59.3693 50.7398L59.2671 50.7083L58.709 68.7895ZM57.3529 50.0912L57.231 50.0519L58.5085 68.8367L58.6186 68.8131L57.3529 50.0912ZM55.4347 49.4702L55.2932 49.4269L55.9614 69.2376H56.0911H56.2208L57.062 50.0205L56.9402 49.9812L56.0911 69.2141L55.4347 49.4702ZM53.0763 49.4702L52.9466 49.5095L53.4143 69.3045H53.5362H53.6738L55.1281 49.364L54.9866 49.3208L53.548 69.1748L53.0763 49.4702ZM50.9026 69.0372L51.0166 69.0568L52.8247 49.5527L52.695 49.596L50.9026 69.0372ZM51.162 50.1148L50.7926 69.0175H50.9026L51.2682 50.0598L51.162 50.1148ZM48.1511 68.3572H48.1826H48.2415L51.0363 50.1266L50.9223 50.1659L48.1511 68.3572ZM48.0961 67.516L48.0332 68.3336L48.1275 68.365L48.1904 67.5199L48.3948 64.8628L48.7879 59.5445L49.4601 50.6887L49.3736 50.7201L48.6936 59.5406L48.3005 64.8549L48.0961 67.516ZM45.1992 67.1701L45.2699 67.2055L49.1653 50.7948L49.0709 50.8263L45.1992 67.1701ZM46.8815 51.5652L44.9515 67.0325L45.0223 67.0679L46.9365 51.522L46.8815 51.5652ZM42.9508 65.869L43.0019 65.9044L46.626 51.6478L46.5513 51.6714L42.9508 65.869ZM41.7991 53.2908L40.4902 63.9037C40.5051 63.9133 40.5183 63.9253 40.5295 63.9391L41.8345 53.2712L41.7991 53.2908ZM38.6546 61.8715L38.6782 61.903L41.4296 53.4205H41.3903L38.6546 61.8715ZM44.4366 52.4064L42.5931 65.6096C42.6082 65.624 42.6255 65.6359 42.6442 65.645L44.4602 52.3514L44.4366 52.4064ZM40.7654 64.1553L40.8007 64.1828L42.7661 57.3316L43.9925 53.0078L44.134 52.5086H44.0789L43.9256 52.9724L42.6993 57.2962L40.7654 64.1553ZM40.0735 53.8372L38.4344 61.5649C38.4337 61.5754 38.4337 61.5859 38.4344 61.5964L40.0814 53.8293L40.0735 53.8372ZM37.3889 60.0477C37.3862 60.0553 37.3862 60.0636 37.3889 60.0713L39.7198 53.9708H39.6923L37.3889 60.0477ZM38.458 54.3993L37.1412 59.6389V59.6625L38.462 54.3953L38.458 54.3993ZM36.5556 55.0439L35.8402 57.0092L36.5595 55.0439H36.5556ZM35.3135 55.5706C35.3462 55.519 35.3816 55.4691 35.4196 55.4212L35.3135 55.5706Z" fill="black"/>
<path d="M54.061 28.8417C65.067 28.771 74.0447 37.7723 74.1076 48.9472C74.1392 51.0699 73.8245 53.1835 73.176 55.2049L54.1829 49.0769L54.061 28.8417Z" fill="#3A466D"/>
<path d="M71.6386 39.3018L71.7054 39.4315L54.1627 45.0288V44.8755L71.6386 39.3018ZM71.7565 39.5258L54.1784 47.0767V47.2182L71.8194 39.6477C71.8008 39.6059 71.7798 39.5652 71.7565 39.5258ZM54.1509 42.6704V42.808L70.2668 37.1517C70.2425 37.1093 70.2135 37.0697 70.1803 37.0338L54.1509 42.6704ZM70.3533 37.2499L54.1588 44.3842V44.5453L70.4279 37.3679C70.4083 37.3207 70.3768 37.2814 70.3533 37.2499ZM54.1156 37.816V37.9103L66.399 33.0991L66.3164 33.0323L54.1156 37.816ZM66.6663 33.3193L54.1273 39.5298V39.6477L66.7488 33.3586C66.7226 33.3429 66.695 33.3297 66.6663 33.3193ZM54.1313 40.08V40.194L68.4469 34.9584C68.4187 34.9263 68.3885 34.8961 68.3565 34.8679L54.1313 40.08ZM68.6749 35.1863L54.147 42.1633V42.3009L68.7456 35.2571C68.7181 35.2296 68.6906 35.1981 68.6591 35.1706L68.6749 35.1863ZM54.0841 32.9262V32.9812L60.4007 29.8602H60.33L54.0841 32.9262ZM61.1594 30.1275L54.1116 34.4513V34.4985L61.234 30.1354L61.1594 30.1275ZM54.0998 35.3671V35.4418L63.8755 31.3932C63.848 31.3752 63.819 31.3594 63.789 31.346L54.0998 35.3671ZM64.3432 31.6684L54.1234 37.1438V37.2499L64.4297 31.7234L64.3432 31.6684ZM54.0723 30.5678V30.6071L57.0085 29.0348H56.9496L54.0723 30.5678ZM58.2153 29.2549L54.0802 32.0889V32.14L58.2782 29.2628C58.2574 29.2592 58.2363 29.2579 58.2153 29.2588V29.2549ZM54.0645 29.5458V29.5812L55.0471 28.8579H54.996L54.0645 29.5458ZM74.0363 50.8737L65.9941 52.8902L66.0963 52.9256L74.0363 50.9366C74.0363 50.9366 74.0363 50.8973 74.0363 50.8737ZM63.1444 51.9704L63.2937 52.0176L74.056 50.5789C74.056 50.5554 74.056 50.5357 74.056 50.5121L63.1444 51.9704ZM73.6433 53.4877L70.4673 54.3288L70.5419 54.3524L73.6354 53.5348C73.6399 53.5195 73.6426 53.5036 73.6433 53.4877ZM68.8399 53.806L68.95 53.8414L73.6668 53.3462C73.6687 53.3305 73.6687 53.3147 73.6668 53.299L68.8399 53.806ZM74.0953 48.134L61.5564 51.4555L61.6861 51.4948L74.0953 48.2127V48.134ZM57.9401 50.2841L58.1288 50.347L74.0835 47.9532C74.0854 47.9258 74.0854 47.8982 74.0835 47.8707L57.9401 50.2841ZM65.2473 47.4344L57.0832 50.009L57.2326 50.0601L65.2787 47.5248L70.5891 45.8503L73.2502 45.017L73.6904 44.8794C73.6904 44.848 73.6904 44.8165 73.6904 44.7812L73.2423 44.9227L70.5852 45.7599L65.2473 47.4344ZM54.3828 49.1403L54.5833 49.2032L73.6433 44.7379C73.6386 44.7061 73.6321 44.6746 73.6236 44.6436L54.3828 49.1403ZM72.8571 42.0061L54.202 49.0813L54.3671 49.1324L72.9004 42.1201C72.8894 42.0809 72.8749 42.0427 72.8571 42.0061ZM54.1745 47.3794V47.513L72.8571 41.9668C72.8468 41.9274 72.8323 41.8891 72.8139 41.8528L54.1745 47.3794Z" fill="#3B436C"/>
<path d="M54.061 28.8418H55.6333C66.6393 28.7671 75.6209 37.7684 75.6799 48.9434C75.7124 51.0677 75.3964 53.1829 74.7444 55.205H73.1721C73.8206 53.1836 74.1353 51.0699 74.1037 48.9473C74.0368 37.7723 65.0631 28.771 54.061 28.8418Z" fill="#3B436C"/>
<path d="M148.631 54.6005C148.632 56.9705 147.974 59.294 146.73 61.3116C145.487 63.3293 143.708 64.9617 141.59 66.0266C139.473 67.0916 137.102 67.5471 134.74 67.3424C132.379 67.1378 130.122 66.2809 128.219 64.8675L121.954 66.4673L124.564 60.6342C123.646 58.9197 123.132 57.0185 123.059 55.0753C122.987 53.1321 123.358 51.1979 124.146 49.4199C124.933 47.6419 126.116 46.0668 127.603 44.8145C129.091 43.5621 130.844 42.6654 132.731 42.1925C134.617 41.7197 136.586 41.6831 138.488 42.0856C140.391 42.4881 142.176 43.3191 143.709 44.5154C145.243 45.7117 146.483 47.2418 147.335 48.9894C148.188 50.7369 148.631 52.656 148.631 54.6005Z" fill="white"/>
<path d="M148.632 54.6C148.63 56.9701 147.973 59.2936 146.734 61.3136C146.426 61.8166 146.088 62.2997 145.72 62.7601C145.338 63.2083 144.929 63.6336 144.497 64.0336C144.285 64.239 144.062 64.4332 143.829 64.6154L143.125 65.1578C142.889 65.3347 142.626 65.4723 142.378 65.6334L141.985 65.8654C141.856 65.94 141.722 65.999 141.592 66.0658L140.806 66.4589L139.973 66.7694C139.698 66.8754 139.415 66.9621 139.128 67.0288C138.841 67.0957 138.558 67.1939 138.267 67.2372C137.686 67.3522 137.097 67.4245 136.506 67.4534C135.915 67.5005 135.321 67.5005 134.729 67.4534C132.345 67.2652 130.061 66.4158 128.134 65.0006L128.252 65.0242L121.994 66.6358L121.648 66.7262L121.793 66.396L124.388 60.555V60.724C123.447 58.9883 122.924 57.0568 122.863 55.0834C122.766 52.6256 123.377 50.1917 124.622 48.0704C125.867 45.9491 127.694 44.2295 129.887 43.1156C132.08 42.0017 134.547 41.5403 136.994 41.786C139.442 42.0317 141.767 42.9744 143.695 44.502C145.229 45.7013 146.471 47.2334 147.326 48.9827C148.181 50.732 148.628 52.6528 148.632 54.6ZM148.632 54.6C148.634 52.6615 148.192 50.7483 147.34 49.0073C146.487 47.2664 145.247 45.744 143.714 44.5571C142.181 43.3702 140.397 42.5504 138.498 42.1606C136.599 41.7708 134.636 41.8215 132.76 42.3087C130.896 42.7864 129.166 43.6831 127.701 44.9305C126.252 46.1869 125.094 47.7442 124.309 49.494C123.54 51.2485 123.18 53.1547 123.255 55.0688C123.331 56.9829 123.84 58.8548 124.745 60.5432L124.793 60.6257L124.753 60.7083L122.127 66.5375L121.931 66.3017L128.22 64.7294H128.283L128.338 64.7726C130.213 66.1846 132.443 67.0474 134.78 67.2647C135.362 67.321 135.947 67.3302 136.53 67.2922C137.115 67.2686 137.698 67.2056 138.275 67.1035C138.566 67.0642 138.845 66.9699 139.128 66.9031C139.415 66.844 139.698 66.7625 139.973 66.6594L140.798 66.3646L141.584 65.9911C141.714 65.9243 141.852 65.8693 141.978 65.7985L142.371 65.5706C142.622 65.4173 142.882 65.2797 143.121 65.1067L143.829 64.5839C144.06 64.4044 144.282 64.2128 144.493 64.0101C144.928 63.6147 145.338 63.192 145.72 62.7444C146.089 62.288 146.429 61.8089 146.738 61.3097C147.977 59.291 148.633 56.9686 148.632 54.6Z" fill="#263238"/>
<path d="M133.769 62.2099L128.038 56.4082L129.96 54.5057L133.309 57.894L140.266 46.9902L142.55 48.4446L133.769 62.2099Z" fill="#029E82"/>
</svg>
