<svg width="82" height="82" viewBox="0 0 82 82" fill="none" xmlns="http://www.w3.org/2000/svg">
<circle cx="41" cy="41" r="41" fill="url(#paint0_linear_220_14273)"/>
<path d="M45.6468 58.9507C44.9663 58.2511 44.6396 57.4058 44.6668 56.4148C44.694 55.4238 45.0491 54.5785 45.7319 53.8789L55.3451 43.9978H17.4029C16.4387 43.9978 15.63 43.662 14.9766 42.9904C14.3233 42.3188 13.9977 41.4887 14 40.5C14 39.509 14.3267 38.6777 14.98 38.0061C15.6334 37.3345 16.441 36.9999 17.4029 37.0022H55.3451L45.6468 27.0336C44.9663 26.3341 44.626 25.5028 44.626 24.5397C44.626 23.5767 44.9663 22.7465 45.6468 22.0493C46.3274 21.3498 47.1362 21 48.0731 21C49.01 21 49.8176 21.3498 50.496 22.0493L66.0642 38.0516C66.4044 38.4013 66.646 38.7803 66.789 39.1883C66.9319 39.5964 67.0022 40.0336 67 40.5C67 40.9664 66.9285 41.4036 66.7856 41.8117C66.6426 42.2197 66.4022 42.5987 66.0642 42.9484L50.4109 59.0381C49.787 59.6794 49.0078 60 48.0731 60C47.1384 60 46.3297 59.6502 45.6468 58.9507Z" fill="white"/>
<defs>
<linearGradient id="paint0_linear_220_14273" x1="-12" y1="41" x2="98.5" y2="41" gradientUnits="userSpaceOnUse">
<stop stop-color="#1CD1CC"/>
<stop offset="1" stop-color="#466EDE"/>
<stop offset="1" stop-color="#8C60EA"/>
</linearGradient>
</defs>
</svg>
