<svg width="40" height="40" viewBox="0 0 40 40" fill="none" xmlns="http://www.w3.org/2000/svg">
<path fill-rule="evenodd" clip-rule="evenodd" d="M0.00219775 3.30039C0.00219775 2.42507 0.349916 1.58561 0.968858 0.966664C1.5878 0.347722 2.42726 4.39988e-06 3.30258 4.39988e-06H36.2023C36.636 -0.000704072 37.0657 0.0841532 37.4666 0.249718C37.8676 0.415282 38.2319 0.658303 38.5388 0.964866C38.8457 1.27143 39.0891 1.63551 39.2551 2.03628C39.4212 2.43704 39.5065 2.86661 39.5062 3.30039V36.2001C39.5067 36.6339 39.4216 37.0636 39.2559 37.4646C39.0901 37.8655 38.8469 38.2299 38.5402 38.5368C38.2335 38.8436 37.8693 39.087 37.4684 39.253C37.0676 39.419 36.6379 39.5043 36.2041 39.504H3.30258C2.86902 39.504 2.4397 39.4186 2.03916 39.2526C1.63863 39.0867 1.27471 38.8434 0.968222 38.5368C0.66173 38.2301 0.418663 37.866 0.252909 37.4654C0.0871548 37.0648 0.00196187 36.6354 0.00219775 36.2019V3.30039ZM15.6386 15.0618H20.9878V17.7481C21.7599 16.2038 23.7351 14.814 26.7033 14.814C32.3937 14.814 33.7422 17.8899 33.7422 23.5336V33.9878H27.9836V24.8193C27.9836 21.6051 27.2115 19.7915 25.2507 19.7915C22.5303 19.7915 21.399 21.747 21.399 24.8193V33.9878H15.6386V15.0618ZM5.76261 33.7418H11.523V14.814H5.76261V33.74V33.7418ZM12.3472 8.64061C12.3581 9.13383 12.2703 9.62424 12.0891 10.0831C11.9078 10.5419 11.6368 10.9599 11.2918 11.3126C10.9468 11.6652 10.5349 11.9454 10.0801 12.1367C9.6254 12.328 9.13704 12.4266 8.64371 12.4266C8.15037 12.4266 7.66201 12.328 7.20728 12.1367C6.75254 11.9454 6.3406 11.6652 5.99562 11.3126C5.65064 10.9599 5.37958 10.5419 5.19834 10.0831C5.01711 9.62424 4.92934 9.13383 4.9402 8.64061C4.96152 7.6725 5.36107 6.75123 6.05329 6.07408C6.74551 5.39694 7.67536 5.01777 8.64371 5.01777C9.61205 5.01777 10.5419 5.39694 11.2341 6.07408C11.9263 6.75123 12.3259 7.6725 12.3472 8.64061Z" fill="white"/>
</svg>
