<svg width="41" height="40" viewBox="0 0 41 40" fill="none" xmlns="http://www.w3.org/2000/svg">
<path fill-rule="evenodd" clip-rule="evenodd" d="M12.107 0.118512C14.2133 0.0215476 14.8848 0 20.2502 0C25.6156 0 26.2871 0.0233433 28.3916 0.118512C30.4961 0.213681 31.9326 0.549465 33.1896 1.03608C34.5058 1.53348 35.6999 2.31099 36.6875 3.31654C37.693 4.30235 38.4687 5.49465 38.9643 6.81265C39.4527 8.0696 39.7867 9.50611 39.8837 11.607C39.9807 13.7169 40.0022 14.3884 40.0022 19.752C40.0022 25.1174 39.9789 25.789 39.8837 27.8952C39.7885 29.9961 39.4527 31.4326 38.9643 32.6896C38.4687 34.0078 37.6917 35.2021 36.6875 36.1893C35.6999 37.1949 34.5058 37.9706 33.1896 38.4662C31.9326 38.9546 30.4961 39.2886 28.3952 39.3855C26.2871 39.4825 25.6156 39.504 20.2502 39.504C14.8848 39.504 14.2133 39.4807 12.107 39.3855C10.0061 39.2904 8.56956 38.9546 7.31262 38.4662C5.99448 37.9705 4.8002 37.1935 3.81292 36.1893C2.80804 35.2029 2.03041 34.0092 1.53425 32.6914C1.04763 31.4344 0.713646 29.9979 0.616681 27.897C0.519717 25.7872 0.498169 25.1156 0.498169 19.752C0.498169 14.3867 0.521512 13.7151 0.616681 11.6106C0.71185 9.50611 1.04763 8.0696 1.53425 6.81265C2.03115 5.4948 2.80937 4.30112 3.81471 3.31475C4.80059 2.31009 5.99367 1.53248 7.31082 1.03608C8.56777 0.549465 10.0043 0.215477 12.1052 0.118512H12.107ZM28.2318 3.67388C26.1489 3.57871 25.524 3.55896 20.2502 3.55896C14.9764 3.55896 14.3515 3.57871 12.2686 3.67388C10.3419 3.76186 9.2968 4.08328 8.60009 4.35442C7.67893 4.71355 7.01993 5.13912 6.32861 5.83044C5.67328 6.46798 5.16895 7.24411 4.85259 8.10192C4.58145 8.79863 4.26003 9.84369 4.17204 11.7704C4.07688 13.8533 4.05712 14.4782 4.05712 19.752C4.05712 25.0258 4.07688 25.6507 4.17204 27.7336C4.26003 29.6604 4.58145 30.7054 4.85259 31.4021C5.16862 32.2586 5.6732 33.0362 6.32861 33.6736C6.96606 34.329 7.74357 34.8336 8.60009 35.1496C9.2968 35.4208 10.3419 35.7422 12.2686 35.8302C14.3515 35.9253 14.9746 35.9451 20.2502 35.9451C25.5258 35.9451 26.1489 35.9253 28.2318 35.8302C30.1585 35.7422 31.2036 35.4208 31.9003 35.1496C32.8215 34.7905 33.4805 34.3649 34.1718 33.6736C34.8272 33.0362 35.3318 32.2586 35.6478 31.4021C35.9189 30.7054 36.2403 29.6604 36.3283 27.7336C36.4235 25.6507 36.4433 25.0258 36.4433 19.752C36.4433 14.4782 36.4235 13.8533 36.3283 11.7704C36.2403 9.84369 35.9189 8.79863 35.6478 8.10192C35.2887 7.18076 34.8631 6.52176 34.1718 5.83044C33.5342 5.17516 32.7581 4.67083 31.9003 4.35442C31.2036 4.08328 30.1585 3.76186 28.2318 3.67388ZM17.7273 25.841C19.1363 26.4275 20.7052 26.5067 22.166 26.065C23.6269 25.6233 24.889 24.6881 25.737 23.4192C26.5849 22.1502 26.966 20.6263 26.8151 19.1076C26.6643 17.5889 25.9909 16.1697 24.9099 15.0923C24.2208 14.4037 23.3876 13.8764 22.4702 13.5484C21.5528 13.2204 20.5742 13.0998 19.6047 13.1955C18.6351 13.2911 17.6989 13.6005 16.8633 14.1014C16.0277 14.6023 15.3135 15.2822 14.7722 16.0922C14.231 16.9023 13.876 17.8222 13.7329 18.7859C13.5899 19.7496 13.6623 20.733 13.9449 21.6653C14.2275 22.5976 14.7133 23.4557 15.3673 24.1778C16.0214 24.8998 16.8274 25.4679 17.7273 25.841ZM13.0712 12.5731C14.014 11.6303 15.1332 10.8825 16.365 10.3723C17.5967 9.86204 18.9169 9.59944 20.2502 9.59944C21.5834 9.59944 22.9036 9.86204 24.1354 10.3723C25.3672 10.8825 26.4864 11.6303 27.4292 12.5731C28.3719 13.5158 29.1197 14.635 29.63 15.8668C30.1402 17.0986 30.4028 18.4188 30.4028 19.752C30.4028 21.0853 30.1402 22.4055 29.63 23.6372C29.1197 24.869 28.3719 25.9882 27.4292 26.931C25.5252 28.835 22.9428 29.9046 20.2502 29.9046C17.5576 29.9046 14.9752 28.835 13.0712 26.931C11.1672 25.027 10.0976 22.4447 10.0976 19.752C10.0976 17.0594 11.1672 14.477 13.0712 12.5731ZM32.6545 11.1114C32.8881 10.891 33.0751 10.626 33.2045 10.3321C33.3338 10.0381 33.4029 9.72117 33.4076 9.40004C33.4123 9.07891 33.3525 8.76011 33.2317 8.4625C33.111 8.1649 32.9318 7.89454 32.7047 7.66745C32.4776 7.44035 32.2072 7.26113 31.9096 7.14039C31.612 7.01965 31.2932 6.95985 30.9721 6.96453C30.6509 6.96921 30.334 7.03828 30.0401 7.16764C29.7461 7.29701 29.4811 7.48403 29.2607 7.71765C28.8321 8.172 28.5975 8.7755 28.6066 9.40004C28.6157 10.0246 28.8678 10.621 29.3095 11.0626C29.7511 11.5043 30.3475 11.7565 30.9721 11.7656C31.5966 11.7747 32.2001 11.54 32.6545 11.1114Z" fill="white"/>
</svg>
