<svg width="455" height="391" viewBox="0 0 455 391" fill="none" xmlns="http://www.w3.org/2000/svg">
<rect width="455" height="391" fill="#FFDB01"/>
<circle cx="227.867" cy="196.867" r="159.867" fill="#FFDB01"/>
<path d="M319.726 126.904C319.129 130.924 317.391 134.688 314.717 137.748C312.044 140.809 308.547 143.037 304.644 144.169C300.741 145.3 296.595 145.287 292.699 144.131C288.803 142.975 285.321 140.724 282.667 137.646C280.013 134.569 278.298 130.794 277.727 126.771C277.156 122.747 277.752 118.644 279.445 114.95C281.137 111.255 283.855 108.124 287.275 105.929C290.695 103.734 294.674 102.568 298.738 102.568V123.782L319.726 126.904Z" fill="#EBEBEB"/>
<path d="M324.273 119.473C324.274 120.516 324.197 121.557 324.041 122.589L303.059 119.473V98.2586C305.845 98.2562 308.605 98.8033 311.18 99.8686C313.755 100.934 316.094 102.496 318.065 104.467C320.035 106.437 321.598 108.777 322.663 111.352C323.728 113.926 324.275 116.686 324.273 119.473Z" fill="#DBDBDB"/>
<path d="M323.596 131.326H301.035V131.92H323.596V131.326Z" fill="#029E82"/>
<path d="M325.181 133.505C324.809 133.506 324.445 133.396 324.134 133.19C323.824 132.984 323.582 132.691 323.439 132.347C323.296 132.003 323.257 131.625 323.329 131.259C323.401 130.894 323.58 130.558 323.843 130.295C324.106 130.031 324.441 129.851 324.806 129.778C325.171 129.705 325.55 129.742 325.894 129.884C326.238 130.026 326.533 130.267 326.74 130.577C326.947 130.887 327.057 131.251 327.057 131.623C327.058 131.87 327.01 132.114 326.916 132.343C326.822 132.571 326.684 132.778 326.51 132.953C326.336 133.128 326.129 133.267 325.901 133.361C325.673 133.456 325.428 133.505 325.181 133.505ZM325.181 130.341C324.926 130.34 324.676 130.414 324.464 130.555C324.251 130.697 324.085 130.898 323.987 131.133C323.888 131.369 323.862 131.628 323.912 131.879C323.961 132.129 324.084 132.359 324.265 132.54C324.445 132.72 324.675 132.843 324.926 132.892C325.176 132.942 325.436 132.916 325.671 132.818C325.907 132.719 326.108 132.553 326.249 132.341C326.39 132.128 326.465 131.878 326.464 131.623C326.464 131.283 326.328 130.957 326.088 130.716C325.848 130.476 325.522 130.341 325.181 130.341Z" fill="#029E82"/>
<path d="M348.442 130.436H330.915V131.225H348.442V130.436Z" fill="#029E82"/>
<path d="M340.833 132.021H330.915V132.81H340.833V132.021Z" fill="#029E82"/>
<path d="M117.784 172.05H112.186V211.878H117.784V172.05Z" fill="#EBEBEB"/>
<path d="M127.405 181.696H121.807V211.884H127.405V181.696Z" fill="#EBEBEB"/>
<path d="M137.027 196.784H131.43V211.879H137.027V196.784Z" fill="#EBEBEB"/>
<path d="M146.643 188.166H141.046V211.879H146.643V188.166Z" fill="#EBEBEB"/>
<path d="M156.264 179.114H150.667V211.885H156.264V179.114Z" fill="#EBEBEB"/>
<path d="M165.886 173.79H160.289V211.884H165.886V173.79Z" fill="#EBEBEB"/>
<path d="M108.94 166.987L109.005 178.212L109.041 189.436L109.082 211.878L108.94 211.742C114.084 211.742 119.228 211.742 124.372 211.742L139.805 211.772L155.238 211.801L170.67 211.884L155.238 211.968L139.805 212.003L124.372 212.033C119.228 212.033 114.084 212.033 108.94 212.033H108.803V211.89L108.845 189.448V178.223L108.94 166.987Z" fill="#EBEBEB"/>
<path d="M107.705 169.225C108.107 169.113 108.523 169.061 108.94 169.071C109.357 169.06 109.773 169.112 110.175 169.225C109.773 169.337 109.357 169.391 108.94 169.385C108.523 169.39 108.107 169.336 107.705 169.225Z" fill="#EBEBEB"/>
<path d="M107.705 172.65C108.107 172.539 108.523 172.485 108.94 172.49C109.357 172.484 109.773 172.538 110.175 172.65C109.773 172.762 109.357 172.816 108.94 172.81C108.523 172.815 108.107 172.761 107.705 172.65Z" fill="#EBEBEB"/>
<path d="M107.705 176.063C108.107 175.952 108.523 175.898 108.94 175.903C109.357 175.897 109.773 175.951 110.175 176.063C109.773 176.175 109.357 176.229 108.94 176.223C108.523 176.228 108.107 176.174 107.705 176.063Z" fill="#EBEBEB"/>
<path d="M107.705 179.476C108.107 179.365 108.523 179.311 108.94 179.316C109.357 179.31 109.773 179.364 110.175 179.476C109.773 179.589 109.357 179.641 108.94 179.63C108.523 179.64 108.107 179.588 107.705 179.476Z" fill="#EBEBEB"/>
<path d="M107.705 182.877C108.107 182.766 108.523 182.712 108.94 182.717C109.357 182.708 109.773 182.762 110.175 182.877C109.772 182.987 109.357 183.039 108.94 183.031C108.523 183.038 108.108 182.986 107.705 182.877Z" fill="#EBEBEB"/>
<path d="M107.705 186.296C108.107 186.184 108.523 186.132 108.94 186.142C109.357 186.131 109.773 186.183 110.175 186.296C109.773 186.408 109.357 186.462 108.94 186.456C108.523 186.461 108.107 186.407 107.705 186.296Z" fill="#EBEBEB"/>
<path d="M107.705 189.709C108.107 189.598 108.523 189.544 108.94 189.549C109.357 189.543 109.773 189.597 110.175 189.709C109.773 189.821 109.357 189.875 108.94 189.869C108.523 189.874 108.107 189.82 107.705 189.709Z" fill="#EBEBEB"/>
<path d="M107.705 193.122C108.107 193.011 108.523 192.957 108.94 192.962C109.357 192.956 109.773 193.01 110.175 193.122C109.773 193.234 109.357 193.288 108.94 193.282C108.523 193.287 108.107 193.233 107.705 193.122Z" fill="#EBEBEB"/>
<path d="M107.705 196.529C108.107 196.418 108.523 196.364 108.94 196.369C109.357 196.363 109.773 196.417 110.175 196.529C109.773 196.642 109.357 196.694 108.94 196.683C108.523 196.693 108.107 196.641 107.705 196.529Z" fill="#EBEBEB"/>
<path d="M107.705 199.948C108.107 199.837 108.523 199.783 108.94 199.788C109.357 199.779 109.773 199.833 110.175 199.948C109.773 200.061 109.357 200.113 108.94 200.102C108.523 200.109 108.108 200.057 107.705 199.948Z" fill="#EBEBEB"/>
<path d="M107.705 203.355C108.108 203.246 108.523 203.194 108.94 203.201C109.357 203.19 109.773 203.242 110.175 203.355C109.773 203.47 109.357 203.524 108.94 203.515C108.523 203.52 108.107 203.466 107.705 203.355Z" fill="#EBEBEB"/>
<path d="M107.705 206.768C108.107 206.657 108.523 206.603 108.94 206.608C109.357 206.602 109.773 206.656 110.175 206.768C109.773 206.88 109.357 206.934 108.94 206.928C108.523 206.933 108.107 206.879 107.705 206.768Z" fill="#EBEBEB"/>
<path d="M150.306 161.515H167.098L202.474 217.346H185.676L150.306 161.515Z" fill="#029E82"/>
<path opacity="0.1" d="M150.306 161.515H167.098L202.474 217.346H185.676L150.306 161.515Z" fill="black"/>
<path d="M240.991 130.038H257.789L293.159 185.875H276.367L240.991 130.038Z" fill="#029E82"/>
<path opacity="0.1" d="M240.991 130.038H257.789L293.159 185.875H276.367L240.991 130.038Z" fill="black"/>
<path d="M167.08 161.515H150.282L103.841 234.82H120.633L167.08 161.515Z" fill="#029E82"/>
<path d="M257.818 130.038H241.02L185.706 217.345H202.498L257.818 130.038Z" fill="#029E82"/>
<path d="M348.39 98.5614H331.598L276.284 185.875H293.076L348.39 98.5614Z" fill="#029E82"/>
<path d="M327.698 98.5615H352.36L346.033 86.8979L327.698 98.5615Z" fill="#029E82"/>
<path d="M222.686 193.496C210.868 203.236 180.157 238.251 178.584 240.667C174.47 247.006 170.915 277.847 189.268 273.514C207.621 269.181 228.075 217.5 234.248 199.984C237.525 190.7 232.331 185.548 222.686 193.496Z" fill="#029E82"/>
<path opacity="0.1" d="M195.638 270.303C212.133 257.838 228.77 215.5 234.219 199.984C236.22 194.327 235.068 190.196 231.679 189.644L195.638 270.303Z" fill="black"/>
<path d="M181.569 208.252C179.456 204.317 151.078 215.571 153.369 221.732C161.75 244.287 173.794 265.756 178.18 270.012C183.932 275.592 192.948 272.357 195.702 267.638C199.525 261.038 183.665 212.152 181.569 208.252Z" fill="#D3766A"/>
<path d="M159.649 226.51C163.264 228.131 182.502 211.499 181.611 207.516C180.804 203.955 180.353 193.342 182.709 185.685C184.68 179.251 188.348 169.926 184.923 168.733C179.943 166.988 173.895 178.23 170.814 184.884C168.482 181.649 166.167 179.084 164.285 178.081C157.993 174.757 139.575 200.975 142.46 207.617C145.214 214.033 156.029 224.896 159.649 226.51Z" fill="#D3766A"/>
<path d="M176.92 172.353L172.31 169.086L157.938 189.369L162.549 192.636L176.92 172.353Z" fill="#029E82"/>
<path d="M153.814 207.492L146.84 202.548L159.578 184.569L166.552 189.507L153.814 207.492Z" fill="#263238"/>
<path d="M172.933 185.156C172.441 188.819 168.404 186.142 168.404 186.142C168.404 186.142 173.289 191.401 171.319 194.986C169.407 198.434 164.641 195.021 164.297 194.784C164.552 195.063 168.915 200.013 166.564 203.409C164.119 206.97 159.922 202.696 159.655 202.417C159.815 202.762 161.834 207.302 159.459 209.475C155.382 213.214 149.897 201.758 145.611 200.435C145.611 200.435 142.561 207.439 142.43 207.623C142.43 207.623 136.987 196.82 139.082 191.14C139.374 190.31 139.94 189.604 140.687 189.14C141.434 188.676 142.317 188.481 143.19 188.587C143.19 188.587 141.047 185.299 142.816 182.563C143.724 181.162 146.775 181.375 146.775 181.375C146.775 181.375 145.172 178.669 146.9 176.336C148.265 174.466 151.114 174.971 151.114 174.971C151.114 174.971 150.776 171.659 152.794 170.222C156.848 167.266 173.984 177.304 172.933 185.156Z" fill="#D3766A"/>
<path d="M151.576 174.977C151.568 174.977 151.56 174.974 151.552 174.97C151.545 174.966 151.539 174.96 151.534 174.953C151.529 174.946 151.526 174.938 151.525 174.93C151.525 174.921 151.526 174.913 151.529 174.905C151.532 174.897 151.536 174.89 151.543 174.884C151.549 174.878 151.556 174.874 151.564 174.872C151.573 174.87 151.581 174.87 151.589 174.871C151.598 174.873 151.606 174.877 151.612 174.882C158.046 176.805 164.528 180.895 168.636 186.261C168.772 186.439 168.546 186.735 168.357 186.569C163.068 181.844 157.993 178.075 151.576 174.977Z" fill="#263238"/>
<path d="M146.71 181.286C146.644 181.286 146.71 181.138 146.775 181.162C153.399 183.186 160.569 187.988 164.582 194.731C164.718 194.962 164.582 195.324 164.427 195.057C161.424 190.772 152.503 184.064 146.71 181.286Z" fill="#263238"/>
<path d="M159.774 202.987C155.678 196.672 149.974 192.303 143.469 188.653C143.385 188.605 143.469 188.486 143.54 188.51C147.208 189.424 151.114 192.184 153.969 194.582C156.663 196.764 158.74 199.612 159.993 202.845C160.041 202.975 159.857 203.124 159.774 202.987Z" fill="#263238"/>
<path d="M168.529 186.136C168.69 186.349 168.203 186.349 168.357 186.569C169.01 187.477 172.459 193.294 170.838 195.087C169.544 196.517 166.719 195.763 165.746 195.051L163.3 193.27L164.974 195.811C165.723 196.932 166.287 198.166 166.642 199.467C166.968 200.743 166.956 202.097 166.28 203.076C165.987 203.573 165.533 203.955 164.993 204.159C164.453 204.363 163.86 204.377 163.312 204.198C162.083 203.763 160.986 203.022 160.124 202.043L157.661 199.432L159.127 202.69C159.537 203.599 159.83 204.557 160 205.539C160.192 206.463 160.11 207.422 159.762 208.299C159.589 208.688 159.311 209.021 158.958 209.26C158.606 209.5 158.194 209.635 157.768 209.653C156.813 209.546 155.908 209.171 155.156 208.572C153.515 207.295 151.975 205.892 150.55 204.376C149.802 203.634 149.055 202.892 148.271 202.18C147.525 201.421 146.624 200.832 145.63 200.452C146.558 200.934 147.385 201.591 148.063 202.388C148.787 203.147 149.47 203.943 150.159 204.762C151.509 206.41 153.012 207.929 154.646 209.297C155.516 210.053 156.59 210.536 157.732 210.686C158.364 210.703 158.987 210.535 159.524 210.201C160.062 209.868 160.489 209.384 160.754 208.81C161.222 207.735 161.356 206.544 161.139 205.391C160.97 204.295 160.659 203.225 160.214 202.209L159.222 202.815C160.224 203.985 161.513 204.874 162.962 205.397C163.774 205.661 164.653 205.636 165.449 205.326C166.218 204.996 166.87 204.441 167.318 203.735C167.714 203.048 167.96 202.285 168.039 201.496C168.118 200.707 168.028 199.91 167.776 199.159C167.367 197.731 166.725 196.381 165.876 195.164L165.104 195.906C166.369 196.772 169.437 197.96 171.735 195.989C174.317 192.968 169.491 187.139 168.529 186.136Z" fill="#263238"/>
<path d="M168.404 186.142C169.109 186.43 169.853 186.61 170.612 186.676C170.916 186.71 171.223 186.661 171.502 186.536C171.78 186.411 172.02 186.213 172.197 185.964C172.509 185.365 172.641 184.689 172.577 184.017C172.541 183.269 172.464 182.491 172.357 181.684C172.847 182.348 173.194 183.106 173.378 183.91C173.501 184.348 173.536 184.805 173.481 185.257C173.426 185.708 173.282 186.144 173.057 186.539C172.765 186.955 172.35 187.269 171.87 187.436C171.418 187.578 170.935 187.59 170.475 187.471C169.662 187.258 168.936 186.793 168.404 186.142Z" fill="#263238"/>
<path d="M185.197 213.802L153.322 236.892C153.322 236.892 173.456 272.446 183 273.651C189.369 274.452 197.4 272.606 197.104 260.498C196.807 248.389 185.197 213.802 185.197 213.802Z" fill="#029E82"/>
<path d="M188.116 223.269C189.179 225.414 190.078 227.637 190.805 229.917C191.595 232.167 192.319 234.428 192.954 236.725C194.213 241.359 195.157 246.073 195.779 250.834C196.141 253.494 196.373 256.176 196.699 258.83C196.699 258.842 196.694 258.854 196.685 258.863C196.677 258.872 196.665 258.877 196.652 258.877C196.639 258.877 196.627 258.872 196.618 258.863C196.609 258.854 196.604 258.842 196.604 258.83C196.343 256.455 195.928 254.081 195.471 251.766C195.014 249.451 194.509 247.059 193.939 244.727C192.823 240.15 191.624 235.592 190.295 231.075C189.921 229.81 189.535 228.546 189.108 227.294C188.68 226.041 188.241 224.694 187.921 223.358C187.915 223.24 188.057 223.162 188.116 223.269Z" fill="#263238"/>
<path d="M186.128 223.281C185.232 223.78 184.401 224.409 183.564 224.99L180.958 226.771C179.177 227.958 177.462 229.205 175.729 230.445C172.262 232.92 168.796 235.384 165.377 237.918C164.433 238.613 163.496 239.313 162.575 240.037C161.655 240.761 160.694 241.622 159.72 242.376C159.661 242.417 159.72 242.501 159.798 242.459C160.676 241.865 161.578 241.355 162.481 240.767C163.383 240.18 164.261 239.58 165.163 238.939C166.905 237.713 168.636 236.474 170.357 235.223C173.746 232.76 177.153 230.309 180.489 227.774L183.279 225.643C184.252 224.901 185.285 224.201 186.187 223.376C186.235 223.334 186.187 223.239 186.128 223.281Z" fill="#263238"/>
<path d="M214.376 304.671H263.873C264.283 303.08 264.675 301.513 265.06 299.97C265.512 298.189 265.957 296.462 266.384 294.776C266.479 294.396 266.58 294.022 266.675 293.648L267.631 289.873C267.82 289.125 268.01 288.395 268.188 287.665C268.367 286.935 268.568 286.199 268.746 285.487C268.8 285.303 268.841 285.113 268.895 284.929C268.948 284.745 268.996 284.525 269.043 284.335C269.091 284.145 269.168 283.842 269.233 283.599L269.429 282.839C269.554 282.364 269.672 281.896 269.785 281.438C269.957 280.756 270.129 280.091 270.29 279.45C270.361 279.165 270.438 278.857 270.503 278.607C270.622 278.156 270.735 277.717 270.842 277.284C270.919 276.993 270.99 276.69 271.055 276.435C271.352 275.303 271.625 274.237 271.875 273.235C271.94 272.974 272.005 272.719 272.076 272.464C272.183 272.031 272.29 271.621 272.385 271.217C272.456 270.968 272.522 270.719 272.575 270.481C272.795 269.633 272.996 268.855 273.168 268.166C273.222 267.988 273.263 267.81 273.311 267.644C273.424 267.187 273.531 266.789 273.62 266.457C273.655 266.309 273.685 266.172 273.721 266.047C273.756 265.923 273.792 265.768 273.821 265.65C273.851 265.531 273.869 265.478 273.887 265.4C273.905 265.323 273.952 265.163 273.976 265.062C273.999 264.961 273.976 264.955 274.011 264.914C274.089 264.617 274.124 264.469 274.124 264.469H225.95C225.95 264.469 224.36 269.935 221.796 278.756L220.128 284.549C218.466 290.384 216.495 297.245 214.376 304.671Z" fill="#3B436C"/>
<path d="M255.771 304.67H257.005C258.837 297.093 260.618 289.497 262.347 281.884C262.763 280.032 263.172 278.178 263.576 276.322C263.617 276.15 263.653 275.978 263.689 275.805C263.724 275.633 263.57 275.669 263.546 275.764L263.499 275.936C262.941 277.924 262.377 279.919 261.837 281.913C259.736 289.491 257.713 297.077 255.771 304.67Z" fill="#263238"/>
<path d="M227.511 264.427L229.636 275.07L231.382 283.783L234.349 298.664L234.652 300.189L235.163 302.73L235.542 304.653H263.879C264.283 303.056 264.686 301.489 265.066 299.952C265.517 298.171 265.963 296.444 266.39 294.758C266.485 294.378 266.586 294.004 266.681 293.63L267.636 289.855C267.826 289.107 268.016 288.377 268.194 287.647C268.372 286.917 268.574 286.181 268.752 285.469C268.806 285.285 268.847 285.095 268.901 284.911C268.954 284.727 269.002 284.507 269.049 284.317C269.097 284.127 269.174 283.825 269.239 283.581L269.435 282.822C269.56 282.347 269.678 281.878 269.791 281.421C269.963 280.738 270.135 280.073 270.296 279.432C270.373 279.141 270.444 278.839 270.509 278.589C270.628 278.138 270.741 277.699 270.848 277.266C270.925 276.975 270.996 276.672 271.061 276.417C271.358 275.285 271.631 274.219 271.88 273.218C271.946 272.957 272.011 272.701 272.082 272.446C272.189 272.013 272.296 271.603 272.391 271.2C272.462 270.95 272.527 270.701 272.581 270.464C272.8 269.615 273.002 268.837 273.174 268.149C273.228 267.971 273.269 267.793 273.317 267.626C273.43 267.169 273.536 266.772 273.625 266.439C273.661 266.291 273.691 266.154 273.726 266.03C273.762 265.905 273.798 265.751 273.827 265.632C273.857 265.513 273.875 265.46 273.893 265.383C273.91 265.305 273.958 265.145 273.982 265.044C274.005 264.943 273.982 264.937 274.017 264.896C274.094 264.599 274.13 264.451 274.13 264.451L227.511 264.427Z" fill="#263238"/>
<path d="M227.482 264.403C227.482 264.664 227.678 267.537 228.147 271.924C228.278 273.2 228.432 274.607 228.616 276.114C228.895 278.489 229.251 281.112 229.684 283.884C230.42 288.722 231.388 293.975 232.652 299.151C233.097 301.008 233.59 302.848 234.112 304.647H296.306C295.576 295.15 294.899 286.597 294.371 279.842C293.623 270.345 293.148 264.38 293.148 264.38H236.724L227.482 264.403Z" fill="#3B436C"/>
<path d="M227.636 270.131C227.701 272.357 227.796 274.577 227.944 276.797C228.093 279.171 228.312 281.593 228.627 283.991C228.627 284.08 228.627 284.163 228.627 284.252C228.924 286.496 229.26 288.735 229.636 290.971C229.992 293.054 230.23 295.298 231.179 297.227C231.528 297.971 232.022 298.637 232.634 299.186C233.195 299.697 233.881 300.053 234.622 300.219C234.745 300.248 234.87 300.268 234.996 300.278H235.103C235.079 300.292 235.06 300.312 235.047 300.336C235.035 300.36 235.029 300.387 235.032 300.415C235.032 301.157 235.032 301.916 235.121 302.658C235.121 302.658 235.121 302.724 235.121 302.753C235.198 303.4 235.316 304.035 235.435 304.676H236.504C236.504 304.676 236.504 304.676 236.504 304.641C236.32 303.94 236.159 303.228 235.987 302.522C235.815 301.815 235.56 301.091 235.394 300.355C235.394 300.326 235.364 300.308 235.346 300.284C236.023 300.318 236.694 300.144 237.269 299.784C237.843 299.424 238.293 298.896 238.557 298.272C238.825 297.319 238.842 296.313 238.605 295.352C238.415 294.075 238.225 292.805 238.011 291.529C237.649 289.19 237.18 286.875 236.765 284.549C236.699 284.198 236.64 283.836 236.575 283.486C235.744 278.738 234.871 273.989 233.821 269.324C233.785 269.128 233.738 268.932 233.696 268.73C233.654 268.528 233.459 268.635 233.47 268.76C233.5 269.074 233.536 269.395 233.571 269.704C233.753 271.508 233.969 273.303 234.218 275.087C234.521 277.188 234.723 279.302 235.02 281.403C235.121 282.121 235.221 282.833 235.328 283.551C235.809 287.006 236.314 290.467 236.901 293.909C237.18 295.506 238.177 298.373 235.874 298.871C235.347 298.985 234.796 298.916 234.313 298.675C233.295 298.062 232.534 297.101 232.171 295.969C231.605 294.087 231.196 292.161 230.948 290.211C230.576 288.106 230.241 285.997 229.945 283.884C229.573 281.241 229.177 278.603 228.758 275.972C228.556 274.63 228.342 273.289 228.128 271.947L227.826 270.084C227.843 269.953 227.636 269.989 227.636 270.131Z" fill="#263238"/>
<path d="M282.683 286.656C280.092 286.631 277.514 286.284 275.008 285.623C273.851 285.326 272.711 284.958 271.577 284.584C270.452 284.275 269.399 283.747 268.479 283.029C266.734 281.528 265.921 279.159 265.167 277.052C264.337 274.682 263.664 272.258 263.155 269.799C263.155 269.674 262.953 269.716 262.947 269.828C262.886 272.611 263.238 275.388 263.992 278.067C264.615 280.341 265.458 282.881 267.298 284.478C269.227 286.152 271.856 286.739 274.326 287.048C277.107 287.37 279.918 287.331 282.689 286.929C282.725 286.928 282.76 286.913 282.785 286.887C282.81 286.861 282.823 286.826 282.822 286.79C282.822 286.753 282.807 286.719 282.78 286.694C282.754 286.669 282.719 286.655 282.683 286.656Z" fill="#263238"/>
<path d="M286.987 269.87C287.125 273.348 287.271 276.832 287.426 280.323C287.782 288.435 288.178 296.547 288.613 304.659H289.8C289.266 296.527 288.702 288.397 288.108 280.269C287.851 276.795 287.588 273.322 287.319 269.852C287.317 269.808 287.297 269.767 287.264 269.737C287.231 269.708 287.188 269.692 287.144 269.695C287.1 269.697 287.058 269.717 287.029 269.75C286.999 269.783 286.984 269.826 286.987 269.87Z" fill="#263238"/>
<path d="M216.798 290.17L298.799 283.783C298.799 283.783 282.814 220.937 250.821 187.626C243.443 179.945 234.676 185.507 230.45 190.231C219.724 202.251 216.543 289.903 216.798 290.17Z" fill="#029E82"/>
<path d="M296.929 277.028L217.042 282.531C217.093 281.343 217.154 280.022 217.226 278.566L295.742 273.164C296.158 274.577 296.555 275.871 296.929 277.028Z" fill="#DBDBDB"/>
<path d="M294.649 269.805L217.361 275.147C217.432 273.884 217.506 272.563 217.581 271.182L293.367 265.976C293.826 267.306 294.253 268.582 294.649 269.805Z" fill="#DBDBDB"/>
<path d="M259.534 195.538C276.795 218.313 305.612 277.658 309.85 286.353C312.723 292.289 281.205 307.882 279.869 303.567C278.154 298.046 249.966 225.216 246.036 198.678C243.846 184.165 253.539 187.661 259.534 195.538Z" fill="#D3766A"/>
<path d="M278.997 300.634C279.733 306.006 283.443 316.815 286.209 318.441C288.975 320.068 303.476 319.741 310.788 319.741C318.101 319.741 319.543 317.735 319.419 315.266C319.294 312.796 303.956 312.298 303.956 312.298C303.956 312.298 324.452 318.067 329.604 319.011C334.756 319.955 346.634 322.893 348.349 318.696C349.127 316.803 345.874 314.886 345.874 314.886C345.874 314.886 350.86 316.316 351.649 313.883C352.552 311.117 348.592 309.591 348.592 309.591C348.592 309.591 351.703 310.185 351.78 307.953C351.934 302.908 332.447 300.427 332.447 300.427C332.447 300.427 347.37 307.549 347.88 303.448C348.545 297.75 317.959 291.505 314.777 289.024C312.463 287.129 310.297 285.062 308.295 282.839L278.997 300.634Z" fill="#D3766A"/>
<path d="M319.312 316.536C319.362 316.183 319.325 315.823 319.204 315.488C319.083 315.153 318.881 314.852 318.617 314.613C318.091 314.138 317.489 313.755 316.837 313.479C315.483 312.91 314.08 312.463 312.646 312.144C309.761 311.425 306.811 310.915 303.867 310.173C306.907 310.125 309.94 310.46 312.895 311.17C314.399 311.508 315.849 312.051 317.205 312.785C317.894 313.167 318.499 313.684 318.985 314.304C319.23 314.615 319.389 314.985 319.447 315.376C319.504 315.768 319.458 316.168 319.312 316.536Z" fill="#263238"/>
<path d="M345.874 314.927C343.767 314.423 341.719 313.841 339.612 313.248C337.505 312.654 335.457 312.06 333.415 311.425L327.242 309.526C325.182 308.891 323.123 308.267 321.045 307.656C323.203 307.887 325.342 308.262 327.45 308.778C329.563 309.253 331.646 309.846 333.712 310.464C335.777 311.081 337.837 311.764 339.861 312.517C341.885 313.271 343.903 314.055 345.874 314.927Z" fill="#263238"/>
<path d="M326.013 302.629C328.008 302.755 329.992 303.023 331.949 303.43C333.901 303.815 335.831 304.304 337.73 304.896C339.62 305.468 341.475 306.148 343.286 306.932C345.115 307.703 346.888 308.6 348.593 309.615C346.705 308.974 344.871 308.268 342.995 307.65C341.12 307.033 339.268 306.404 337.38 305.84C335.493 305.276 333.611 304.712 331.718 304.166C329.824 303.62 327.913 303.139 326.013 302.629Z" fill="#263238"/>
<path d="M329.011 297.827C332.219 298.078 335.382 298.744 338.419 299.809C341.471 300.795 344.381 302.178 347.073 303.923C344.046 302.866 341.101 301.744 338.086 300.759C335.071 299.774 332.067 298.794 329.011 297.827Z" fill="#263238"/>
<path d="M312.362 284.448L275.602 299.424C275.602 299.424 247.165 219.934 244.565 201.765C241.965 183.596 247.165 180.675 259.796 195.051C272.427 209.427 312.362 284.448 312.362 284.448Z" fill="#029E82"/>
<path d="M306.171 277.551C305.191 277.83 304.236 278.245 303.28 278.607L300.312 279.723C298.318 280.477 296.336 281.266 294.377 282.062C290.424 283.652 286.47 285.231 282.553 286.887C281.473 287.344 280.398 287.801 279.33 288.282C278.261 288.763 277.128 289.38 276.012 289.885C275.941 289.915 276.012 290.015 276.059 289.986C277.051 289.624 278.072 289.339 279.069 288.977C280.066 288.615 281.099 288.223 282.102 287.825C284.08 287.034 286.059 286.242 288.037 285.451C291.913 283.854 295.795 282.275 299.636 280.596L302.847 279.183C303.969 278.696 305.144 278.251 306.212 277.663C306.227 277.658 306.24 277.647 306.246 277.632C306.253 277.618 306.254 277.601 306.248 277.586C306.243 277.571 306.231 277.559 306.217 277.552C306.202 277.546 306.186 277.545 306.171 277.551Z" fill="#263238"/>
<path d="M271.904 288.995C269.502 282.719 267.189 276.411 264.965 270.072C262.728 263.738 260.573 257.375 258.436 251C256.299 244.626 254.281 238.227 252.328 231.799C250.376 225.37 248.506 218.906 246.939 212.371L248.47 217.173L250.043 221.957L253.225 231.549L259.576 250.662C261.677 257.037 263.784 263.412 265.844 269.805C267.904 276.197 269.934 282.596 271.904 288.995Z" fill="#263238"/>
<path d="M249.443 220.936C249.022 220.574 248.65 220.157 248.339 219.696C248.023 219.245 247.74 218.773 247.49 218.283C246.982 217.305 246.62 216.257 246.416 215.173C246.724 215.626 247.008 216.096 247.265 216.58C247.532 217.055 247.769 217.535 248.019 218.016C248.488 218.978 248.956 219.933 249.443 220.936Z" fill="#263238"/>
<path d="M245.989 165.848C245.989 165.848 245.763 170.97 246.22 172.745C246.677 174.52 250.678 176.384 250.678 176.384C250.678 176.384 246.125 177.998 244.831 177.689C243.537 177.381 241.448 174.063 241.448 174.063C241.448 174.063 243.371 179.375 245.223 179.654C246.369 179.826 242.404 179.868 242.404 179.868C241.089 179.777 239.855 179.204 238.937 178.259C237.572 176.734 245.989 165.848 245.989 165.848Z" fill="#263238"/>
<path d="M232.444 201.942C237.364 201.901 243.609 192.843 245.348 186.32C245.466 185.875 239.958 170.501 239.181 167.326C239.026 166.673 220.519 177.001 220.519 177.001C220.519 177.001 224.08 183.144 225.41 188.664C225.517 189.145 227.689 201.978 232.444 201.942Z" fill="#D3766A"/>
<path d="M220.519 177.019C220.519 177.019 224.08 183.162 225.416 188.682C225.416 188.789 225.576 189.59 225.837 190.754C235.055 187.572 239.638 180.313 241.763 175.381C240.575 171.896 239.495 168.62 239.187 167.344C239.02 166.697 220.519 177.019 220.519 177.019Z" fill="#263238"/>
<path d="M245.733 145.791C248.066 152.985 244.588 173.95 239.513 178.693C232.158 185.566 219.925 186.409 214.043 177.541C208.327 168.946 213.342 141.708 219.029 137.381C227.398 131.006 242.32 135.161 245.733 145.791Z" fill="#D3766A"/>
<path d="M226.336 157.793C226.966 157.767 227.594 157.706 228.218 157.609C228.889 157.638 229.55 157.444 230.099 157.057C230.251 156.902 230.346 156.701 230.369 156.486C230.393 156.271 230.344 156.054 230.23 155.87C229.701 155.11 228.793 154.986 227.921 155.045C227.032 155.071 226.185 155.429 225.547 156.048C225.407 156.198 225.316 156.386 225.283 156.588C225.25 156.789 225.277 156.997 225.361 157.183C225.446 157.369 225.583 157.527 225.757 157.635C225.93 157.744 226.131 157.799 226.336 157.793Z" fill="#263238"/>
<path d="M218.222 157.568C218.222 157.514 218.098 157.615 218.092 157.674C217.902 159.093 217.445 160.69 216.086 160.945C216.044 160.945 216.038 161.028 216.086 161.028C217.682 161.07 218.27 158.945 218.222 157.568Z" fill="#263238"/>
<path d="M217.201 155.882C214.957 155.33 214.025 159.865 216.103 160.369C218.18 160.874 219.083 156.345 217.201 155.882Z" fill="#263238"/>
<path d="M215.717 152.065C216.339 152.179 216.967 152.26 217.598 152.309C218.248 152.49 218.939 152.45 219.563 152.196C219.746 152.08 219.885 151.905 219.957 151.701C220.029 151.496 220.031 151.273 219.961 151.068C219.623 150.207 218.774 149.881 217.895 149.739C217.026 149.567 216.125 149.726 215.367 150.184C215.199 150.298 215.068 150.458 214.99 150.646C214.911 150.833 214.89 151.039 214.927 151.239C214.964 151.439 215.058 151.623 215.199 151.77C215.339 151.917 215.519 152.019 215.717 152.065Z" fill="#263238"/>
<path d="M225.962 172.051C225.564 172.33 225.154 172.727 224.632 172.686C224.109 172.592 223.612 172.39 223.172 172.092C223.163 172.086 223.153 172.082 223.142 172.082C223.131 172.082 223.121 172.086 223.112 172.093C223.104 172.1 223.098 172.11 223.096 172.12C223.094 172.131 223.096 172.142 223.101 172.151C223.256 172.464 223.493 172.729 223.786 172.917C224.08 173.105 224.42 173.21 224.769 173.22C225.069 173.191 225.354 173.075 225.589 172.885C225.823 172.695 225.996 172.44 226.086 172.151C226.122 172.062 226.015 172.015 225.962 172.051Z" fill="#263238"/>
<path d="M225.179 167.575C224.727 168.073 224.178 168.473 223.565 168.749C222.952 169.026 222.289 169.174 221.617 169.184C221.029 169.197 220.441 169.127 219.872 168.976C219.761 168.954 219.651 168.922 219.546 168.881L219.243 168.78C219.17 168.754 219.107 168.704 219.065 168.639C219.023 168.573 219.004 168.495 219.011 168.418C219.016 168.369 219.028 168.321 219.047 168.275V168.151C219.195 167.059 219.575 165.42 219.575 165.42C219.148 165.551 216.97 166.127 217.094 165.563C218.157 160.903 219.338 155.722 221.38 151.317C221.391 151.284 221.415 151.257 221.446 151.241C221.477 151.226 221.513 151.223 221.546 151.234C221.579 151.245 221.606 151.269 221.622 151.3C221.638 151.331 221.64 151.367 221.629 151.4C220.786 155.917 219.154 160.256 218.234 164.785C219.007 164.57 219.806 164.464 220.608 164.471C220.757 164.542 219.819 167.623 219.789 168.121V168.175C221.57 168.715 223.054 168.388 225.03 167.456C225.185 167.361 225.279 167.474 225.179 167.575Z" fill="#263238"/>
<path d="M230.622 159.23C230.216 159.033 229.784 158.895 229.34 158.82C228.883 158.745 228.417 158.735 227.957 158.79C227.472 158.855 227.005 159.012 226.58 159.253C226.146 159.513 225.776 159.868 225.499 160.292L225.001 161.058H225.921C226.574 161.044 227.226 161.098 227.868 161.218C228.535 161.326 229.164 161.602 229.696 162.019C229.373 161.334 228.796 160.802 228.087 160.535C227.39 160.243 226.641 160.094 225.885 160.096L226.307 160.844C226.753 160.237 227.394 159.802 228.123 159.609C228.937 159.379 229.776 159.251 230.622 159.23Z" fill="#263238"/>
<path d="M227.719 162.643C227.045 162.427 226.402 162.124 225.808 161.74C225.671 161.634 225.149 161.183 225.214 161.07C225.315 160.735 225.46 160.415 225.647 160.12C225.374 160.376 225.155 160.685 225.006 161.028C225.037 161.227 225.11 161.417 225.222 161.584C225.334 161.751 225.481 161.892 225.653 161.996C226.273 162.39 226.985 162.613 227.719 162.643Z" fill="#263238"/>
<path d="M245.389 165.527C241.614 164.079 240.807 150.908 240.807 150.908L239.424 157.983C237.731 156.284 236.411 154.25 235.548 152.012C234.753 149.638 235.346 146.462 235.857 144.925C235.857 144.925 230.984 148.112 225.914 148.973C224.051 149.293 212.263 148.468 212.322 147.631C212.541 145.15 216.892 136.977 220.472 134.983C224.591 132.685 234.034 130.003 241.775 133.795C247.965 136.823 246.903 141.725 247.995 145.316C247.995 145.316 252.322 149.471 252.382 151.412C252.5 155.573 246.778 166.062 245.389 165.527Z" fill="#263238"/>
<path d="M226.295 166.958C224.781 166.425 223.54 165.314 222.844 163.867C222.149 162.42 222.055 160.757 222.585 159.242C222.96 158.172 223.627 157.229 224.511 156.519C225.395 155.81 226.46 155.363 227.586 155.23C228.711 155.096 229.852 155.281 230.877 155.763C231.903 156.246 232.772 157.007 233.387 157.959C234.001 158.912 234.336 160.017 234.353 161.151C234.37 162.284 234.069 163.399 233.483 164.37C232.898 165.34 232.051 166.127 231.041 166.64C230.03 167.153 228.896 167.372 227.767 167.273C227.265 167.231 226.77 167.125 226.295 166.958ZM223.327 159.509C222.984 160.488 222.939 161.547 223.198 162.552C223.457 163.557 224.008 164.462 224.781 165.154C225.555 165.846 226.516 166.293 227.543 166.438C228.571 166.584 229.618 166.421 230.553 165.971C231.489 165.522 232.269 164.805 232.797 163.911C233.325 163.018 233.576 161.988 233.518 160.952C233.461 159.916 233.098 158.92 232.474 158.091C231.851 157.261 230.996 156.635 230.017 156.292C229.604 156.147 229.175 156.054 228.74 156.013C227.578 155.915 226.417 156.204 225.437 156.837C224.458 157.47 223.716 158.409 223.327 159.509Z" fill="#029E82"/>
<path d="M214.043 164.376C211.586 163.99 210.013 160.993 210.529 157.692C210.741 156.197 211.413 154.805 212.452 153.71C212.869 153.211 213.408 152.829 214.017 152.601C214.625 152.373 215.282 152.306 215.924 152.407C216.566 152.508 217.17 152.773 217.679 153.177C218.188 153.581 218.584 154.11 218.827 154.713C219.476 156.076 219.684 157.607 219.421 159.093C218.928 162.215 216.732 164.507 214.417 164.435C214.291 164.424 214.166 164.404 214.043 164.376ZM213.022 154.285C212.099 155.266 211.507 156.512 211.331 157.847C210.879 160.708 212.156 163.29 214.168 163.604C216.18 163.919 218.186 161.853 218.637 158.998C218.872 157.679 218.687 156.319 218.109 155.11C217.902 154.636 217.585 154.219 217.183 153.894C216.781 153.568 216.307 153.344 215.8 153.241C215.698 153.225 215.595 153.215 215.491 153.211C215.028 153.208 214.569 153.301 214.144 153.485C213.719 153.669 213.337 153.94 213.022 154.279V154.285Z" fill="#029E82"/>
<path d="M222.609 159.966L223.244 159.467C222.502 158.523 220.632 157.093 218.863 158.327L219.332 158.986C220.917 157.864 222.543 159.883 222.609 159.966Z" fill="#029E82"/>
<path d="M248.714 166.97L249.491 166.756C249.39 166.388 248.453 163.195 246.737 162.53C245.14 161.936 234.308 160.714 233.845 160.66L233.756 161.467C236.866 161.812 245.218 162.815 246.452 163.284C247.58 163.717 248.464 166.091 248.714 166.97Z" fill="#029E82"/>
<path d="M241.228 163.954C241.228 163.954 245.917 157.17 248.998 158.838C252.079 160.506 248.577 170.323 244.98 171.682C244.53 171.888 244.044 172.001 243.549 172.015C243.055 172.028 242.563 171.941 242.103 171.76C241.643 171.579 241.225 171.307 240.872 170.96C240.52 170.613 240.241 170.199 240.053 169.741L241.228 163.954Z" fill="#D3766A"/>
<path d="M247.923 161.628C247.936 161.628 247.948 161.633 247.957 161.641C247.966 161.65 247.971 161.662 247.971 161.675C247.971 161.688 247.966 161.7 247.957 161.709C247.948 161.718 247.936 161.723 247.923 161.723C245.401 162.755 244.083 165.106 243.175 167.539C243.923 166.602 244.956 166.079 246.202 166.946C246.267 166.993 246.202 167.094 246.131 167.082C245.687 166.943 245.21 166.944 244.767 167.086C244.323 167.229 243.935 167.505 243.656 167.878C243.19 168.504 242.792 169.179 242.469 169.89C242.35 170.116 241.94 169.997 242.023 169.736V169.682C241.988 166.483 244.469 161.966 247.923 161.628Z" fill="#263238"/>
<path d="M225.577 189.519L231.637 199.948L244.232 182.592L249.076 186.605C249.076 186.605 238.166 211.962 237.929 210.911L231.566 201.942L225.28 210.044L224.164 192.517L225.577 189.519Z" fill="#EBEBEB"/>
<path d="M224.039 192.707C224.039 192.6 224.217 192.523 224.229 192.647C224.644 195.858 225.315 207.112 225.541 209.083L225.57 209.047C225.808 208.703 231.506 201.859 231.565 201.925C232.859 203.337 237.501 209.807 237.857 210.424C239.466 206.37 246.44 191.757 248.494 187.839C248.503 187.814 248.522 187.794 248.547 187.783C248.571 187.772 248.599 187.771 248.624 187.78C248.65 187.789 248.67 187.809 248.681 187.833C248.692 187.858 248.693 187.885 248.684 187.911C247.366 192.125 238.403 211.843 238.225 211.819C238.118 211.926 232.349 203.919 231.553 202.322C230.728 203.759 225.072 211.356 225.024 210.929C224.698 208.4 224.039 195.413 224.039 192.707Z" fill="#263238"/>
<path d="M173.467 166.257C174.006 166.763 174.59 167.218 175.212 167.617C175.355 167.712 175.509 167.801 175.663 167.89C175.818 167.979 175.936 168.05 176.079 168.121L176.37 168.276L180.756 170.436C180.356 170.244 179.97 170.026 179.599 169.783C179.279 169.58 178.97 169.36 178.673 169.124C178.394 168.911 178.121 168.673 177.848 168.424C171.188 162.215 171.645 149.293 178.868 139.565C184.436 132.056 192.39 128.637 198.8 130.305C199.598 130.508 200.372 130.794 201.109 131.16L196.723 128.993C196.711 128.989 196.699 128.989 196.687 128.993C196.503 128.893 196.307 128.809 196.094 128.726C195.88 128.643 195.761 128.584 195.589 128.525L195.358 128.441L194.966 128.311L194.74 128.246C190.829 127.1 186.3 127.901 182.086 130.394L181.445 130.786C178.732 132.55 176.364 134.795 174.458 137.41C167.264 147.139 166.801 160.061 173.467 166.257Z" fill="#3B436C"/>
<path d="M205.087 164.002C197.744 173.891 186.858 177.731 178.97 173.849L174.589 171.683C182.442 175.571 193.334 171.724 200.706 161.835C209.171 150.421 209.705 135.25 201.893 127.967C201.26 127.376 200.575 126.843 199.846 126.376C199.409 126.096 198.957 125.84 198.492 125.61L202.873 127.771C203.336 128.008 203.793 128.264 204.238 128.542C204.964 129.012 205.647 129.544 206.28 130.133C214.091 137.422 213.557 152.606 205.087 164.002Z" fill="#3B436C"/>
<path d="M171.206 169.326C171.839 169.915 172.522 170.447 173.248 170.917C173.78 171.257 174.336 171.561 174.91 171.825C174.927 171.829 174.946 171.829 174.963 171.825C175.207 171.938 175.444 172.039 175.688 172.134C175.836 172.199 175.978 172.246 176.133 172.3C178.227 173.029 180.454 173.298 182.662 173.089C183.166 173.048 183.671 172.982 184.17 172.899C184.942 172.771 185.705 172.595 186.455 172.371L187.22 172.134C187.731 171.961 188.241 171.772 188.74 171.54C189.239 171.309 189.767 171.095 190.265 170.84C190.764 170.584 191.275 170.311 191.767 170.015C195.266 167.899 198.307 165.106 200.712 161.8C209.17 150.391 209.711 135.22 201.899 127.931C201.579 127.628 201.24 127.337 200.902 127.082C200.564 126.827 200.214 126.572 199.857 126.34C199.656 126.216 199.454 126.091 199.264 125.972L199.121 125.895C198.955 125.794 198.777 125.705 198.605 125.616C190.734 121.657 179.795 125.497 172.429 135.422C163.923 146.872 163.377 162.037 171.206 169.326ZM174.489 137.41C176.394 134.795 178.762 132.55 181.475 130.786L182.116 130.394C186.33 127.901 190.859 127.1 194.771 128.245L194.996 128.311L195.388 128.441L195.619 128.524C195.792 128.584 195.952 128.655 196.124 128.726C196.296 128.798 196.51 128.892 196.717 128.993C196.729 128.989 196.742 128.989 196.753 128.993C197.493 129.351 198.19 129.791 198.831 130.305C199.116 130.524 199.389 130.758 199.65 131.006C206.309 137.22 205.858 150.148 198.641 159.877C193.073 167.379 185.113 170.798 178.703 169.124C177.802 168.892 176.931 168.556 176.109 168.121C175.966 168.05 175.83 167.973 175.693 167.89C175.557 167.807 175.385 167.712 175.242 167.617C174.61 167.219 174.016 166.764 173.468 166.257C166.802 160.061 167.265 147.139 174.489 137.41Z" fill="#3A466D"/>
<path opacity="0.4" d="M177.854 168.436C178.127 168.685 178.4 168.923 178.679 169.136C185.09 170.81 193.049 167.391 198.617 159.888C205.835 150.16 206.286 137.232 199.626 131.018C199.366 130.77 199.092 130.536 198.807 130.317C192.396 128.649 184.443 132.098 178.875 139.577C171.651 149.305 171.194 162.227 177.854 168.436Z" fill="white"/>
<g opacity="0.3">
<path d="M188.573 131.492L202.124 153.793C202.719 152.395 203.201 150.952 203.567 149.477L191.939 130.359C190.782 130.624 189.654 131.003 188.573 131.492Z" fill="#EBEBEB"/>
<path d="M196.615 129.955L204.332 142.663C204.201 138.022 202.646 133.831 199.631 131.018C199.37 130.77 199.097 130.536 198.812 130.317C198.092 130.131 197.357 130.01 196.615 129.955Z" fill="#EBEBEB"/>
<path d="M186.157 132.769L200.7 156.665C201.032 156.072 201.353 155.478 201.632 154.855L187.671 131.914C187.166 132.175 186.662 132.454 186.157 132.769Z" fill="#EBEBEB"/>
<path d="M173.33 153.199C173.202 154.207 173.141 155.222 173.146 156.238L181.225 169.516C181.898 169.57 182.575 169.57 183.249 169.516L173.33 153.199Z" fill="#EBEBEB"/>
<path d="M175.384 145.649L188.959 167.949C191.162 166.936 193.191 165.582 194.971 163.937L179.592 138.657C179.349 138.953 179.111 139.25 178.874 139.577C177.475 141.456 176.304 143.494 175.384 145.649Z" fill="#EBEBEB"/>
</g>
<path d="M113.386 76.9854H112.792V104.426H113.386V76.9854Z" fill="#263238"/>
<path d="M113.088 77.282C112.649 77.2843 112.218 77.1561 111.852 76.9137C111.485 76.6712 111.199 76.3253 111.029 75.9199C110.859 75.5144 110.813 75.0677 110.898 74.6363C110.982 74.2049 111.193 73.8082 111.503 73.4966C111.813 73.1849 112.208 72.9723 112.639 72.8857C113.07 72.7991 113.517 72.8423 113.923 73.01C114.33 73.1777 114.677 73.4622 114.921 73.8275C115.166 74.1928 115.296 74.6225 115.296 75.0621C115.295 75.6483 115.062 76.2103 114.649 76.6259C114.235 77.0415 113.675 77.2773 113.088 77.282ZM113.088 73.4357C112.766 73.4333 112.451 73.5267 112.182 73.704C111.913 73.8813 111.702 74.1344 111.577 74.4314C111.452 74.7284 111.419 75.0557 111.48 75.372C111.541 75.6883 111.695 75.9792 111.922 76.2078C112.149 76.4365 112.439 76.5925 112.755 76.6563C113.071 76.72 113.398 76.6885 113.696 76.5657C113.994 76.443 114.249 76.2345 114.428 75.9668C114.607 75.6991 114.703 75.3842 114.703 75.0621C114.703 74.6328 114.533 74.2209 114.231 73.9162C113.928 73.6116 113.518 73.4388 113.088 73.4357Z" fill="#263238"/>
<path d="M140.233 73.139H118.918V74.1006H140.233V73.139Z" fill="#263238"/>
<path d="M130.985 75.0621H118.918V76.0237H130.985V75.0621Z" fill="#263238"/>
<path d="M195.007 80.5408H190.418V85.129H195.007V80.5408Z" fill="#029E82"/>
<path d="M219.248 80.5408H197.933V81.5023H219.248V80.5408Z" fill="#263238"/>
<path d="M210 82.4639H197.933V83.4254H210V82.4639Z" fill="#263238"/>
<path d="M195.007 89.8953H190.418V94.4835H195.007V89.8953Z" fill="#3B436C"/>
<path d="M219.248 89.8953H197.933V90.8568H219.248V89.8953Z" fill="#263238"/>
<path d="M210 91.8184H197.933V92.7799H210V91.8184Z" fill="#263238"/>
<path d="M195.007 99.2557H190.418V103.844H195.007V99.2557Z" fill="#029E82"/>
<path d="M219.248 99.2557H197.933V100.217H219.248V99.2557Z" fill="#263238"/>
<path d="M210 101.179H197.933V102.14H210V101.179Z" fill="#263238"/>
<path d="M195.007 108.61H190.418V113.198H195.007V108.61Z" fill="#3A466D"/>
<path d="M219.248 108.61H197.933V109.572H219.248V108.61Z" fill="#263238"/>
<path d="M210 110.533H197.933V111.495H210V110.533Z" fill="#263238"/>
<path d="M105.497 120.861H105.586H105.67L107.326 120.268H107.426L108.37 119.935L108.483 119.9L109.985 119.378L110.103 119.33L111.023 119.01L111.16 118.968L112.887 118.374L113.03 118.327L114.068 117.965L114.229 117.911L115.523 117.46L115.695 117.401L116.829 117.003L117.013 116.944L118.58 116.398L118.74 116.338L119.927 115.923L120.081 115.87L121.227 115.472L121.363 115.424L122.669 114.967L122.794 114.92L123.928 114.528L124.04 114.492L125.631 113.935L125.75 113.899L127.424 113.305L127.513 113.27L128.795 112.825H128.878L130.54 112.231H130.611L132.012 111.744H132.077L133.543 111.234L132.148 110.783H132.089L130.475 110.266H130.403L129.02 109.821H128.943L127.162 109.228H127.062L125.874 108.848L125.768 108.812L123.174 107.975L123.043 107.934L122.42 107.494L122.283 107.453L119.749 106.634L119.595 106.586L119.037 106.408L118.87 106.361L116.271 105.536L116.069 105.476L115.475 105.286L115.285 105.227L112.549 104.343L112.347 104.283L112.033 104.182L111.843 104.117L108.827 103.149L108.649 103.09L108.376 103.001L108.216 102.954L105.207 101.98C105.207 102.063 105.153 102.146 105.129 102.235C105.129 102.307 105.082 102.378 105.064 102.449V102.508C105.034 102.592 105.011 102.681 104.987 102.764C104.392 104.895 104.024 107.084 103.889 109.293V109.56C103.832 110.57 103.832 111.583 103.889 112.593C103.889 112.789 103.889 112.979 103.924 113.187C104.133 115.8 104.661 118.377 105.497 120.861Z" fill="#029E82"/>
<path d="M132.154 110.64L132.083 111.602H132.017L132.095 110.599L132.154 110.64ZM130.409 110.082L130.545 112.136H130.617L130.48 110.13L130.409 110.082ZM128.8 112.747H128.883L129.026 109.667H128.949L128.8 112.747ZM127.085 109.014L127.429 113.228L127.518 113.193L127.186 109.038L127.085 109.014ZM125.637 113.846L125.755 113.81L125.904 108.634L125.797 108.598L125.637 113.846ZM123.203 107.762L123.072 107.72L123.512 111.139L123.933 114.439L124.046 114.404L123.607 111.121L123.203 107.762ZM122.675 114.884L122.799 114.837L122.42 107.494L122.283 107.453L122.675 114.884ZM119.754 106.658L119.6 106.61L121.232 115.383L121.369 115.335L119.754 106.658ZM118.858 106.373L119.915 115.834L120.069 115.781L119.024 106.42L118.858 106.373ZM116.252 105.53L116.051 105.47L118.561 116.309L118.722 116.25L116.252 105.565V105.53ZM115.297 105.221L116.828 116.914L117.012 116.855L115.487 105.28L115.297 105.221ZM112.329 104.277L115.493 117.371L115.665 117.312L112.56 104.337L112.329 104.277ZM111.824 104.111L114.038 117.876L114.199 117.822L112.014 104.17L111.824 104.111ZM108.631 103.084L112.857 118.285L113 118.238L108.839 103.144L108.631 103.084ZM108.198 102.948L110.993 118.932L111.13 118.891L108.388 102.995L108.198 102.948ZM105.058 102.455L109.955 119.3L110.073 119.253L105.153 102.235C105.153 102.307 105.105 102.378 105.087 102.449L105.058 102.455ZM104.963 102.776L108.34 119.858L108.453 119.823L105.07 102.52C105.04 102.603 105.016 102.693 104.993 102.776H104.963ZM103.877 109.572L107.325 120.22H107.426L103.865 109.334V109.602L103.877 109.572ZM103.924 113.187L105.586 120.82H105.669L103.888 112.623C103.894 112.801 103.906 112.991 103.924 113.187Z" fill="#DBDBDB"/>
<path d="M105.497 120.861L107.878 120.606L135.924 110.836L133.549 111.091L105.497 120.861Z" fill="#37496E"/>
<path d="M133.549 111.092L135.924 110.836L107.605 101.725L105.224 101.98L133.549 111.092Z" fill="#37496E"/>
<path d="M149.237 80.5526L149.433 111.109L120.752 101.85C124.794 88.9872 135.935 80.6416 149.237 80.5526Z" fill="#3B436C"/>
<path d="M148.454 80.5645L149.237 81.894V82.0721L148.347 80.5704L148.454 80.5645ZM147.344 80.6238L149.261 84.8856V84.6482L147.48 80.6119L147.344 80.6238ZM144.014 81.0215L149.291 89.6875V89.4501L144.139 81.0037L144.014 81.0215ZM143.302 81.158L149.32 94.0205V93.7178L143.42 81.1402C143.38 81.1428 143.341 81.1488 143.302 81.158ZM145.32 91.6878L149.344 97.6235V97.4039L145.45 91.6404L140.737 84.6422L139.159 82.3095C139.11 82.3237 139.062 82.3416 139.016 82.363L140.613 84.7372L145.32 91.6878ZM138.66 82.4935L149.344 101.238V100.906L138.802 82.4342L138.66 82.4935ZM135.051 84.1436L149.374 102.924V102.639L135.211 84.0546L135.051 84.1436ZM134.725 84.3217L149.403 106.794V106.438L134.885 84.2327C134.836 84.2767 134.782 84.3146 134.725 84.3455V84.3217ZM131.614 86.3339L149.421 107.702V107.388L131.792 86.2092L131.614 86.3339ZM131.252 86.6129L147.522 110.492L147.872 110.605L131.424 86.4823C131.363 86.5205 131.306 86.5642 131.252 86.6129ZM128.569 88.9278L146.655 110.213L147.065 110.344L128.724 88.7794C128.675 88.8318 128.624 88.8814 128.569 88.9278ZM128.279 89.2246L142.524 108.877L142.839 108.978L128.427 89.094L128.279 89.2246ZM125.946 91.8659L140.969 108.373L141.337 108.498L126.059 91.7235L125.946 91.8659ZM125.578 92.3526L136.434 106.901L136.707 106.99L125.691 92.2042C125.649 92.2517 125.613 92.3051 125.578 92.3526ZM123.72 95.1424L133.941 106.106L134.244 106.206L123.797 95.0296C123.769 95.0653 123.743 95.103 123.72 95.1424ZM123.441 95.6232L130.849 105.12L131.074 105.191L123.512 95.4926C123.486 95.5347 123.462 95.5783 123.441 95.6232ZM121.886 98.775L126.896 103.838L127.169 103.933L121.951 98.6682C121.927 98.7024 121.905 98.738 121.886 98.775ZM121.613 99.4279L124.581 103.09L124.771 103.155L121.648 99.3092C121.634 99.348 121.622 99.3876 121.613 99.4279Z" fill="#263238"/>
<path d="M149.433 111.109L178.114 120.363C176.237 126.477 172.466 131.836 167.345 135.666C162.224 139.496 156.017 141.6 149.623 141.672C146.461 141.688 143.318 141.202 140.31 140.229C130.813 137.161 124.004 130.347 120.865 120.737L149.433 111.109Z" fill="#029E82"/>
<path d="M178.114 120.363H180.488C178.611 126.476 174.84 131.834 169.719 135.664C164.597 139.493 158.391 141.595 151.997 141.666H149.623C156.017 141.594 162.222 139.492 167.344 135.663C172.465 131.833 176.236 126.476 178.114 120.363Z" fill="#029E82"/>
<g opacity="0.1">
<path d="M178.114 120.363H180.488C178.611 126.476 174.84 131.834 169.719 135.664C164.597 139.493 158.391 141.595 151.997 141.666H149.623C156.017 141.594 162.222 139.492 167.344 135.663C172.465 131.833 176.236 126.476 178.114 120.363Z" fill="black"/>
</g>
<path opacity="0.1" d="M176.82 119.959L177.146 123.022C177.149 123.034 177.149 123.046 177.146 123.058L176.814 119.953L176.82 119.959ZM173.531 118.897L175.941 125.586L173.567 118.932L173.531 118.897ZM172.344 118.523L173.804 129.011V128.97L172.344 118.535V118.523ZM170.273 117.852L173.336 129.658V129.617L170.291 117.876L170.273 117.852ZM169.465 117.597L171.092 132.317L171.139 132.264L169.549 117.585L169.465 117.597ZM167.02 116.808L170.581 132.834L170.635 132.78L167.073 116.843L167.02 116.808ZM166.426 116.612L167.869 135.244L167.946 135.19L166.504 116.635L166.426 116.612ZM164.189 115.893L164.088 115.858L167.435 135.582L167.513 135.523L164.189 115.893ZM163.304 115.609L163.56 138.087L163.66 138.027L163.405 115.638L163.304 115.609ZM160.746 114.783L160.615 114.736L163.227 138.259L163.334 138.205L160.746 114.783ZM159.832 139.784L159.974 139.731L160.17 114.599L160.052 114.552L159.832 139.784ZM157.636 113.78L157.487 113.727L159.577 139.879L159.707 139.832L157.636 113.78ZM156.253 140.877C156.309 140.868 156.364 140.856 156.419 140.841L157.25 113.62L157.096 113.573L156.253 140.877ZM154.205 112.641L154.021 112.581L155.95 140.948L156.116 140.912L154.205 112.641ZM151.308 111.703L151.095 111.638L152.104 141.553H152.3H152.495L153.766 112.534L153.582 112.474L152.3 141.518L151.308 111.703ZM147.747 111.703L147.551 111.762L148.257 141.654H148.441H148.649L150.845 111.543L150.632 111.477L148.459 141.458L147.747 111.703ZM144.465 141.25L144.637 141.28L147.367 111.828L147.171 111.893L144.465 141.25ZM144.856 112.676L144.298 141.221H144.465L145.017 112.593L144.856 112.676ZM140.31 140.224H140.357H140.446L144.666 112.694L144.494 112.753L140.31 140.224ZM140.227 138.953L140.132 140.188L140.274 140.235L140.369 138.959L140.678 134.947L141.271 126.916L142.286 113.543L142.156 113.59L141.129 126.91L140.535 134.935L140.227 138.953ZM135.852 138.431L135.959 138.484L141.841 113.703L141.699 113.751L135.852 138.431ZM138.392 114.867L135.478 138.223L135.585 138.277L138.476 114.801L138.392 114.867ZM132.457 136.466L132.534 136.52L138.007 114.991L137.894 115.027L132.457 136.466ZM130.718 117.472L128.741 133.499C128.764 133.513 128.784 133.531 128.8 133.552L130.771 117.443L130.718 117.472ZM125.969 130.43L126.005 130.477L130.16 117.668H130.1L125.969 130.43ZM134.7 116.137L131.917 136.075C131.939 136.096 131.965 136.114 131.994 136.128L134.736 116.054L134.7 116.137ZM129.157 133.878L129.21 133.92L132.178 123.574L134.03 117.045L134.243 116.291H134.16L133.929 116.992L132.077 123.521L129.157 133.878ZM128.112 118.297L125.637 129.967C125.636 129.983 125.636 129.998 125.637 130.014L128.124 118.285L128.112 118.297ZM124.058 127.676C124.054 127.687 124.054 127.7 124.058 127.711L127.578 118.499H127.536L124.058 127.676ZM125.672 119.146L123.684 127.058V127.094L125.678 119.14L125.672 119.146ZM122.799 120.12L121.719 123.087L122.805 120.12H122.799ZM120.924 120.915C120.973 120.837 121.027 120.762 121.084 120.689L120.924 120.915Z" fill="black"/>
<path d="M149.237 80.5526C165.856 80.4458 179.413 94.0384 179.508 110.913C179.556 114.119 179.081 117.31 178.102 120.363L149.421 111.109L149.237 80.5526Z" fill="#3A466D"/>
<path d="M175.781 96.3473L175.882 96.5432L149.391 104.996V104.764L175.781 96.3473ZM175.959 96.6856L149.415 108.088V108.302L176.054 96.8696C176.026 96.8065 175.994 96.7451 175.959 96.6856ZM149.374 101.434V101.642L173.71 93.1005C173.673 93.0364 173.629 92.9767 173.579 92.9224L149.374 101.434ZM173.84 93.2489L149.385 104.022V104.265L173.953 93.427C173.923 93.3557 173.876 93.2964 173.84 93.2489ZM149.32 94.1036V94.2461L167.869 86.9808L167.744 86.8799L149.32 94.1036ZM168.273 87.3132L149.338 96.6916V96.8696L168.397 87.3726C168.358 87.349 168.316 87.3291 168.273 87.3132ZM149.344 97.5225V97.6947L170.961 89.7884C170.919 89.74 170.873 89.6944 170.825 89.6519L149.344 97.5225ZM171.306 90.1327L149.368 100.668V100.876L171.413 90.2395C171.371 90.198 171.329 90.1505 171.282 90.1089L171.306 90.1327ZM149.273 86.7197V86.8028L158.811 82.0899H158.704L149.273 86.7197ZM159.957 82.4935L149.314 89.0227V89.0939L160.07 82.5054L159.957 82.4935ZM149.296 90.4057V90.5185L164.058 84.4048C164.017 84.3776 163.973 84.3537 163.928 84.3336L149.296 90.4057ZM164.765 84.8203L149.332 93.0886V93.2489L164.895 84.9034L164.765 84.8203ZM149.255 83.1583V83.2177L153.689 80.8434H153.6L149.255 83.1583ZM155.511 81.1758L149.267 85.4554V85.5326L155.606 81.1877C155.575 81.1823 155.543 81.1804 155.511 81.1817V81.1758ZM149.243 81.615V81.6685L150.727 80.5763H150.65L149.243 81.615ZM179.402 113.822L167.258 116.867L167.412 116.92L179.402 113.917C179.402 113.917 179.402 113.857 179.402 113.822ZM162.954 115.478L163.18 115.549L179.432 113.377C179.432 113.341 179.432 113.311 179.432 113.276L162.954 115.478ZM178.808 117.769L174.012 119.039L174.125 119.075L178.796 117.84C178.803 117.817 178.807 117.793 178.808 117.769ZM171.555 118.25L171.721 118.303L178.844 117.555C178.847 117.532 178.847 117.508 178.844 117.484L171.555 118.25ZM179.491 109.685L160.556 114.7L160.752 114.76L179.491 109.803V109.685ZM155.095 112.931L155.38 113.026L179.473 109.412C179.476 109.37 179.476 109.328 179.473 109.287L155.095 112.931ZM166.13 108.628L153.801 112.516L154.027 112.593L166.177 108.765L174.196 106.236L178.215 104.978L178.88 104.77C178.88 104.722 178.88 104.675 178.88 104.622L178.203 104.835L174.19 106.1L166.13 108.628ZM149.724 111.204L150.026 111.299L178.808 104.556C178.801 104.508 178.791 104.461 178.779 104.414L149.724 111.204ZM177.621 100.431L149.451 111.115L149.7 111.192L177.687 100.603C177.67 100.544 177.648 100.486 177.621 100.431ZM149.409 108.545V108.747L177.621 100.372C177.606 100.312 177.584 100.254 177.556 100.2L149.409 108.545Z" fill="#3B436C"/>
<path d="M149.237 80.5525H151.611C168.231 80.4397 181.794 94.0323 181.883 110.907C181.932 114.115 181.454 117.309 180.47 120.363H178.096C179.075 117.31 179.55 114.119 179.502 110.913C179.401 94.0382 165.85 80.4456 149.237 80.5525Z" fill="#3B436C"/>
<path d="M292.042 119.449C292.043 123.028 291.049 126.537 289.172 129.583C287.294 132.63 284.607 135.095 281.41 136.703C278.213 138.312 274.632 138.999 271.066 138.69C267.501 138.381 264.091 137.087 261.218 134.953L251.757 137.369L255.698 128.56C254.313 125.971 253.536 123.1 253.427 120.166C253.317 117.232 253.878 114.311 255.067 111.626C256.256 108.941 258.042 106.563 260.288 104.671C262.535 102.78 265.183 101.426 268.031 100.712C270.879 99.9981 273.853 99.9429 276.726 100.551C279.599 101.159 282.295 102.413 284.61 104.22C286.925 106.026 288.798 108.337 290.086 110.976C291.373 113.615 292.043 116.513 292.042 119.449Z" fill="white"/>
<path d="M292.042 119.449C292.04 123.028 291.048 126.537 289.176 129.587C288.711 130.347 288.2 131.076 287.644 131.771C287.067 132.448 286.451 133.09 285.798 133.695C285.477 134.005 285.14 134.298 284.789 134.573L283.727 135.392C283.371 135.659 282.973 135.867 282.599 136.11L282.005 136.461C281.809 136.573 281.608 136.662 281.412 136.763L280.225 137.357L278.966 137.826C278.55 137.986 278.124 138.117 277.69 138.218C277.257 138.318 276.829 138.467 276.39 138.532C275.513 138.706 274.624 138.815 273.731 138.859C272.838 138.93 271.941 138.93 271.048 138.859C267.448 138.575 263.999 137.292 261.088 135.155L261.266 135.19L251.817 137.624L251.294 137.761L251.514 137.262L255.431 128.442V128.697C254.011 126.076 253.222 123.159 253.128 120.179C252.983 116.468 253.905 112.792 255.785 109.589C257.665 106.386 260.425 103.789 263.737 102.107C267.048 100.425 270.773 99.728 274.469 100.099C278.164 100.47 281.676 101.894 284.587 104.2C286.904 106.011 288.779 108.325 290.07 110.967C291.362 113.608 292.036 116.509 292.042 119.449ZM292.042 119.449C292.046 116.522 291.378 113.633 290.091 111.004C288.803 108.375 286.93 106.076 284.616 104.284C282.301 102.491 279.607 101.253 276.739 100.665C273.872 100.076 270.908 100.153 268.074 100.888C265.26 101.61 262.647 102.964 260.435 104.847C258.247 106.745 256.499 109.096 255.313 111.739C254.152 114.388 253.608 117.267 253.722 120.157C253.836 123.047 254.605 125.874 255.972 128.424L256.043 128.548L255.983 128.673L252.018 137.476L251.722 137.119L261.219 134.745H261.314L261.397 134.81C264.228 136.943 267.596 138.246 271.125 138.574C272.003 138.659 272.887 138.673 273.767 138.615C274.651 138.58 275.531 138.484 276.402 138.33C276.841 138.271 277.263 138.129 277.69 138.028C278.124 137.938 278.551 137.815 278.966 137.66L280.213 137.214L281.4 136.651C281.596 136.55 281.803 136.467 281.993 136.36L282.587 136.015C282.967 135.784 283.359 135.576 283.721 135.315L284.789 134.526C285.138 134.254 285.473 133.965 285.792 133.659C286.45 133.062 287.068 132.424 287.644 131.748C288.202 131.059 288.715 130.335 289.182 129.581C291.053 126.533 292.043 123.026 292.042 119.449Z" fill="#263238"/>
<path d="M269.6 130.94L260.945 122.179L263.848 119.307L268.905 124.423L279.411 107.958L282.86 110.154L269.6 130.94Z" fill="#029E82"/>
</svg>
